<svg xmlns="http://www.w3.org/2000/svg" viewBox="0 0 93.84 48.33"><defs><style>.cls-1{fill:#202020;}</style></defs><g id="圖層_2" data-name="圖層 2"><g id="圖層_1-2" data-name="圖層 1"><path class="cls-1" d="M6.25,9.39c.17,0,.56,0,.48-.07-.23,0-.45,0-.67,0Z"/><path class="cls-1" d="M7.34,8.67a2.92,2.92,0,0,0-1.43.42A5.51,5.51,0,0,1,7,8.86c.11.07-.16.2-.41.24.17,0-.12.12.3.1s.46-.39,0-.4A1.76,1.76,0,0,1,7.34,8.67Z"/><path class="cls-1" d="M7,12.44l-.09-.07A.18.18,0,0,0,7,12.44Z"/><path class="cls-1" d="M13.56,9.33a.12.12,0,0,0,0,.16C13.6,9.42,13.61,9.36,13.56,9.33Z"/><path class="cls-1" d="M15.13,8.65l-.1.06C15.1,8.71,15.16,8.7,15.13,8.65Z"/><path class="cls-1" d="M7,12.44c.08.06.16.13.24.18C7.24,12.41,7.12,12.48,7,12.44Z"/><path class="cls-1" d="M5.51,8.73l.15-.1-.08,0Z"/><path class="cls-1" d="M3.15,11.43l-.06-.06-.26.1Z"/><path class="cls-1" d="M2.1,8.34c0,.08.53.13.78.16-.23,0-.34-.1-.38-.17A1.85,1.85,0,0,0,2.1,8.34Z"/><path class="cls-1" d="M6.48,6.64l.11,0Z"/><path class="cls-1" d="M5.23,13a1.91,1.91,0,0,0,0,.2A.71.71,0,0,0,5.23,13Z"/><path class="cls-1" d="M8.75,7.4l-.08,0Z"/><polygon class="cls-1" points="8.94 9.1 8.9 9.14 8.84 9.47 8.94 9.1"/><path class="cls-1" d="M16.79,5.46v0C16.85,5.58,16.83,5.52,16.79,5.46Z"/><path class="cls-1" d="M.52,11.48c.4-.4.75.26,1.17-.28C1.49,11.3.72,11.05.52,11.48Z"/><path class="cls-1" d="M5.54,8.66l0,0S5.52,8.67,5.54,8.66Z"/><path class="cls-1" d="M1.69,11.2h0l0,0Z"/><path class="cls-1" d="M11.77,0a1.19,1.19,0,0,0,0,.25A.55.55,0,0,0,11.77,0Z"/><path class="cls-1" d="M15.2,3.78V3.64A.23.23,0,0,0,15.2,3.78Z"/><path class="cls-1" d="M9.16.38C9.1.34,9.08.26,9,.34L9,.4C9.05.33,9.09.29,9.16.38Z"/><path class="cls-1" d="M6.74.87,6.82,1l.06,0Z"/><path class="cls-1" d="M9.37,6.31l-.13-.49C9.32,6.21,9.21,6.37,9.37,6.31Z"/><path class="cls-1" d="M5.71,8.49a1.24,1.24,0,0,1-.17.17h0A1.31,1.31,0,0,0,5.71,8.49Z"/><path class="cls-1" d="M9.19,4.81l-.13-.07A.17.17,0,0,0,9.19,4.81Z"/><path class="cls-1" d="M11.69,12.24l0-.07S11.65,12.19,11.69,12.24Z"/><path class="cls-1" d="M8.65,4.91a1.29,1.29,0,0,0-.21-.36,1.31,1.31,0,0,0,0,.15Z"/><path class="cls-1" d="M9.24,5.81h0Z"/><path class="cls-1" d="M9.1,7.16l0,0,0-.06-.18-.23c-.14-.19-.32-.42-.44-.6s.35.42.57.72c-.08-.17-.33-.81-.24-.82a1.57,1.57,0,0,1,.13.29c-.13-.59.24-.12.24-.86a.7.7,0,0,1,.06.17c-.09-.36-.17-.73-.21-1,.1,0,.14-.5.24,0-.07,0,0,.19-.06.34l.08-.22c.17.68-.11.25,0,.76.12-.25.33-.83.5-.64,0,.68-.32.24-.13.84a2.52,2.52,0,0,0-.21-.25c.23,1.06-.1-.06.12,1.07.16.18.19-.36.36-.15.09-.37,0-.56.13-.92.53-.62-.11,1.7.3.89.18-.41.53-1.22.54-.72-.12.23-.24.45-.35.68.13.16.59-.93.58-.36-.2.24-.29.14-.3.24-.17.6.3-.34.43-.27l-.35.59a1.89,1.89,0,0,0,.51-.07,1.37,1.37,0,0,1,.58.06,1.67,1.67,0,0,0-.46.42c.49.07.43.71.17,1.17l.6-.1a.67.67,0,0,1-.34.16c-.15.21.34-.13.59-.15.08.07-.28.23-.46.24a1.47,1.47,0,0,1,.77.31.35.35,0,0,1-.09.59l-.18,0c-.22.23,1.21.15.69.42l-.11,0a2.66,2.66,0,0,0-.08.79.62.62,0,0,1-.66.52c.4.14.28.23.2.32s-.14.15.39.41c-.64,0-.78-.13-1.28-.11-.08,0,.56.51.58.69l-.49-.38c.14.16.27.33.4.51a6.51,6.51,0,0,1-.6-.43l.06.18a1.18,1.18,0,0,1,.38.25c.09.35-.6,0-.78-.29a2.68,2.68,0,0,1,0,.63,1.51,1.51,0,0,1-.17-.47c.18.62-.38-.53-.21,0a3.09,3.09,0,0,1,.24.43c-.26-.26-.42-.2-.51,0l-.13-.4c-.24,0-.44.36-.77.4.14.17.24.91.12,1l-.12-.63c0,.41.15.22,0,.73-.16,0-.16-.72-.11-.94a1.88,1.88,0,0,1-.14.24c0-.2,0-.3,0-.55,0,.41-.26-.65-.34.06v-.19c-.31,0-.48.2-.76.17-.11.55-.2.41-.4.83-.2-.24-.31-.71-.56-.77-.28.18-.23.42-.44.69.18-.48-.09-.53.19-.82a1.84,1.84,0,0,0-1,0c-.08.2-.08.31-.2.43s0-.28.11-.48l0,0c-.44.19-.42-.32-.36-.71s.19-.71-.31-.52l0,0a4.56,4.56,0,0,1-.65,0c0-.17.38-.11.59-.37-.44.07-.48-.1-.48-.23s.08-.3-.24-.36c.67-.31.66-.46.51-.64s-.3-.41.2-.54H5.18c-.35-.09.21-.09.29-.14-.27,0-.32.07-.51,0A.89.89,0,0,1,5.29,8a8.43,8.43,0,0,1,1.08-.72c.2-.15-1.48-1.11-.56-1l.48.46a.71.71,0,0,1,.25-.88c.22-.21.45-.34.47-.79.06.14.18.3.14.33.37.31.34-.2.14-.54.1,0,.21.28.35.42s-.06-.65.22-.27a.64.64,0,0,1,0,.2c0-.24.29-.1,0-.57.28.19.27-.37.52-.11-.06-.61.39.22.24-.65.2.88.35.68.46.25,0,.27.1.29.06.66.1,0,.2-.18.21-.64.09.56.19.33.33.18s.29-.27.18.42a2,2,0,0,1,1.47-.47c-.49.75-.42-.14-.85.71.41-.22,1.07-.69,1.19-.31-.05.13-.28.26-.41.36.2-.07.25,0,.3.09s.09.13.37.13a2.27,2.27,0,0,1-.25.06s-.1.11.3,0h-.12a2.09,2.09,0,0,1,.88-.23c.29,0,.58,0,.73,0-1.2.17-.23.39-1.77.49a3.4,3.4,0,0,0,.57,0c-.07.06-.24.08-.56.08.23.09.67,0,.67.21-.2,0-.28,0-.53-.07.41.07.78.22.59.34-.12,0-.28,0-.27-.08s.23.26.36.46.19.4-.07.45c-.67-.55-.3-.08-.9-.52a.52.52,0,0,1,.09.24l.32.18c-.1.11.16.62-.14.56l-.11-.32c0,.12-.11.23-.17.35l.35.07c.1.42.66.68.3.72,0-.1-.19.15-.56-.12h0c.06.25.12.53-.13.48S11.1,7.91,11,7.8c.29.57-.32.46-.06,1.09a1.94,1.94,0,0,0-.33-.53l.21.46c-.18-.06-.24-.12-.41-.38-.32.11.64.71.08.6,0,0-.05-.1,0-.2-.44,0-.44.69-.88.66-.48-.58.16-.31-.28-.79C9,9.08,8.87,10,8.37,10l.11,0c.38,1-.52-.34-.53.19a1.46,1.46,0,0,0-.11-.46c-.32-.06-.43.44-.82.83v-.28c-.19-.21-.41-.09-.56-.22,0,.27-.15.22-.11.62-.11-.4-.19-.55-.3-.59s-.24.05-.33.13-.63.23-.31-.35c0,0,.22-.12.2-.14a1.06,1.06,0,0,1-.35,0c-.36.3-.2.19-.43.49-.23.14-.51.16-.57.05.37,0,.61-.44.8-.61-.11.08-.26.14-.38.22.61-.58-.84.43-.5-.14l.23-.08c-.17-.05-.51-.06-.48-.23.49-.2.28.06.69-.08C4.56,9.3,3.55,9.33,4,9c.17.05.19.16.35.2.58-.31.43-.27.5-.39v0a1.94,1.94,0,0,1,.27-.23L5,8.7c-.71,0-.76-.18-.76-.29s.09-.19-.32-.48c.77.5.48.17,1.05.36a1.53,1.53,0,0,1,.52.13c-.24-.1-.11-.07-.1-.06a.5.5,0,0,1-.19-.12s0,0,0,0,.06,0,0,0S5,8,5.11,8.13s.14.3.12.23H5s.06-.11.14-.28c.25-.34.55-1,1-1.07a.78.78,0,0,1-.22.42,2.29,2.29,0,0,1-.19.17c0,.33.11.33.37.25a1.53,1.53,0,0,0-.29.44c.1,0,.52-.49.44-.17l-.61.5a2.06,2.06,0,0,1,.75-.23,3.5,3.5,0,0,1-.64.37,2.31,2.31,0,0,0,.91-.15l.12-.19c0,.05-.39.25-.5.27-.41.14.07-.24.22-.37l.16,0c.45-.36.31-.47.08-.46s-.55.14-.6.05a8.24,8.24,0,0,1,.62-.56,3.63,3.63,0,0,0-.64.36c.09-.2.31-.61.5-.62.06-.48-.31.14-.23-.36a.16.16,0,0,1,.07-.12,2.08,2.08,0,0,0-.32.12c.12-.14.22-.55.31-.37-.1-.33-.36-.26-.54-.18s-.3.18-.32-.14l0-.05c-.36.08-.38.24-.4.44A2,2,0,0,1,5,7.28c0-.15,0-.3,0-.45H5a4.53,4.53,0,0,0-.44-1c0,.2.06.4.1.6-.06,0-.2,0-.27-.24-.07.49.13.22.17.65A.33.33,0,0,0,4,7c-.12.12-.23.2-.64,0,.31.36.44,0,.53.43-.45-.28-.48-.15-.44,0s.18.34-.1.39c-.48-.25-.09-.47-.67-.32.39.26.32.36.14.49s-.43.28-.35.42c.72.06.27.56.59.91-.25,0-.25.8-.28,1.28l-.12,0c.69-.23.75.15,1,.29-.36.25-.53.31-.79.26.06.09.11.18.17.26a.69.69,0,0,1,.58,0l-.47.3a1.39,1.39,0,0,0,.67.26.82.82,0,0,1,.62.44c.13-.22.21-.59.36-.89a1.25,1.25,0,0,1,.53-.64c-.11.25-.29.69-.44.74,0,0,.22-.16.23,0a4,4,0,0,1-.36.35c.12.27.26-.31.39-.21-.15.37,0,.31-.11.6-.06,0-.09-.21-.22-.1a1.08,1.08,0,0,1,.36.76c0-.22.13-.52.28-.54.34.05,0,.5.21.73.13-.25.35.06.4-.53.11,0,.11.28.14.45.22-.24.9-.1.65-.71l0,0,0,0h0a.67.67,0,0,1,.8-.2c.3.06.62.13.83-.07l.06.18c.22-.31.6-.38.61-.86.07,0,.34.24.41.46.15-.24.06-.44.51-.32,0,.42.22.23-.09.34.35,0,.58.24.58-.39.16.49.53.42.57.21l-.37-.19a.54.54,0,0,1,.37-.22l.3.6c1,.32.11-1.75,1.26-.9-.15-.47-.45-.08-.66-.61.27-.07,1.07.52,1.15.46.55,0-.3-1,.18-1.06-.2-.14-.64-.61-.57-1,.26-.11.94.49.93.76,0,.07-.12,0-.17,0a.32.32,0,0,0,.21.41l-.12-.21c.27.09.58-.25.78.1,0-.35-.2-.35-.41-.31.54-.06.47-.46,1-.77-.16,0-.43-.11-.38-.17.67-.46-.19-.51-.06-.94.45-.08.75.45.68-.12.34-.21.63.14.75.35-.23-.62.6-.86.73-1.2l.14.33a.73.73,0,0,1,0-.5l-.5.11c.11-.15.13-.29.33-.27-.29-.19-.8,0-1.18-.28.25-.19-.26-.55.37-.66-.2.65.63-.11.74.47a.41.41,0,0,1,0-.43.16.16,0,0,1,.17.06c.52-.76-.74-.26-.83-.88.37,0,.63-.31.51-.41.08.28-.54.26-.87.13.12-.46-.33-.34-.4-.52a1.14,1.14,0,0,1,0,.26c-.35,0-.4-.11-.61-.27.24-.15.28.11.34,0-.35,0-.26-.19-.2-.43s.1-.53-.19-.57c.06-.3.51-.43.5-.68-.69,0-.08-.8-.73-.84-.19.47-.11.38-.64.55a3.29,3.29,0,0,1,.81.26,3.21,3.21,0,0,0-.84.17c.15.12.55.1.6.26-.45.1-.34,0-.55.39.28-.75-.67,0-.6-.6l.7-.95C13.7.94,13.4.93,13.09,1s-.63.1-.87-.17l.1.27c-.27.39-.38-.09-.64,0a1.47,1.47,0,0,0,.07-.81c-.08.28-.48-.17-.73.58,0-.2-.1-.39-.16-.58-.5-.32-.78,1-1.2.83.18-.42,0-.72.35-1-.18,0-.33-.11-.35.16C9.56,0,9.17.78,9,.4,9,.58,9,1,8.78,1a.51.51,0,0,1,0-.19c0,.19-.25.29,0,.71-.3-.6-.66-.51-1-.38S7.2,1.38,6.82,1c-.29.24-.6.53-.84.7,0-.11-.1-.17,0-.16-.56-.12.32,1.09-.25,1-.54-.41,0-.43-.24-.55-.76-1-.39.45-1.08.05l0-.11c-.48-.17-.19.77-.52,1a.75.75,0,0,0-.14-.15,2.5,2.5,0,0,1,0,1.56c-.32-.4-.1-.29-.55-.57,0,.18.67.5.59.83a3.57,3.57,0,0,1-1.08-.34A1.61,1.61,0,0,1,2.9,3.9c-.69-.3-.24.36-.43.43l-.25-.19c-.2.5.47.9.19,1.32l.23.07c.57.59-.5,0-.1.5l-.75-.24A11,11,0,0,1,2.3,7a2.84,2.84,0,0,1-.87-1.2c-.08.18-.21.65.15.87-.06-.1-.21-.26-.06-.29.5.44.73.79.61,1.12-.74-.21-.89,0-1,.3S1,8.45.38,8.56A1.37,1.37,0,0,1,.47,9.71,2.25,2.25,0,0,0,.38,11c1.11-.54.08.26,1.26-.07.11.16.13.23.05.26a8.92,8.92,0,0,0-.51.79c-.29.26-.32-.1-.57,0,.06.49-.44.37-.61.81.38-.22.65-.08.62.25.11-.2.23-.4.35-.59.44.17.26.4.1.65s-.32.54.15.66H.77c.38.19.79,1.17,1.76.74-.07.14-.26.42-.43.37.22.38.75.49,1.19.61s.84.18.91.61L4,16.31c.18,0,.51-.33.51,0-.07.1-.2.23-.15.27s.59-.27.67,0l-.29.22c.24.37.62.29,1,.14a4.36,4.36,0,0,1,1-.43A1.22,1.22,0,0,0,7.21,18l0,.12a1.54,1.54,0,0,0,1.27-.18c.39-.2.75-.49,1.13-.68a1.11,1.11,0,0,0,1.21.5,5.13,5.13,0,0,1,1.52-.07c-.18-.1-.21-.66-.11-.8.26.09.24-.76.55,0l-.07,0c.47.67.8.27,1.1.1L13.26,16c.77.46,1.17-.07,1.44-.51s.4-.93,1.1-.72c-.09-.33,0-.55-.06-.86l.48.3A2.31,2.31,0,0,0,17,12.78l.34.28c.17-.41-1.4-1-1.35-1.3l.85.1a6.27,6.27,0,0,1,.43-1,.83.83,0,0,0-.25-1c.12,0,.37,0,.4.14.06-.31.49-1.3-.64-1.06.77-.09,0-.69-.42-.92L16.91,8c-.75-.13-.95-.08-1.24-.38,0-.1.4-.21.3,0,.18-.38-.57-.06-.4-.49H16c-.07-.31-.25-.22-.7-.21-.28-.08-.09-.57.33-.85-.3.1-.74.16-.7-.07a.49.49,0,0,1,.35-.11c0-.68-1-.29-.73-.89a.77.77,0,0,0,.22-.26c.27.35.45.65.39.65.44-.28.28-.65,1.05-.8-.53-.06-1.48.06-1.54-.35,0,0,.05-.09.1-.15h.07c0-.1-.12-.12-.23-.11a.59.59,0,0,0-.11-.33c.26-.35-.18-.49-.34-.62-.34.45-.47.23-.58.74,0,0,.07,0,.18,0a.33.33,0,0,0,.1,0l0,0a2.36,2.36,0,0,1,.35.28c-.3.11-.54.19-.5-.17l-.75.57a10.51,10.51,0,0,0,.31-1.83c-.35,0-.69-.13-1-.13a1.22,1.22,0,0,0-1,.63c-.17.09-.09-.34-.11-.52s.22,0,.3-.16c-.36.14-1-.09-1.11.64-.34-.36.28-.67-.26-.58l.08-.22c-.54-.62-1.06-.11-1.4.4s-.56,1-1.4.51a.36.36,0,0,1,.24.18A2,2,0,0,0,5.82,4.53a8.39,8.39,0,0,1-1.1,1.83c-.25.39.26.51.64.74l-.6.07a5.23,5.23,0,0,0,.8.37c.34.22.05.46-.13.81s-.22.77.48.83L6.2,8.9c.1.26.78.39.4.67.08,0,.38-.23.32,0l-.22.23a3.17,3.17,0,0,0,.93-.14c.16.16,0,.42-.14.69s-.24.55.24.67a1.47,1.47,0,0,0,.77-.5,1,1,0,0,0,.33-.64c-.12,0-.24-.16-.16-.48a2.39,2.39,0,0,0,.23-.22L9,8.86l0-.19a1.51,1.51,0,0,0,.06-.35c0-.24,0-.43,0-.59a1.72,1.72,0,0,1-.24.33l.09-.26.09,0c.05-.23,0,0-.17.12A2.59,2.59,0,0,0,9,7.62a2.86,2.86,0,0,1-.46.46,3.72,3.72,0,0,0,.4-.5c-.24.19-.33.45-.56.55.14-.25.37-.4.11-.27a2.13,2.13,0,0,1,.3-.22c-.2.12-.16,0-.52.17.32-.23-.25-.13.43-.38A1.3,1.3,0,0,1,8,7.48c.93-.09,0-.19,1-.23-.43,0-.55,0-.6-.1a.76.76,0,0,0-.3-.24c.07,0,.21.08.17.08a1.21,1.21,0,0,1,.52.08,3,3,0,0,1-1.22-.79c.7.3.76.52,1.41.83-.56-.29-.49-.4-.94-.68a2.58,2.58,0,0,1,.75.47c-.75-.64-.11-.14-.52-.58.39.29.63.67.48.4A4.89,4.89,0,0,1,9.1,7.16Zm3-.61h0l-.1,0Zm.27.33a.37.37,0,0,0-.09-.16c.14-.14.3-.25.32-.2S12.47,6.73,12.38,6.88Zm2-3.59c.15,0,.11.15.05.24a1,1,0,0,0-.21-.1l-.06,0Z"/><path class="cls-1" d="M13.71,3.71s0,0-.06,0l0,.14.15-.11Z"/><path class="cls-1" d="M6.91,12.36h0a.34.34,0,0,1,0-.08Z"/><polygon class="cls-1" points="11.7 11.82 11.81 11.91 11.73 11.82 11.7 11.82"/><path class="cls-1" d="M5.07,9.72a.52.52,0,0,0,.11-.1Z"/><path class="cls-1" d="M4.89,8.85l.19-.13A.81.81,0,0,0,4.89,8.85Z"/><path class="cls-1" d="M5.18,8.37,5,8.29H5Z"/><path class="cls-1" d="M11.74,5.34h0Z"/><path class="cls-1" d="M11.7,8.11a1.25,1.25,0,0,1,0-.3C11.56,7.83,11.5,7.86,11.7,8.11Z"/><path class="cls-1" d="M9.2,4.82h0s0,0,0,0Z"/><path class="cls-1" d="M11.81,7.69c-.14,0-.17,0-.16.12S11.81,7.79,11.81,7.69Z"/><path class="cls-1" d="M5.71,9v0L5.78,9Z"/><path class="cls-1" d="M5.78,9h.06S5.83,9,5.78,9Z"/><path class="cls-1" d="M6,9,5.84,9S5.84,9.05,6,9Z"/><path class="cls-1" d="M5.47,8.45l-.11.17Z"/><path class="cls-1" d="M5.28,8.42c0,.06-.1.43,0,.34l.08-.14C5.21,8.88,5.47,8.12,5.28,8.42Z"/><path class="cls-1" d="M3.58,6.43a2.06,2.06,0,0,1,.56-.19c-.17-.15-.48-.31-.22-.51-.55-.07-.46,0-.31.16S3.89,6.21,3.58,6.43Z"/><path class="cls-1" d="M2.45,7.84c0-.32-.3-.07-.42-.1C2.18,8,2.22,8,2.45,7.84Z"/><path class="cls-1" d="M9.77,11.94l.22.46C10.11,12.26,9.9,12.23,9.77,11.94Z"/><polygon class="cls-1" points="9.74 8.89 9.45 8.7 9.66 9.13 9.74 8.89"/><polygon class="cls-1" points="12.55 11.38 12.54 11.48 12.64 11.18 12.55 11.38"/><path class="cls-1" d="M7,.25l.24.58C7.32.7,7.15,0,7,.25Z"/><path class="cls-1" d="M2.12,5.25c-.31-.09-.59,0-.36.25C1.87,5.38,2.16,5.35,2.12,5.25Z"/><path class="cls-1" d="M14,16.48l0,.27a3.41,3.41,0,0,0,.17-.33A.59.59,0,0,1,14,16.48Z"/><path class="cls-1" d="M83.32,3.41c0,.18.14.55.23.44l-.11-.66Z"/><path class="cls-1" d="M84.41,4.37a3,3,0,0,0-.2-1.5,11.55,11.55,0,0,0,0,1.18c-.09.1-.26-.15-.31-.39,0,.18-.21-.09-.15.33.29.45.47.41.55-.05A1.19,1.19,0,0,1,84.41,4.37Z"/><path class="cls-1" d="M88.75,10.22l.1-.05A.19.19,0,0,0,88.75,10.22Z"/><path class="cls-1" d="M85.23,14.65s0-.1,0-.15A.16.16,0,0,0,85.23,14.65Z"/><path class="cls-1" d="M84.3,14.16l0,0C84.32,14.14,84.31,14.11,84.3,14.16Z"/><path class="cls-1" d="M88.75,10.22l-.25.11C88.71,10.4,88.68,10.29,88.75,10.22Z"/><path class="cls-1" d="M85.69,2.45a.38.38,0,0,0-.1.19l.1-.09Z"/><path class="cls-1" d="M88.85,7.41v0l-.27,0Z"/><path class="cls-1" d="M88.48,6.27s.48-.3.7-.43A1.07,1.07,0,0,1,88.8,6Z"/><path class="cls-1" d="M86.5,4.65l-.06.08Z"/><path class="cls-1" d="M88.44,8.78l-.21,0Z"/><path class="cls-1" d="M81.66,1l0,.1C81.69,1,81.68,1,81.66,1Z"/><polygon class="cls-1" points="85.28 2.74 85.25 2.78 85.32 3.09 85.28 2.74"/><path class="cls-1" d="M83.69,13.4h0C83.73,13.35,83.72,13.36,83.69,13.4Z"/><path class="cls-1" d="M88.06,5.56c0-.53.47-.52.45-1.12C88.44,4.65,88,5.19,88.06,5.56Z"/><path class="cls-1" d="M85.77,2.51l.11,0S85.79,2.48,85.77,2.51Z"/><path class="cls-1" d="M88.51,4.44h0v0Z"/><path class="cls-1" d="M82.35,11.44l-.23.07Z"/><path class="cls-1" d="M82.63,14l0-.09A.08.08,0,0,0,82.63,14Z"/><path class="cls-1" d="M81.51,10s.12,0,0-.11h-.07C81.56,9.94,81.6,10,81.51,10Z"/><path class="cls-1" d="M81.81,8.42h-.12v.06Z"/><path class="cls-1" d="M76.1,6.48a2.38,2.38,0,0,1,.51.09C76.22,6.45,76.25,6,76.1,6.48Z"/><path class="cls-1" d="M85.73,2.76c0-.14,0-.22,0-.25l-.08,0A.87.87,0,0,0,85.73,2.76Z"/><path class="cls-1" d="M77.09,9.59l.13-.42A.94.94,0,0,0,77.09,9.59Z"/><path class="cls-1" d="M87.88,16.09l-.08.08S87.87,16.15,87.88,16.09Z"/><path class="cls-1" d="M77.35,7.93a1,1,0,0,0,.43-.14l-.13-.08Z"/><path class="cls-1" d="M76.61,6.57Z"/><path class="cls-1" d="M77.12,3.38c-.31.31.41.63.66,1-.15.51-.56-.18-1-.27-.07.39.36,1,.21,1.15-.11-.06-.17,0-.27-.17.32.58-.48.88,0,1.53l-.19,0a5,5,0,0,1,1,.35c0,.15.32.43-.15.31,0-.08-.13-.16-.25-.26l.13.23c-.71-.1-.14-.3-.61-.49.06.42.5,1,.25,1.14-.68-.12,0-.66-.73-.48L76.59,7c-1.12,0,.16-.23-1-.32-.39.55.11.76-.21,1.33.35.2.56.06.91.25.56.84-1.8.49-.92,1.23.45.18,1.31.19.89.64l-.78-.09c0,.65,1.13.2.73.89-.33,0-.33-.41-.41-.31-.53.54.48.22.55.5l-.64.25c.3.66,1.07,1.15,1.57,1.63-.18.09-.44.11-.5.37a10.59,10.59,0,0,1,2,2.35l.58-.37c.06,0,0,.3-.12.36.22.36.18-.33.42-.47.18.05.09.41-.09.53.77-.2,1.77-.53,2.18.18l-.14.15c.39.3.65-1.11.93-.53l-.08.1c.84.35,1.74-.18,2.38.68.08-.85.83.33.8-.85.49.55.39.77,1,1.1.18,0,.18-.76.38-.91l.08.61.22-.68.28.71.2-.2c-.1,0-.24-.24-.25-.42.27-.32,1,.25,1.07.54a8.89,8.89,0,0,0,.79-.83c.08.24,0,.39-.13.59.3-.8.35.56.63-.2-.12-.09-.12-.34-.17-.46.4.22,1-.12,1.23-.54l.19.39a5.27,5.27,0,0,0,1.58-2.16c-.32.17-.9-.28-.86-.5l.61.23c-.28-.32-.33.09-.62-.41.19-.2.75.17.85.43a3,3,0,0,0,0-.43c.18.06.24.18.46.31-.32-.29.88-.36.29-.82l.18,0a6.21,6.21,0,0,0,.22-1.74c-.55-.12-.39-.31-.81-.55.24-.35.73-.76.71-1.24-.26-.35-.47-.12-.79-.29.51,0,.48-.46.84-.21a2.48,2.48,0,0,0-.52-1.4c-.21.09-.3.17-.47.14s.2-.31.45-.31l0,0c-.41-.42-.11-1.1,0-1.83S93.2,3,92.46,3h.08a4.84,4.84,0,0,0-1.07-.28c-.28-.34.45-.13.41-.57a1.75,1.75,0,0,1-1.25-.44c-.25-.19-.5-.45-.94-.3,0-.81-.52-1-1.06-1S87.54.53,87.18,0l0,.36C87,.74,87,.19,86.83.1c0,.28.21.33.08.52a9.27,9.27,0,0,1-2.43.15,7.41,7.41,0,0,0-2.63.31c-.62.26.67,1.73-.41,1.45l-.21-.67a4.63,4.63,0,0,1-1.18,1.53A2.31,2.31,0,0,0,79.18,5c-.09-.14-.25-.25-.19-.35-.54,0-.5.79-.14,1-.12.13-.33-.13-.56-.13-.38.11.29.82-.2.74C78,6.18,78,6.06,78,6c.14.23-.33.67.24.73-.4.31,0,.82-.42,1,.55.35-.45.64.41.87-.9-.2-.84.61-.43.9-.27-.11-.3.2-.67.07a.5.5,0,0,0,.61.56c-.54.26-.32.55-.13.79s.34.42-.33.65c.58.85,1.08,1.55,1.55,2.21-.88.28-.36-.8-1.25-.52.58.7,1.44.8,1.59,1.56,0,.24-.4.08-.57.09a3.87,3.87,0,0,1,.77,1,1.62,1.62,0,0,0,1,.72.39.39,0,0,1-.29.06c.12.09.19.36.44,0l-.19,0c.25-.57,1.25-.56,1.43-.84-.89.82.39.62-.73,1.66a.62.62,0,0,0,.47-.36c.08.14.06.31-.24.5.64.1.64-.41,1.09-.21-.07.19-.19.22-.33.42.41-.26.73-.56,1.08-.32,0,.12,0,.28-.15.25a1.55,1.55,0,0,0,1-.37.9.9,0,0,1,.89-.23c-.08.89.27.25.46,1,.12-.11.24-.2.35-.31l-.24-.31c.34-.08.43-.68.76-.55L86,17.4A3.87,3.87,0,0,0,86.5,17a2.8,2.8,0,0,1-.41-.13c.13-.46-.39-.85,0-.81,0,.1.25-.1.59.2h0c0-.27,0-.55.26-.51s.42.71.54.82c-.22-.59.5-.58.2-1.21a1.63,1.63,0,0,0,.38.5l-.25-.46c.21,0,.28.08.48.32.37-.24-.75-.59-.12-.64,0,.05.07.09.07.2.52-.22.37-.91.81-1.12.7.31-.07.43.53.67.3-.67-.06-1.62.33-2.07l-.12.07c-.94-.5.66-.19.3-.67,0,.1.52.31.42.24.3-.32,0-.87-.12-1.52l.24.14c.3-.15.3-.54.48-.74-.25-.14-.17-.26-.58-.28,1.7-.38-.49-1.51.92-1.93,0,.09.19.25.2.18s-.07-.53-.13-.76c-.47,0-.29.08-.67.19-.26-.12-.45-.29-.44-.42.28.26.75,0,1-.15-.14,0-.3,0-.44,0,.83-.41-.92,0-.38-.46l.24,0c-.14-.15-.46-.21-.43-.39.49-.22.27.1.7,0-.09-.29-1.07-.16-.66-.55.18,0,.23.18.4.23.5-.46.34-.46.34-.69v0a5.86,5.86,0,0,0,0-.59l-.07.2c-.7.2-.83.12-1,0s-.22-.32-.69-.11c.92-.35.41-.31.85-.73,0-.2,0-.48.15-.57-.51.22-.14-.59-.87-.18.09-.18-.23-.15.07-.55-.4,0-.09.34-.25.53-.38.18-.52-.11-.78-.37a.65.65,0,0,0-1-.08c-.6.32-.69,1-1.07,1.33a.87.87,0,0,1,.08-.72c-.26-.28-.46-.21-.65,0A.88.88,0,0,0,85.84,3c-.19.08,0,.71-.3.47a3.62,3.62,0,0,1,0-.8c-.2.21-.34.61-.52.83-.13-.32,0-.53.06-.76a1,1,0,0,0-.51,1l.2.15c-.08.05-.16-.43-.12-.55.1-.46.34.11.39.3L85,3.75c.4,1.08.54-.31.89-.29V4.3c.06-.25.13-.49.21-.73.1.21.18.67.06.81.24.38.15-.32.36.12a.2.2,0,0,1,0,.15l.17-.26c0,.18,0,.59-.06.47.3.47.53-.62.62,0l0,0c.46-.23.07-.61.58-1.26a9.64,9.64,0,0,1-.12,1.52l.21-.58s.11.1,0,.33c.3-.35.06-.26.29-.6,0,.29.18.29.32.33s.21.14,0,.56c.33-.35,0-.41.4-.56-.55.9.36,0,.22.52-.43.36-.34.06-.55.53.36-.32.4-.22.35-.06S88.69,6,88.8,6c.62-.45.45.06.77.18-.22.09-.24.6-.52.82h-.13c.75-.08.61.19.74.37a2.72,2.72,0,0,1-.8-.12v.11c.23,0,.35.09.42.2l-.54-.1c0,.09.56.55.12.81.5.13,1.46,0,1.7.48a1.88,1.88,0,0,1-.82-.26s.2.17.07.21l-.42-.26c-.24.12.36.17.28.29-.38-.09-.29,0-.59-.05,0,0,.18-.08,0-.16a.87.87,0,0,1-.67.24c.22,0,.51.12.54.24,0,.28-.49,0-.72.09.25.13-.07.23.5.38,0,.08-.29,0-.45,0,.22.21-.1.65.55.67l0,0,0,0h0c.44.62-.59.83-.51,1.32l-.18-.07c.12.33-.09.59.21.94,0,.08-.41,0-.6-.12.05.24.23.37-.19.46-.21-.34-.3-.09-.13-.29-.26.13-.56,0-.23.5-.38-.34-.63-.21-.56,0l.39.08a.35.35,0,0,1-.21.27l-.5-.45c-.45-.07-.25.23-.18.55s.07.6-.47.16c.21.44.38.12.65.59-.23.09-1-.58-1-.56-.37-.19.32,1-.06.87.13.2.47.73.33,1-.28,0-.63-.82-.6-1,0,0,.09,0,.12.1a.44.44,0,0,0-.13-.44l.08.23c-.18-.18-.38-.08-.46-.47a.42.42,0,0,0,.21.47c-.32-.25-.33.09-.58-.09.05.12.13.39.1.4-.36-.26-.09.47-.34.59-.15-.36,0-.87-.19-.56a1.7,1.7,0,0,1,0-.82c-.16.44-.18-.33-.16-.41l.07-.18c0,.11,0,.1-.06.09l-.1.47a.45.45,0,0,1,0-.29,7.55,7.55,0,0,1-.43,1.14c0-.25-.33.15-.06-.43.07.27.27-.57.4-.62,0,.06-.06.05,0,0a.94.94,0,0,1,.08-.15c.21-.53-.36.62-.51.5.22-.28.37-.56.31-.51a1.9,1.9,0,0,1-.57.65c.08-.29-.25.06-.29,0l0,.16c-.27.23-.31.13-.48.1.2-.19.22,0,.28-.15-.58.28.29-.64-.14-.54.16-.21.56-.37.66-.52-.49.07.33-.39-.09-.39a1.06,1.06,0,0,1-.79.27,3.56,3.56,0,0,0,.47.19,5.6,5.6,0,0,1-.73.09c0,.13.39.1.35.2-.4.09-.29,0-.6.29.54-.5-.56-.16-.21-.58l1.1-.45c.39-.41-.75-.26-.56-.75l-.17.17c-.48.06-.12-.23-.33-.33a2.68,2.68,0,0,0,.75-.26c-.3.05,0-.28-.8-.23l.5-.23c.19-.33-1.15-.33-1-.71.43.11.71,0,1,.19,0-.11.08-.2-.2-.21.26-.05-.51-.33-.13-.41-.17-.06-.58-.11-.53-.24a.61.61,0,0,1,.19,0c-.19,0-.24-.24-.68-.17.63-.12.65-.35.66-.61s0-.51.56-.49a1.7,1.7,0,0,1,0-.81c.1.06.18.08.12.1.46-.12-1-.66-.4-.82.65.14.21.33.48.34,1.16.58,0-.45.82-.24l0,.09c.45.13-.18-.61.08-.77a.89.89,0,0,0,.15.12,1.37,1.37,0,0,1-.15-1.35c.26.45.08.29.46.64,0-.13-.58-.6-.46-.89a2.36,2.36,0,0,1,.88.68l-.15.15c.52.5.19-.19.38-.15l.16.27c.19-.25-.19-.94.19-1.08l-.14-.19c-.13-.8.35.32.32-.3l.36.71a2.48,2.48,0,0,1,.43-1.1A10.12,10.12,0,0,1,85,5.18a.54.54,0,0,0,.34-.59c0,.09,0,.3-.12.19,0-.64.14-1,.44-1,.21,1.49.81.28,1,1.47.43-.57.76.28,1.12.3.19-1.18.14,0,.49-1.16.15,0,.19,0,.17.09a3.64,3.64,0,0,1,0,.81c-.09.35-.2.2-.3.45.13.17-.15.5-.22.83.19-.39.36-.52.35-.33a4.58,4.58,0,0,0,.16-.56c.62-.38-.43.94,0,.49a2.37,2.37,0,0,0-.28.27c.19-.14,0,0,.93-.4a2.49,2.49,0,0,1-.5.27c-.09.11,1.11,0,.53.58l-.3,0c.09.08.56.16.26.29-.12,0-.3,0-.31,0s.52.26.35.39l-.34-.12c-.4.49.8.8,1,1.27A1.64,1.64,0,0,0,88.49,9l-.12,0c-.19.45.54,1,.68,1.52a.87.87,0,0,0-.8.18.36.36,0,0,1-.49.11,1.82,1.82,0,0,1,.47.61c-.15-.1.2.63-.25,0h0c-.49-.64-.41-.42-.49-.41l.42,1c-.46-.64-.55-.47-.79-.25s-.51.43-.74-.24c-.1.28-.27.3-.39.57L86,11.47a1.38,1.38,0,0,0-1,0l.07-.41c-.24,0-.24,1.65-.49,1.69l-.1-.84c-.47,0-.84-.74-1.29,0,0-.12,0-.36.11-.39-.2,0-.59-.65-.71.5.11-.74-.36-.13-.66.13l.17-.53c-.34.64-.42.83-.72.93,0-.09.1-.44.12-.27-.07-.35-.33.44-.45.07l.22-.29c-.15-.12-.21.06-.5.38-.24.15-.28-.33,0-.75-.19.25-.52.53-.52.33a.86.86,0,0,1,.25-.26c0-.24-.17-.17-.34-.15s-.34.05-.19-.21l.24-.24c.11.17.23.3.19.32a5.05,5.05,0,0,1,.86-1c-.29.27-1.07.65-1,.37l.13-.12.06,0c0-.05,0,0-.11,0s.09-.13.08-.16c.37-.22.15-.21.14-.28-.51.23-.46.09-.86.36,0,0,.06,0,.11,0h0a1.11,1.11,0,0,1,.12.16c-.28.1-.53.11-.29-.1a5.88,5.88,0,0,1-.89.21,5.5,5.5,0,0,1,1.49-.88c-.36-.15-.28-.46-1.32-.72-.13-.11.31-.1.48-.11s.08.11.23.14c-.26-.18,0-.5-.76-.68.37-.18.64.26.59-.08l.21.09c.64-.14.24-.45,0-.88s-.45-1,.39-.83a.68.68,0,0,1-.26-.07c.51-.17.65-.57.93-1A1.06,1.06,0,0,1,82,5.43c.32.06.11-.36.08-.76l.34.51c0-.25-.05-.49-.07-.75.18-.65,1.21,1.07,1.31,0l-.2-.36c.2,0,.48-.42.6,0,0-.08-.07-.42.06-.24l.11.3c.08-.22.18-.44.28-.66.41.12.3,1.22.8,1.15a2,2,0,0,0,.18-1.22c-.08,0-.24-.14-.33-.44l.14-.21C85.06,1.87,85,.9,84.35.39L84.16,1l-.23-.4.28-.11c-.28-.36-.29,0-.33.31A1.1,1.1,0,0,0,83.6.39l-.09,1c-.15-.34-.06-.74-.35-.86,0,.44.4.73.22,1.07-.29-.35-.35-.69-.43-.29a.63.63,0,0,1-.07-.5c-.08.33-.42.28-.34.78-.36-.43-.52.34-.84-.47a1.58,1.58,0,0,1-.17.87c-.16-1.1-.62.22-1-.82.21.94-.6.8-.69,1.49,0-.08-.07-.23,0-.21-.25.07-.47-.12-.71-.17.42.65.21,1,.36,1.53-.71-.41-.43-.83-1-1.35.4.49,0,.85.4,1.18A2,2,0,0,1,78,3.17c.64.75-.05.28.22.85-.58-.09-.72-.57-.78-.08C77.13,3.89,77.12,3.38,77.12,3.38Zm.3,9.55h0a.9.9,0,0,1-.14-.14A1.12,1.12,0,0,0,77.42,12.93Zm.52.6a2.19,2.19,0,0,0-.22-.27c.13-.15.3-.25.34-.19C77.94,13.13,78,13.34,77.94,13.53Zm2.5-3.12c.09,0,0,.06-.1.12a.19.19,0,0,0-.09,0l-.07,0Z"/><path class="cls-1" d="M79.74,10.65h0l-.1.08.17-.06Z"/><path class="cls-1" d="M88.86,10.17h0Z"/><polygon class="cls-1" points="87.12 16.48 87.1 16.34 87.05 16.47 87.12 16.48"/><path class="cls-1" d="M91.44,7.15a.47.47,0,0,0,.15-.06A.42.42,0,0,0,91.44,7.15Z"/><path class="cls-1" d="M91.21,5.28c0-.12,0-.23.05-.34A1.37,1.37,0,0,0,91.21,5.28Z"/><path class="cls-1" d="M90.53,3.9l-.2.15h0Z"/><path class="cls-1" d="M80,16.71l-.07,0C79.77,16.65,79.87,16.7,80,16.71Z"/><path class="cls-1" d="M86.7,16.3a1.57,1.57,0,0,1,0,.33C86.77,16.62,86.85,16.58,86.7,16.3Z"/><polygon class="cls-1" points="77.08 9.63 77.09 9.63 77.09 9.59 77.08 9.63"/><path class="cls-1" d="M86.39,16.75a.19.19,0,0,0,.27-.12C86.56,16.64,86.44,16.63,86.39,16.75Z"/><path class="cls-1" d="M84.56,2.62H84.5a.34.34,0,0,1,0,.09Z"/><path class="cls-1" d="M84.51,2.7l0,.08S84.52,2.76,84.51,2.7Z"/><path class="cls-1" d="M84.37,3l.1-.17S84.36,2.79,84.37,3Z"/><path class="cls-1" d="M86.28,2.59V2.38A1.16,1.16,0,0,0,86.28,2.59Z"/><path class="cls-1" d="M86.83,2.51c-.13,0-.36-.43-.54-.29v.16C86.36,2.07,86.71,2.85,86.83,2.51Z"/><path class="cls-1" d="M88.15,5.28A1.44,1.44,0,0,0,88,5c0,.22-.11.51-.22.52C87.74,6.25,87.89,5.07,88.15,5.28Z"/><path class="cls-1" d="M88.57,5.94c-.16,0-.24.22-.34.3C88.42,6.14,88.48,6.13,88.57,5.94Z"/><path class="cls-1" d="M87.64,12.22,87.19,12C87.2,12.12,87.36,12.07,87.64,12.22Z"/><polygon class="cls-1" points="89.04 14.95 89.4 15 89.07 14.66 89.04 14.95"/><polygon class="cls-1" points="85.79 13.12 85.77 13.04 85.78 13.28 85.79 13.12"/><path class="cls-1" d="M82.2,8.83l-.62-.13C81.68,8.81,82.36,9,82.2,8.83Z"/><path class="cls-1" d="M84.4,5c.19.26.38.4.32.08C84.62,5.12,84.41,4.94,84.4,5Z"/><path class="cls-1" d="M87.49,11.27a1.46,1.46,0,0,0,0-.22,1.36,1.36,0,0,1,0,.2Z"/><path class="cls-1" d="M88.57,14.65c0-.17.05-.56,0-.48l-.08.65Z"/><path class="cls-1" d="M88.53,13.41a13.93,13.93,0,0,0-.22,1.48c.11-.63.08-.36.2-1.11,0-.08,0,.22,0,.46,0-.17,0,.15.08-.27s0-.53-.1-.12C88.49,13.71,88.51,13.53,88.53,13.41Z"/><path class="cls-1" d="M86.86,11.88l0,.08Z"/><path class="cls-1" d="M86.07,11s.06-.05.1-.1A.94.94,0,0,0,86.07,11Z"/><path class="cls-1" d="M86.37,10.32l0,0S86.4,10.28,86.37,10.32Z"/><path class="cls-1" d="M86.86,11.88l.06-.2C86.82,11.88,86.86,11.83,86.86,11.88Z"/><path class="cls-1" d="M88,15a.63.63,0,0,0,.06-.17l0,.07Z"/><path class="cls-1" d="M87.51,11.57h0l.1-.25Z"/><path class="cls-1" d="M87.88,11.58s-.16.52-.23.75a3,3,0,0,1,.13-.36C87.8,11.86,87.84,11.74,87.88,11.58Z"/><path class="cls-1" d="M88.25,12.69l0-.08Z"/><path class="cls-1" d="M87.32,11.37l.08-.19Z"/><path class="cls-1" d="M85.62.7l0,.1C85.64.74,85.63.7,85.62.7Z"/><polygon class="cls-1" points="86.79 3.32 86.78 3.35 86.81 3.66 86.79 3.32"/><path class="cls-1" d="M86.63,9.6h0Z"/><path class="cls-1" d="M85.29,8.08c-.5.09-.64,0-1.19.14C84.31,8.2,85,8.15,85.29,8.08Z"/><path class="cls-1" d="M88,14.88h0S88,14.9,88,14.88Z"/><path class="cls-1" d="M84.1,8.22h0l0,0Z"/><path class="cls-1" d="M86,9.43l-.19.16Z"/><path class="cls-1" d="M85.74,10.32l0-.06Z"/><path class="cls-1" d="M85.22,9.72s.09-.08,0,0l-.06,0C85.26,9.68,85.29,9.66,85.22,9.72Z"/><path class="cls-1" d="M85.07,9.49l-.1.07h0Z"/><path class="cls-1" d="M83.93,1.71l.29.42C84,1.79,84,1.62,83.93,1.71Z"/><path class="cls-1" d="M88,14.64a1.41,1.41,0,0,1,0,.24l0,0Z"/><path class="cls-1" d="M81.61,12.29v-.12A.11.11,0,0,0,81.61,12.29Z"/><path class="cls-1" d="M81.31,4.88l0,0S81.25,4.85,81.31,4.88Z"/><path class="cls-1" d="M81.4,12c.16-.12.24-.2.3-.25l-.13.07Z"/><path class="cls-1" d="M84.22,2.13Z"/><path class="cls-1" d="M84.17.64c-.11,0,.27.67.44,1.06,0,.24-.29-.46-.5-.78,0,.21.29.83.24.83a1.21,1.21,0,0,1-.16-.28c.22.55-.18.14.14.81l-.11-.15c.21.31.4.63.54.86,0,0,.2.43-.07,0a1.48,1.48,0,0,0-.15-.3l.08.19c-.4-.57-.08-.22-.35-.66,0,.23.29.75.14.62-.39-.56,0-.26-.41-.72l.22.16c-.64-.86.09,0-.59-.89-.23-.09.06.37-.16.28.19.33.33.45.52.78.28.64-1.12-1.29-.69-.48.25.38.77,1.06.42.75l-.45-.61c-.16,0,.64.89.21.57-.17-.24-.09-.25-.16-.31-.46-.41.23.37.19.41l-.45-.51c0,.17.2.63.19.81a3,3,0,0,0-.43-.45c.1.37-.33.21-.75.09l.4.44a1.16,1.16,0,0,1-.3-.24c-.22-.09.28.25.44.42s-.29-.18-.41-.31c.29.42.63.91.06.63l-.12-.12c-.25-.06.92.79.42.54L82.49,4c-.33,0,0,.48-.82.16.72.44-.43,0,.6.57a4.22,4.22,0,0,0-1.17-.33c-.07,0,.63.39.72.48l-.55-.26.55.34-.68-.27.12.11a2.48,2.48,0,0,1,.43.15c.22.18-.47,0-.76-.12l.4.38A3,3,0,0,1,80.9,5c.54.33-.61-.23-.11.08.13,0,.34.14.45.18-.36-.09-.4,0-.28.15l-.39-.16c-.16.11.08.36,0,.52a3.12,3.12,0,0,1,1,.28l-.63-.16a5.12,5.12,0,0,1,.7.21,3.4,3.4,0,0,1-.91-.25l.2.13-.53-.16c.39.13-.66,0,0,.18l-.19,0c0,.17.15.3.15.43a6,6,0,0,1,.86.26c-.18.06-.64.09-.61.22a3.65,3.65,0,0,0,.8.16c-.51-.06-.48.06-.83,0,.06.15.07.19.48.4a2.45,2.45,0,0,1,.47,0c.09,0-.21.05-.46,0h0c.76.2-1.52.43-.44.61h0l.56.14c-.08.08-.39,0-.7,0,.87.13-.1.31.48.4-1.49.32.17.4-.75.73l.35-.08c.35,0-.19.09-.26.14a4.09,4.09,0,0,1,.49-.13c.49.23-.33.81-.49,1.29,0,.17,1.74-.59,1-.14l-.63.21c.82-.06.19.51.91.43a1.41,1.41,0,0,1-.33.13c-.4.27.07.19.42,0,0,.05-.31.17-.47.29s.6-.18.2.08a.89.89,0,0,1-.18.07c.21-.08,0,.17.49-.14-.18.21.3,0,.06.25.54-.3-.17.3.57-.18-.76.5-.52.55-.14.34-.23.14-.2.2-.52.41,0,0,.22,0,.59-.29-.79.75.83-.35-.22.56a6.14,6.14,0,0,1,1.12-.27c-.68.6-.19-.07-.89.55.39-.11,1-.58,1-.32a1.86,1.86,0,0,1-.42.35c.38-.15.16.27.6,0a.9.9,0,0,1-.19.16s0,.14.23-.16l-.09.06c.38-.45.92-.83,1.13-1.07-.82.84-.11.3-1.16,1.36a3.63,3.63,0,0,0,.4-.38,2,2,0,0,1-.37.41c.22-.1.49-.45.54-.39-.13.15-.19.2-.35.37.29-.27.57-.54.51-.37s-.17.22-.19.2c.14,0,.81-.67.67-.3-.56.66-.15.25-.59.85l.19-.14.2-.31c0,.05.4-.36.3-.13l-.22.22.17,0,.12-.26c.27-.28.55-.77.48-.56-.05,0,0,0-.19.41h0c.16-.18.32-.37.25-.19l-.56.81c.38-.5.22-.06.61-.6a6,6,0,0,0-.35.52l.29-.41a2.61,2.61,0,0,1-.27.48c0,.12.49-.82.34-.42l-.11.15c0,.23.32-.18.26.08-.36.66-.16.12-.46.68.19,0,.68-.65.7-.44l0-.09c.51-.93-.17.51.12.09a4.64,4.64,0,0,0-.23.42c0,.19.28-.15.53-.41l-.13.25c-.06.24.06.17.06.31a3.28,3.28,0,0,0,.27-.56c-.45,1.49.59-.65.24.6a.7.7,0,0,0-.11.21l.21-.19a6,6,0,0,0,.18-.62,1.52,1.52,0,0,1,.23-.43,4.2,4.2,0,0,0-.31.95c.05-.13.1-.28.15-.42-.21.8.32-.87.21-.32l-.08.23c.07-.11.19-.41.2-.33a5.75,5.75,0,0,1-.25.64c.06,0,.4-.93.27-.41-.06.14-.09.13-.15.26-.15.62-.09.47-.08.57h0v.29l0-.17c.46-1.32.2-.21.52-1.06a5.45,5.45,0,0,0-.31,1.06,3.15,3.15,0,0,1-.09.52c.16-.46,0,.39.2-.29a2.12,2.12,0,0,1-.08.51c.09-.14.06-.34.13-.57.23-.63,0,.83.32,0,.18-.35.32-1,.46-1.3a4,4,0,0,1-.15.7c0,.29,0,.25.12,0,0,.17-.05.31-.08.53,0,0,.14-.7.14-.41s-.1.56-.15.77c.07-.17.17-.52.24-.69a4.89,4.89,0,0,1-.15.72,2,2,0,0,0,.26-.82V13.8a3,3,0,0,1-.08.55c-.1.42,0-.19,0-.38l0-.12c.13-1.14-.14.16-.2.09l.16-.82-.17.67a4.72,4.72,0,0,1,.14-.79c0-.41-.09.29,0-.17a.78.78,0,0,1,0-.14l-.08.23c0-.17.1-.58.1-.45,0-.49-.22.59-.12,0v0c-.14.26-.13.6-.35,1.29l.28-1.48-.15.59a1,1,0,0,1,0-.31c-.13.4,0,.26-.16.64.08-.55-.2.22,0-.72a4.34,4.34,0,0,1-.17.66c.25-1-.1.15,0-.32a3.86,3.86,0,0,0,.2-.71c-.26.87,0-.21-.09,0-.21.69-.16.27-.28.49a4.78,4.78,0,0,0,.06-.68l0-.12c-.25.69-.25.54-.34.67a7,7,0,0,1,.3-.75h0a2,2,0,0,1-.19.41l.2-.52s-.31.58-.24.22a13.28,13.28,0,0,1-.67,1.63,7.92,7.92,0,0,1,.34-.79s-.11.2-.08.09l.2-.43c0-.2-.16.36-.16.31l.21-.56s0,.16,0,0a3,3,0,0,1,.17-.58,3.66,3.66,0,0,1-.24.53,4,4,0,0,1,.23-.64,2.68,2.68,0,0,0-.27.51s.1-.26.16-.41c-.13.23-.13,0-.37.61V12h0c-.33.5,0-.37-.2-.18l.09-.18c-.14.18-.15.07-.38.43a3.18,3.18,0,0,1,.25-.54c-.1.12-.21.31-.1,0s.14-.27.16-.2c0-.17.19-.45-.12,0,.27-.43.29-.57.2-.45l-.16.33c-.06,0,0,0,0-.05l.36-.56c.36-.73-.87,1.08-.19-.09-.28.38-.14.3-.46.75a9.5,9.5,0,0,1,.51-.93c.17-.33-.59.78-.5.53a6.52,6.52,0,0,1-.66.88,6.13,6.13,0,0,1,.67-1s0,.05-.06.12a2.4,2.4,0,0,0,.27-.36l-.15.19a2.74,2.74,0,0,1,.31-.52,1.77,1.77,0,0,0-.29.42c.16-.31-.06-.06,0-.27a3.72,3.72,0,0,1-.24.33c.12-.28-.31.33-.41.38.2-.31.54-.67.31-.47a5,5,0,0,1,.53-.63c-.32.32.13-.28.17-.36l.14-.13c-.08.08-.09.07-.09.06l-.3.37a1.2,1.2,0,0,1,.16-.23c-.21.23-.5.61-.8.91.14-.19-.22.16.19-.32-.1.2.42-.48.52-.52-.06.05-.06,0,0,0a1.33,1.33,0,0,1,.12-.12c.34-.45-.49.52-.52.47a4.23,4.23,0,0,0,.39-.46,5.75,5.75,0,0,1-.6.63c.17-.23-.17.12-.16.08l-.07.11a1,1,0,0,1-.34.27c.2-.2.16-.12.23-.22-.46.43.41-.51.08-.24.16-.18.47-.46.58-.59-.36.29.32-.36,0-.13a4.46,4.46,0,0,1-.61.55l.29-.17-.53.44s.25-.17.2-.1a4.15,4.15,0,0,0-.49.45c.49-.52-.35.23,0-.13l.87-.8c.36-.39-.51.34-.34.08l-.14.16c-.36.29-.08,0-.24.11.31-.25.41-.36.59-.52a6.7,6.7,0,0,0-.63.44l.39-.35c.14-.17-.93.63-.86.5.35-.25.56-.43.83-.59,0,0,0-.07-.18.09.2-.15-.46.27-.17,0a3,3,0,0,1-.47.29l.16-.11a5.42,5.42,0,0,0-.59.39c1-.75-.18-.12.68-.73a.79.79,0,0,1-.32,0c.11-.06.17-.1.14-.07.29-.23-1,.53-.68.26.55-.33.32-.13.52-.26,1.14-.63-.18,0,.47-.38l.07,0c.38-.22-.47.16-.41.07l.18-.08a3.14,3.14,0,0,1-1,.3c.48-.19.26-.09.73-.3-.08,0-.76.33-.91.34.25-.12.46-.25,1-.46l0,0c.65-.3,0,0,.07-.11l.29-.11c-.11,0-.85.27-.83.18l-.21.09c-.75.21.39-.18-.16,0l.74-.26a6.3,6.3,0,0,1-.91.14l1.21-.26s-.07-.05-.45.05c.08,0,.26-.06.15,0-.6.16-.91.2-.91.14,1.48-.39.33-.23,1.49-.53-.57.06.22-.16.12-.19-1.18.19,0,0-1.25.15-.09,0-.07,0,0,0l.73-.14c.35,0,.26,0,.54,0a8,8,0,0,1,.84-.1c-.44,0-.63,0-.46,0L85.18,8c-.66,0,1-.11.37-.11h.39a5.47,5.47,0,0,0-1-.08h.56c.15,0-1-.17-.43-.19l.3,0c-.09,0-.56-.07-.26-.06l.31,0c-.1,0-.51-.08-.34-.08l.33.05c.4,0-.8-.19-1-.3a10.31,10.31,0,0,0,1.3.15l.12,0c.12,0-.68-.25-1-.42.93.2.43,0,1,.07-.16,0-.65-.23-.73-.27.17,0-.56-.26.2,0h0c.75.26.56.17.59.15l-1-.39c1.44.53-.43-.42.83.12-.23-.13-.22-.15-.45-.28l.51.25c.15,0,.22,0,.13,0l.34.2c.05,0-1.4-.84-1.41-.89l.74.42c0-.06.66.3.06-.16l.32.23s.52.27-.43-.4c.61.44.09,0-.15-.24l.44.34A6,6,0,0,1,85,5.46c.07,0,.36.27.24.19.25.16-.39-.35-.14-.2l.27.24c.05,0-.1-.12-.4-.4s.16,0,.54.37c-.23-.21-.52-.5-.4-.42l.27.25c.31.22-.41-.51,0-.16l.24.23s-.09,0-.11,0c.37.35.46.4,1,.9-.28-.27-.84-.9-.65-.75l.13.13,0,0s0,0,0-.07.11.1.13.09c.29.31.17.15.2.16-.38-.42-.31-.36-.63-.69a.15.15,0,0,1,.05.07l0,.05,0,0a.13.13,0,0,1,0,.06c-.18-.22-.33-.41-.11-.19-.23-.28-.47-.56-.59-.69.55.56.86.85,1.18,1.21a7.87,7.87,0,0,0-.67-1.07c-.07-.12.2.23.3.36a2.12,2.12,0,0,0,.13.2,3.59,3.59,0,0,0-.42-.74c.23.24.37.57.35.44l.12.19c.37.46.13.06,0-.33s-.32-.77.1-.13l-.14-.22c.22.25.21.1.24,0s.08-.23.32.26c.1.2-.05-.25-.13-.6l.19.57L86.33,4c-.06-.51.46,1.4.3.46l-.1-.4c0,.07,0-.25.13.21,0-.07-.07-.42,0-.21l.06.31,0-.54c.09.21.18,1.24.24,1.29,0-.13,0-.93-.07-1.14a2.49,2.49,0,0,1-.08-.5V3.35A13.33,13.33,0,0,0,86.45.84l0,.58L86.33,1l.08,0c-.1-.41-.09,0-.09.23a3.47,3.47,0,0,0-.11-.49l0,.9a4.64,4.64,0,0,0-.17-.91c0,.41.18.8.15,1.08-.11-.41-.17-.75-.15-.39A1.54,1.54,0,0,1,86,.86c0,.29-.11.14,0,.63-.17-.51-.13.16-.33-.69a3.64,3.64,0,0,1,0,.74c-.2-1-.18,0-.48-1.1.21.92-.11.47,0,1,0-.07-.06-.22,0-.17A3.18,3.18,0,0,1,84.84.8c.27.73.25.94.4,1.4-.36-.67-.31-.87-.61-1.53.24.59.12.64.35,1.12A7.85,7.85,0,0,1,84.56,1c.39.9,0,.18.22.75-.28-.41-.41-.83-.37-.52A1.91,1.91,0,0,1,84.17.64Zm-.79,2.6h0v0Zm-.1.12a.07.07,0,0,0,.06,0,2.34,2.34,0,0,1,.27.28A2.36,2.36,0,0,0,83.28,3.36ZM86.16,6l-.1-.1,0-.06,0,0Z"/><path class="cls-1" d="M85.68,5.43l0,0-.09-.09.12.13Z"/><path class="cls-1" d="M86.83,12h0l0,.07Z"/><polygon class="cls-1" points="81.14 4.59 81.27 4.65 81.16 4.58 81.14 4.59"/><path class="cls-1" d="M86.71,14l0,.14Z"/><path class="cls-1" d="M87,14.22l0,.21A1.11,1.11,0,0,0,87,14.22Z"/><path class="cls-1" d="M87.14,14.56l.07-.23h0Z"/><path class="cls-1" d="M83.15,13.05h0C83,13.12,83.07,13.1,83.15,13.05Z"/><path class="cls-1" d="M84.93,12.81a2,2,0,0,1-.18.2C84.74,13.06,84.75,13.08,84.93,12.81Z"/><polygon class="cls-1" points="81.6 12.3 81.61 12.3 81.61 12.29 81.6 12.3"/><path class="cls-1" d="M84.71,13c0,.1,0,.09,0,0S84.77,12.91,84.71,13Z"/><path class="cls-1" d="M88.2,15V15Z"/><path class="cls-1" d="M88.22,15l0-.07S88.23,14.91,88.22,15Z"/><path class="cls-1" d="M88.29,14.77l0,.13S88.27,14.93,88.29,14.77Z"/><path class="cls-1" d="M87.9,14.73l0,.2Z"/><path class="cls-1" d="M87.78,14.76c0,.05,0,.44,0,.32l0-.15C87.79,15.22,87.87,14.43,87.78,14.76Z"/><path class="cls-1" d="M88,12.23l0,.17a2.6,2.6,0,0,1,.13-.55C88.19,11.21,88,12.33,88,12.23Z"/><path class="cls-1" d="M87.86,11.87a3.56,3.56,0,0,0,.12-.42A1.66,1.66,0,0,0,87.86,11.87Z"/><path class="cls-1" d="M86.66,11.38l.24-.45C86.85,11,86.81,11.11,86.66,11.38Z"/><polygon class="cls-1" points="85.07 13.52 84.94 13.81 85.19 13.42 85.07 13.52"/><polygon class="cls-1" points="86.86 10.34 86.91 10.28 86.78 10.42 86.86 10.34"/><path class="cls-1" d="M85.51,9.27,85,9.61A3.43,3.43,0,0,0,85.51,9.27Z"/><path class="cls-1" d="M84.6,8.87c.29-.12.48-.2.18-.11C84.75,8.79,84.52,8.88,84.6,8.87Z"/><polygon class="cls-1" points="85.63 6.92 85.82 7 85.67 6.92 85.63 6.92"/><path class="cls-1" d="M31.63,28c-.17.06-.48.29-.37.32l.59-.32Z"/><path class="cls-1" d="M31,29.16a3.41,3.41,0,0,0,1.26-.81c-.55.33-.35.15-1,.52-.12,0,.07-.26.28-.39-.16.08,0-.19-.33,0-.36.38-.27.54.16.4A1.43,1.43,0,0,1,31,29.16Z"/><path class="cls-1" d="M39.23,34.3l0-.09A.15.15,0,0,0,39.23,34.3Z"/><path class="cls-1" d="M45.43,34.93a.14.14,0,0,0-.07.14S45.44,35,45.43,34.93Z"/><path class="cls-1" d="M46.54,35.58l-.07,0C46.5,35.6,46.53,35.63,46.54,35.58Z"/><path class="cls-1" d="M39.23,34.3l.14.23C39.41,34.32,39.31,34.36,39.23,34.3Z"/><path class="cls-1" d="M32.94,28.94a.63.63,0,0,0-.17.08h.09Z"/><path class="cls-1" d="M36.39,34.21l0,0-.12.25Z"/><path class="cls-1" d="M34.28,33.56s.27-.47.38-.68c-.11.2-.19.29-.25.31S34.33,33.41,34.28,33.56Z"/><path class="cls-1" d="M31.77,30.94l-.1,0Z"/><path class="cls-1" d="M37.87,34.71c0,.08,0,.16,0,.2A1.36,1.36,0,0,0,37.87,34.71Z"/><path class="cls-1" d="M33.56,26.06l-.1,0C33.52,26.06,33.55,26.07,33.56,26.06Z"/><polygon class="cls-1" points="30.85 27.95 30.81 27.92 30.5 27.98 30.85 27.95"/><path class="cls-1" d="M48.57,36.1h0C48.51,36.16,48.54,36.15,48.57,36.1Z"/><path class="cls-1" d="M56.71,21.05c-.26.48-.73.13-1,.73C55.9,21.61,56.63,21.47,56.71,21.05Z"/><path class="cls-1" d="M32.92,29a.1.1,0,0,1,0,0A.05.05,0,0,0,32.92,29Z"/><path class="cls-1" d="M55.75,21.78h0l0,.06Z"/><path class="cls-1" d="M53.22,34.84a.91.91,0,0,0-.13-.22A.93.93,0,0,0,53.22,34.84Z"/><path class="cls-1" d="M49.56,34.83l.09.06S49.58,34.83,49.56,34.83Z"/><path class="cls-1" d="M54.77,33.32c.06,0,.12.07.14,0s0,0,0,0S54.86,33.37,54.77,33.32Z"/><path class="cls-1" d="M56.51,32.06,56.4,32l0,.07Z"/><path class="cls-1" d="M35.19,22.7c-.14-.09-.28-.2-.41-.3C35.08,22.66,35,22.9,35.19,22.7Z"/><path class="cls-1" d="M32.72,29.17c.11-.1.16-.14.2-.15h-.06Z"/><path class="cls-1" d="M52.69,29.4l.2,0A.27.27,0,0,0,52.69,29.4Z"/><path class="cls-1" d="M44.69,19.32l-.06.06S44.67,19.38,44.69,19.32Z"/><path class="cls-1" d="M53.23,29.05a1.11,1.11,0,0,0,.31.24,1.23,1.23,0,0,0-.08-.12Z"/><path class="cls-1" d="M34.77,22.39h0Z"/><path class="cls-1" d="M34.92,24.3c.12-.13-.54-.48-.86-.76,0-.33.5.23.85.39-.07-.23-.53-.74-.43-.82a.88.88,0,0,1,.25.2c-.34-.5.28-.38-.11-1l.15.11c-.28-.23-.56-.49-.75-.68.07-.08-.19-.48.18-.16-.05,0,.08.18.17.3l-.07-.22c.55.42.06.28.43.64,0-.31-.23-.9,0-.87.48.48-.12.43.45.73l-.36,0c.88.65-.15,0,.77.75.34,0,0-.48.35-.51-.19-.33-.38-.41-.57-.75-.06-.83,1.34,1.13,1,.22-.2-.41-.67-1.15-.2-.91l.37.68c.29-.1-.47-1,.09-.77.11.29-.07.35,0,.4.5.39-.11-.45,0-.54l.39.56c.21-.25.28-.87.57-1.15a1.26,1.26,0,0,0,.29.56c.25-.52.93-.34,1.46-.11l0-.61s.16.23.16.35c.23.16-.12-.36-.11-.6.08-.07.23.28.23.46.11-.57.55-1.28,1-.75l0,.18c.3.18,0-1.23.38-.75l0,.11c.58.14,1.16-.47,1.65.38,0-.85.55.35.54-.83.34.57.25.79.67,1.18.11.06.19-.73.35-.84l0,.61.24-.63.05.74.14-.15a.78.78,0,0,1-.07-.46c.25-.27.48.49.44.8.18-.15.37-.32.56-.45a1.18,1.18,0,0,1-.23.45c.35-.57-.06.65.26.13a1.78,1.78,0,0,1,.11-.48c0,.39.3.43.53.33l-.13.4c.31.18.76,0,1.14.12-.07-.23.19-.93.33-.95l-.16.63c.2-.35,0-.27.27-.68.13.12-.15.73-.3.9l.25-.15a4.83,4.83,0,0,1-.22.5c.21-.35.05.71.4.1l-.06.18c.35.16.61,0,.92.14.25-.5.31-.33.61-.69.15.28.17.81.45.91.32-.13.3-.37.56-.61-.26.45,0,.57-.31.79a1.71,1.71,0,0,0,1.05.1c.09-.2.09-.3.22-.43s0,.29-.12.48l-.05,0c.43-.14.46.34.44.78s0,.82.49.58l-.06,0,.7-.1c.07.2-.36.19-.49.51.93-.25.39.6,1.05.52-.5.58-.34.75-.11.91s.51.3.2.71l.29-.21c.35-.1-.11.21-.14.3.23-.15.22-.25.41-.3a1.15,1.15,0,0,1,.46,1.15,1.29,1.29,0,0,1-.45.87c-.1.05,1.85,0,1,.17l-.66-.07c.39.12.37.31.29.46a.58.58,0,0,0,0,.65c-.12-.09-.29-.19-.27-.22-.45-.18-.17.23.14.47-.08,0-.3-.19-.49-.27s.35.55,0,.28a.37.37,0,0,1-.12-.15c.14.2-.22.15.22.49-.3-.06-.07.42-.4.26.31.55-.41-.05.07.67-.5-.74-.65-.44-.56,0-.1-.26-.24-.2-.38-.55-.1.07-.14.28.08.68-.35-.42-.37-.18-.42,0s-.11.39-.43-.23a3.21,3.21,0,0,1-1.06,1.38c-.18-.88.49-.21.23-1.13-.3.46-.41,1.28-.91,1.15-.14-.09,0-.39,0-.55-.38.45-.89.07-1.25.62a.55.55,0,0,1,.05-.26c-.08,0-.21-.1-.15.3l.07-.12c.22.57-.17,1.28-.15,1.59,0-1.18-.48-.24-.43-1.74a1,1,0,0,0,0,.56c-.09-.07-.14-.23-.09-.55-.28.26-.12.68-.4.71a3.26,3.26,0,0,1,0-.52c-.1.4-.2.8-.46.66,0-.12,0-.27,0-.28-.39.11-.6,1.1-1.08.77.06-.87-.18-.28-.26-1l-.22.24.12.35c-.21,0-.36.56-.56.33l.14-.32-.38.16.24.28c-.2.39.07.94-.23.74.06-.07-.22,0-.34-.43h0c-.1.24-.2.5-.37.31s0-.82,0-1c-.09.62-.49.18-.61.85a2.86,2.86,0,0,0,0-.63l-.09.51a.78.78,0,0,1-.1-.55c-.29-.1.1.94-.25.53,0,0,0-.11.07-.19-.35-.21-.69.32-1,0-.07-.75.28-.17.19-.81-.45.13-1,.86-1.42.65l.07.09c-.15,1.05-.28-.56-.55-.08a1.4,1.4,0,0,0,.1-.46c-.28-.2-.63.19-1.14.46l.09-.27c-.14-.26-.44-.21-.6-.37-.11.26-.21.2-.22.6-.15-.81-.45-.67-.77-.49s-.66.36-.74-.33c.06,0,.2-.19.15-.2l-.49.12c-.1.45,0,.28,0,.66s-.32.41-.43.37c.29-.23.21-.71.21-1,0,.14-.11.28-.14.42,0-.86-.32.87-.47.25l.09-.23c-.15.08-.37.34-.47.23.13-.52.21-.19.36-.6-.18,0-.69.82-.67.27.13-.12.24-.08.36-.19,0-.65,0-.51-.11-.65v0l-.17-.37V31c-.74,1.21-.51.07-1.17.77.64-.66.26-.44.54-1a1,1,0,0,1,.08-.54c-.34.38,0-.44-.51.11.08-.17-.12-.08.14-.5-.22.06-.13.32-.26.53-.58.44-.13-1-.93-.44-.48.13-.93.62-1.41.65a1.06,1.06,0,0,1,.52-.49c0-.34-.09-.38-.37-.32a1.34,1.34,0,0,0,.32-.43c-.12-.05-.54.47-.47.13.17-.13.44-.36.63-.48a5.77,5.77,0,0,1-.82.2,1.77,1.77,0,0,1,.63-.41,1.31,1.31,0,0,0-1,.21l-.07.22c-.06,0,.33-.33.43-.36.41-.18,0,.28-.13.42h-.17c-.75.88.47.23.58.41l-.64.55c.23-.11.44-.23.65-.35-.1.2-.37.58-.55.59-.13.43.32-.12.15.33a.18.18,0,0,1-.1.11l.3-.07c-.14.11-.34.48-.36.31,0,.6.81-.17.55.41l0,0c.54,0,.39-.47,1.06-.89-.22.46-.42.93-.62,1.4l.36-.5c0,.05.09.13,0,.33.37-.27.11-.24.4-.53-.09.6.65.07.24,1,.29-.37,0-.41.34-.59-.41,1,.33,0,.3.48-.29.46-.35.12-.37.65.51-.77.3.35.54.27.3-.67.48-.13.85-.25-.11.22.38.57.57.91l0,.11c.29-.68.51-.47.75-.55a1.43,1.43,0,0,1-.39.73l.2,0c.11-.21.2-.31.35-.35l-.2.51c.27,0,.68-.49.92,0,.14-.5.1-1.45.5-1.7a2.19,2.19,0,0,1-.26.82s.15-.2.18-.07l-.24.42c.1.24.17-.36.27-.29-.09.38,0,.29-.06.6,0,0-.07-.19-.15-.05a.91.91,0,0,1,.22.67c0-.22.12-.52.22-.55.27,0,0,.49.11.72.11-.26.23,0,.34-.53.08,0,0,.29,0,.46.18-.24.64,0,.59-.61l0-.05,0,0h0c.51-.51.85.46,1.32.26l0,.19c.28-.2.59-.07.81-.48.07,0,.15.37.1.6.21-.13.24-.35.51,0-.22.33,0,.31-.22.24.25.18.3.51.6,0-.12.5.17.64.3.49L42.39,35a.42.42,0,0,1,.38,0l-.08.66c.54.83,1-1.36,1.38,0,.13-.47-.29-.32-.17-.87.24.08.51,1,.59,1,.36.36.29-1,.64-.74-.05-.24-.12-.87.12-1.1.24.07.35,1,.2,1.17-.05,0-.09-.05-.09-.13a.37.37,0,0,0-.06.45l0-.24c.13.24.47.2.41.59a.33.33,0,0,0-.08-.51c.33.32.48,0,.82.18-.06-.12-.13-.4-.08-.4.49.26.17-.46.47-.6.21.35,0,.87.31.54.22.23.1.62,0,.82.25-.48.58.25.76.31l-.14.21a.28.28,0,0,1,.24-.14l-.14-.46c.1.07.17.07.19.26.06-.32-.15-.77,0-1.22.15.23.33-.29.45.33-.4-.17.11.62-.19.76,0-.08.13-.09.23,0a.23.23,0,0,1,0,.17c.43.51.08-.73.45-.76,0,.36.17.66.23.57-.16,0-.15-.57,0-.86.27.24.23-.24.36-.22l-.16-.11c0-.36.12-.33.27-.47,0,.27-.12.21-.05.33.09-.65.52.57.71.11.17.22.13.66.26.8.22-.5.42.42.68,0-.19-.45-.18-.33-.05-.83l-.46.43.21-.74c-.16,0-.27.35-.38.29.09-.41.09-.29-.05-.67.34.67.32-.48.66-.06l.23,1.16c.51.43.54-.74,1.1-.59l-.21-.15c-.06-.48.28-.15.38-.38a1.9,1.9,0,0,0,.39.69c-.1-.27.39-.1.16-.86l.41.41c.49,0,0-1.22.41-1.26.08.44.37.61.25,1,.13-.06.27-.05.16-.3.19.19.09-.65.38-.38,0-.18-.22-.55-.08-.59a.56.56,0,0,1,.1.16c-.09-.17.06-.34-.27-.65.48.43.74.23.93,0s.36-.43.86-.17a6.42,6.42,0,0,1,.46-.91c.08.09.15.13.08.15.54-.09-.74-.88-.18-1,.65.18.15.38.43.41,1.11.68.16-.54,1-.44l0,.11c.52,0-.15-.77.06-1.09a.58.58,0,0,0,.18.07A2.91,2.91,0,0,1,57.67,28c.49.18.24.2.76.22,0-.18-.82-.1-.93-.41a4.13,4.13,0,0,1,1.1-.29c0,.12,0,.23,0,.34.73-.11,0-.45.13-.62l.31,0c-.13-.57-.9-.5-.94-1l-.22.1c-.81-.08.38-.33-.25-.43l.73-.31c-.24-.14-.92-.34-1.17-.53a2.84,2.84,0,0,1,1.43.27c-.06-.19-.28-.58-.68-.5.1,0,.32,0,.23.15-.66,0-1-.07-1.16-.35,1.4-.65,0-.89.87-1.69-.79-.21-.43-1.13-.93-1.65-.8.92-.15-.14-1.09.65-.16-.07-.18-.13-.12-.19L56,21c.2-.32.3-.06.5-.25-.15-.34.3-.45.39-.84-.3.32-.56.31-.57.05l-.23.59c-.81.08.47-1-.36-.94l.4-.16c-.35,0-.7-.71-1.55-.14.06-.13.24-.42.38-.41-.37-.54-1.69-.07-1.7-.82l.22-.21c-.15,0-.49.34-.43,0,.08-.09.21-.21.17-.26s-.54.25-.57,0l.3-.21c-.3-.65-1.21.19-1.72.15a1.26,1.26,0,0,0,0-1.48l.06-.11c-.6-.42-1.41.14-2.1.25,0-1-1.13-.83-1.64-1.49a1,1,0,0,1-.3.72c-.11-.21-.53.51-.34-.28l.05,0c0-.8-.31-.65-.55-.72l-.22,1c-.17-.82-.63-.72-1-.61s-.72.29-.87-.4c-.16.25-.35.25-.5.51v-.57a1.47,1.47,0,0,0-1.17,0l.09-.41c-.32,0-.28,1.64-.53,1.7l-.15-.83c-.5.05-1.14-.6-1.51.24,0-.13,0-.37,0-.42-.24,0-1.06-.36-.71.75-.18-.75-.54.05-.7.44l-.1-.55c0,.75,0,.93-.22,1.22-.09-.05-.2-.41-.06-.3-.32-.21,0,.56-.39.37v-.38c-.25,0-.18.21-.16.65-.07.27-.49,0-.71-.42.08.3.11.73-.08.65a.72.72,0,0,1-.09-.36c-.54-.18-.3.84-.79.47a.89.89,0,0,0-.19-.28c.31-.14.58-.22.57-.17-.2-.47-.51-.43-.59-1.18-.06.46,0,1.37-.39,1.29a1.18,1.18,0,0,1-.11-.15v-.06c-.08,0-.11.05-.12.15a.48.48,0,0,0-.28,0c-.23-.36-.39,0-.53,0,.29.48.09.49.47.81,0,0,0-.07.06-.14a.15.15,0,0,0,0-.08l0,.05a1.87,1.87,0,0,1,.28-.2c0,.3.06.56-.23.37l.3.88c-.55-.59-1.09-.77-1.39-1.14-.19.5-.74.75-.3,1.75,0,.18-.29-.16-.43-.26s.06-.16,0-.31c0,.36-.5.53-.06,1.13-.44-.06-.31-.63-.55-.27l-.11-.2c-.7-.16-.65.43-.57,1s.15,1-.72.89a.53.53,0,0,1,.27.08c-.58.19-.78.72-.95,1.23A1.79,1.79,0,0,1,30,23.64c-.31.21.12.41.4.69l-.59-.13c.19.18.38.35.58.51s-.22.34-.57.48-.65.36-.2.71l.41,0c-.11.19.19.63-.27.59.07,0,.42.07.21.15h-.32a5.23,5.23,0,0,0,.56.48c-.2.4-1.27,0-1.26.66a1.45,1.45,0,0,0,1.2.34c0-.08.16-.24.47-.3l.19.13a7.57,7.57,0,0,0,2.46-.67q-.3,0-.6-.09l.45-.11a.78.78,0,0,0,.05.14c.4-.14,0-.13-.23-.17a2.44,2.44,0,0,0,.49-.11c-.3,0-.6-.07-.9-.13.36,0,.72,0,.92-.06-.41-.08-.82.1-1.08,0,.42-.1.77-.05.41-.17a1.33,1.33,0,0,1,.49.07c-.29-.1-.1-.23-.59-.34.53,0-.09-.35.78-.19-.2-.06-.64-.29-.66-.4,1,.41.15-.31,1.23.05-.88-.39-.28-.51-.67-.92.06.05.19.13.14.13.13-.09.4,0,.59,0-.71-.35-.76-.62-1.13-1,.74.22.76.53,1.43.83-.57-.29-.44-.54-.92-.76a2.64,2.64,0,0,1,.85.3c-.83-.53-.09-.18-.54-.59.51.11.79.47.66.14A1.06,1.06,0,0,1,34.92,24.3Zm2.69-4.38h0l-.08.08Zm.41-.21a.35.35,0,0,0-.19.06c-.1-.17-.17-.36-.12-.37S37.89,19.59,38,19.71Zm-2.77-3c0-.11.13,0,.19.06l-.11.14,0,.07A1.4,1.4,0,0,1,35.25,16.74Z"/><path class="cls-1" d="M35.47,17.47s0,0,0,.06l.1.08-.05-.17Z"/><path class="cls-1" d="M39.17,34.2h0s0-.05,0-.08Z"/><polygon class="cls-1" points="44.2 19.57 44.2 19.42 44.16 19.55 44.2 19.57"/><path class="cls-1" d="M36.87,31.68a.76.76,0,0,0,0-.15A.66.66,0,0,0,36.87,31.68Z"/><path class="cls-1" d="M35.82,31.18l-.07-.24A.78.78,0,0,0,35.82,31.18Z"/><path class="cls-1" d="M35.14,30.59,35,30.8h0Z"/><path class="cls-1" d="M49,31.11a0,0,0,0,0,0,0C49.06,31,49,31,49,31.11Z"/><path class="cls-1" d="M44.79,32.82a1.42,1.42,0,0,1,.12-.27C44.84,32.51,44.78,32.5,44.79,32.82Z"/><path class="cls-1" d="M52.67,29.4h0Z"/><path class="cls-1" d="M45.12,32.55c-.09-.11-.15-.08-.21,0S45.06,32.64,45.12,32.55Z"/><path class="cls-1" d="M32.51,28.44v0l-.07.05Z"/><path class="cls-1" d="M32.43,28.45l-.07,0S32.38,28.49,32.43,28.45Z"/><path class="cls-1" d="M32.2,28.49l.16,0S32.33,28.4,32.2,28.49Z"/><path class="cls-1" d="M33.05,29.31l.14-.15Z"/><path class="cls-1" d="M33.34,29.46c0-.08.12-.45,0-.42l-.11.12C33.42,29,33.06,29.69,33.34,29.46Z"/><path class="cls-1" d="M33.26,32.41l-.21-.31c-.06.21-.14.51-.3.47C32.82,33.36,32.91,32.11,33.26,32.41Z"/><path class="cls-1" d="M34.08,33.17c-.21,0-.13.28-.19.39C34.09,33.43,34.13,33.4,34.08,33.17Z"/><path class="cls-1" d="M41.43,34.9l0,.51C41.52,35.35,41.39,35.22,41.43,34.9Z"/><polygon class="cls-1" points="42.91 32.33 42.79 32 42.72 32.47 42.91 32.33"/><polygon class="cls-1" points="43.7 35.97 43.64 36.05 43.87 35.86 43.7 35.97"/><path class="cls-1" d="M56.55,32.7l-.45-.45C56.09,32.41,56.52,33,56.55,32.7Z"/><path class="cls-1" d="M58.47,26.25c.3-.13.45-.39.11-.43C58.58,26,58.38,26.19,58.47,26.25Z"/><polygon class="cls-1" points="46.05 14.67 46.21 14.48 45.95 14.63 46.05 14.67"/><path class="cls-1" d="M52.33,33.84c-.14.11-.4.4-.29.4l.5-.43Z"/><path class="cls-1" d="M51.81,35.07a4.61,4.61,0,0,0,1.19-.9c-.53.35-.35.16-1,.6-.11,0,.06-.24.25-.4-.14.1,0-.19-.31.08-.29.43-.23.51.17.32A2.24,2.24,0,0,1,51.81,35.07Z"/><path class="cls-1" d="M52.59,41.16h0Z"/><path class="cls-1" d="M50.33,43.5a.22.22,0,0,0,0-.14A.25.25,0,0,0,50.33,43.5Z"/><path class="cls-1" d="M49.63,43l0,0S49.62,43,49.63,43Z"/><path class="cls-1" d="M52.59,41.16l-.22,0C52.57,41.26,52.53,41.19,52.59,41.16Z"/><path class="cls-1" d="M53.7,34.87a.54.54,0,0,0-.18,0l.1,0Z"/><path class="cls-1" d="M52.23,39.66v0H52Z"/><path class="cls-1" d="M52,38.6a7.58,7.58,0,0,0,.76-.16,1.35,1.35,0,0,1-.38,0Z"/><path class="cls-1" d="M52,36.45h0Z"/><path class="cls-1" d="M52.08,40.4l-.2,0Z"/><path class="cls-1" d="M35.21,30.14v.1S35.23,30.15,35.21,30.14Z"/><polygon class="cls-1" points="36.52 33.34 36.48 33.36 36.34 33.64 36.52 33.34"/><path class="cls-1" d="M48.77,42.43h0C48.79,42.38,48.78,42.39,48.77,42.43Z"/><path class="cls-1" d="M37,42.71c.11.51-.24.63-.07,1.2C36.89,43.69,37.11,43,37,42.71Z"/><path class="cls-1" d="M53.67,35s0,0,0,0S53.7,35,53.67,35Z"/><path class="cls-1" d="M36.89,43.91h0l0,0Z"/><path class="cls-1" d="M46,42.77A1.66,1.66,0,0,0,46,43,1.2,1.2,0,0,0,46,42.77Z"/><path class="cls-1" d="M48.19,43.59l0-.07S48.18,43.59,48.19,43.59Z"/><path class="cls-1" d="M44.78,43.54s0-.12-.08,0v.07C44.73,43.49,44.75,43.45,44.78,43.54Z"/><path class="cls-1" d="M43.56,43.53l0,.11,0,0Z"/><path class="cls-1" d="M30.09,31.89a3.06,3.06,0,0,1,.36.36C30.19,31.94,30.32,31.67,30.09,31.89Z"/><path class="cls-1" d="M53.45,35.06a.51.51,0,0,1,.22-.11l-.05,0A.63.63,0,0,0,53.45,35.06Z"/><path class="cls-1" d="M44.67,48l-.19-.09A.25.25,0,0,0,44.67,48Z"/><path class="cls-1" d="M27.71,42.76l-.09,0S27.64,42.77,27.71,42.76Z"/><path class="cls-1" d="M43.9,48a1.59,1.59,0,0,0-.1-.39s0,.08,0,.14Z"/><path class="cls-1" d="M30.46,32.25h0Z"/><path class="cls-1" d="M31.47,30.18c-.28.1.15.72.27,1.13-.2.32-.36-.44-.62-.73-.12.27.06.94-.07,1a.65.65,0,0,1-.16-.27c.11.6-.54.35-.3,1.1a.83.83,0,0,1-.13-.14c.24.28.46.59.62.81-.08.07.14.48-.19.11.06,0-.06-.18-.12-.32l0,.23c-.5-.48,0-.27-.33-.69-.06.32.13.92-.12.87-.48-.47.15-.43-.42-.73l.38,0c-.84-.7.18,0-.69-.82-.45.12-.13.56-.54.68.21.33.41.38.62.7.17.8-1.54-.84-1.12.06.29.36.95.91.44.84l-.57-.53c-.28.25.79.79.17.8-.22-.22-.07-.37-.17-.37-.64-.13.27.38.18.52l-.6-.32c-.11.39.14,1,.11,1.36a1.08,1.08,0,0,0-.57-.24c.11.6-.46,1-1,1.39l.53.31s-.27,0-.38,0c-.25.15.37.08.58.22,0,.11-.36.07-.52,0,.41.45.93,1.05.28,1.34l-.17-.07c-.25.27,1.19.33.64.55l-.1,0c-.26.58.33,1.11-.46,1.68.84-.08-.25.67.91.43-.48.46-.72.42-.93,1,0,.15.76-.06.93,0l-.57.23.68,0-.62.41.21.08c0-.07.19-.24.36-.3.34.08-.12.72-.39.89.26.1.52.18.77.25a.94.94,0,0,1-.52.11c.71-.07-.5.41.16.35a2,2,0,0,1,.41-.26.46.46,0,0,0,.3.71l-.35.25c.25.44.86.59,1.27.9,0-.28.46-.82.61-.8l-.35.55c.31-.26,0-.28.47-.57.09.16-.33.68-.55.78l.32-.05a5.16,5.16,0,0,1-.35.42c.29-.29,0,.77.48.25l-.09.18a4.28,4.28,0,0,0,1.13.29c.23-.51.32-.34.59-.72.17.27.3.78.63.83.29-.2.19-.43.38-.73-.13.5.18.54-.07.85a1.39,1.39,0,0,0,1-.29,1.23,1.23,0,0,1,0-.48c.1-.07.13.24.08.48l0,.05c.31-.34.51.08.73.45s.46.69.7.18l0,.05.44-.52c.16.1-.14.38,0,.7.49-.81.66.17,1-.38.2,1.52.91-.08,1.22.89v-.36c.09-.34.1.21.16.29,0-.27-.09-.32,0-.51.71-.42,1.46.54,2.18.87.27.1.18-1.84.5-1l-.1.66c.55-.78,1.1,0,1.64-.62,0,.15,0,.35-.09.35.1.48.41,0,.42-.37.08,0,0,.36.06.56s.29-.61.34-.13A.27.27,0,0,1,43,48c.08-.23.34.06.28-.49.19.27.38-.24.54.09.11-.62.33.3.37-.58,0,.91.34.74.47.32,0,.27.11.28,0,.66.15,0,.28-.18.26-.64.25,1.08.54-.87.67.52a4.71,4.71,0,0,1,1.21-1c0,.9-.42.08-.42,1,.37-.37.59-1.14.94-.91.09.12-.06.39-.09.54.36-.37.71.09,1.07-.4a.51.51,0,0,1-.07.24c.07,0,.17.13.16-.28l-.07.12c-.12-.6.25-1.25.25-1.57-.08,1.18.36.28.24,1.77a1,1,0,0,0,.07-.55c.08.08.11.24.05.55.27-.24.14-.66.39-.68a5.11,5.11,0,0,1,0,.52c.1-.4.17-.8.41-.67,0,.12.05.27,0,.28.4-.12.42-1.12.9-.89.14.86.22.23.5.92l.16-.3-.23-.3c.21-.07.14-.63.39-.49v.35l.27-.31-.32-.15c0-.43-.45-.83-.15-.75,0,.09.14-.07.46.24h0c-.05-.26-.12-.5.08-.43s.46.69.57.81c-.29-.56.28-.42-.08-1a2.91,2.91,0,0,0,.39.5l-.27-.44a.94.94,0,0,1,.43.36c.26-.11-.7-.64-.2-.55,0,.05.07.1.09.19.37-.08.17-.64.53-.69.64.4,0,.31.53.63.2-.45-.2-1.23.13-1.47l-.1,0c-.91-.55.59,0,.24-.41a2.19,2.19,0,0,0,.4.25c.28-.19,0-.65-.19-1.12l.25.13c.28-.08.25-.37.41-.51-.25-.11-.19-.2-.59-.22.82-.09.65-.43.44-.69s-.48-.48.16-.72c0,.06.24.14.24.09l-.26-.4a2.7,2.7,0,0,0-.64.16c-.27,0-.49-.12-.5-.2a1.48,1.48,0,0,0,1-.15c-.14,0-.3,0-.44,0,.8-.27-.93.06-.41-.25h.24c-.13-.09-.46-.12-.41-.23.52-.13.26.06.7,0-.05-.16-1.05-.1-.55-.33.16,0,.18.11.34.15.58-.26.42-.26.5-.39h0l.22-.33-.15.11c-1.4.17-.35-.32-1.3-.28.89-.05.49-.12,1.07-.29.14-.12.28-.29.45-.31-.5,0,.28-.35-.45-.27.17-.08,0-.13.43-.3-.22-.1-.3.17-.53.25-.7,0,.47-.91-.52-.82-.48-.08-1.07.21-1.48.18a1.35,1.35,0,0,1,.64-.32c.16-.28,0-.35-.21-.33a1.78,1.78,0,0,0,.41-.35c-.11-.06-.62.36-.48.07a7.8,7.8,0,0,1,.7-.38c-.23,0-.6.11-.83.11a1.67,1.67,0,0,1,.67-.35,1,1,0,0,0-1,.18l-.08.2c-.06,0,.33-.32.43-.35.41-.17,0,.27-.16.39h-.16c-.83.79.37.17.44.38l-.72.43.68-.25a1.64,1.64,0,0,1-.68.44c-.26.34.31-.07,0,.27a.4.4,0,0,1-.12.08l.27,0c-.16.08-.49.33-.42.21-.3.42.7,0,.2.35h0c.38.11.54-.29,1.28-.42-.42.29-.84.56-1.27.83l.56-.25s0,.11-.24.2c.42-.07.23-.13.61-.24-.44.37.41.29-.48.68.45-.12.28-.26.64-.23-1,.42.24.11-.17.4-.52.14-.29-.06-.71.21.89-.22-.11.29.08.32.69-.19.35.14.62.26-.24,0-.32.4-.57.58h-.12c.73-.06.61.12.77.23a2.73,2.73,0,0,1-.82,0l0,.1a.71.71,0,0,1,.44.11h-.54c0,.12.65.28.27.44.51.06,1.43-.1,1.76.17a3.55,3.55,0,0,1-.86-.1s.23.08.11.11L53,40.23c-.21.07.38.08.33.15-.39,0-.28,0-.6,0,0,0,.18,0,0-.09a1,1,0,0,1-.62.12,1.39,1.39,0,0,1,.57.13c0,.14-.47,0-.69,0,.27.08,0,.1.55.22,0,0-.28,0-.44,0,.25.12,0,.32.62.42h.05l0,0h0c.49.43-.49.39-.35.7l-.18-.09c.14.23,0,.35.29.66,0,0-.37-.1-.56-.23.07.16.25.31-.11.25-.22-.28-.27-.14-.15-.23-.22,0-.48-.16-.13.28-.38-.34-.56-.32-.48-.18l.34.16c0,.1-.07.12-.14.14l-.48-.46c-.37-.18-.18.1-.05.37s.16.5-.33,0c.24.4.31.17.61.63-.07,0-.29-.16-.48-.33s-.35-.35-.36-.34c-.3-.24.44.87.16.75.14.19.5.73.46,1-.18,0-.6-.81-.63-1,0,0,.06,0,.1.1a.69.69,0,0,0-.18-.41l.1.21c-.16-.18-.26-.1-.4-.47a.67.67,0,0,0,.24.45c-.26-.26-.19.08-.38-.1a1.72,1.72,0,0,1,.15.38c-.28-.22,0,.46-.08.6-.18-.32-.18-.84-.25-.51a2,2,0,0,1-.17-.81c0,.47-.25-.26-.31-.33l0-.2c0,.12,0,.12-.07.12l.1.47a.41.41,0,0,1-.1-.27A10.2,10.2,0,0,1,49,43.7c-.09-.23-.18.27-.25-.35.21.2-.06-.63.08-.75,0,.08-.06.08-.11,0a.44.44,0,0,1,0-.17c-.2-.55,0,.72-.24.72,0-.36-.06-.68-.09-.6s.06.59,0,.87c-.14-.28-.15.2-.23.17l.09.13c0,.36-.1.31-.21.42,0-.27.1-.19.06-.31-.12.62-.27-.65-.44-.23-.08-.24,0-.67-.07-.83-.2.46-.21-.49-.42-.11a1.11,1.11,0,0,1-.08.82l.34-.33-.23.69c.11,0,.22-.29.28-.21a1,1,0,0,0,0,.66c-.13-.71-.28.42-.44-.07L47,43c-.24-.53-.44.6-.76.3l.1.21c0,.46-.19.06-.3.25A2.72,2.72,0,0,0,46,43c0,.3-.23,0-.27.76l-.13-.52c-.26-.22-.31,1.12-.56,1,.08-.43,0-.71.15-1-.09,0-.16-.08-.16.19-.05-.24-.24.53-.31.16,0,.17-.05.58-.15.55a.87.87,0,0,1,0-.2c0,.2-.15.27-.08.7-.23-1.23-.71.08-.91-1a1.44,1.44,0,0,1-.57.28c0-.11,0-.19,0-.15-.22-.37-.16,1.13-.41.72-.12-.64.14-.35.07-.59,0-1.3-.32.17-.48-.59l.05-.07c-.13-.44-.33.49-.55.39a.82.82,0,0,0,0-.2,1.72,1.72,0,0,1-.65,1.06,2.07,2.07,0,0,0,.07-.78c-.1.07,0,.83-.17,1a4,4,0,0,1-.2-1.08l.17,0c-.08-.72-.22,0-.31-.11v-.31c-.27.1-.28.88-.57.82l0,.24c-.17.78-.13-.44-.29.14l0-.79a4,4,0,0,1-.56.9,4.93,4.93,0,0,1,.47-1.22c-.1,0-.35,0-.41.44.05-.08.1-.27.14-.15-.13.62-.3.92-.51.91.06-1.53-.53-.4-.66-1.59-.38.56-.7-.25-1.09-.17.1,1.19-.12,0-.14,1.25-.09.08-.13.06-.14,0l-.24-.75c0-.36.1-.26.1-.54-.19-.1,0-.52-.16-.85,0,.44-.1.62-.2.45l.12.57c-.32.63-.16-1-.47-.42l.11-.37c-.15.21-.47-.06-.72.9a1.3,1.3,0,0,1,.08-.55c-.28-.19-.86.93-1,.28l.08-.29c-.07.08-.21.53-.21.22a1,1,0,0,0,.06-.31c0,.1-.26.48-.29.3l.14-.32c-.14-.44-.62.69-.93.79a2.39,2.39,0,0,0,.18-1.33l.06-.11c-.18-.2-.69.49-1.12.62.4-.86-.16-.62.08-1.13a2.55,2.55,0,0,1-.59.49c.1-.15-.57.28.06-.23v0c.59-.54.37-.45.35-.52l-.87.6c.57-.54.4-.54.19-.59s-.43-.12.19-.42c-.26,0-.28,0-.55,0l.54-.18c.09-.18.14-.26,0-.42l.4,0c0-.09-1.63.18-1.69,0l.83-.17c0-.23.68-.47-.09-.65a1.43,1.43,0,0,1,.4,0c0-.1.58-.34-.58-.35.75,0,.08-.21-.24-.39l.56.08c-.7-.17-.89-.21-1.07-.4.08,0,.45,0,.3.06.31-.07-.5-.18-.18-.29l.34.13c.06-.12-.13-.14-.52-.3-.19-.14.2-.23.69-.11-.29-.09-.67-.28-.5-.31a1.12,1.12,0,0,1,.34.13c.41-.08-.51-.51.05-.47l.32.1c-.07.14-.14.26-.17.23a5.86,5.86,0,0,1,1.25.4c-.35-.19-1.07-.66-.8-.68l.17.06.05,0c.06,0,0,0-.05-.1.09,0,.16,0,.18,0,.39.17.26,0,.3,0a3.77,3.77,0,0,0-.82-.45s.05,0,.05.09l0,0,0,0a.5.5,0,0,1,0,.16c-.24-.16-.43-.33-.12-.25-.3-.2-.61-.41-.75-.52a12.53,12.53,0,0,1,1.6.61,2.23,2.23,0,0,0-.68-1.19c-.06-.14.28.14.41.23s0,.12.13.23c-.14-.27.13-.3-.37-.84.34.13.42.53.47.31l.14.18c.52.33.28-.09.17-.54s-.14-.89.42-.33a1.18,1.18,0,0,1-.17-.2c.38.17.53-.06.75-.25s.5-.31.8.19c.15.19.11-.27.18-.63l.07.6c0-.24.07-.48.12-.71s.22.11.29.44.11.57.3.12l0-.41c.08.09.35-.18.23.28,0-.07.13-.4.12-.19l-.08.31a4.22,4.22,0,0,1,.38-.46c.09.28-.42,1.18-.26,1.31a5.62,5.62,0,0,0,.65-1s0-.22.12-.51l.17-.1c.42-.83,1-1.61.88-2.39l-.49.41.07-.45.25.07c0-.46-.21-.14-.39.07a1.11,1.11,0,0,0,.05-.51,7.55,7.55,0,0,0-.54.76c.06-.36.33-.66.18-.91-.24.37-.1.82-.37,1,0-.44.09-.77-.15-.45a.77.77,0,0,1,.19-.47c-.21.24-.42,0-.57.52-.07-.55-.48.08-.38-.8-.07.21-.31.67-.43.71.27-1.06-.48-.07-.45-1.2-.14,1-.65.47-.89,1.05,0-.08,0-.24.05-.19-.18-.06-.29-.33-.44-.48A5.14,5.14,0,0,1,33,31.64c-.39-.68-.12-.93-.35-1.61.16.61-.21.72,0,1.2a2.5,2.5,0,0,1-.48-.77c.28.94-.1.21,0,.82-.38-.37-.39-.83-.52-.46A.73.73,0,0,1,31.47,30.18Zm-3.15,5.36h0l0-.11Zm-.15.42a.38.38,0,0,0,.08-.17c.19.06.37.14.35.18S28.34,36,28.17,36Zm3.85.89c.06.07-.05,0-.15,0a.28.28,0,0,0,0-.08l-.06,0Z"/><path class="cls-1" d="M31.39,36.45s0,0,0,0l-.13,0,.15.09Z"/><path class="cls-1" d="M52.69,41.15h0Z"/><polygon class="cls-1" points="27.22 42.34 27.35 42.28 27.21 42.29 27.22 42.34"/><path class="cls-1" d="M54.77,39.3a.48.48,0,0,0,.14,0Z"/><path class="cls-1" d="M54.74,38.27l.16-.19A.66.66,0,0,0,54.74,38.27Z"/><path class="cls-1" d="M54.79,37.43l-.23.06h0Z"/><path class="cls-1" d="M48.26,47.35l0,0C48.16,47.49,48.21,47.44,48.26,47.35Z"/><path class="cls-1" d="M51.71,45.17a1,1,0,0,1,0,.29C51.82,45.46,51.88,45.44,51.71,45.17Z"/><path class="cls-1" d="M44.69,48h0Z"/><path class="cls-1" d="M51.58,45.54c.12.07.16,0,.16-.08S51.59,45.44,51.58,45.54Z"/><path class="cls-1" d="M53.3,34.27v-.05a.19.19,0,0,1-.07.06Z"/><path class="cls-1" d="M53.22,34.28h-.08S53.17,34.31,53.22,34.28Z"/><path class="cls-1" d="M53,34.32l.16,0S53.11,34.22,53,34.32Z"/><path class="cls-1" d="M53.73,35.27l.18-.1Z"/><path class="cls-1" d="M54,35.51c0-.09.27-.4.1-.42l-.14.08C54.19,35.05,53.63,35.63,54,35.51Z"/><path class="cls-1" d="M52.26,37.7l.07-.25c-.18.13-.43.29-.51.23C51.32,38.16,52.24,37.43,52.26,37.7Z"/><path class="cls-1" d="M52.17,38.36c-.13-.06-.3.09-.42.13A.56.56,0,0,0,52.17,38.36Z"/><path class="cls-1" d="M51.77,42.13l-.43-.28C51.37,41.94,51.51,42,51.77,42.13Z"/><polygon class="cls-1" points="53.3 44.48 53.62 44.6 53.3 44.25 53.3 44.48"/><polygon class="cls-1" points="50.37 42.27 50.33 42.2 50.39 42.4 50.37 42.27"/><path class="cls-1" d="M43.78,43l0,.63C43.86,43.55,43.89,42.85,43.78,43Z"/><path class="cls-1" d="M40.13,43.63c0-.32-.14-.52-.2-.21C40,43.46,40.09,43.71,40.13,43.63Z"/><polygon class="cls-1" points="32.14 40.91 32.33 40.83 32.15 40.87 32.14 40.91"/></g></g></svg>