<svg xmlns="http://www.w3.org/2000/svg" viewBox="0 0 90.24 50.53"><defs><style>.cls-1{fill:#202020;}.cls-2{fill:#3c3c3c;}</style></defs><g id="圖層_2" data-name="圖層 2"><g id="圖層_1-2" data-name="圖層 1"><path class="cls-1" d="M28.17,28.3l.55.31h0v0l0,0-.07,0a1.29,1.29,0,0,0-.16-.09h-.05l-.21-.11h0l-.06,0-.06,0A.31.31,0,0,1,28.17,28.3Z"/><path class="cls-1" d="M27.69,28.48a1.49,1.49,0,0,0,.54-.35,3.5,3.5,0,0,0,.27-.28s0,0,0,0a.78.78,0,0,1-.17.16l-.07.06-.05,0-.21.12s0-.05.06,0h0s-.06,0,0,0h-.15c-.06,0-.1,0-.1.06s.11.06.3-.05A2,2,0,0,1,27.69,28.48Z"/><path class="cls-1" d="M36.75,29.41l-.08-.06S36.72,29.41,36.75,29.41Z"/><path class="cls-1" d="M41.82,29.72s-.07.06-.09.12A.22.22,0,0,0,41.82,29.72Z"/><path class="cls-1" d="M42.4,30.67a.33.33,0,0,0,0-.06C42.37,30.67,42.37,30.71,42.4,30.67Z"/><path class="cls-1" d="M36.75,29.41l.19.17C36.9,29.37,36.83,29.44,36.75,29.41Z"/><path class="cls-1" d="M29,27.45l-.06.17,0-.06Z"/><path class="cls-1" d="M34.3,30.43h0v.27Z"/><path class="cls-1" d="M32.28,30.74a4.09,4.09,0,0,0,0-.78.78.78,0,0,1-.07.39C32.24,30.45,32.25,30.58,32.28,30.74Z"/><path class="cls-1" d="M29.09,29.75l-.06.07Z"/><path class="cls-1" d="M35.77,30.29c0,.08,0,.15,0,.2A1.17,1.17,0,0,0,35.77,30.29Z"/><path class="cls-1" d="M31,28.1,31,28S31,28.11,31,28.1Z"/><polygon class="cls-1" points="27.5 28.05 27.49 28.01 27.24 27.82 27.5 28.05"/><path class="cls-1" d="M43.73,32v0C43.63,32.05,43.67,32.06,43.73,32Z"/><path class="cls-1" d="M51.57,24.8c-.34.39-.89-.18-1.22.34C50.54,25,51.45,25.21,51.57,24.8Z"/><path class="cls-1" d="M29,27.53s0,0,0,0S29,27.51,29,27.53Z"/><path class="cls-1" d="M50.35,25.14h0l0,0Z"/><path class="cls-1" d="M49.9,34.6a2.69,2.69,0,0,0-.21-.35A3.07,3.07,0,0,0,49.9,34.6Z"/><path class="cls-1" d="M45.48,31.66l.1.14A.35.35,0,0,0,45.48,31.66Z"/><path class="cls-1" d="M51,33.91c.07.05.14.14.13.06l-.06-.08C51.14,34,51.14,34,51,33.91Z"/><path class="cls-1" d="M52.52,33.93l-.11-.09,0,0Z"/><path class="cls-1" d="M34.07,24.48c-.13-.09-.27-.21-.4-.32C34,24.43,33.9,24.7,34.07,24.48Z"/><path class="cls-1" d="M28.94,27.77c0-.14,0-.21.06-.24s0,0,0,0Z"/><path class="cls-1" d="M46.51,27.22l.14.15A.67.67,0,0,0,46.51,27.22Z"/><path class="cls-1" d="M41.71,19.22l0,.06S41.69,19.28,41.71,19.22Z"/><path class="cls-1" d="M46.63,27.26c.3.37.49.59.61.73L47,27.72Z"/><path class="cls-1" d="M33.67,24.16Z"/><path class="cls-1" d="M33.44,26.25c.18-.15-.43-.58-.7-.92,0-.35.48.29.81.49,0-.26-.4-.84-.28-.91a.77.77,0,0,1,.22.22c-.27-.55.38-.4,0-1.09l.15.12c-.29-.25-.55-.52-.73-.71.07-.09-.17-.48.19-.16-.06,0,.07.18.15.31l-.06-.23c.55.44.05.28.41.65,0-.31-.2-.91.06-.88.49.48-.13.44.44.73h-.37c.88.64-.16.05.75.76.38-.08,0-.51.42-.59-.19-.33-.39-.4-.59-.73-.08-.83,1.42,1,1.09.12-.23-.4-.77-1.08-.28-.9l.44.64c.3-.15-.57-1,0-.79.15.27,0,.36.07.4.56.32-.16-.44,0-.55l.46.5c.2-.3.19-.93.43-1.27a1.07,1.07,0,0,0,.38.49c.17-.57.88-.57,1.49-.51l-.2-.58s.22.17.25.28c.28.08-.21-.3-.27-.54s.3.19.35.37c0-.59.16-1.41.78-1.08l0,.18c.33.07-.42-1.16.07-.83l0,.12c.56-.07.84-.8,1.42-.06-.12-.41,0-.35.1-.32s.15,0,.05-.55a4.39,4.39,0,0,1,.42,1.14,4.15,4.15,0,0,1,.16-.85l-.07.61,0-.18a3.81,3.81,0,0,1,.13-.45c0,.25-.06.49-.11.73,0-.05,0-.09.07-.14a4,4,0,0,1,.08-.45c.19-.24.08.48-.07.76a1.51,1.51,0,0,1,.42-.37,4.41,4.41,0,0,1-.31.39c.42-.48-.33.56.06.12a3.13,3.13,0,0,1,.28-.4c-.15.35-.05.42.15.4L42,20c.08.21.51.21.73.5.07-.22.66-.67.79-.62l-.48.44c.36-.19.12-.25.6-.43,0,.16-.53.52-.75.59h.29a5.29,5.29,0,0,1-.46.3c.37-.19-.36.62.27.29l-.15.12c.22.33.51.36.75.67.48-.31.45-.12.9-.27,0,.33-.2.83,0,1.08.36,0,.43-.21.77-.3-.42.3-.19.55-.59.61a1.73,1.73,0,0,0,1,.56c.15-.16.19-.26.35-.33s-.06.29-.27.42h-.06c1,0-.51,1.92.63,1.71h-.06l.73.08c0,.23-.4.11-.57.41a1.14,1.14,0,0,1,.46.07s0,.05,0,.09-.11.15.21.11c-.72.29-.7.27-.56.3s.38.1-.22.08l.45,0c.45.05-.24,0-.35,0,.36,0,.4,0,.66.07s.29.27,0,.24A3.32,3.32,0,0,1,46,26.51c-.19-.11,3.39,1.77,1.89,1l-1.27-.71c.77.44.82.55.8.59s-.08,0,.58.69l-.48-.4-.23-.2c-1-.77-.08,0,.68.75-.11-.06-.71-.63-1.11-1s0,0,.16.19.54.59,0,.1l-.35-.37c.42.44-.16-.1.82.94-.5-.49.26.46-.32-.17.88,1.13-.53-.58.68,1-1.26-1.65-1.06-1.35-.61-.64-.33-.46-.36-.51-.8-1.15,0,0,0,.08.14.25l.51.82c-.62-.93-.4-.57-.28-.3s.18.46-.41-.63c.31.71.29,1.07.16,1.23-.36-1.2.17,0-.32-1.33.15.5.26,1.42,0,1a3.5,3.5,0,0,1-.08-.65c0,.19-.11.12-.17.08s-.12-.06-.24.16c0-.09,0-.17.07-.24s0-.16-.11.26l0-.1a3.35,3.35,0,0,1-.52,1.47c.4-1.11-.2-.43.38-1.79a1.58,1.58,0,0,0-.23.49.9.9,0,0,1,.17-.53c-.22.14-.34.57-.5.48.09-.18.15-.23.26-.44-.21.33-.58.59-.72.35.06-.11.1-.26.17-.23-.43-.13-1.08.66-1.38.15.44-.77-.05-.32.17-1l-.33.13,0,.37c-.21-.08-.56.37-.69.09l.26-.25-.46,0,.16.33c-.33.31-.24.92-.46.64.07-.05-.2-.07-.22-.52h0c-.16.21-.32.43-.44.22s.2-.81.2-1c-.23.58-.58.07-.81.72a2.32,2.32,0,0,0,.11-.62l-.16.49a.76.76,0,0,1,0-.56c-.32-.13,0,.95-.33.5,0,0,0-.12.09-.18-.38-.24-.75.26-1.1,0-.12-.75.32-.19.19-.82-.57.14-1,1-1.52.84l.1.07c.08,1.06-.43-.47-.59.07a1.42,1.42,0,0,0,0-.48c-.35-.11-.61.38-1,.8v-.28c-.23-.2-.5,0-.72-.12,0,.28-.11.26,0,.63-.89-1.39-.93,1.05-1.67-.14.06,0,.1-.26.06-.26l-.38.32c.1.45.09.27.24.61,0,.28-.11.51-.22.52.15-.33-.11-.73-.22-1,0,.14,0,.3.05.44-.33-.78.08.93-.3.42l0-.24c-.1.13-.17.46-.31.41-.1-.53.1-.26.06-.7-.16,0-.25,1-.46.53.06-.16.17-.17.23-.33-.23-.6-.23-.44-.37-.53h0l-.32-.26.09.16c-.12,1.41-.42.29-.68,1.21.26-.87,0-.5,0-1.1a1,1,0,0,1-.18-.52c-.12.49-.23-.38-.4.34,0-.2-.15,0-.13-.51-.17.16.05.34,0,.58-.28.68-.63-.8-1,.1-.35.37-.45,1-.81,1.32a1.07,1.07,0,0,1,.14-.7c-.15-.3-.31-.25-.45,0a4,4,0,0,0,.05-.53c-.07,0-.19.69-.24.37s.19-.53.25-.74a1.64,1.64,0,0,1-.45.6c.13-.31.26-.44.36-.65a7.57,7.57,0,0,0-.6.64.67.67,0,0,0-.05.19c-.06,0,.24-.39.3-.46.26-.34,0,.21-.06.39l-.13.08c-.24.52-.08.55.09.42s.36-.41.43-.37q-.1.41-.24.81a3.56,3.56,0,0,0,.32-.65c0,.22,0,.69-.1.8.15.42.17-.29.29.18a.17.17,0,0,1,0,.15l.19-.24c-.05.17,0,.59-.11.46.29.5.53-.59.62,0l0,0c.44-.26.07-.61.4-1.31l.19,1.51,0-.61s.13.07.11.31c.17-.42,0-.27.07-.66.22.56.58-.26.64.71.07-.47-.21-.36,0-.68.09,1,.26-.19.46.28,0,.55-.23.27,0,.74.08-.92.4.18.56,0,0-.73.34-.33.6-.59,0,.24.56.34.85.57v.12c0-.73.24-.63.42-.81a1.6,1.6,0,0,1,0,.83l.19,0a.64.64,0,0,1,.15-.47l0,.54c.25-.06.39-.71.77-.41-.09-.51-.5-1.36-.25-1.75a2.4,2.4,0,0,1,.1.86s0-.25.13-.14l0,.48c.18.18,0-.39.12-.37.07.38.13.26.18.57,0,0-.13-.14-.14,0a.89.89,0,0,1,.45.52c-.06-.21-.11-.52,0-.59s.18.45.36.62c0-.28.21,0,.09-.61.07,0,.14.25.2.4.06-.28.54-.19.27-.77l0,0,0,0h0c.27-.66.86.16,1.18-.15l0,.19c.18-.26.46-.21.57-.65.07,0,.2.34.2.58.14-.16.15-.39.41-.08-.14.35.07.3-.15.26.23.15.28.47.47-.08,0,.5.16.63.24.48l-.13-.36c.1-.08.19,0,.29,0l-.06.66c.17.41.33.07.52-.19s.38-.44.42.25c.18-.45-.16-.35,0-.88.19.11.2,1.09.25,1.1.15.42.42-.91.64-.59,0-.24.14-.86.42-1,.19.14,0,1-.2,1.18s0-.08,0-.15a.41.41,0,0,0-.18.41l.08-.22c0,.26.28.3.11.66a.41.41,0,0,0,.11-.51c.12.4.36.14.52.43,0-.13.06-.41.1-.39.26.4.32-.37.61-.37,0,.4-.37.79,0,.6,0,.29-.22.6-.34.75.39-.34.28.46.36.58l-.19.13a.19.19,0,0,1,.22,0l.13-.46c0,.11.09.13,0,.31.2-.25.27-.74.59-1.06,0,.29.49-.05.31.57-.36-.42-.17.62-.61.51.11,0,.2,0,.29.16a.17.17,0,0,1-.11.13c.29.77.45-.57.91-.33-.17.31-.06.73.06.71-.23-.13,0-.64.28-.83.25.45.36,0,.5.07l-.15-.23c.11-.34.23-.22.42-.25,0,.31-.18.12-.12.29.13-.29.22,0,.36.23s.3.61.44.45c.17.36.07.79.24,1.06.32-.35.53.82.89.57-.25-.66-.22-.51-.08-1l-.56.1a3.74,3.74,0,0,0,.25-.66c-.17-.09-.31.18-.43,0,.12-.38.1-.26,0-.78.37,1,.33-.3.69.43l.38,1.52c.67.89.59-.38,1.22.19l-.28-.34c-.18-.61.28,0,.33-.16a6.14,6.14,0,0,0,.65,1.11c-.18-.38.39.12-.1-.9l.57.73c.55.37-.42-1.33,0-1,.23.49.59.86.6,1.2.12,0,.27.11.07-.21.25.3-.11-.57.27-.13-.1-.19-.4-.65-.26-.58l.15.21a2.52,2.52,0,0,0-.46-.74c.63.71.82.71,1,.7s.35-.06.88.36a4.69,4.69,0,0,1,.51-.46c.08.09.15.14.08.13.15,0,.17,0,.13-.13-.11-.27-.6-.73-.21-.73.62.29.12.38.38.45,1,.84.19-.48.86-.23l0,.1c.46.1-.24-.75-.16-1a1.28,1.28,0,0,0,.18.12A17.31,17.31,0,0,1,53,30.66a5.13,5.13,0,0,0,.87.57c-.11-.16-.87-.5-1.12-.81a5.71,5.71,0,0,1,1.13.44l.08.22c.79.35-.08-.28,0-.3l.38.21c-.19-.39-1.19-.87-1.27-1.19l-.3-.11c-1.13-.66.52.11-.36-.43l1.06.4c-.31-.26-1.28-.91-1.64-1.21a11.26,11.26,0,0,1,2,1.26A1.61,1.61,0,0,0,53,28.9c.14.09.45.27.3.27a4.91,4.91,0,0,1-1.66-1.11c1.1.33,1.13.16,1-.08s-.25-.52.43-.56a1.56,1.56,0,0,1-.81-1,2.57,2.57,0,0,0-.46-1.15c-1.07.54-.19-.22-1.42.14-.17-.13-.19-.18-.12-.22a4.9,4.9,0,0,0,.38-.76c.24-.28.36.06.61-.06-.2-.46.36-.39.45-.85-.35.26-.66.14-.69-.2a4.59,4.59,0,0,1-.26.63c-.94-.23.57-1-.21-1l.39-.11c-.31-.05-.42-.65-1.35-.27.09-.11.34-.34.47-.31-.16-.5-1.49-.35-1.2-1l.27-.13c-.13,0-.56.17-.37-.09.1-.07.26-.14.26-.18s-.58.08-.5-.12l.34-.1c.05-.62-1.1-.17-1.5-.4a1.39,1.39,0,0,0,.77-1.2l.11-.06c-.22-.52-1.17-.45-1.79-.71.55-.87-.46-1.27-.63-2.16,0,.19-.49.48-.64.47,0-.26-.74.17-.21-.44l0,.05c.41-.7-.05-.79-.31-1l-.61.87a.81.81,0,0,0-.83-1c-.47,0-.92.09-1.18-.18a1,1,0,0,1-.21-.42c-.24.24-.5.24-.7.51v-.57a2.08,2.08,0,0,0-1.57.18l0-.43c-.42.08,0,1.69-.21,1.82l-.39-.76c-.51.22-1.38-.16-1.42.76-.06-.11-.17-.32-.12-.4-.22.11-1.08,0-.37.93-.43-.63-.44.2-.44.61l-.28-.48c.23.7.34.86.23,1.18-.1,0-.31-.33-.15-.26-.35-.12.16.53-.22.44l-.13-.35c-.21.1-.08.24.06.65s-.43.13-.75-.25c.16.27.3.67.11.63a.61.61,0,0,1-.17-.32c-.54-.08-.06.84-.6.57a.93.93,0,0,0-.23-.23c.24-.18.45-.3.46-.25-.31-.41-.56-.34-.84-1,.08.43.33,1.3,0,1.26l-.13-.12,0-.06c-.07,0-.08.06-.06.15s-.19,0-.26,0c-.28-.32-.36,0-.47.06.36.43.18.46.59.72,0,0,0-.06,0-.13a.22.22,0,0,0,0-.08l0,0,.21-.21c.11.28.18.53-.12.37l.45.81c-.62-.51-1.14-.63-1.49-1-.08.48-.54.73,0,1.68,0,.17-.29-.15-.43-.25s0-.15,0-.29c0,.34-.39.49.07,1.07-.42-.07-.35-.6-.54-.27l-.11-.2c-1.34-.37.44,2.16-1.16,1.61a.58.58,0,0,1,.25.12c-1.12.17-.83,1.74-2.2,1.68-.33.05,0,.39.17.74l-.49-.36.36.65c.15.61-1.55-.47-1.12.52l.36.21c-.17.08-.15.56-.5.25.05.06.3.31.09.22l-.25-.19.17.66c-.38.11-1-.82-1.3-.48a1.94,1.94,0,0,0,.63,1c.06,0,.27,0,.53.17l0,.22a5.26,5.26,0,0,0,2.16,1.36l-.3-.55.41.21-.11.19c.41.16.16-.12,0-.35a1.26,1.26,0,0,0,.45.22l-.54-.75c.3.21.5.54.76.54-.25-.35-.71-.42-.8-.75.41.17.65.42.46.08a.85.85,0,0,1,.34.37c-.14-.28.12-.34-.22-.7.48.23.17-.42.84.16-.14-.17-.39-.62-.34-.73.66.84.33-.3,1.15.49-.61-.74,0-.7-.15-1.25,0,.06.14.18.08.17.17-.06.41.09.61.14-.57-.54-.53-.84-.79-1.27.68.37.59.71,1.16,1.16-.47-.42-.24-.67-.66-1a2.53,2.53,0,0,1,.77.46c-.69-.69,0-.21-.38-.72.5.19.7.6.65.23A.86.86,0,0,1,33.44,26.25Zm3-4.94h0l-.08.1Zm.37-.3a.44.44,0,0,0-.18.11c-.13-.15-.24-.32-.19-.34S36.63,20.92,36.79,21Zm-3.23-2.42c0-.11.1,0,.18,0a.6.6,0,0,0-.07.14l0,.06A1.79,1.79,0,0,1,33.56,18.59Z"/><path class="cls-1" d="M33.91,19.26s0,0,0,0l.11.07-.09-.16Z"/><path class="cls-1" d="M36.66,29.34h0a.34.34,0,0,1,0-.08Z"/><polygon class="cls-1" points="41.52 19.46 41.54 19.32 41.51 19.44 41.52 19.46"/><path class="cls-1" d="M33.69,27.93a.35.35,0,0,0-.06-.14A.53.53,0,0,0,33.69,27.93Z"/><path class="cls-1" d="M32.57,27.93l-.17-.19A.87.87,0,0,0,32.57,27.93Z"/><path class="cls-1" d="M31.71,27.7V28h0Z"/><path class="cls-1" d="M45.89,27.64v0C45.94,27.52,45.92,27.55,45.89,27.64Z"/><path class="cls-1" d="M41.87,27.52a1.52,1.52,0,0,1,.21-.22C42,27.23,42,27.21,41.87,27.52Z"/><polygon class="cls-1" points="46.5 27.2 46.51 27.21 46.51 27.21 46.5 27.2"/><path class="cls-1" d="M42.29,27.36c0-.13-.13-.12-.21-.06S42.2,27.43,42.29,27.36Z"/><polygon class="cls-1" points="28.86 27.38 28.81 27.45 28.8 27.46 28.86 27.38"/><path class="cls-1" d="M28.81,27.46l-.06.09Z"/><path class="cls-1" d="M28.62,27.72l.13-.17Z"/><path class="cls-1" d="M29.19,27.68l0-.2A1.46,1.46,0,0,0,29.19,27.68Z"/><path class="cls-1" d="M29.53,27.64c-.08-.05-.17-.44-.29-.32l0,.16C29.29,27.18,29.43,28,29.53,27.64Z"/><path class="cls-1" d="M31,30.19,30.64,30c.06.22.13.51,0,.56C31,31.24,30.54,30.11,31,30.19Z"/><path class="cls-1" d="M32,30.48c-.17.11,0,.31,0,.44C32.06,30.71,32.09,30.66,32,30.48Z"/><path class="cls-1" d="M38.71,29.43l0,.51C38.85,29.86,38.73,29.74,38.71,29.43Z"/><polygon class="cls-1" points="39.9 26.74 39.76 26.42 39.69 26.88 39.9 26.74"/><polygon class="cls-1" points="40.35 30.43 40.3 30.49 40.48 30.33 40.35 30.43"/><path class="cls-1" d="M52.62,34.42l-.51-.56C52.12,34,52.63,34.62,52.62,34.42Z"/><path class="cls-1" d="M53.6,30.06c.4.14.64.13.19-.14C53.76,30,53.47,30,53.6,30.06Z"/><path class="cls-1" d="M44.26,15.14l.24-.1h-.36Z"/><path class="cls-1" d="M30.6,30.91c-.17,0-.56,0-.47.13h.67Z"/><path class="cls-1" d="M29.46,31.7a3.39,3.39,0,0,0,1.5,0c-.65,0-.39-.1-1.15-.14-.09-.09.19-.19.43-.2-.17,0,.13-.17-.29-.18-.49.19-.49.35-.06.47A1.33,1.33,0,0,1,29.46,31.7Z"/><path class="cls-1" d="M30.33,41.5l.05-.08A.15.15,0,0,0,30.33,41.5Z"/><path class="cls-1" d="M32.87,47.69a.14.14,0,0,0-.16.05C32.78,47.75,32.84,47.75,32.87,47.69Z"/><path class="cls-1" d="M33.8,49a.46.46,0,0,0-.07-.07C33.74,49,33.76,49.08,33.8,49Z"/><path class="cls-1" d="M30.33,41.5l-.16.22C30.38,41.67,30.3,41.59,30.33,41.5Z"/><path class="cls-1" d="M31.21,32.81a.43.43,0,0,0-.19-.06l.08.07Z"/><path class="cls-1" d="M29.13,39v0l-.27,0Z"/><path class="cls-1" d="M28.59,37a3.7,3.7,0,0,0,.79-.08.8.8,0,0,1-.4,0Z"/><path class="cls-1" d="M29,33.58l-.08,0Z"/><path class="cls-1" d="M29.37,40.49l-.19.07Z"/><path class="cls-1" d="M29.59,33.68l.08-.06C29.61,33.64,29.58,33.66,29.59,33.68Z"/><polygon class="cls-1" points="30.69 29.88 30.73 29.91 31.04 29.85 30.69 29.88"/><path class="cls-1" d="M35.93,50.33h0C35.86,50.37,35.89,50.37,35.93,50.33Z"/><path class="cls-1" d="M51.7,40.51c-.54.12-.57-.47-1.18-.24C50.74,40.27,51.32,40.72,51.7,40.51Z"/><path class="cls-1" d="M31.14,32.87a.24.24,0,0,1,0,.08A.07.07,0,0,0,31.14,32.87Z"/><path class="cls-1" d="M50.52,40.27h0l0,0Z"/><path class="cls-1" d="M40.77,50.37c0-.1,0-.17-.06-.24A.89.89,0,0,0,40.77,50.37Z"/><path class="cls-1" d="M37.27,49.37l.07.09A.14.14,0,0,0,37.27,49.37Z"/><path class="cls-1" d="M42.62,49.41c.05,0,.08.1.14,0l0-.07C42.72,49.44,42.69,49.48,42.62,49.41Z"/><path class="cls-1" d="M44.59,48.92l-.07-.09-.05.05Z"/><path class="cls-1" d="M34.15,37.48a4.81,4.81,0,0,1,.22-.46C34.16,37.36,33.84,37.29,34.15,37.48Z"/><path class="cls-1" d="M30.89,32.85a.66.66,0,0,1,.25,0l0,0Z"/><path class="cls-1" d="M42,45l.22,0A.25.25,0,0,0,42,45Z"/><path class="cls-1" d="M46.21,36.24v.11S46.22,36.33,46.21,36.24Z"/><path class="cls-1" d="M42.76,44.85a1.31,1.31,0,0,0,.22.34s0-.08,0-.15Z"/><path class="cls-1" d="M34.38,37h0Z"/><path class="cls-1" d="M31.94,36.75c.21.2.58-.46.9-.73.4.06-.23.51-.39.87.3,0,.86-.41,1-.29-.07.1-.07.16-.2.25.55-.31.57.42,1.24,0l-.08.17a7.62,7.62,0,0,1,.56-.84c.11.07.46-.24.22.18,0-.06-.17.1-.29.2l.23-.1c-.3.64-.29.09-.59.51.36,0,.93-.33,1-.05-.33.59-.53-.08-.63.58l-.12-.4c-.41,1-.13-.18-.59.9.28.42.62,0,.91.41.28-.28.26-.5.54-.77.85-.3-.37,1.75.5,1.17.31-.35.7-1.11.83-.56l-.41.66c.43.26.65-.92.92-.28-.18.26-.43.12-.39.23.1.68.36-.34.58-.26l-.16.66a9.13,9.13,0,0,0,1.74-.36c-.06.2-.18.4-.08.62.76-.25,1.55.18,2.45.43q.1-.31.18-.63c.07,0,.18.23.13.36.36.14-.06-.37,0-.63.15-.08.31.27.24.47.45-.62,1-1.48,1.76-1.26v.21c.53-.05-.29-1.25.31-1v.13a2.88,2.88,0,0,0,1-.83c.13-.14.15-.13.25-.13a.68.68,0,0,1,.37.22c-.25-.36-.15-.34-.09-.34s.09,0-.19-.64a5.13,5.13,0,0,1,.65,1.1c0,.05-.22-1-.22-1.2l.19.82c-.06-.3-.1-.62-.14-1l.2,1v-.26s-.08-.36-.12-.62c0-.51.21.44.23,1a8.63,8.63,0,0,1,0-1c0,.34,0,.57,0,.88,0-1.14,0,1.11,0,.08,0-.28,0-.66,0-.88,0,.63.06.61.15.28l-.09.82c0,.18.19-.41.26-.31a13.54,13.54,0,0,1,.58-1.79L47,36c.26-.67.1-.48.44-1.28a9.61,9.61,0,0,1-.56,1.67c.06-.11.11-.23.17-.34-.12.33-.19.51-.35.92.28-.65-.42,1.1.07,0l-.14.31s.19-.26.24-.23a6.89,6.89,0,0,1,.76-1c-.11.34-.48.87-.42.9.27-.16.44-.37.76-.6-.47.43-.41.5-.76.72.09.06.12,0,.54,0a3.66,3.66,0,0,1,.46-.25c.09,0-.2.21-.44.29h0c.39,0,0,.32-.31.42a1.27,1.27,0,0,1-.23.08.34.34,0,0,0-.14.18c-.05.12,0,.23.26.34l0,0c.18.15.36.3.53.46-.11.18-.37-.15-.7,0,.81.53-.2.67.3,1.12-.78,0-.78.24-.75.51s.11.59-.4.62l.34.08c.31.2-.22.06-.32.1.26.07.33,0,.5.11.14.95-1.13,1.47-1.74,1.77-.2.12,1.42,1.19.54,1L45,43.34a.55.55,0,0,1-.21.75.78.78,0,0,0-.42.66c-.06-.14-.16-.31-.12-.33-.35-.36-.31.17-.15.52-.09,0-.18-.31-.31-.46s0,.66-.22.25a.36.36,0,0,1,0-.19c0,.24-.31.05,0,.55-.26-.17-.28.37-.54.1.06.63-.42-.19-.25.66-.2-.88-.51-.62-.6-.19,0-.27-.16-.26-.17-.64-.15,0-.27.23-.18.68-.42-1.05-.56.94-.84-.44a3.84,3.84,0,0,1-1.48,1c.06-.9.55-.07.54-1-.44.36-.76,1.12-1.22.87-.11-.13.1-.39.15-.54-.49.34-.88-.16-1.37.27a.56.56,0,0,1,.12-.23c-.08,0-.17-.16-.22.25l.1-.1c.06.61-.51,1.18-.57,1.49.31-1.14-.39-.36.06-1.79a1,1,0,0,0-.19.52c-.07-.09-.07-.25.06-.55-.34.18-.3.62-.57.57a4.83,4.83,0,0,1,.17-.49c-.2.36-.41.71-.58.51,0-.12,0-.28.1-.26-.33,0-.86.86-1.09.37.41-.77,0-.31.3-1L35,45.3c0,.12-.08.24-.11.35-.1-.06-.5.33-.47.06l.26-.2-.27,0a1.55,1.55,0,0,0-.06.31c-.36.21-.56.76-.62.44.09,0-.15-.14.11-.51h0c-.23.1-.5.18-.44,0s.68-.47.8-.58c-.55.31-.34-.19-1,0a3.22,3.22,0,0,0,.56-.28l-.48.17c.1-.15.17-.19.45-.32,0-.26-.81.49-.58,0,.05,0,.11,0,.21,0,.06-.36-.55-.45-.42-.84.68-.34.27.19.83-.12-.27-.35-1.16-.63-1.13-1.11l-.05.1c-1,.26.4-.48-.15-.56a1.2,1.2,0,0,0,.47-.08c.07-.34-.43-.53-.89-.91h.28c.19-.25,0-.51.07-.74-.27,0-.26-.11-.63.07,1.35-1-1.1-1,0-1.8,0,.06.27.1.26.05l-.35-.4c-.44.14-.26.12-.59.3-.28,0-.51-.08-.54-.19.35.14.72-.17.95-.32a3,3,0,0,1-.43.09c.75-.42-.92.17-.45-.28l.24,0c-.15-.09-.49-.14-.45-.29.51-.17.28.08.71,0-.07-.18-1.07-.16-.59-.44.17,0,.19.16.35.21.58-.31.42-.3.49-.46v0l.21-.37-.15.11c-1.42,0-.34-.42-1.3-.56.91.14.5,0,1.1-.14a.94.94,0,0,1,.49-.26c-.51-.06.33-.31-.41-.39.19,0,0-.16.48-.22-.19-.16-.33.11-.57.14-.71-.19.67-.83-.3-1.11-.43-.31-1.09-.28-1.46-.59a1,1,0,0,1,.71,0c.26-.23.19-.37-.06-.51a1.21,1.21,0,0,0,.52-.13c-.07-.14-.71,0-.45-.23a7,7,0,0,1,.79,0c-.2-.14-.58-.26-.78-.41a1.47,1.47,0,0,1,.75.07,1.1,1.1,0,0,0-.91-.46l-.17.15c0-.07.45-.09.56-.05.44.11-.16.26-.35.29l-.14-.1c-1.12.27.24.48.21.73h-.84l.72.16c-.2.09-.66.19-.8.08-.38.24.32.12-.12.34a.19.19,0,0,1-.14,0l.27.14c-.18,0-.57.11-.47,0-.43.39.69.42.09.64l-.06,0c.35.4.61,0,1.38.16L28.76,35l.61-.06c0,.05,0,.15-.28.17.44.1.25-.07.66,0-.51.32.36.56-.59.78.47,0,.32-.27.68-.1-1,.26.22.24-.21.53-.54,0-.3-.21-.74.08.92,0-.12.43.09.57.71-.13.37.31.67.54-.25,0-.28.62-.48.94l-.12,0c.73-.11.65.19.85.35a1.48,1.48,0,0,1-.83,0l.05.19a.6.6,0,0,1,.48.12l-.54.08c.09.25.75.35.47.76.5-.11,1.32-.6,1.74-.35a2.21,2.21,0,0,1-.86.15s.25,0,.15.13l-.48,0c-.17.19.39,0,.38.1-.39.1-.25.16-.56.22,0,0,.13-.14,0-.15a.91.91,0,0,1-.5.49c.22-.07.52-.13.59-.05.09.24-.44.21-.59.4.28,0,0,.22.61.07,0,.08-.24.16-.39.23.29.06.24.58.8.27l0,0s0,0,0,0h0c.68.25-.07.94.29,1.28l-.19.06c.29.18.3.51.76.55,0,.07-.29.28-.53.32.2.14.42.09.2.46-.39-.08-.27.16-.31-.11-.08.29-.36.45.24.54-.51.07-.54.4-.35.48l.28-.3A.45.45,0,0,1,31,45l-.64.17c-.28.43.16.58.52.71s.66.23.22.81c.49-.09.09-.49.65-.62,0,.28-.54,1.1-.46,1.21,0,.64,1-.26,1.18.24.11-.22.53-.69.88-.68.14.23-.3,1-.6,1-.07,0-.06-.12,0-.18-.14,0-.33,0-.38.27l.18-.15c0,.3.43.57.11.83.37,0,.31-.27.21-.48.21.55.6.38.9.76,0-.15,0-.43.1-.4.46.5.41-.32.79-.3.09.41-.33.81.13.62.16.3-.11.62-.27.78.48-.34.59.46.78.58L35,50.4a.34.34,0,0,1,.31,0v-.48c.09.1.17.12.13.31.16-.29.07-.79.34-1.17.09.26.42-.19.36.43-.35-.27-.06.64-.41.68.08-.06.15,0,.23.05a.2.2,0,0,1-.06.16c.29.62.29-.68.66-.6-.1.34,0,.68.07.61-.16,0,0-.6.19-.85.21.31.29-.16.42-.12l-.13-.14c.09-.35.21-.29.39-.38,0,.28-.18.17-.13.3.26-.59.35.7.67.3.1.25-.06.67,0,.84.34-.43.3.51.66.16-.07-.48-.09-.37.17-.82l-.55.3.38-.67c-.15,0-.35.28-.44.19.2-.37.17-.26.13-.66.15.73.44-.38.65.11L39,50.08c.36.55.7-.57,1.19-.27l-.16-.21c.07-.47.31-.06.47-.26a1.82,1.82,0,0,0,.17.79c0-.29.38,0,.39-.78l.25.5c.44.19.38-1.16.76-1.06-.07.44.15.7-.08,1,.13,0,.26,0,.23-.22.11.23.29-.59.47-.24,0-.18,0-.59.12-.58a.7.7,0,0,1,0,.2c0-.19.18-.31,0-.71.3.56.59.48.84.37s.48-.26.83.19a5.06,5.06,0,0,1,.76-.62c0,.12.08.18,0,.17.51.16-.28-1.12.26-.93.49.46,0,.41.2.56.68,1.12.36-.42,1,.07l0,.1c.46.24.19-.75.54-.89a1,1,0,0,0,.12.16,2.29,2.29,0,0,1,0-1.5c.3.41.09.29.51.59,0-.16-.63-.53-.55-.84a3.78,3.78,0,0,1,1,.42l-.17.26c.65.33.24-.33.43-.37l.24.2c.2-.45-.45-.89-.16-1.25l-.22-.09c-.54-.6.48.05.1-.45l.73.31A7.42,7.42,0,0,1,49,43.55a3.14,3.14,0,0,1,.78,1.2.6.6,0,0,0-.1-.79c0,.09.18.25,0,.26-.47-.46-.64-.8-.52-1.08,1.4.64.67-.61,1.86-.46-.36-.73.58-1.07.63-1.8-1.21,0,0-.2-1.2-.4-.05-.16,0-.21.06-.21.28-.11.54-.23.8-.35s.24.19.52.22c.14-.35.53-.07.89-.28-.44,0-.6-.2-.41-.39l-.6.22c-.59-.56,1.07-.33.48-.9l.37.19c-.21-.28.06-1-.93-1.26.15,0,.48-.11.57,0a1.38,1.38,0,0,0-.1-.69,6.19,6.19,0,0,0-.35-.68c-.22-.43-.44-.74-.19-1.2l.29-.07c-.11-.14-.56,0-.33-.36.12,0,.29-.09.29-.17s-.56-.13-.45-.43l.34,0a.6.6,0,0,0-.51-.8c-.31-.08-.67,0-.84-.19a2.35,2.35,0,0,0,.61-2l.09-.11a.9.9,0,0,0-.36-.47,1.28,1.28,0,0,0-.47-.1c-.32,0-.65.08-.94,0,.14-1.26-1-1.27-1.74-1.78a1,1,0,0,1-.24.79c-.16-.17-.47.71-.39-.14H47c-.07-.82-.4-.54-.61-.49l0,1.22c-.26-.75-.61-.43-.87,0s-.47.92-.83.21a10.11,10.11,0,0,0-.24,1.12l-.21-.7a2.62,2.62,0,0,0-1.06,1.4L43,31.55c-.31.43.63,2.05.47,2.34-.2-.21-.4-.41-.61-.6a1.9,1.9,0,0,1-.4.4,1.33,1.33,0,0,1-.41.25c-.17,0-.24.13-.08.5a1.33,1.33,0,0,1-.24-.33c-.11.08-.63-.22.05.71-.43-.61-.22.06-.22.43l-.23-.51c.21.69.27.88.15,1.13-.07,0-.18-.41-.08-.29-.23-.23.05.55-.23.31l0-.36c-.16,0-.09.18-.11.61-.07.24-.37-.09-.44-.59,0,.31,0,.73-.17.59a1.16,1.16,0,0,1,0-.37c-.27-.36-.44.66-.63.1a1.49,1.49,0,0,0,0-.34c.22,0,.4.06.38.1a4.56,4.56,0,0,1,0-1.31c-.08.39-.38,1.21-.54,1a1.28,1.28,0,0,1,0-.18l0-.05c0-.06-.07,0-.11.06,0-.09-.06-.16-.11-.17.06-.42-.13-.27-.21-.3-.12.55-.22.43-.22.91,0,0,0-.07.1-.07l0,0,0,0h.24c-.13.28-.26.49-.3.16-.13.34-.28.69-.36.85a9.74,9.74,0,0,1,.07-1.75c-.36.22-.64,0-1.31.82-.15.08,0-.32.09-.48s.14,0,.24-.15c-.29.16-.51-.16-.93.45,0-.41.46-.51.12-.58l.16-.17c0-.66-.4-.4-.88-.22s-1,.29-.78-.54a.52.52,0,0,1-.1.26c-.22-1-1.81-.76-1.74-2.15,0-.32-.37,0-.73.15l.39-.46-.67.31c-.31,0-.15-.33,0-.65s.25-.59-.25-.45l-.3.28c0-.16-.46-.26,0-.48-.07,0-.39.17-.23,0l.27-.16a4.76,4.76,0,0,1-.64-.06c.12-.32,1.16-.48,1.13-.73a5.69,5.69,0,0,0-1.16,0s-.16.18-.47.26l-.19-.11c-.91.17-1.92.07-2.4.88a6.31,6.31,0,0,0,.68.26l-.38.28a3.68,3.68,0,0,1-.15-.35c-.34.35.07.36.36.4a.79.79,0,0,0-.38.37c.33,0,.65,0,1,0-.3.21-.73.16-.78.51.46,0,.64-.54,1-.41-.28.36-.59.5-.17.5a.55.55,0,0,1-.48.17c.35,0,.39.39.85.17-.31.47.48.39-.21.94a1.6,1.6,0,0,1,.85-.13c-1,.51.35.46-.51,1.19.82-.51.82.22,1.41,0-.06.05-.19.13-.18.08.08.18-.08.43-.12.63.55-.55.88-.5,1.32-.75-.36.7-.72.58-1.17,1.16.42-.47.71-.2,1-.64a2.21,2.21,0,0,1-.42.8c.68-.7.23,0,.74-.36-.14.52-.56.73-.16.69C32.36,36.65,31.94,36.75,31.94,36.75Zm7.3,2h-.16Zm.64,0a.79.79,0,0,0-.28,0c0-.19,0-.39.1-.38S39.79,38.58,39.88,38.75Zm-.53-4c.07-.07.06,0,0,.16a.37.37,0,0,0-.11,0l0,.07C39.3,34.94,39.32,34.84,39.35,34.77Z"/><path class="cls-1" d="M39.09,35.47l0,0v.13l.06-.17Z"/><path class="cls-1" d="M30.39,41.41h0l.07,0Z"/><polygon class="cls-1" points="46.2 36.75 46.16 36.56 46.19 36.73 46.2 36.75"/><path class="cls-1" d="M31.56,38.16a.26.26,0,0,0,.13-.06Z"/><path class="cls-1" d="M31.43,37l.16-.21A.66.66,0,0,0,31.43,37Z"/><path class="cls-1" d="M31.52,36l-.24,0h0Z"/><path class="cls-1" d="M37.68,45.64s0,0,0,0S37.76,45.55,37.68,45.64Z"/><path class="cls-1" d="M33.88,45.73l.26-.11C34.13,45.55,34.11,45.51,33.88,45.73Z"/><path class="cls-1" d="M42,45h0Z"/><path class="cls-1" d="M34.23,45.72c0-.12,0-.13-.09-.1S34.14,45.75,34.23,45.72Z"/><path class="cls-1" d="M31.15,32l0,0h-.09Z"/><path class="cls-1" d="M31.08,32l-.07,0S31,32,31.08,32Z"/><path class="cls-1" d="M30.85,31.82l.16.09S31,31.82,30.85,31.82Z"/><path class="cls-1" d="M31.05,33.24l.21,0A1,1,0,0,0,31.05,33.24Z"/><path class="cls-1" d="M31.17,33.6c0-.1.39-.29.25-.39h-.16C31.57,33.23,30.81,33.56,31.17,33.6Z"/><path class="cls-1" d="M28.94,35.57l.1-.35c-.2.09-.48.22-.56.08C27.92,35.82,29,35.13,28.94,35.57Z"/><path class="cls-1" d="M28.81,36.62c-.13-.15-.31.06-.43.08C28.59,36.77,28.65,36.79,28.81,36.62Z"/><path class="cls-1" d="M30.61,43.72l-.49.14C30.23,44,30.31,43.8,30.61,43.72Z"/><polygon class="cls-1" points="33.55 44.13 33.81 43.92 33.35 44.03 33.55 44.13"/><polygon class="cls-1" points="30.59 46.42 30.48 46.38 30.79 46.57 30.59 46.42"/><path class="cls-1" d="M44.39,49.51l-.23-.59C44.09,49.06,44.26,49.74,44.39,49.51Z"/><path class="cls-1" d="M49.06,45.19c.3.11.57.06.35-.19C49.31,45.1,49,45.09,49.06,45.19Z"/><polygon class="cls-1" points="46.08 29.27 46.17 28.98 45.99 29.27 46.08 29.27"/><path class="cls-2" d="M19,9.12c.16-.07.51-.25.42-.24l-.6.27Z"/><path class="cls-2" d="M20,8.38A10,10,0,0,0,18.68,9l1-.45c.09,0-.16.15-.38.25.16-.06-.11.11.27-.06s.43-.33,0-.18A3.64,3.64,0,0,1,20,8.38Z"/><path class="cls-2" d="M18.71,5l0,.08S18.71,5,18.71,5Z"/><path class="cls-2" d="M17.07,3.32a.37.37,0,0,0,.09-.11A.33.33,0,0,0,17.07,3.32Z"/><path class="cls-2" d="M17.07,2.48v0C17.09,2.47,17.1,2.43,17.07,2.48Z"/><path class="cls-2" d="M18.71,5l.09-.19C18.65,5,18.72,4.93,18.71,5Z"/><path class="cls-2" d="M18.44,8.78l.16-.07-.07,0Z"/><path class="cls-2" d="M19.81,5.34h0L20,5.19Z"/><path class="cls-2" d="M20.42,5.9s-.44.31-.64.46a2.14,2.14,0,0,1,.33-.21Z"/><path class="cls-2" d="M20.32,7.49l.08,0Z"/><path class="cls-2" d="M19.5,4.83l.13-.14Z"/><path class="cls-2" d="M4.58,10.36l-.09,0Z"/><polygon class="cls-2" points="1.72 10.17 1.69 10.15 1.39 10.06 1.72 10.17"/><path class="cls-2" d="M16.69,1.47h0C16.73,1.43,16.72,1.43,16.69,1.47Z"/><path class="cls-2" d="M9.25.83c.17.48,0,.66.21,1.19A5.75,5.75,0,0,0,9.25.83Z"/><path class="cls-2" d="M18.49,8.73v0S18.47,8.73,18.49,8.73Z"/><path class="cls-2" d="M9.46,2h0l0,0Z"/><path class="cls-2" d="M14.81,1.1l-.05.24A1.34,1.34,0,0,0,14.81,1.1Z"/><path class="cls-2" d="M15.79,2.32v0Z"/><path class="cls-2" d="M13.93,1.69c0-.05,0-.13,0-.06V1.7C13.91,1.63,13.93,1.59,13.93,1.69Z"/><path class="cls-2" d="M13.24,1.55v.11l0,0Z"/><path class="cls-2" d="M4.94,9,4.5,8.78C4.85,9,4.93,9.11,4.94,9Z"/><path class="cls-2" d="M18.71,8.62l-.22.11h0Z"/><path class="cls-2" d="M12.87,6l0-.1C12.82,6,12.84,6,12.87,6Z"/><path class="cls-2" d="M7.21,6.57l0,.06S7.24,6.62,7.21,6.57Z"/><path class="cls-2" d="M12.6,5.94a2.4,2.4,0,0,0,0-.39l0,.14Z"/><path class="cls-2" d="M4.5,8.78Z"/><path class="cls-2" d="M5.42,9.84a7,7,0,0,0-1-.58c-.14-.17.5.23.84.38a6.45,6.45,0,0,1-.67-.52l.27.16c-.48-.34.06-.15-.53-.59l.16.09-.87-.52s-.36-.31.05-.07c0,0,.14.12.27.21l-.16-.15c.61.34.18.17.61.44-.15-.17-.59-.56-.4-.5.58.36.13.23.67.5l-.26-.07c.94.52-.09,0,.91.56.22,0-.24-.28,0-.25-.3-.23-.47-.3-.77-.53-.47-.52,1.47.88.79.27-.35-.28-1-.79-.63-.59l.61.47c.11,0-.86-.7-.38-.48.23.2.16.22.24.26.52.31-.32-.3-.29-.35l.55.41c0-.14-.33-.54-.34-.72a3.55,3.55,0,0,0,.47.4c-.16-.34.27-.19.66,0l-.39-.45a1.86,1.86,0,0,1,.28.26c.2.11-.27-.26-.41-.44s.27.2.38.34c-.29-.41-.55-1,0-.58l.11.14c.22.12-.75-1-.32-.6l.06.09c.3.07.11-.49.78.12-.5-.68.37.19-.34-.75A9.75,9.75,0,0,0,7.21,7c.06,0-.38-.63-.41-.76l.35.5L6.84,6.2l.44.59,0-.16a2.17,2.17,0,0,1-.29-.35c-.09-.28.39.26.56.52l-.15-.53a3.55,3.55,0,0,1,.22.45c-.27-.58.36.54.11,0-.08-.11-.19-.32-.25-.42.23.29.3.26.28.09l.2.37c.15,0,.1-.29.22-.35a3.87,3.87,0,0,1-.47-.89L8,6.1c-.16-.37-.15-.2-.33-.66a3.58,3.58,0,0,1,.44.84L8,6.06l.24.49c-.16-.37.38.54.09-.1l.09.17c.11,0,.07-.27.15-.35a5,5,0,0,1-.29-.85c.15.14.4.52.47.44a5.7,5.7,0,0,0-.25-.77c.19.47.26.39.34.75C9,5.73,9,5.69,9,5.26a3,3,0,0,1-.18-.45c0-.09.13.19.2.42v0c0-.78.78,1.33.61.27V5c.08.08,0,.39.17.69-.05-.87.23.07.24-.51.34,1.46.29-.15.54.79l-.05-.36c0-.35.06.2.09.28a4.33,4.33,0,0,1-.07-.51c.23-.46.58.48.79.8.08.1.09-1.84.19-1l0,.66c.22-.8.37,0,.63-.6a1.77,1.77,0,0,1-.07.34c0,.48.14,0,.19-.35a5.1,5.1,0,0,1,0,.55c0,.28.18-.6.14-.12a1.24,1.24,0,0,1-.05.19c.06-.23.11.08.17-.47,0,.27.19-.22.18.12.16-.6.07.31.26-.54-.19.88,0,.73.12.33-.08.26,0,.29-.14.65.05,0,.14-.15.25-.6-.19,1.07.43-.78.11.56A2.86,2.86,0,0,1,14,5.12c-.3.85-.19,0-.48.93.24-.31.59-1,.65-.76a2.39,2.39,0,0,1-.22.5c.26-.3.21.18.52-.22a1.05,1.05,0,0,1-.12.21s0,.15.16-.23l-.07.09a10.78,10.78,0,0,1,.74-1.38c-.53,1.06,0,.33-.68,1.65a2.45,2.45,0,0,0,.26-.48,1.75,1.75,0,0,1-.22.5c.17-.17.33-.57.4-.53-.08.18-.13.24-.24.45.2-.33.42-.65.41-.47s-.12.25-.14.24c.13,0,.67-.82.62-.42-.45.74-.09.27-.45.92L15.29,6l.15-.33c.05,0,.38-.4.3-.16l-.2.24.18-.06.09-.28c.25-.29.47-.81.45-.58-.06,0,.06,0-.14.44h0c.15-.18.32-.38.26-.19s-.45.69-.53.83c.37-.51.23-.07.63-.6-.1.13-.32.45-.36.52l.31-.4a2.39,2.39,0,0,1-.29.47c0,.13.51-.8.38-.39,0,0-.07.09-.13.14,0,.24.36-.13.31.13-.43.63-.19.1-.53.63.19,0,.79-.54.79-.3L17,6c.68-.8-.25.48.13.14a4.14,4.14,0,0,0-.32.35c0,.19.32-.08.66-.22l-.2.19c-.12.22,0,.21,0,.34a2.79,2.79,0,0,0,.45-.43c-1,1.24.87-.32.06.71a.6.6,0,0,0-.2.14l.28-.06a3.51,3.51,0,0,0,.44-.47c.22-.17.4-.28.43-.25a3.17,3.17,0,0,0-.72.69l.33-.29c-.57.6.7-.6.36-.15l-.18.15c.12,0,.39-.23.37-.15-.4.36-.22.13-.56.41.06,0,.86-.56.49-.17-.13.07-.16,0-.29.12-.44.45-.32.35-.37.45h0L18,7.73l.12-.12c1.14-.81.29,0,1.08-.51a4.16,4.16,0,0,0-.89.65,2.23,2.23,0,0,1-.4.35c.42-.25-.26.29.35-.09-.15.12,0,.05-.39.33.16,0,.27-.21.47-.35.61-.3-.55.64.28.23.38-.11.95-.44,1.3-.5a3.16,3.16,0,0,1-.63.34c-.21.2-.14.21.08.15a3.51,3.51,0,0,0-.45.28c.07,0,.63-.33.41-.13l-.7.35c.18,0,.52-.18.7-.21a5.15,5.15,0,0,1-.67.31,2.14,2.14,0,0,0,.83-.25l.15-.13a2.75,2.75,0,0,1-.5.26c-.39.16.13-.15.3-.25l.13,0c1-.59-.24-.07-.22-.16l.74-.39-.64.27a3,3,0,0,1,.7-.4c.31-.27-.29.1.07-.18l.13-.07-.25.07c.16-.08.5-.32.42-.22.34-.36-.64.17-.13-.2l.05,0c-.33,0-.52.31-1.18.61l1.2-.9-.51.32s0-.08.23-.21c-.38.19-.21.16-.55.35.41-.38-.34,0,.44-.6-.39.25-.24.27-.56.39.83-.64-.2,0,.14-.31s.26-.08.6-.43c-.75.51.07-.24-.11-.19-.57.45-.32.08-.58.14.2-.15.18-.4.31-.65l.09-.08c-.57.47-.53.3-.69.35a3.22,3.22,0,0,1,.64-.5l-.05-.06a1.14,1.14,0,0,1-.39.24l.42-.36c-.09-.06-.6.29-.43-.05a8.78,8.78,0,0,1-1.29,1.21,5.64,5.64,0,0,1,.64-.58s-.19.13-.12,0L19,5.55c.1-.18-.3.25-.3.19.28-.27.17-.22.4-.43,0,0-.09.14,0,0a1.47,1.47,0,0,1,.33-.52,2.05,2.05,0,0,1-.44.39c-.09,0,.31-.36.41-.55-.21.18-.06-.07-.47.36a3.05,3.05,0,0,1,.27-.35c-.21.15-.22-.11-.6.39l0,0h0c-.5.33,0-.46-.31-.38l.13-.15c-.22.11-.25,0-.57.26a1.88,1.88,0,0,1,.33-.5c-.15.07-.29.24-.17-.08s.16-.26.21-.16c0-.19.2-.46-.21-.09.33-.38.32-.55.19-.46l-.16.33c-.08,0-.09,0-.11-.09l.42-.53c.28-.79-1.09.92-.46-.29-.3.36-.09.33-.43.76,0-.12.41-1,.38-1,.08-.38-.62.76-.6.48a3.79,3.79,0,0,1-.62.9,3.23,3.23,0,0,1,.56-1s0,.06,0,.13a.82.82,0,0,0,.26-.37l-.13.2c.08-.23,0-.28.18-.6a.69.69,0,0,0-.24.46c.07-.36-.16-.12-.16-.37a1.28,1.28,0,0,1-.18.36c0-.34-.29.36-.44.4.11-.35.43-.75.18-.54A2,2,0,0,1,17,2c-.31.36-.06-.37-.09-.48l.15-.14c-.09.09-.12.07-.14.05l-.18.45a.4.4,0,0,1,.06-.29c-.17.26-.32.72-.57,1.07.06-.24-.24.17,0-.4,0,.25.25-.58.41-.62-.05.06-.08,0-.08,0a.56.56,0,0,1,.09-.14c.1-.58-.37.61-.5.54.16-.32.24-.63.19-.57s-.22.55-.38.78c0-.29-.17.15-.21.1v.14c-.15.32-.18.26-.28.34.1-.26.13-.16.16-.28-.31.55.1-.66-.16-.31.05-.24.24-.62.27-.79-.28.38.05-.5-.21-.19a1.92,1.92,0,0,1-.33.76l.31-.25-.37.61c.05,0,.22-.24.23-.15a1.68,1.68,0,0,0-.27.61c.19-.69-.28.34-.2-.14l.41-1.11c0-.55-.45.49-.52.15v.21c-.17.44-.13,0-.24.19a5.63,5.63,0,0,0,.18-.77c-.08.28-.13-.06-.37.69l.07-.52c-.09-.24-.46,1-.55.88a5,5,0,0,1,.32-1c-.05,0-.07-.09-.14.17,0-.25-.25.48-.21.11-.06.16-.16.56-.2.52L13.73,2a2.33,2.33,0,0,0-.19.67c.13-1.23-.39,0-.31-1a.94.94,0,0,1-.36.23c0-.12,0-.2,0-.15-.07-.39-.24,1.11-.31.69,0-.64.12-.34.11-.58.14-1.29-.2.15-.21-.61l0-.07c0-.45-.24.47-.35.36a1.34,1.34,0,0,0,0-.2,2.53,2.53,0,0,1-.42,1,3.47,3.47,0,0,0,.07-.79c-.06.07,0,.83-.13,1a9.25,9.25,0,0,1-.08-1.07l.1,0c0-.71-.13,0-.18-.1l0-.32c-.17.1-.18.89-.33.83V2.1c-.07.78-.07-.44-.15.15l0-.79a7.65,7.65,0,0,1-.27.92A5.93,5.93,0,0,1,11,1.14c-.06,0-.21.07-.22.46,0-.08,0-.27.07-.15,0,.62-.12.93-.23.92C10.55.84,10.31,2,10.11.83c-.15.59-.47-.18-.73,0,.29,1.16-.06,0,.16,1.25,0,.08-.06.07-.08,0l-.31-.68C9,1,9.16,1.06,9.1.8,9,.73,8.94.3,8.79,0c.1.42.08.62,0,.48L9,1c0,.67-.38-1-.43-.3l0-.39c0,.24-.37.08-.2,1.06A1.85,1.85,0,0,1,8.18.83C7.9.76,8,2,7.64,1.45l-.07-.29c0,.1.11.56,0,.29,0-.12-.08-.29-.11-.3s.07.54,0,.39l-.07-.33C7,.92,7.28,2.1,7.2,2.35c-.33-.81-.6-1-.74-1.11l0-.11c-.29,0-.11.85-.16,1.26-.56-.8-.61-.12-1.09-.47a2.25,2.25,0,0,1,.35.69c-.14-.13.18.6-.22-.1h0c-.44-.66-.44-.43-.53-.39l.55.9c-1-1.16-.17.79-1-.27.1.25,0,.28.16.53l-.33-.46c-.21,0-.32,0-.4.2L3.5,2.69c-.12,0,.9,1.37.85,1.45L3.79,3.5c-.13.12-.76-.3-.4.39a1.53,1.53,0,0,1-.24-.32c-.08,0-.65-.19.17.64-.52-.55-.2.08,0,.38l-.37-.41c.43.57.57.71.63.93-.07,0-.33-.3-.2-.22-.27-.14.32.42,0,.29L3.15,4.9c-.09,0,.05.17.31.49s-.21,0-.59-.31c.21.22.48.53.34.47A2,2,0,0,1,3,5.29c-.39-.14.34.6-.14.32L2.55,5.4c.09-.08.17-.14.2-.11a6.58,6.58,0,0,1-1-.85c.23.33.78,1,.53.9l-.14-.1,0,0c-.05,0,0,0,0,.1s-.14,0-.17,0c-.34-.26-.26,0-.31,0a4.74,4.74,0,0,0,.74.58.09.09,0,0,1,0-.09.09.09,0,0,0,0-.05l0,0a.51.51,0,0,1,.05-.12c.19.22.36.4.08.24l.66.62c-.65-.44-1.07-.6-1.46-.87.16.32-.06.43.75,1.11.09.12-.27-.13-.42-.21s0-.1-.16-.2c.17.23-.06.27.54.7-.34-.1-.53-.43-.51-.24L1.69,6.6C.53,6.24,3.05,8,1.59,7.48a.72.72,0,0,1,.24.09c-.76,0,.22.91-.88.8-.23,0,.2.21.5.4L.89,8.56l.6.36c.43.31-1.49-.3-.64.23l.39.11c-.1,0,.16.28-.28.12.07,0,.4.15.19.11l-.3-.1.46.33C1.05,9.77.12,9.32,0,9.5A3.51,3.51,0,0,0,1,10a1.25,1.25,0,0,1,.52.07l.14.1a18.41,18.41,0,0,0,2.46.62l-.52-.24.44.11v.07c.42.09.06,0-.17-.14l.48.12-.83-.34a7.91,7.91,0,0,0,.89.27c-.38-.16-.79-.22-1-.36.42.09.74.21.41.06a2.41,2.41,0,0,1,.46.18c-.26-.13-.08-.13-.54-.32.5.14-.09-.17.74.14A3.13,3.13,0,0,1,3.85,10c1,.44.11-.1,1.15.34-.86-.4-.33-.3-.78-.59.06,0,.2.1.15.09A3,3,0,0,1,4.9,10a9.27,9.27,0,0,1-1.25-.73c.71.28.81.43,1.47.73-.57-.27-.52-.36-1-.58a7.36,7.36,0,0,1,.82.34c-.88-.45-.13-.11-.65-.41.45.16.82.41.58.21A2.82,2.82,0,0,1,5.42,9.84ZM4.94,7.55H5v0ZM5,7.42a.07.07,0,0,0,0,0,1.77,1.77,0,0,1-.29-.26A3.35,3.35,0,0,0,5,7.42ZM1.8,5.22c0-.08.05,0,.14,0a.18.18,0,0,0,0,.09l0,0Z"/><path class="cls-2" d="M2.33,5.73l0,0,.11.06-.13-.12Z"/><path class="cls-2" d="M18.67,5.07h0l-.05.06Z"/><polygon class="cls-2" points="7.23 6.88 7.15 6.76 7.21 6.87 7.23 6.88"/><path class="cls-2" d="M18,7.12a.5.5,0,0,0-.1.11Z"/><path class="cls-2" d="M18.13,7.49,18,7.66A1.25,1.25,0,0,0,18.13,7.49Z"/><path class="cls-2" d="M18.08,7.89l.2-.14h0Z"/><path class="cls-2" d="M14.33,5.78l0,0C14.24,5.89,14.28,5.86,14.33,5.78Z"/><path class="cls-2" d="M16.12,5.24l-.18.2S16,5.51,16.12,5.24Z"/><polygon class="cls-2" points="12.87 6 12.87 5.99 12.87 5.99 12.87 6"/><path class="cls-2" d="M15.89,5.4c0,.11,0,.1,0,0S16,5.34,15.89,5.4Z"/><path class="cls-2" d="M18.5,9V9l.08,0Z"/><path class="cls-2" d="M18.57,9l.06,0Z"/><path class="cls-2" d="M18.77,8.94l-.14,0S18.63,9,18.77,8.94Z"/><path class="cls-2" d="M18.56,8.57l-.18.1Z"/><path class="cls-2" d="M18.44,8.51c0,.05-.33.28-.2.24l.14-.08C18.11,8.82,18.75,8.35,18.44,8.51Z"/><path class="cls-2" d="M20.25,6.66l-.07.2c.17-.14.39-.33.47-.32C21.09,6,20.27,6.85,20.25,6.66Z"/><path class="cls-2" d="M20.27,6.17c.12,0,.25-.19.35-.26A.67.67,0,0,0,20.27,6.17Z"/><path class="cls-2" d="M18.3,4.17l.33-.39C18.54,3.8,18.5,3.93,18.3,4.17Z"/><polygon class="cls-2" points="16.33 6 16.18 6.28 16.47 5.92 16.33 6"/><polygon class="cls-2" points="18.18 2.84 18.24 2.8 18.06 2.9 18.18 2.84"/><path class="cls-2" d="M13.45,1.08l-.1.62C13.41,1.6,13.55.91,13.45,1.08Z"/><path class="cls-2" d="M11.26,1.51c0-.31-.08-.52-.12-.21C11.19,1.34,11.24,1.59,11.26,1.51Z"/><polygon class="cls-2" points="4.82 2.42 4.74 2.22 4.76 2.41 4.82 2.42"/><path class="cls-2" d="M87.37,18.48c.17,0,.56,0,.48,0l-.66,0Z"/><path class="cls-2" d="M88.59,18.31a10.49,10.49,0,0,0-1.49,0l1.12.07c.08,0-.21.05-.45.05.17,0-.14,0,.27.06s.53-.09.11-.14A3.16,3.16,0,0,1,88.59,18.31Z"/><path class="cls-2" d="M89,15l-.06,0S89,15,89,15Z"/><path class="cls-2" d="M88.28,12.92l.13-.06A.3.3,0,0,0,88.28,12.92Z"/><path class="cls-2" d="M88.66,12.18l0,.05C88.68,12.18,88.7,12.16,88.66,12.18Z"/><path class="cls-2" d="M89,15l.18-.13C88.94,14.92,89,14.93,89,15Z"/><path class="cls-2" d="M87,18h0Z"/><path class="cls-2" d="M89.78,15.7v0l.26-.06Z"/><path class="cls-2" d="M90.06,16.41s-.53.09-.77.13l.38,0Z"/><path class="cls-2" d="M89.25,17.69l.08,0Z"/><path class="cls-2" d="M89.73,15.15l.19-.08Z"/><path class="cls-2" d="M75.77,14.71l-.08-.06Z"/><polygon class="cls-2" points="73.16 13.56 73.14 13.54 72.88 13.36 73.16 13.56"/><path class="cls-2" d="M88.77,11.15h0C88.82,11.13,88.81,11.13,88.77,11.15Z"/><path class="cls-2" d="M82.59,7.82c0,.5-.25.61-.26,1.17A5,5,0,0,0,82.59,7.82Z"/><path class="cls-2" d="M87.06,18s0,0,0,0S87,18,87.06,18Z"/><path class="cls-2" d="M82.33,9h0V9Z"/><path class="cls-2" d="M87.29,10.12l-.15.2Z"/><path class="cls-2" d="M87.62,11.57l0-.07A.11.11,0,0,0,87.62,11.57Z"/><path class="cls-2" d="M86.28,10.32c0-.05.06-.11,0-.06l0,.05C86.29,10.26,86.32,10.24,86.28,10.32Z"/><path class="cls-2" d="M85.75,9.94l-.06.1h0Z"/><path class="cls-2" d="M76.4,13.71l-.34-.38C76.32,13.64,76.37,13.79,76.4,13.71Z"/><path class="cls-2" d="M87.3,18h-.24l0,0Z"/><path class="cls-2" d="M83.56,13.82v-.11C83.54,13.77,83.54,13.81,83.56,13.82Z"/><path class="cls-2" d="M79,12.38v.07S79,12.45,79,12.38Z"/><path class="cls-2" d="M83.37,13.68a3.58,3.58,0,0,0,.2-.33l-.09.11Z"/><path class="cls-2" d="M76.06,13.33Z"/><path class="cls-2" d="M76.64,14.6a8.18,8.18,0,0,0-.76-.87c-.09-.21.39.38.66.64-.1-.17-.52-.7-.48-.7a1.71,1.71,0,0,1,.21.24c-.34-.48.09-.11-.33-.72l.12.14-.65-.78s-.24-.4.07,0c0,0,.1.16.18.28l-.1-.18c.46.52.11.21.44.61-.1-.21-.39-.71-.23-.59.42.53,0,.25.47.69L76,13.16c.71.81-.07,0,.67.84.19.1-.14-.34,0-.23-.21-.31-.34-.44-.55-.76-.28-.62,1.08,1.33.63.55-.24-.39-.72-1.1-.4-.77l.41.65c.11,0-.57-.95-.21-.57.15.26.08.25.14.32.38.48-.2-.39-.16-.41l.37.56c0-.13-.15-.6-.11-.77a4.74,4.74,0,0,0,.31.54c-.06-.36.28-.07.56.25l-.21-.54a2.3,2.3,0,0,1,.17.33c.14.18-.16-.33-.24-.55,0,0,.18.29.24.45-.15-.48-.22-1.09.12-.54l0,.17c.15.2-.38-1.14-.11-.66l0,.1c.23.18.23-.4.63.41-.24-.81.25.32-.08-.82a9.81,9.81,0,0,0,.51,1.09s-.15-.72-.14-.85l.16.6-.11-.64.21.71v-.17a1.92,1.92,0,0,1-.14-.43c0-.29.25.38.31.69l0-.54a3.67,3.67,0,0,1,0,.49c0-.63.14.64.09.06,0-.14-.06-.37-.09-.49.11.36.18.36.21.19l.06.42c.1.1.16-.23.27-.24a4.34,4.34,0,0,1-.11-1l.09.65a6.44,6.44,0,0,1-.07-.74,4.68,4.68,0,0,1,.1,1l0-.23,0,.54c0-.4.14.65.1,0l0,.19c.1,0,.13-.23.22-.27a7.79,7.79,0,0,1,0-.89c.08.18.16.62.24.57a6.51,6.51,0,0,0,0-.81,5.19,5.19,0,0,1,0,.84c.1-.08.12-.11.28-.52a2.45,2.45,0,0,1,0-.47c0-.08,0,.22,0,.46v0c.22-.74.17,1.52.39.47l0,.05.2-.53c0,.1-.09.37-.11.69.26-.82.16.16.37-.38-.26,1.48.28,0,.13.92l.1-.35c.12-.33,0,.21,0,.29.08-.27.07-.31.14-.5.35-.34.27.64.3,1,0,.11.79-1.66.54-.85l-.31.59c.49-.65.27.16.74-.34a2.68,2.68,0,0,1-.2.29c-.21.43.09.08.3-.26a4.8,4.8,0,0,1-.27.49c-.12.25.4-.48.16-.07,0,.07-.09.13-.11.16.14-.18,0,.11.33-.37-.09.26.24-.13.1.17.38-.49-.09.3.43-.4-.53.73-.34.64,0,.34-.17.2-.14.24-.39.53,0,0,.18-.09.46-.46-.61.9.7-.55-.16.54a3.14,3.14,0,0,1,1-.49c-.63.65-.17,0-.81.66.33-.2.93-.69.87-.45a2.11,2.11,0,0,1-.41.36c.36-.17.1.23.54,0a1.3,1.3,0,0,1-.2.15s-.06.12.24-.15L85,14a12.27,12.27,0,0,1,1.24-.95c-.92.74-.14.29-1.31,1.21a3.81,3.81,0,0,0,.44-.34,2.25,2.25,0,0,1-.42.37c.22-.09.54-.39.58-.32l-.41.3c.32-.22.65-.43.56-.27a1.65,1.65,0,0,1-.23.16c.11,0,.94-.48.72-.15-.72.48-.2.2-.81.64l.22-.08.28-.23c0,.05.5-.21.33,0l-.28.14h.18l.2-.21c.35-.16.77-.54.65-.35-.07,0,0,.06-.32.33h0c.21-.1.44-.21.31-.07l-.83.53c.54-.31.22,0,.81-.29-.14.07-.48.27-.54.31l.44-.23a2.41,2.41,0,0,1-.46.3c0,.12.81-.5.5-.2,0,0-.1.05-.18.07-.13.2.38,0,.21.22-.65.38-.2,0-.74.35.18,0,.93-.18.82,0l.06-.06c1-.44-.43.32,0,.16-.08,0-.54.23-.44.18-.12.15.32.05.68.05l-.26.09c-.21.14-.08.18-.18.27a2.76,2.76,0,0,0,.59-.19c-1.4.68.92.06-.27.61a.64.64,0,0,0-.24,0l.27.05a3.71,3.71,0,0,0,.61-.22c.26-.06.48-.08.49,0a4,4,0,0,0-1,.29l.43-.11c-.77.28.9-.24.39,0l-.23.06c.13,0,.45,0,.39,0a6.53,6.53,0,0,1-.68.13s1-.13.51,0c-.15,0-.16,0-.31,0-.6.2-.44.17-.53.23h0l-.26.15.16-.06c1.38-.23.28.08,1.19,0a5.37,5.37,0,0,0-1.09.18,3,3,0,0,1-.51.14c.49,0-.37.13.35.06a2,2,0,0,1-.5.11,2.13,2.13,0,0,0,.58-.1c.68,0-.78.3.14.29.38.06,1,0,1.38.11a3.21,3.21,0,0,1-.71,0c-.28.07-.22.11,0,.15-.17,0-.31,0-.53,0,0,0,.71,0,.42.06h-.78c.18,0,.55.06.72.11a5.48,5.48,0,0,1-.74,0,2.3,2.3,0,0,0,.85.13l.19,0a3.14,3.14,0,0,1-.56,0c-.42,0,.19-.07.38-.08l.13,0c1.14-.07-.19-.15-.12-.22h.83l-.69,0a3.81,3.81,0,0,1,.8,0c.41-.09-.3,0,.15-.12h.15l-.25,0c.17,0,.58-.06.46,0,.47-.15-.64-.11,0-.22h0c-.3-.12-.61,0-1.33,0l1.48-.25-.6.06s.06-.06.3-.08a6.26,6.26,0,0,0-.65.06c.54-.15-.29-.15.67-.32-.47,0-.34.13-.68.1,1-.19-.19-.05.27-.2s.27,0,.73-.12c-.91.13.17-.17,0-.2-.71.15-.32-.06-.57-.11.24-.05.34-.27.57-.43l.11,0c-.71.17-.6.05-.77,0a4.24,4.24,0,0,1,.8-.17l0-.06a1.14,1.14,0,0,1-.45,0l.53-.14c-.06-.08-.67,0-.35-.2a10.87,10.87,0,0,1-1.69.52,7.32,7.32,0,0,1,.82-.25s-.23,0-.12,0l.46-.11c.17-.11-.38.1-.35,0,.37-.12.25-.12.55-.21,0,0-.14.08,0,.05a1.55,1.55,0,0,1,.53-.31,3,3,0,0,1-.56.16c-.06-.08.44-.19.61-.31-.27.07,0-.08-.57.12a2,2,0,0,1,.39-.19c-.26.05-.15-.18-.71.1l0,0h0c-.59.08.19-.41-.1-.45l.18-.08c-.25,0-.21-.12-.61,0a2.13,2.13,0,0,1,.51-.31c-.16,0-.36.1-.11-.13s.26-.16.25,0c.12-.16.38-.33-.14-.16.46-.21.53-.36.37-.33l-.29.23c-.08,0-.07-.07,0-.12l.6-.3c.6-.59-1.36.38-.27-.43-.43.2-.23.26-.72.5,0-.12.8-.7.78-.72.24-.31-.88.42-.74.18a3.6,3.6,0,0,1-.94.56,3.51,3.51,0,0,1,1-.7s0,.05-.1.1a.92.92,0,0,0,.39-.22l-.2.12c.17-.17.08-.26.42-.46a.73.73,0,0,0-.41.31c.22-.29-.09-.16,0-.38a1.65,1.65,0,0,1-.32.25c.13-.31-.41.21-.56.18.25-.26.7-.5.39-.41a2.14,2.14,0,0,1,.67-.48c-.43.19.1-.36.13-.46l.18-.07c-.11,0-.12,0-.14,0l-.35.32a.48.48,0,0,1,.18-.23c-.26.17-.6.52-1,.74.16-.19-.28.06.2-.35-.08.24.47-.42.63-.39-.08,0-.09,0-.05-.08a.33.33,0,0,1,.14-.09c.33-.48-.59.41-.67.29.28-.22.48-.46.41-.43s-.43.41-.67.55c.15-.25-.21.06-.22,0l-.06.12c-.28.23-.27.17-.39.2.2-.19.17-.09.25-.19-.5.38.37-.55,0-.33.15-.2.48-.46.57-.61-.4.24.26-.42-.1-.24a1.89,1.89,0,0,1-.61.55l.37-.1-.57.4s.29-.13.26,0a2,2,0,0,0-.5.45c.46-.55-.39.2-.11-.2l.83-.84c.26-.48-.59.27-.51-.06l-.1.19c-.33.33-.12,0-.29.08a4.22,4.22,0,0,0,.48-.62c-.19.22-.08-.11-.61.48l.28-.44c0-.26-.84.76-.84.58a5.83,5.83,0,0,1,.68-.75s0-.11-.19.1c.13-.21-.42.35-.22,0-.12.13-.38.46-.39.4a1.22,1.22,0,0,1,.12-.16,2.92,2.92,0,0,0-.45.55c.62-1.07-.33-.13.17-1.06a.81.81,0,0,1-.39.08c.06-.1.1-.17.09-.13.09-.37-.66.93-.55.52.27-.58.24-.26.33-.49.65-1.12-.23.07.07-.63l.06-.05c.15-.42-.4.34-.45.2a1.81,1.81,0,0,0,.09-.17,2.7,2.7,0,0,1-.77.8,4.14,4.14,0,0,0,.37-.69c-.08,0-.36.75-.5.84.1-.26.14-.51.36-1l.1,0c.27-.67-.12,0-.11-.17l.14-.28c-.18,0-.5.75-.61.64l-.08.22c-.37.69.11-.43-.19.08l.27-.74a7.51,7.51,0,0,1-.59.75A6.57,6.57,0,0,1,84,8.75c-.06,0-.21,0-.37.34.05-.06.14-.23.12-.11-.28.56-.46.82-.55.77.51-1.44-.13-.46.14-1.61-.36.49-.34-.34-.61-.32-.18,1.18-.08,0-.33,1.21-.06.07-.08.05-.07,0V8.26c0-.36.11-.26.16-.53-.11-.11,0-.52,0-.85-.06.43-.15.6-.2.43v.57c-.27.61,0-1-.26-.43l.12-.37c-.13.2-.36-.07-.56.9a1.91,1.91,0,0,1,.07-.56c-.22-.17-.57,1-.68.38l0-.29c-.05.08-.1.55-.13.25,0-.12,0-.3,0-.31s-.13.52-.17.34l0-.33c-.21-.4-.34.81-.49,1A2.26,2.26,0,0,0,80,7.17V7.05c-.27-.09-.39.76-.57,1.12-.23-1-.49-.35-.79-.84a2.66,2.66,0,0,1,.07.77c-.08-.17,0,.62-.16-.18l0,0c-.17-.78-.25-.56-.34-.56l.19,1c-.53-1.45-.4.67-.84-.64,0,.27,0,.28,0,.55l-.14-.54c-.18-.1-.28-.14-.42,0l-.08-.4c-.12,0,.37,1.6.3,1.65l-.29-.79c-.16.06-.59-.56-.48.22a1.17,1.17,0,0,1-.11-.39c-.09,0-.53-.41-.06.65-.29-.7-.2,0-.14.34l-.21-.52a3.91,3.91,0,0,1,.28,1.09s-.2-.39-.11-.28c-.2-.23.16.51,0,.28l-.12-.34c-.1,0,0,.17.13.56.06.23-.2-.06-.44-.5.13.28.28.67.17.56a1.13,1.13,0,0,1-.15-.34c-.31-.27.12.68-.22.24l-.18-.28c.1,0,.2-.06.21,0a8,8,0,0,1-.64-1.15c.11.38.41,1.18.21,1l-.1-.15,0,0c-.05,0,0,0,0,.1s-.12-.1-.15-.09c-.23-.36-.22-.14-.27-.13A5.79,5.79,0,0,0,75,9.9a.08.08,0,0,1,0-.1.13.13,0,0,0,0-.05l0,0A.32.32,0,0,1,75,9.7c.11.26.21.49,0,.24l.42.81c-.46-.64-.79-.93-1.07-1.33a1.68,1.68,0,0,0,.36,1.29c0,.13-.21-.22-.32-.35a.76.76,0,0,0-.09-.23c.09.27-.13.22.29.83-.27-.22-.36-.58-.4-.4l-.12-.2c-1-.73.85,1.74-.34.76a1.4,1.4,0,0,1,.2.17c-.71-.25,0,.9-1,.41-.23-.07.12.26.35.54l-.47-.39.46.53c.31.42-1.3-.77-.66,0l.33.23c-.1,0,.08.3-.29,0,.06.05.33.27.14.16l-.25-.18.35.44c-.26,0-1-.75-1.17-.63a3.52,3.52,0,0,0,.84.77,1.35,1.35,0,0,1,.46.23l.11.14a19.14,19.14,0,0,0,2.14,1.36l-.43-.37.38.24v.06c.37.22.07,0-.13-.18a4.09,4.09,0,0,0,.42.27l-.68-.57c.3.21.57.44.75.53-.31-.27-.67-.46-.86-.66.36.22.63.44.36.19a2.75,2.75,0,0,1,.39.32c-.21-.2,0-.14-.43-.46.43.29,0-.18.65.38a3.84,3.84,0,0,1-.51-.53c.78.72.13,0,1,.71-.69-.65-.23-.38-.57-.79,0,.06.16.17.12.14a2.59,2.59,0,0,1,.44.32,12.79,12.79,0,0,1-1-1.08c.58.49.63.67,1.16,1.16-.45-.44-.39-.5-.77-.86a5.63,5.63,0,0,1,.65.59c-.68-.71-.09-.14-.49-.6.38.31.64.66.48.4A3.75,3.75,0,0,1,76.64,14.6Zm.13-2.19h0v0Zm.11-.08a0,0,0,0,0-.06,0,1.52,1.52,0,0,1-.18-.35A2.09,2.09,0,0,0,76.88,12.33ZM74.61,9.15c0-.09.06,0,.12.1s0,0,0,.08l0,.06Z"/><path class="cls-2" d="M75,9.8a.43.43,0,0,0,0,0l.08.09L75,9.79Z"/><path class="cls-2" d="M88.89,15h0l-.07,0Z"/><polygon class="cls-2" points="78.89 12.68 78.86 12.54 78.88 12.67 78.89 12.68"/><path class="cls-2" d="M87.34,16.48l-.13.05Z"/><path class="cls-2" d="M87.31,16.84l-.19.09Z"/><path class="cls-2" d="M87.08,17.14l.24,0h0Z"/><path class="cls-2" d="M84.84,14.11h0C84.72,14.17,84.76,14.16,84.84,14.11Z"/><path class="cls-2" d="M86.6,14.24l-.25.11C86.33,14.4,86.33,14.42,86.6,14.24Z"/><polygon class="cls-2" points="83.56 13.83 83.56 13.82 83.56 13.82 83.56 13.83"/><path class="cls-2" d="M86.33,14.3c-.08.08,0,.08,0,0S86.41,14.27,86.33,14.3Z"/><path class="cls-2" d="M86.94,18.19h0Z"/><path class="cls-2" d="M87,18.2h.06S87.07,18.2,87,18.2Z"/><path class="cls-2" d="M87.21,18.24l-.14,0S87.05,18.23,87.21,18.24Z"/><path class="cls-2" d="M87.19,17.86l-.21,0Z"/><path class="cls-2" d="M87.12,17.77c-.05,0-.43.1-.3.12H87C86.68,17.89,87.46,17.77,87.12,17.77Z"/><path class="cls-2" d="M89.56,17l-.14.13c.21-.05.5-.12.55-.07C90.6,16.81,89.5,17.15,89.56,17Z"/><path class="cls-2" d="M89.81,16.58c.11,0,.31-.06.43-.08A.76.76,0,0,0,89.81,16.58Z"/><path class="cls-2" d="M89,14.12l.46-.22C89.35,13.89,89.26,14,89,14.12Z"/><polygon class="cls-2" points="86.43 14.97 86.17 15.15 86.59 14.94 86.43 14.97"/><polygon class="cls-2" points="89.46 12.92 89.54 12.9 89.33 12.92 89.46 12.92"/><path class="cls-2" d="M86.13,9.6l-.35.52C85.87,10.05,86.28,9.47,86.13,9.6Z"/><path class="cls-2" d="M84.07,9.19c.11-.3.13-.51,0-.24C84.08,9,84,9.25,84.07,9.19Z"/><polygon class="cls-2" points="78.18 7.67 78.17 7.45 78.13 7.64 78.18 7.67"/></g></g></svg>