<svg xmlns="http://www.w3.org/2000/svg" viewBox="0 0 108.29 87.17"><defs><style>.cls-1{fill:#edeb3f;}</style></defs><g id="圖層_2" data-name="圖層 2"><g id="草上黃"><path class="cls-1" d="M93.46,21C84.65,18.89,84,11.87,81.81,7.66S68.51-1.29,59,.32,36.8,2,32.81,14.51,27.12,24.7,12.67,35.12-4.08,60.45,6.86,68.81s16.89,14.42,37.85,12.3c7.07-.72,18.62,6,26.35,6.06s17.14-6.33,18.17-11-3.07-10,3-14.28,17.71-12.84,15.86-22.32S102.28,23.18,93.46,21ZM54.35,62.48a18.22,18.22,0,1,1,18-18.43A18.2,18.2,0,0,1,54.35,62.48Z"/></g></g></svg>