<svg xmlns="http://www.w3.org/2000/svg" viewBox="0 0 119.7 124.22"><defs><style>.cls-1{fill:#edeb3f;}</style></defs><g id="圖層_2" data-name="圖層 2"><g id="黑色"><path class="cls-1" d="M99.27,113.73l-4.4-.32a4.54,4.54,0,0,0-1.62-.38c-1,3-3.23,5.06-5.46,7a11.36,11.36,0,0,1-2.55,1.49,26,26,0,0,1-2.93,1.25,16.59,16.59,0,0,1-2.34.55c-1.3.25-2.6.47-3.91.67-.19,0-.41-.15-.63-.17a3.75,3.75,0,0,0-2.24.15c-.75.39-1.36.21-2.85-.26a7,7,0,0,0-1.72-.07,5.1,5.1,0,0,1-1-.09c-.75-.17-1.48-.45-2.23-.59-1.55-.28-3.11-.46-4.66-.77a7,7,0,0,1-1.46-.7c-1.12-.53-2.25-1-3.36-1.57a9.18,9.18,0,0,1-4.46-5.38c1.27-.75,2.46-1.42,3.62-2.14.35-.2.61-.54.95-.77A51.54,51.54,0,0,1,61.51,108c.94-.48,1.78-1.26,2.77-1.72,1.84-.85,3.65-1.75,5.52-2.5a11.83,11.83,0,0,1,2.84-.64c1.46-.19,2.93-.29,4.41-.41a4.8,4.8,0,0,1,2.76.31,2.8,2.8,0,0,0,1.53.1,10.16,10.16,0,0,1,5.49,1.37,9.86,9.86,0,0,0,1.13.4,3.94,3.94,0,0,0-.41-.92c-.9-1.08-1.85-2.11-2.75-3.19s-1.66-2.1-2.48-3.16-1.8-2.4-2.72-3.58c-1.06-1.35-2.15-2.68-3.2-4-1.44-1.85-2.84-3.73-4.28-5.57a16.28,16.28,0,0,0-1.38-1.37c-1.1,1.43-2.07,2.83-3.17,4.11a7.81,7.81,0,0,1-2.25,2c-.7.38-1.24,1.09-1.95,1.44-1.47.74-3,1.35-4.51,2-.57.26-1.14.53-1.72.76-1,.38-1.89,1-3.06.58a2.3,2.3,0,0,0-1.21.07,20.69,20.69,0,0,1-8.63-.65c-1.17-.27-2.39-.36-3.54-.73a35.24,35.24,0,0,1-6.8-2.44c-1.84-1-3.78-1.82-5.27-3.41a5,5,0,0,1-1.14-2l.67.58a1.3,1.3,0,0,1,.58-1.26,7.43,7.43,0,0,0,1.72-1.6,13.74,13.74,0,0,1,4.46-3.44c1.15-.58,2.21-1.33,3.41-1.85,1.46-.62,2.91-1.26,4.42-1.74s2.79-.8,4.2-1.14a14.32,14.32,0,0,1,2.26-.33,33.64,33.64,0,0,1,9.76.28c.62.13,1.26.08,1.87.22,1.26.3,2.51.67,3.94,1.06a6.21,6.21,0,0,0-.62-1.18c-1.24-1.54-2.52-3.05-3.79-4.57-.15-.18-.39-.31-.47-.52-.64-1.69-2.21-2.62-3.07-4.13-.65-1.13-1.74-.87-2.69-.87a8.08,8.08,0,0,0-1.61.45,2.28,2.28,0,0,1-.9,0c-.88-.17-1.76-.39-2.65-.55a2.44,2.44,0,0,0-1.2,0c-1.43.52-2.66-.2-4-.64-.71-.24-1.44-.44-2.17-.63a19.52,19.52,0,0,1-4.11-2.06c-1.75-1-3.41-2.1-5.11-3.12a28.92,28.92,0,0,0-6-2.86,6.46,6.46,0,0,0-3.23-.11,14.43,14.43,0,0,1-3.08.21c-.67,0-1.26.25-2,.2-1.91-.13-3.8,0-5.42-1.42a2.14,2.14,0,0,0-1-.47,12.7,12.7,0,0,1-7.24-3.81A15.76,15.76,0,0,1,1.63,45.2,21.26,21.26,0,0,1,.29,41.34a10.39,10.39,0,0,1,.16-5.45,15.55,15.55,0,0,1,5.43-7.81,48.86,48.86,0,0,1,6-3.63,1.92,1.92,0,0,0,.72-.56q1.7-2.79,3.32-5.61c.3-.52.47-1.12.74-1.66a5.88,5.88,0,0,1,1.11-2.06c1.76-1.42,2.72-3.56,4.38-5.06,1.36-1.22,2.62-2.55,4-3.79a5.42,5.42,0,0,1,1.26-.78C29.19,4,31,3,32.87,2.13a4.85,4.85,0,0,1,1.61-.57c1.16-.12,2-1.13,3.24-1S40.2-.24,41.51.29C42.19-.29,43,.18,43.7.18a17.2,17.2,0,0,1,3.5.64c.36.08.63.3,1,0,.2-.18.5-.18.49.3,0,.07.29.24.44.24a6.13,6.13,0,0,1,5.23,2c.74.68,1.59,1.23,2.33,1.91a25.56,25.56,0,0,1,2.84,2.86c.77,1,1.26,2.17,2,3.21,1,1.54,1.62,3.32,2.54,4.91.4.7.93,1.32,1.32,2a1.73,1.73,0,0,0,2.1.79,4.13,4.13,0,0,1,2.24.07,19.5,19.5,0,0,1,8.09,3.64,35.12,35.12,0,0,1,2.94,2.8.92.92,0,0,1,.27.59,1.16,1.16,0,0,0,.87,1.37c.08,0,.18.05.21.1.73,1.7,1.7,3.29,1.82,5.23a24.38,24.38,0,0,1,.47,3c-.12,1.59,0,3.3-1,4.66A11,11,0,0,1,81.09,43a12.62,12.62,0,0,1-3.36,2.16c-1.64.5-3.23,1.14-4.85,1.71A2.7,2.7,0,0,0,71.17,49a21.65,21.65,0,0,1-2.23,5.83c-1.08,1.84-2.11,3.76-4.08,4.79-.24.13-.28.63-.49,1.13,1.09.93,1.61,2.53,2.76,3.73.68.72,1.71,1.39,1.76,2.65,0,.08.11.15.17.21.79.86,1.61,1.68,2.34,2.58s1.17,1.62,1.87,2.63c1.49-3.34,2.77-6.48,4.27-9.49a21.17,21.17,0,0,1,5.11-6.94,25.91,25.91,0,0,0,2-2,43.77,43.77,0,0,1,5.83-4.72c.54-.4,1.13-.74,1.7-1.1a1,1,0,0,1,1.24-.11c.36.21.94,0,1.64-.06.23.86.54,1.78.74,2.72A43.51,43.51,0,0,1,97,59.67c0,1.83-.25,3.65-.39,5.48-.65.45-.26,1.19-.36,1.77a9.29,9.29,0,0,1-3.71,5.92,15.47,15.47,0,0,0-2.25,2.93,23,23,0,0,1-3.61,3.89,18.68,18.68,0,0,1-5.54,2.72c-.22,1,.65,1.35,1.08,1.88,1.67,2,3.06,4.27,4.8,6.24a10.55,10.55,0,0,1,.87,1.42c.24.38.5.76.78,1.12,1.56,2,3.14,4,4.72,6a8.13,8.13,0,0,0,.88.83c.26-1.4.48-2.69.74-4a18.2,18.2,0,0,1,2.48-6.65,49.53,49.53,0,0,1,4-5.74,33.25,33.25,0,0,1,6.14-5.77,17.11,17.11,0,0,0,2.66-2.07c.82-.81,1.94-.78,2.85-1.34.38-.23,1.18.09,1.71.35a3.62,3.62,0,0,1,2,2.18,24,24,0,0,0,1.25,2.54,6.31,6.31,0,0,1,1,3.15c0,.49.4,1,.48,1.53a20.52,20.52,0,0,1,.18,2.47,19.63,19.63,0,0,1-1.28,8.85,39,39,0,0,1-2.9,5.69,23,23,0,0,1-5.41,5.5,20.18,20.18,0,0,1-3.5,2.24,26.29,26.29,0,0,1-3.56,1.11,6.18,6.18,0,0,0-.89.47ZM42.39,22.81c-2.36.56-4.66,1.35-6.23,3.36a27.21,27.21,0,0,0-2.76,4.48,6.81,6.81,0,0,0-.54,4,26.14,26.14,0,0,0,3.51,5.89,4.82,4.82,0,0,0,.43.36,16.53,16.53,0,0,0,7,2.94c2.92.44,5.76.37,8.19-1.66,1.5-.38,2.36-1.66,3.33-2.73a10.09,10.09,0,0,0,2.74-5.06,4.67,4.67,0,0,0-.34-3.17C56.25,28.72,54.6,26.37,52,25,49,23.4,45.91,21.87,42.39,22.81Zm-5,64.37c.48.62,1,.2,1.39.07L53.59,83c2.87-.82,5.75-1.64,8.62-2.48.5-.14,1.06-.24,1.24-.87-.42-.57-.87-.26-1.27-.14-4.61,1.32-9.22,2.67-13.83,4l-9.53,2.74C38.26,86.42,37.66,86.5,37.44,87.18Zm53.2-27.72c-.93-.28-1.27.19-1.6.71q-5.31,8.51-10.62,17a8.82,8.82,0,0,0-.5,1.12c.76.41,1.1.06,1.43-.46q5.36-8.64,10.73-17.26C90.27,60.26,90.41,59.92,90.64,59.46Zm-2.48,51.7a5.13,5.13,0,0,0-.89-.06c-1.21.17-2.42.36-3.62.56l-9.51,1.57c-3.21.53-6.43,1.06-9.64,1.61-.55.1-1.19.1-1.5,1.06.62-.05,1.13-.05,1.63-.13l14.74-2.4q3.81-.62,7.62-1.28C87.44,112,88,112.07,88.16,111.16ZM112.09,87.8l-.31-.39a3.36,3.36,0,0,0-1,.61,24.36,24.36,0,0,0-1.44,2L101,102c-.28.4-.5.83-.79,1.34,1.13.37,1.46-.38,1.86-1q4.66-6.73,9.3-13.49C111.65,88.57,111.86,88.18,112.09,87.8ZM69.69,50.4l.12.15.76-.63-.18-.21Z"/></g></g></svg>