<svg xmlns="http://www.w3.org/2000/svg" viewBox="0 0 297.14 76.04"><defs><style>.cls-1{fill:#edeb3f;}</style></defs><g id="圖層_2" data-name="圖層 2"><g id="黑色"><path class="cls-1" d="M270.82,69.75,253.18,61l-.49,1,18.45,9.79-.62,1.6a23.18,23.18,0,0,1-15.91-4.85c-2.66-2-6-4-4.75-8.41C260.13,58.28,267.42,61.75,270.82,69.75Z"/><path class="cls-1" d="M122.13,27.36c.57,6.28.86,6.53,7,5.83-.35,1.8-.34,3.64-1.08,5.08-1.11,2.17-3,5.84-4.12,5.7a11.11,11.11,0,0,1-7.22-4.2c-1-1.45,0-4.79,1-6.92S120.62,29.17,122.13,27.36Z"/><path class="cls-1" d="M26.25,45.25c.53,3.94.79,4.09,6.47,3.66-.32,1.13-.31,2.27-1,3.18-1,1.36-2.73,3.66-3.8,3.57A11.91,11.91,0,0,1,21.27,53c-.91-.91.05-3,.92-4.34S24.86,46.39,26.25,45.25Z"/><path class="cls-1" d="M206.56,40.56c.6,4.56.91,4.74,7.48,4.24-.37,1.3-.36,2.64-1.15,3.69-1.18,1.57-3.15,4.23-4.39,4.14-2.79-.23-6.13-1.49-7.7-3.05-1.05-1.06,0-3.48,1.07-5S205,41.88,206.56,40.56Z"/><path class="cls-1" d="M87.74,15.92l-5.53.59c-.89-1.68-2.2-3.76-3.12-6-.73-1.74-1-3.71,1.33-4.81,1.81-.84,5.66.56,6.21,2.55A53.26,53.26,0,0,1,87.74,15.92Z"/><path class="cls-1" d="M94.28,16.44l-5.86-2.1c.26-1.4.63-3.18.91-5,.4-2.6,1.81-3.52,4.2-3,3,.69,4,2,3.12,4.71A56.82,56.82,0,0,1,94.28,16.44Z"/><path class="cls-1" d="M223.06,14.83,216,11c.56-1.93,1.33-4.37,2-6.84C219,.59,220.89-.5,223.8.62c3.71,1.43,4.72,3.44,3.13,7.09A80.25,80.25,0,0,1,223.06,14.83Z"/><path class="cls-1" d="M213.17,40.66l-7-3.83c.56-1.93,1.33-4.37,2-6.84.94-3.58,2.87-4.66,5.78-3.55,3.71,1.43,4.72,3.44,3.13,7.09A79.28,79.28,0,0,1,213.17,40.66Z"/><path class="cls-1" d="M87.47,30.2c1.84.44,3.67,1.44,5,1,.88-.27,1.09-2.67,1.78-4.58,1.32,1.08,3.26,2.05,4.2,3.62s1.45,4.43.7,5.1a8.25,8.25,0,0,1-5.93,1.85C89.56,36.65,88.28,33.42,87.47,30.2Z"/><path class="cls-1" d="M177.09,16.78c-2.25-.11-4.6-.87-6.12-.07-1,.51-.69,3.36-1.07,5.75-1.78-1-4.26-1.69-5.71-3.31s-2.67-4.86-1.94-5.81a9.78,9.78,0,0,1,6.53-3.46C173.22,9.7,175.43,13.2,177.09,16.78Z"/><path class="cls-1" d="M78.71,23.41a33,33,0,0,1-4.38-1.15,4.13,4.13,0,0,1-2.39-6.11c1.34-2.73,3.72-2,5.76-1.24a12.92,12.92,0,0,1,3.92,2.82c.29.26,0,1.25-.28,1.77C80.68,20.66,79.85,21.74,78.71,23.41Z"/><path class="cls-1" d="M22.51,37.8c-4-.46-7.39-.29-10-1.33a10.4,10.4,0,0,1-5.42-5c-.52-1.27,1.14-4,2.76-4.54s5.33.28,6.34,1.41C18.92,31.38,20.64,34.87,22.51,37.8Z"/><path class="cls-1" d="M40.67,57.74l-5.43-9.45c4.11-1.86,9.65-2,12.13.65,1.42,1.48,1.89,4.67.7,6.07C46.74,56.57,43,57,40.67,57.74Z"/><path class="cls-1" d="M220.73,51.17l-4.64-10.68c3.51-2.11,8.22-2.21,10.34.73,1.21,1.68,1.61,5.28.59,6.87C225.89,49.85,222.72,50.29,220.73,51.17Z"/><path class="cls-1" d="M25,58.46c6.79,2.29,8.27,1.88,10-2.47,3.82,1.37,6.14,3.4,6.21,6.68s-2.56,4.94-6.7,3.81C29.8,65.22,26.59,62.77,25,58.46Z"/><path class="cls-1" d="M130.6,41.28c5.42,2.43,6.61,2,8-2.62,3,1.45,4.9,3.6,5,7.08s-2,5.24-5.35,4C134.47,48.44,131.9,45.85,130.6,41.28Z"/><path class="cls-1" d="M7.8,46.54C2.37,45.77-.59,43.46.1,40a7.46,7.46,0,0,1,4.13-4.83c2.53-1,7.38,2.79,9,6.61C9.53,42.09,5.62,42.37,7.8,46.54Z"/><path class="cls-1" d="M94.32,24l-.88-6.55c.83-.89,2.27-2.92,4.84-1.45,1.68,1,4.09,2.14,2.76,4.83C99.59,23.71,97.25,24.73,94.32,24Z"/><path class="cls-1" d="M140.67,36.88V28.13c1.12-1.06,3.14-3.53,5.93-1.24,1.84,1.51,4.5,3.4,2.5,6.75C146.93,37.29,144,38.3,140.67,36.88Z"/><path class="cls-1" d="M36.37,35.23l-4.44-7.54c.43-1.48.92-4.63,4.49-4.07,2.34.37,5.59.65,5.57,4.55C42,32.41,40,34.76,36.37,35.23Z"/><path class="cls-1" d="M33.24,36.56l-7.5,2.76-.73-6c-.23-1.9-.86-4.58,2.91-4,2.29.33,4.4,2.57,5.88,4.3C34.46,34.3,33.39,35.92,33.24,36.56Z"/><path class="cls-1" d="M212.82,9.74,206,11.62c.17-1.77.41-4.3.65-6.83.21-2.14.24-5.22,3.28-4,1.85.73,3.14,3.55,4,5.7C214.32,7.43,213.08,9.05,212.82,9.74Z"/><path class="cls-1" d="M19.2,54.16c-4.75,4.07-8.11,4.94-10.71,2.69-2-1.74-.8-3.87,1.38-5.75C12.41,48.91,13.05,49.14,19.2,54.16Z"/><path class="cls-1" d="M152.74,43.79c5.34-6.85,9.76-8.73,14.13-5.87,3.4,2.21,2.37,5.58-.08,8.74C163.94,50.36,163,50.12,152.74,43.79Z"/><path class="cls-1" d="M41.72,38c6.46-4.07,10.67-4.3,13.42-.64,2.14,2.84.3,5.31-2.67,7.19C49,46.7,48.29,46.22,41.72,38Z"/><path class="cls-1" d="M131.6,29.09c-4.83,1.67-7.55.94-8.63-2.41-.84-2.6.78-4.06,3-4.84C128.57,20.93,128.94,21.44,131.6,29.09Z"/><path class="cls-1" d="M22.88,59.51c-.17-.29.22.05.2.39a37.31,37.31,0,0,1-.57,5.67c0,.12-3.05.33-3.43-.11a20.62,20.62,0,0,1-3.7-5.81c-.33-.84.95-2,1.21-2.52Z"/><path class="cls-1" d="M201.17,33.61c-.15-.33.18.06.17.43a54.64,54.64,0,0,1-.49,6.41c0,.14-2.59.38-2.92-.11a25.87,25.87,0,0,1-3.15-6.58c-.28-.95.81-2.3,1-2.84Z"/><path class="cls-1" d="M88.89,22.46a7.89,7.89,0,0,1,1.15-2,3,3,0,0,1,1.82-.74,1.39,1.39,0,0,1,1.08,1A1.64,1.64,0,0,1,92,21.9,22.51,22.51,0,0,1,88.89,22.46Z"/><path class="cls-1" d="M85.31,28.05,88,26.38c.67,1,.85,2.33.15,3a1.83,1.83,0,0,1-1.78.38C85.83,29.51,85.61,28.6,85.31,28.05Z"/><path class="cls-1" d="M130.65,33.46l7.06-3.7c1.69,2,2.1,4.9.22,6.44a5.78,5.78,0,0,1-4.7.91C131.94,36.55,131.41,34.63,130.65,33.46Z"/><path class="cls-1" d="M83.7,24c-.49,1.76-.32,2.12,1,2.4a2.15,2.15,0,0,1-1.8,1.76c-1,.13-1.54-.47-1.32-1.53A3.43,3.43,0,0,1,83.7,24Z"/><path class="cls-1" d="M86.23,19.38c-.09-1.23.41-2,1.44-2.08a2.32,2.32,0,0,1,1.64.6c.44.49-.38,1.78-1.4,2.36C87.62,19.48,87.31,18.65,86.23,19.38Z"/><path class="cls-1" d="M89.76,28.5,88.46,24l2.87.12c.9,0,2.17-.09,1.91,2a5.08,5.08,0,0,1-2,2.95C90.83,29.38,90.06,28.64,89.76,28.5Z"/><path class="cls-1" d="M133.31,25.73c-2.16-5.21-1.83-8.31,1.12-9.88,2.29-1.21,3.85.44,4.85,2.84C140.46,21.48,140,22,133.31,25.73Z"/><path class="cls-1" d="M22.23,47.54c.34-.18,0,.2-.46.22a66.86,66.86,0,0,1-7.22.11c-.15,0-.84-2.68-.34-3.07A27.4,27.4,0,0,1,21,40.87c1-.38,2.7.63,3.33.8C23.7,43.53,23.08,45.22,22.23,47.54Z"/><path class="cls-1" d="M278.85,65.22c-2.2-2.39-2.45-2.37-6.06.6a7.42,7.42,0,0,1-.83-2.61c0-1.39.1-3.73.86-4.18a9.7,9.7,0,0,1,5.7-1.37c1,.17,1.39,2,1.43,3.34S279.25,63.8,278.85,65.22Z"/><path class="cls-1" d="M280.19,72.64c2.88-1.56,5.1-3.29,7.31-3.8a8.49,8.49,0,0,1,6,.77c.95.6,1.11,3.2.3,4.34s-3.71,2.33-4.93,2C285.63,75.25,282.83,73.72,280.19,72.64Z"/><path class="cls-1" d="M288.54,60.21c4-2,7.08-1.89,8.24.75a6.1,6.1,0,0,1-.5,5.18c-1.22,1.87-6.26,1.61-9.13-.2C289.48,64,292,62,288.54,60.21Z"/><path class="cls-1" d="M279.28,57.07c3.31-3.91,5.91-5,8.31-3.57,1.87,1.15,1.16,3-.36,4.83C285.45,60.44,284.91,60.34,279.28,57.07Z"/><path class="cls-1" d="M269.71,58.26c.25.11-.17.07-.31-.16A32.08,32.08,0,0,1,267.1,54c0-.09,1.89-1.66,2.35-1.54a16.81,16.81,0,0,1,5.23,2.15c.61.41.32,1.82.37,2.26Z"/><path class="cls-1" d="M280.35,63.93c-.15.29-.07-.15.2-.36a56.2,56.2,0,0,1,4.79-3.48c.11-.07,1.83,1.4,1.67,1.9a22.13,22.13,0,0,1-2.72,5.86c-.5.73-2.11.84-2.61,1C281.26,67.31,280.87,65.89,280.35,63.93Z"/><path class="cls-1" d="M84.77,23.17c.13-.12,0,.11-.19.14a24.08,24.08,0,0,1-3.17.39c-.07,0-.57-1.43-.38-1.66a11.22,11.22,0,0,1,2.71-2.45c.42-.25,1.23.22,1.53.29Z"/><path class="cls-1" d="M61.76,39.57l14-1.12c-6.46-2-13.81,2.47-19.82-3.61,5.16-.42,10.13-1.92,14.52-.89,4.86,1.13,9.18,4.57,13.74,7L83.76,42c-4.56.66-9.1,1.42-13.66,2A7.58,7.58,0,0,1,61.76,39.57Z"/><path class="cls-1" d="M142.8,52.49l9.42-5.89c7.23,4.06,11.92,11.83,9.92,17.52-1.1,3.15-9.3,6.81-12.87,5.75C144.83,68.56,141.84,60,142.8,52.49Z"/><path class="cls-1" d="M206.21,18.73c-4.75,0-8.39-1-10.68.34-1.57.92-1.28,5.05-1.93,8.28-3.46-2.91-7.49-5.89-11-9.38s-7.07-7.7-2.39-13c3.95-4.49,11.16-5.55,15.47-1.12C199.79,8.08,202.65,13.58,206.21,18.73Z"/><path class="cls-1" d="M67.47,46.1c6.55-1,12.31-2.14,18.12-2.46,2-.11,4.12,1.91,6,3.5C83.5,48.3,75.46,51.32,67.47,46.1Z"/><path class="cls-1" d="M196.54,41.08c-17.92,4-26.61-2.92-24.85-17.19.67-5.41,2.9-6.29,7-3.57,4.59,3,9,6.37,13.61,9.71C189.81,34.54,187.55,38.9,196.54,41.08Z"/><path class="cls-1" d="M23.67,32.42C17,24.92,18,18.92,25.3,16c2.76-1.11,3.78-.28,3.57,2.41-.22,3-.67,6-1,9.09C25,27.46,22.33,27.54,23.67,32.42Z"/><path class="cls-1" d="M129.57,46.73c.92,5.42-.48,12.76,11.1,10.33-1.78,5-2.32,10.75-4.37,11.35a21.09,21.09,0,0,1-14-1c-1.85-.89-2.16-7.43-1.24-10.9,1-3.79,4.27-7,6.54-10.46Z"/><path class="cls-1" d="M186.06,47.58c-1.45,5.67-6,12.21,6.32,14.88-3.89,4.07-6.92,9.45-9.18,9.14A22.46,22.46,0,0,1,170,64.53c-1.41-1.67,1.13-8.18,3.53-11.14,2.64-3.26,7.19-5,10.91-7.35Z"/><path class="cls-1" d="M101.18,55.42C93.53,59,92,58.59,85.83,54.67a101.21,101.21,0,0,1,10.36-1.39C97.62,53.22,99.1,54.48,101.18,55.42Z"/><path class="cls-1" d="M230.21,53c4.4,4.21,9.07,8.26,6.6,15.47-1.27,3.74-3,5.51-7.42,4.06-8.29-2.69-12.74-8.76-17.42-17.81,6.71,3.85,11.5,4.46,15.08-1.36.33-.55,2.21-.14,3.38-.17Z"/><path class="cls-1" d="M75.74,50.94c5.61-.81,11.1-1.77,16.64-2.32,1.46-.14,3,1,4.46,2C89.72,53.27,82.71,54.86,75.74,50.94Z"/><path class="cls-1" d="M143.46,21.8c-3.17-10.28-4.05-10.74-13.59-6.84-2-5.35-.46-9.46,4.57-11.72,4.79-2.14,9.52-1.3,12.84,3.06C150.41,10.4,148.55,17.2,143.46,21.8Z"/><path class="cls-1" d="M38.59,45.64C36.58,42,36,41.79,30,43.19c-1.27-1.92-.29-3.4,2.9-4.21s6-.47,8.16,1.1S41.83,44,38.59,45.64Z"/><path class="cls-1" d="M6.26,52c-1.56,3.9-1.33,4.43,3.6,8.22-.67,2.2-2.43,2.39-5.09.44s-4.21-4.37-4.34-7C.3,51.16,2.93,50.51,6.26,52Z"/><path class="cls-1" d="M124,17.48l-7.62,11.26L106,22.32c2.41-3.87,4.13-10,7.4-11,3.45-1,8.36,2.86,12.64,4.6Z"/><path class="cls-1" d="M111.76,63.85C107,57.78,99.87,53.49,97.88,45.32A41.16,41.16,0,0,1,111.76,63.85Z"/><path class="cls-1" d="M151.44,35.08c2.16-6.84,2.14-6.9-4.81-11.72,4.36-4.57,12.24-6.09,15.9-2.79,3.81,3.44,1.62,7.11-.19,10.57C159.38,36.78,157.58,37.39,151.44,35.08Z"/><path class="cls-1" d="M46.46,61.23c6-3.92,6-4,3.71-12.11,6.27-.78,13.33,3.05,14.06,7.92.77,5.07-3.25,6.53-6.85,8.05C51.52,67.58,49.74,66.91,46.46,61.23Z"/><path class="cls-1" d="M225.94,29.91c5.08-5.72,5.08-5.78.41-13.49,6.22-2.56,14.56-.62,16.68,4.18,2.22,5-1.5,7.62-4.77,10.21C232.94,35,230.92,34.83,225.94,29.91Z"/><path class="cls-1" d="M208.28,54.37c.73,1.31,2.29,3.1,2.66,5.12s.07,4.67-1.12,5.86-3.94,1-5.69.49a37.76,37.76,0,0,1-7.73-3.93c-9.24-5.54-9.21-9,0-15.67,1.06,2.84,1.46,6.34,3.42,8.27C201.08,55.71,204.64,54.53,208.28,54.37Z"/><path class="cls-1" d="M234.68,50.67c-2.5-2-4.71-3.39-2-7.5,1.29-2-.77-6.11-1.57-10.77,3.41,1,8.36,1.23,11.26,3.79,2,1.77,1.93,6.85,1.46,10.28-.77,5.65-5.88,3.35-9.33,4Z"/><path class="cls-1" d="M95.92,59.49c8.17-3.09,8.17-3.09,12.86,4.36Z"/><path class="cls-1" d="M53,30.37c5.76.76,11.36-1.82,17.16,1.57C64.56,34.44,55.27,33.68,53,30.37Z"/><path class="cls-1" d="M121.4,46.11c-4,1.61-7.31,3.87-10.7,4-1.88.06-5.47-3.51-5.48-5.46,0-6,3.6-9.95,9.5-11.64-.46,2.67-1.87,5.59-1,7.58S117.57,43.51,121.4,46.11Z"/><path class="cls-1" d="M219.41,30.3c-1.46-5.87-4.25-9.38-10.94-5.76L207.21,23c1.21-2.91,2.85-8.42,3.56-8.3,4.14.68,8.94,1.74,11.85,4.46C226.73,23,224,26.9,219.41,30.3Z"/><path class="cls-1" d="M64.1,28.87c-5.51.28-10.22,2.1-14.17-2.07C54.4,26.68,59.11,24.24,64.1,28.87Z"/><path class="cls-1" d="M66.31,22.69c5.4,2.41,5.9,3.1,6.6,9.33C69.09,30,65.84,27.9,66.31,22.69Z"/><path class="cls-1" d="M81.66,30.35l1,.64c1.4,2.6,3.25,5.09,2.39,8.45-5-1.59-4.5-6-6-9.89Z"/><path class="cls-1" d="M44.57,17.58,43.72,16c5.62-.32,10.18,2,10.74,5.62l-4.73-1.46Z"/><path class="cls-1" d="M73.44,26.76c4.19,1.62,5.12,3.14,4.84,7.85C74.52,33.24,74.1,32.56,73.44,26.76Z"/><path class="cls-1" d="M44.94,22.58c3.22.7,6.93-1.56,9.85,1.72C49.74,26.21,47.06,25.82,44.94,22.58Z"/><path class="cls-1" d="M93.58,39.12q1.94,4.27,3.86,8.53c-5.38-.79-4.5-4.75-5.13-7.95Z"/><path class="cls-1" d="M87,35.93C91,37,91.46,40,91.3,43.38L90.21,44q-2.17-3.66-4.37-7.3Z"/><path class="cls-1" d="M44.57,17.58l5.16,2.56c-1.18,2-5.58,1.6-6.79-.61a11.81,11.81,0,0,1-.7-2.21Z"/><path class="cls-1" d="M59.85,25,55,20.06l.94-.93C58.94,19.36,61.32,20.28,59.85,25Z"/><path class="cls-1" d="M65.72,27.83c-3.82-1.09-4-3.79-4-6.67C64.73,21.6,65.67,23.06,65.72,27.83Z"/><path class="cls-1" d="M269,35.51c-.32-1.57-1.27-4.29-.85-4.52a83.6,83.6,0,0,1,9.21-3.94L277,27l11.85.36c.27,4.89-2.15,6.4-6.57,6.56-4.58.17-9.13,1-13.69,1.54Z"/><path class="cls-1" d="M265.91,42.85l-6.05-1.91-.6-1.65L269,35.51l-.4,0,15.51.12c.11,1.06.22,2.12.32,3.17L279,42Z"/><path class="cls-1" d="M265.91,42.85,279,42c-.94.92-1.74,2.41-2.83,2.67-7.3,1.75-14.65,3.24-22.45,4.91C255.24,41.28,261.87,44.65,265.91,42.85Z"/><path class="cls-1" d="M256,29.26c.61-3.92-1.19-9,5-10.39,3.35,12.47,2.49,15.49-4.84,17.4Z"/><path class="cls-1" d="M277.33,27.05c-4.44-3.36-1.12-5.57,1.58-6.68,3.51-1.44,7.46-1.81,11.21-2.63.45.74.89,1.49,1.33,2.23-2.28,1.65-4.41,3.62-6.9,4.85-2.32,1.14-5,1.49-7.57,2.18Z"/><path class="cls-1" d="M270.23,20.38l-3.61,8.1-2-.64c.62-5.29-3.12-11.43,4.31-16.25l1.49,7.72A5.65,5.65,0,0,0,270.23,20.38Z"/><path class="cls-1" d="M278.57,10.48C279.86,3,286.38,1.77,292.6,0c-4,4-7.93,8.08-12,12,0,0-1.3-1.23-2-1.89Z"/><path class="cls-1" d="M292.63,2.08c.05,12.29-.7,13.13-11.46,13.73Z"/><path class="cls-1" d="M256,29.26l.16,7Q255,39.61,253.87,43l-2.65-.45.69-15.79,1.9-.19Z"/><path class="cls-1" d="M278.57,10.48l0-.35c-.9,2.15-1.4,4.61-2.81,6.34s-3.67,2.64-5.57,3.91a5.65,5.65,0,0,1,.22-1.07c.33-2.58.28-5.3,1.09-7.73C273,7.1,275.44,5.64,278.57,10.48Z"/></g></g></svg>