<svg xmlns="http://www.w3.org/2000/svg" viewBox="0 0 117.97 128.77"><defs><style>.cls-1{fill:#edeb3f;}</style></defs><g id="圖層_2" data-name="圖層 2"><g id="草上黃"><path class="cls-1" d="M100.36,114.43c.68-6.7-4.37-14.91,1.89-20.65s18.22-17.07,15.25-31.15-8-24.67-17.94-28.69S88.21,19.57,85.41,13.18,69.88-1.26,59.57.17,35.29.38,32.14,18.38,26.88,32.77,12,46.62-3.94,82.1,8.94,95.45s20,22.82,42.88,21.77c7.71-.35,21.1,10.68,29.61,11.49S99.68,121.13,100.36,114.43ZM70.81,92.24A21.92,21.92,0,1,1,86.68,65.62,21.91,21.91,0,0,1,70.81,92.24Z"/></g></g></svg>