<svg xmlns="http://www.w3.org/2000/svg" viewBox="0 0 179.7 150.01"><defs><style>.cls-1{fill:#edeb3f;}</style></defs><g id="圖層_2" data-name="圖層 2"><g id="草上黃"><path class="cls-1" d="M123.05,94.75c12.28,2.08,23.93-8.25,25.42-14.56s3.77-11.17,11.32-13C168,65.26,178.07,59.13,179.44,48c2.09-16.88-8.68-21.37-22-26.75S145.08,6.64,137.21,2.57,115.54-.88,109.36,5.43,105.88,20,97.3,22.21c-8.16,2.07-22,5.26-25.45,17.88A28.2,28.2,0,0,1,82.09,55.34c2,7.55,7.5,9.82,14.62,11.3,6.87,1.43,18,12.33,16.58,24.15A22.91,22.91,0,0,0,123.05,94.75Zm9.48-61.58A15.55,15.55,0,1,1,117.17,48.9,15.55,15.55,0,0,1,132.53,33.17Z"/><path class="cls-1" d="M90.51,72.39c-7.12-1.48-12.6-3.74-14.62-11.29-2.19-8.19-9.09-18.27-21.6-19.63-19-2.06-24.12,8.72-30.22,22.08S7.52,75.9,2.92,83.77-1,105.45,6.11,111.63s16.46,3.45,18.9,12S31.28,147,47.4,149.53c17.77,2.75,25.4-6.76,28.57-15.63,2.1-5.85,2.08-7.42,8.79-13.23s19.44-8.82,22.15-22.87C109.27,85.52,97.63,73.88,90.51,72.39ZM50.67,112.92a18.22,18.22,0,1,1,18-18.43A18.22,18.22,0,0,1,50.67,112.92Z"/></g></g></svg>