<svg xmlns="http://www.w3.org/2000/svg" viewBox="0 0 450.12 25.04"><defs><style>.cls-1{fill:#edeb3f;}</style></defs><g id="圖層_2" data-name="圖層 2"><g id="黑色"><path class="cls-1" d="M11.51,5.29l.12,0,.11,0a.19.19,0,0,1,.1.2,3.28,3.28,0,0,1-.16.87l-.11,0h-.13l-1.29.16-1.29.13a24.77,24.77,0,0,1-2.59.12.48.48,0,0,0-.54.5A9.52,9.52,0,0,0,5.8,8.94L5.87,10c0,.41,0,.78,0,1.11-.05.62-.08,1.32-.08,2.11l0,2.11a38.67,38.67,0,0,1-.1,4.21,4.05,4.05,0,0,1-1.06,2.54,1.17,1.17,0,0,0-.24.46l-.07.25-.08.25a1.17,1.17,0,0,1-1.42.83,1.72,1.72,0,0,1-1-.49,1.74,1.74,0,0,1-.19-1.14l-.08-.56-.09-.63a8.86,8.86,0,0,1-.13-1.31L1.2,15.37,1.09,11,1,8.47C1,7.51,1,6.67.9,6A25.13,25.13,0,0,0,.07,1C-.14.29.11,0,.82,0l.65,0,.65,0a3.3,3.3,0,0,1,1.2.26A3.56,3.56,0,0,0,5.43.52L6,.43,6.47.35a4.67,4.67,0,0,1,1,0l.73.06L9,.41A8.88,8.88,0,0,1,10.4.6a1.12,1.12,0,0,1,.47.28l.2.19.39.52s0,0,0,.11a.21.21,0,0,1,0,.14.24.24,0,0,1-.18.16A.46.46,0,0,1,11,2a5.29,5.29,0,0,0-2.48-.46l-.63,0-.63,0A8.26,8.26,0,0,1,6,1.53a1.39,1.39,0,0,0-.38,0l-.19.06-.18,0c-.32,0-.4.2-.22.47a5,5,0,0,1,.64,2.81.33.33,0,0,0,.18.31.69.69,0,0,0,.34,0L8,5.07A12,12,0,0,1,11.51,5.29Z"/><path class="cls-1" d="M38.92,16.63a3.74,3.74,0,0,1-.05.71,4.43,4.43,0,0,0,0,.75l0,.79,0,.77,0,3.27a2.2,2.2,0,0,1-.16.88l-.09.2-.08.21a1.66,1.66,0,0,1-.19.4l-.09.13-.09.13a.46.46,0,0,1-.57.12l-.62-.29-.63-.29a1.23,1.23,0,0,1-.71-1.06l-.08-.88-.08-.81,0-.8,0-.69-.07-.69L35,17.3c-.05-.37-.08-.82-.11-1.36l-.09-1.35c-.06-.88-.09-1.91-.08-3.07l0-1.53,0-1.53,0-1.93,0-1.92a1.5,1.5,0,0,1,.33-1,.79.79,0,0,1,.64-.33,5.1,5.1,0,0,1,.72.06l.52.1.53.11A.68.68,0,0,1,38,4a2.27,2.27,0,0,0,.44.67l.07.09,0,.1a.39.39,0,0,0,.47.22l1.25-.15.09,0a1.3,1.3,0,0,1,1.14.19,5,5,0,0,1,1.3,1.4A3.61,3.61,0,0,1,43.43,8a3,3,0,0,1-.31,2,2.42,2.42,0,0,1-.33.47l-.18.22-.17.23c-.07.11-1.36.35-1.55.44l-.29.12a.26.26,0,0,0-.14.39l.27.56.29.56.38.61.38.61.09.13.08.12c.25.47.59,1.05,1,1.72l.52.84.54.84.17.25c.19.24.39.53.61.86l.57.89.69,1.09a3.82,3.82,0,0,1,.36.73,1,1,0,0,1,0,.73.46.46,0,0,0,0,.26.71.71,0,0,1,0,.38l-.06.18-.06.17a.26.26,0,0,1-.16.15,1,1,0,0,1-.38.1c-.06,0-.15-.11-.28-.28l-.2-.3a1.18,1.18,0,0,0-.37-.43,2.28,2.28,0,0,1-.47-.54L44,21.23,43.8,21a11.23,11.23,0,0,1-.74-.9l-.34-.47-.35-.46a19.78,19.78,0,0,1-1.21-1.66l-.49-.75L40.16,16a8.93,8.93,0,0,1-.72-1.29l-.16-.32-.19-.32A13.16,13.16,0,0,0,38.92,16.63Zm0-6.69v.4a2,2,0,0,0,.07.35c0,.13,1.28,0,1.41,0l.37-.16.06-.26a2.51,2.51,0,0,0,.65-.46,1.13,1.13,0,0,0,.39-.72,4.64,4.64,0,0,0-.07-1.65,2.42,2.42,0,0,0-1-1.72.58.58,0,0,0-.55-.07L39,5.82l-.14,0a.2.2,0,0,0-.14.23l.18,2.5.07,1.34Z"/><path class="cls-1" d="M169.21,16.63a3.74,3.74,0,0,1-.05.71,4.43,4.43,0,0,0,0,.75l0,.79,0,.77,0,3.27a2.21,2.21,0,0,1-.15.88l-.09.2-.08.21a1.66,1.66,0,0,1-.19.4l-.09.13-.09.13a.46.46,0,0,1-.57.12l-.62-.29-.63-.29a1.21,1.21,0,0,1-.71-1.06l-.08-.88-.08-.81,0-.8,0-.69-.07-.69-.25-2.18c-.05-.37-.08-.82-.11-1.36L165,14.59c-.06-.88-.09-1.91-.08-3.07L165,10l0-1.53,0-1.93,0-1.92a1.5,1.5,0,0,1,.33-1,.79.79,0,0,1,.64-.33,5.1,5.1,0,0,1,.72.06l.52.1.53.11a.68.68,0,0,1,.47.38,2.09,2.09,0,0,0,.44.67l.07.09,0,.1a.39.39,0,0,0,.47.22l1.25-.15.09,0a1.3,1.3,0,0,1,1.14.19,5,5,0,0,1,1.3,1.4,3.61,3.61,0,0,1,.64,1.5,2.85,2.85,0,0,1-.64,2.42l-.18.22-.17.23c-.07.11-1.37.35-1.55.44l-.29.12a.26.26,0,0,0-.14.39l.27.56.29.56.38.61.38.61.09.13.08.12c.25.47.59,1.05,1,1.72l.52.84.54.84.17.25c.19.24.39.53.61.86l.57.89.69,1.09a3.82,3.82,0,0,1,.36.73,1,1,0,0,1,0,.73.46.46,0,0,0,0,.26.82.82,0,0,1,0,.38l-.06.18-.06.17a.26.26,0,0,1-.16.15,1,1,0,0,1-.38.1c-.06,0-.15-.11-.28-.28l-.2-.3a1.18,1.18,0,0,0-.37-.43,2.28,2.28,0,0,1-.47-.54l-.51-.78-.17-.22a11.23,11.23,0,0,1-.74-.9l-.34-.47-.35-.46a17.73,17.73,0,0,1-1.21-1.66l-.5-.75-.5-.73a8.93,8.93,0,0,1-.72-1.29l-.16-.32-.19-.32A13.16,13.16,0,0,0,169.21,16.63Zm0-6.69v.4a1.36,1.36,0,0,0,.07.35c0,.13,1.28,0,1.41,0l.37-.16.05-.26a2.41,2.41,0,0,0,.66-.46,1.13,1.13,0,0,0,.39-.72,4.88,4.88,0,0,0-.07-1.65,2.45,2.45,0,0,0-1-1.72.58.58,0,0,0-.55-.07l-1.28.19-.14,0a.2.2,0,0,0-.14.23l.18,2.5.07,1.34Z"/><path class="cls-1" d="M79.36,7.6l.11,0,.11.06a.2.2,0,0,1,.08.23c0,.11.22,1,0,1.08a6,6,0,0,1-1.39.16H76.9l-.68,0-.68.06c-.6.06-1.05.09-1.37.09s-.4.16-.38.46l.09.95V11a6.67,6.67,0,0,0,.29,1.71,4.88,4.88,0,0,1,.3,1.38l0,.7,0,.72,0,1.12.07,1.13c0,.68.11.34-.15,1-.16.37-.06.5.31.38a4.76,4.76,0,0,1,1.84-.09l.93.09a3.79,3.79,0,0,0,.91,0,.29.29,0,0,1,.22,0,.29.29,0,0,1,.15.19,6,6,0,0,1-.22,1.2l-.1.06-.1.06a2.76,2.76,0,0,1-.93.22h-.47l-.47,0a16.42,16.42,0,0,0-4.89.88,1.67,1.67,0,0,1-1.65-.28,1.44,1.44,0,0,1-.7-1.48,31.79,31.79,0,0,0,0-5.72l-.09-1.43-.08-1.43c-.06-1.09-.07-2,0-2.87s0-1.93,0-3.19l0-1.6,0-1.6a1,1,0,0,1,.32-.66.87.87,0,0,1,.62-.36l4.49.17h.16l.14,0a.23.23,0,0,1,.19.21A5,5,0,0,1,75.17,3L75,3l-.15,0a5.24,5.24,0,0,1-1.25.21l-.63,0h-.64c-.33,0-.43.16-.31.43.21.47.16,0,.3.69l.17.94.16.93.14.49a.74.74,0,0,0,1,.55A12.83,12.83,0,0,1,79.36,7.6Z"/><path class="cls-1" d="M112.66,7.6l.11,0,.11.06a.2.2,0,0,1,.08.23c0,.11.22,1,0,1.08a6,6,0,0,1-1.39.16H110.2l-.68,0-.68.06c-.6.06-1,.09-1.36.09s-.41.16-.38.46l.09.95V11a6.67,6.67,0,0,0,.29,1.71,4.28,4.28,0,0,1,.3,1.38l0,.7,0,.72,0,1.12L108,17.8c.06.68.11.34-.15,1-.16.37,0,.5.31.38a4.76,4.76,0,0,1,1.84-.09l.93.09a3.76,3.76,0,0,0,.91,0,.33.33,0,0,1,.23,0,.3.3,0,0,1,.14.19,6,6,0,0,1-.22,1.2l-.1.06-.1.06a2.76,2.76,0,0,1-.93.22h-.47l-.47,0a16.49,16.49,0,0,0-4.89.88,1.67,1.67,0,0,1-1.65-.28,1.46,1.46,0,0,1-.7-1.48,31.79,31.79,0,0,0,0-5.72l-.08-1.43-.08-1.43c-.06-1.09-.08-2,0-2.87s0-1.93,0-3.19l0-1.6,0-1.6a1,1,0,0,1,.32-.66.89.89,0,0,1,.63-.36l4.48.17h.16l.14,0a.22.22,0,0,1,.19.21A5,5,0,0,1,108.47,3l-.14,0-.15,0a5.24,5.24,0,0,1-1.25.21l-.63,0h-.64c-.32,0-.43.16-.31.43.22.47.17,0,.3.69l.17.94.16.93.14.49a.75.75,0,0,0,.95.55A12.83,12.83,0,0,1,112.66,7.6Z"/><path class="cls-1" d="M314.18,7.6l.11,0,.12.06a.19.19,0,0,1,.07.23c0,.11.22,1,0,1.08a6,6,0,0,1-1.38.16h-1.39l-.68,0-.68.06c-.59.06-1.05.09-1.36.09s-.4.16-.38.46l.09.95V11a6.67,6.67,0,0,0,.29,1.71,4.28,4.28,0,0,1,.3,1.38l0,.7,0,.72.06,1.12.07,1.13c.05.68.1.34-.16,1-.16.37-.05.5.31.38a4.8,4.8,0,0,1,1.85-.09l.92.09a3.88,3.88,0,0,0,.92,0,.3.3,0,0,1,.22,0,.36.36,0,0,1,.15.19,6.88,6.88,0,0,1-.23,1.2l-.1.06-.1.06a2.65,2.65,0,0,1-.93.22h-.46l-.47,0a16.42,16.42,0,0,0-4.89.88,1.66,1.66,0,0,1-1.65-.28,1.45,1.45,0,0,1-.71-1.48,30.74,30.74,0,0,0,.06-5.72l-.09-1.43-.08-1.43c-.06-1.09-.07-2-.05-2.87s.05-1.93,0-3.19l0-1.6,0-1.6a1,1,0,0,1,.32-.66.91.91,0,0,1,.63-.36l4.49.17h.15l.15,0a.24.24,0,0,1,.19.21A6,6,0,0,1,310,3l-.15,0-.14,0a5.33,5.33,0,0,1-1.25.21l-.64,0h-.63c-.33,0-.44.16-.32.43.22.47.17,0,.3.69l.17.94.17.93.13.49a.75.75,0,0,0,.95.55A12.82,12.82,0,0,1,314.18,7.6Z"/><path class="cls-1" d="M379.53,7.6l.12,0,.11.06a.21.21,0,0,1,.08.23c0,.11.21,1,0,1.08a6,6,0,0,1-1.38.16h-1.39l-.68,0-.68.06c-.59.06-1,.09-1.36.09s-.4.16-.38.46l.09.95V11a6.67,6.67,0,0,0,.29,1.71,4.54,4.54,0,0,1,.31,1.38l0,.7.05.72.05,1.12.07,1.13c.05.68.1.34-.16,1-.15.37-.05.5.31.38a4.8,4.8,0,0,1,1.85-.09l.92.09a3.88,3.88,0,0,0,.92,0,.3.3,0,0,1,.22,0,.32.32,0,0,1,.15.19,6.88,6.88,0,0,1-.23,1.2l-.1.06-.1.06a2.65,2.65,0,0,1-.92.22h-.47l-.47,0a16.42,16.42,0,0,0-4.89.88,1.67,1.67,0,0,1-1.65-.28,1.46,1.46,0,0,1-.71-1.48,30.74,30.74,0,0,0,.06-5.72l-.09-1.43-.08-1.43c-.06-1.09-.07-2,0-2.87s0-1.93,0-3.19l0-1.6,0-1.6a1,1,0,0,1,.33-.66.87.87,0,0,1,.62-.36l4.49.17h.15l.15,0a.24.24,0,0,1,.19.21A6,6,0,0,1,375.35,3l-.15,0-.14,0a5.33,5.33,0,0,1-1.25.21l-.64,0h-.63c-.33,0-.44.16-.32.43.22.47.17,0,.3.69l.17.94.17.93.13.49a.75.75,0,0,0,.95.55A12.82,12.82,0,0,1,379.53,7.6Z"/><path class="cls-1" d="M199.57,21.87v-.36a3.05,3.05,0,0,1,0-.51,3.69,3.69,0,0,0,0-.58,14.56,14.56,0,0,1,.18-2.32l.14-1.16.13-1.33.14-1.31.06-.44.07-.43.13-1.37.15-1.37.09-.74.1-.74.09-.7.1-.69q.1-.83.12-1.38l0-.27.05-.27.17-1.4a.43.43,0,0,1,.26-.4,1.09,1.09,0,0,0,.55-.48l.07-.08.07-.08c.08-.09.15-.1.22,0a1.62,1.62,0,0,0,.33.17l.18.07.16.09a.93.93,0,0,0,.51.15,1.19,1.19,0,0,1,1.09.83,23.23,23.23,0,0,1,1,3l.22.76.2.76.12.32.11.32.21.64.21.66q.27.81.39,1.32a4.57,4.57,0,0,0,.34.85l.15.39.14.39.56,1.4.06.13,0,.13a2.45,2.45,0,0,0,.17.74l.14.33.15.35c.14.28.28.62.43,1l.37,1c.12.32.26.67.42,1a2.42,2.42,0,0,1,.2.71,1,1,0,0,1,0,.34.53.53,0,0,1-.49.49.29.29,0,0,1-.29-.11l-.27-.37-.26-.37a3.93,3.93,0,0,1-.48-.78l-.44-.89-.42-.9a19.64,19.64,0,0,1-.76-1.83l-.29-.82-.27-.48,0,0-.05-.21c0-.14-.15-.1-.32-.08a5.78,5.78,0,0,1-1.45.06.72.72,0,0,0-.5,0c-.08.07-.16-.12-.2.13l-.7,4.26-.11.54-.26,1.09a4.37,4.37,0,0,1-.59,1.59,1.25,1.25,0,0,0-.16.43,1,1,0,0,1-.45.65,1.2,1.2,0,0,1-.76.26l-.54,0a.66.66,0,0,1-.4-.11l-.16-.12-.15-.14a.75.75,0,0,1-.2-.62Zm5-11.15-.13,1.06-.08.81c0,.3-.08.57-.13.8l0,.25c0,.12,0,.19.17.19a1.45,1.45,0,0,0,.29,0l1.05-.23a.32.32,0,0,0,.25-.44l-.11-.35-.3-.91-.23-.77-.25-.78L204.9,10l-.13-.34A8.08,8.08,0,0,0,204.52,10.72Z"/><path class="cls-1" d="M242.14,14.14s0-.2-.07-.59c0-.23,0-.49,0-.81V11.3q-.06-1.86,0-4.2l.06-.86.08-.87,0-1a3.36,3.36,0,0,1,.07-.64,1.05,1.05,0,0,1,.15-.32.31.31,0,0,1,.36-.15l1.15.28a1.52,1.52,0,0,1,.57.28,2.19,2.19,0,0,0,.33.24,1.41,1.41,0,0,1,.67.89l.42,1.55a2.12,2.12,0,0,1,.06.44l0,1.42,0,1v1A16.44,16.44,0,0,1,246,12.6v.18c0,.06.06.09.14.11l0,0,0,.08v.22L246,15l0,.07s0,0-.06,0l-.1-.13-.09.58-.07.57a6.33,6.33,0,0,0,0,1.27,5.88,5.88,0,0,1-.1,1.45l0,.55,0,.23a.52.52,0,0,1-.7.49,5.89,5.89,0,0,1-1.44-.4,1.46,1.46,0,0,1-.81-.89l-.13-.29-.12-.3a1.94,1.94,0,0,1-.19-.6l0-.12-.05-.1-1.4-2.3c-.12-.21-.27-.5-.45-.85l-.89-1.8-.26-.55-.28-.56-.19-.37-.2-.35,0,0,0,0a.1.1,0,0,0-.06.09v.1l.16,1.21.16,1.19a5.56,5.56,0,0,1,.06,1.69,1.8,1.8,0,0,0,0,.45l0,.53,0,.52a13.48,13.48,0,0,1-.17,1.52l-.11.76-.11.76a7.68,7.68,0,0,1-.17.83l-.25.8-.21.75a.43.43,0,0,1-.38.35l-.13,0a1.15,1.15,0,0,0-.84.29c-.15.12-.3.09-.47-.07a1,1,0,0,0-.3-.21l-.36-.19a.77.77,0,0,1-.38-.49l-.26-1-.27-1-.18-.81a5,5,0,0,1-.08-.81c0-.26,0-.58,0-1l-.07-.95-.06-1.31a10.54,10.54,0,0,0-.12-1.29l0-.29v-.31l-.16-1.64-.1-1,0-1c0-1.7,0-3.13,0-4.3l0-1c0-.42,0-.76,0-1a.49.49,0,0,1,.37-.5l.46-.14L234.6,2h0a1.34,1.34,0,0,1,.73.06l.33.14.34.14a1.14,1.14,0,0,1,.6.65l.21.48A3,3,0,0,1,237,4a.63.63,0,0,0,.13.24,1,1,0,0,1,.22.63,2.07,2.07,0,0,0,.44,1.28,4.5,4.5,0,0,1,.44.74L239,8.48l.73,1.6.46,1c.17.4.3.75.4,1.05a14.82,14.82,0,0,0,.89,2l.21.45.21.46,0,.09a.58.58,0,0,0,.14.08C242.13,14.51,242.14,14.14,242.14,14.14Z"/><path class="cls-1" d="M281.16,12.8l.09,0,.09,0a.17.17,0,0,1,.08.17,10,10,0,0,1-.3,1.17l-.09,0-.09,0-.46.1-.46.08q-.51,0-.48.75l.1,1.44.11,1.44a11.17,11.17,0,0,1-.14,2.88,3.65,3.65,0,0,1-1.92,2.56,4.31,4.31,0,0,1-3.39.26,7.13,7.13,0,0,1-5.08-6.37,26.59,26.59,0,0,1-.19-4.25l.09-2.11.12-2.13a21.4,21.4,0,0,1,.57-3.61,4.23,4.23,0,0,1,1.29-2.12,7,7,0,0,1,2.19-1.41,3,3,0,0,1,1.9-.15,2.17,2.17,0,0,1,1.5,1.18A11.31,11.31,0,0,1,278,6.44a1,1,0,0,1,0,.33l-.11.31a1.31,1.31,0,0,0-.11.65v0l0,0-.08-.15-.31-.85L277,5.93a10.9,10.9,0,0,0-.78-1.63,5.8,5.8,0,0,0-.78-1l-.15-.2-.16-.2a.37.37,0,0,0-.48-.08l-.43.23a3.13,3.13,0,0,0-.38.28,1,1,0,0,0-.37.78,12.41,12.41,0,0,1-.14,1.81l-.12.89-.08.9c0,.9-.07,1.93-.09,3.08v3.07a15.34,15.34,0,0,0,.94,5.69,3.56,3.56,0,0,0,2.76,2.11c.47.1.81-.14,1-.73a14.55,14.55,0,0,0,.84-4.37l0-.76c0-.32,0-.57.05-.76,0-.39-.14-.57-.57-.56l-.71,0-.72,0a8.7,8.7,0,0,1-1.43-.08H275a.22.22,0,0,1-.17-.19,5.12,5.12,0,0,1,.32-1.24l.13-.05.13,0a3.78,3.78,0,0,1,1.38-.33l.66,0a4,4,0,0,0,.61-.05A7.68,7.68,0,0,1,281.16,12.8Z"/><path class="cls-1" d="M414.8,12.8l.09,0,.09,0a.15.15,0,0,1,.08.17,10,10,0,0,1-.3,1.17l-.09,0-.09,0-.46.1-.45.08q-.53,0-.48.75l.1,1.44.11,1.44a11.12,11.12,0,0,1-.15,2.88,3.59,3.59,0,0,1-1.92,2.56,4.31,4.31,0,0,1-3.39.26,7.13,7.13,0,0,1-5.08-6.37,27.82,27.82,0,0,1-.19-4.25l.09-2.11.12-2.13a21.4,21.4,0,0,1,.57-3.61,4.19,4.19,0,0,1,1.3-2.12,6.84,6.84,0,0,1,2.18-1.41,3,3,0,0,1,1.9-.15,2.19,2.19,0,0,1,1.51,1.18,11.26,11.26,0,0,1,1.27,3.64.76.76,0,0,1,0,.33l-.11.31a1.21,1.21,0,0,0-.11.65l0,0,0,0-.08-.15-.31-.85-.31-.85a10.9,10.9,0,0,0-.78-1.63,7,7,0,0,0-.78-1l-.16-.2-.16-.2a.37.37,0,0,0-.48-.08l-.42.23a2.5,2.5,0,0,0-.38.28,1,1,0,0,0-.38.78A12.17,12.17,0,0,1,407,5.9l-.13.89-.08.9c0,.9-.07,1.93-.09,3.08l0,3.07a15.36,15.36,0,0,0,.93,5.69,3.57,3.57,0,0,0,2.76,2.11c.47.1.82-.14,1-.73a15.2,15.2,0,0,0,.84-4.37l0-.76c0-.32,0-.57,0-.76.05-.39-.14-.57-.57-.56l-.71,0-.72,0a8.57,8.57,0,0,1-1.42-.08h-.27a.22.22,0,0,1-.18-.19,5.12,5.12,0,0,1,.32-1.24l.14-.05.12,0a3.79,3.79,0,0,1,1.39-.33l.65,0a4.15,4.15,0,0,0,.62-.05A7.62,7.62,0,0,1,414.8,12.8Z"/><path class="cls-1" d="M449.86,12.8l.09,0,.09,0a.15.15,0,0,1,.07.17,8.34,8.34,0,0,1-.3,1.17l-.09,0-.09,0-.45.1-.46.08q-.51,0-.48.75l.1,1.44.11,1.44a11.17,11.17,0,0,1-.14,2.88,3.65,3.65,0,0,1-1.92,2.56,4.34,4.34,0,0,1-3.4.26,7.16,7.16,0,0,1-5.08-6.37,29.16,29.16,0,0,1-.19-4.25l.09-2.11.13-2.13a22.3,22.3,0,0,1,.56-3.61,4.26,4.26,0,0,1,1.3-2.12A6.88,6.88,0,0,1,442,1.77a3,3,0,0,1,1.9-.15,2.17,2.17,0,0,1,1.5,1.18,11.31,11.31,0,0,1,1.28,3.64,1,1,0,0,1,0,.33l-.11.31a1.31,1.31,0,0,0-.11.65v0l0,0-.07-.15L446,6.78l-.31-.85a10.9,10.9,0,0,0-.78-1.63,5.8,5.8,0,0,0-.78-1l-.16-.2-.15-.2a.37.37,0,0,0-.48-.08l-.43.23a3.13,3.13,0,0,0-.38.28,1,1,0,0,0-.38.78A11,11,0,0,1,442,5.9l-.12.89-.08.9c-.05.9-.08,1.93-.09,3.08v3.07a15.34,15.34,0,0,0,.94,5.69,3.54,3.54,0,0,0,2.75,2.11c.47.1.82-.14,1-.73a14.55,14.55,0,0,0,.84-4.37l0-.76a6.68,6.68,0,0,1,.05-.76c0-.39-.15-.57-.57-.56l-.72,0-.71,0a8.7,8.7,0,0,1-1.43-.08h-.27a.25.25,0,0,1-.18-.19,5.62,5.62,0,0,1,.33-1.24l.13-.05.12,0a3.89,3.89,0,0,1,1.39-.33l.66,0a4,4,0,0,0,.61-.05A7.68,7.68,0,0,1,449.86,12.8Z"/></g></g></svg>