<svg xmlns="http://www.w3.org/2000/svg" viewBox="0 0 125.3 263.72"><defs><style>.cls-1{fill:#8f9a69;}</style></defs><g id="圖層_2" data-name="圖層 2"><g id="黑色"><path class="cls-1" d="M46.62,195.46a19.1,19.1,0,0,0-1.95,1.86,9.7,9.7,0,0,0-1.4,2.3,9,9,0,0,0-.34,2.07c-.15,0-.82-.08-1,.18s0,.9,0,1.55c-1.6-.22-1.68,1.24-2.25,2.25l1.36-.46c-.15,1.43-.8.66-1.31.42-2.29,4.37-4.6,8.74-6.86,13.12-.9,1.75-1.72,3.53-2.5,5.33-.26.6-1.08,1.22-.21,2a.31.31,0,0,1,0,.33c-2.21,1.91-2,4.9-3.41,7.17-.15.25-.1.62-.26.86-2.06,3.11-2,3.12-2.72,6.8-.34,1.74-1.15,3.38-1.55,5.12-.48,2.11-.76,4.26-1.09,6.4-.21,1.33,0,2.89-.63,3.93a6.74,6.74,0,0,0-.8,3.16c-.23,2,.5,2.94,2.44,3.38a21.89,21.89,0,0,0,10.73-.32,17,17,0,0,0,3.32-1.72,15,15,0,0,0-.85-3.22c-.39-.77.71-2.24-1.11-2.47h1.36c0-.9.85-1.93-1-2.29,1.81-.23,1.69-1.73,2.06-2.74.74-2,1.18-4.17,1.73-6.26.33-1.24-.08-2.68,1-3.69.74-.67-.94-1.34.14-2.21.67-.53.73-1.78,1.07-2.7s.64-1.66,1-2.68l-1.21-.19c.29-1,.38-2.52.89-2.66.93-.25,1.24-1.09,2.08-1.42s1.14-1.75,1.72-2.76l-1.4-.85c.89-.55,2.5-.05,2.33-1.76l-1.11-.41,1.58-.69-.63-2c2.27-1.71,2.4-4.6,4.17-6.55l.71.91,1.92-3.07-1.18-.33c.4-2.74,2.41-4.66,3.59-7,.51-1,1.67-1.79.67-3.16-.2-.26,0-1.05.92-1.18s1.62-1.06,1.25-1.79c-.66-1.3.26-1.94.81-2.71,1.27-1.78,2.77-3.42,3.89-5.27,2.37-3.88,5.67-7.06,8.2-10.81a14.81,14.81,0,0,0,1.07-2.36c0-.12,0-.35.07-.4,2.13-1.22,2.49-3.81,4.38-5.26a57.55,57.55,0,0,0,5.17-4.58c2.13-2.1,4.06-4.4,6.23-6.46,4.67-4.45,9.42-8.82,14.17-13.19,1.47-1.35,3.05-2.59,4.56-3.9a11.94,11.94,0,0,1,4.67-2.88,8.43,8.43,0,0,0,3.08-2c.4-.35.38-1.16.54-1.75-.38-.11-.54-.22-.65-.18-4.48,1.71-9,3.39-13.42,5.17a13,13,0,0,0-2,1.49,3.89,3.89,0,0,1-1.81.87,5.53,5.53,0,0,0-3.29,1.5c-2.77,2.09-5.58,4.11-8.36,6.18-1.83,1.36-3.61,2.8-5.42,4.2s-3.31,2.64-5.06,3.82c-.53.36-1.15.42-.93,1.23a.91.91,0,0,1,0,.22c-3.11.21-2,4.19-4.57,4.92-.2.06-.18.85-.21,1A8.64,8.64,0,0,0,67,168c-2.22,2.29-4.36,4.66-6.53,7l-1.58,1.73c0,.56.94,1.34-.35,1.78-.07-.25-.13-.49-.19-.74-.14,0-.37,0-.41.07-.81,1.37-1.35,2.87-2.75,3.91-.44.34-1.36,1.17-.62,2.16.07.09-.16.45-.32.63a23.68,23.68,0,0,0-1.78,2c-.65.93-2,1.77,0,3.31l-.85,0-.92-.78a31.3,31.3,0,0,0-4.14,5.85c-.06.12.13.38.21.57.47-.54.93-1.09,1.46-1.72C47.9,195.08,47.9,195.08,46.62,195.46Z"/><path class="cls-1" d="M82.25,173.67c1.9,1.65,2.74,4,4,6,.25.39.2,1.45,0,1.55-1.07.48-.66,1.27-.58,1.94a14.21,14.21,0,0,1-.34,5,9.71,9.71,0,0,0-.25,2.49,12.2,12.2,0,0,1-.53,5.81A1.76,1.76,0,0,0,85,198.6c.73.56.52,1.4,0,2.24-.76,1.28-.65,1.43.36,3-1.68,1.3-1,3.21-1.19,4.94-.09.67.38,1.56-.79,1.8-.08,0-.12.36-.12.56s-.1,2.86-.17,3a23.29,23.29,0,0,0-1.71,5.26,18.48,18.48,0,0,1-2.8,6.74,7.12,7.12,0,0,0-.75,2.43c-.47,2-2.31,3.6-1.66,5.92.06.2-.72.63-1.29,1.1.84,1.52-1.18,2.94-.63,4.7-.65.46-2,.32-1.38,1.62-1.18,2.32-1.9,4.85-3.7,6.86a9.46,9.46,0,0,0-1,2c-.39.76-.5,1.54-1.59,2-.73.32-.71,2.27-1.45,2.61-2.16,1-2.87,3-4.25,4.59a29.75,29.75,0,0,0-2,2.85,4.68,4.68,0,0,0,1.53.64c3.18,0,6.37.08,9.55,0a3.76,3.76,0,0,0,3.75-3.16l1.11.17a2.27,2.27,0,0,0,.36-.29c1.26-1.89,2.56-3.75,3.74-5.68a42.25,42.25,0,0,0,2.22-4.21c2.45-5.27,4.85-10.56,7.31-15.83,1.49-3.2,3.17-6.33,4.47-9.61a4.77,4.77,0,0,1,1.22-2.22c.38-.32.75-1-.26-1,1.13-2.43,2.31-4.85,3.36-7.32.43-1,1-1.48,2-1,.56-1.41.79-2.77,1.85-3.85.39-.4.16-1.37.23-2.17l.94-.54-.82-1.26c.53-1,1-1.91,1.52-2.82.23-.41.52-.83,1-.16.14-.23.46-.57.39-.68-1.13-1.86.71-2.21,1.66-3.24-.46-1.18.47-2.15,1-3.29,1.11-2.66,2-5.42,3.07-8.09,1-2.38,2.07-4.74,3.29-7,1.63-3,3.45-5.91,5.15-8.87a5.47,5.47,0,0,0,.28-1.5,21.44,21.44,0,0,0-8,4.75,30.93,30.93,0,0,0-3.18,3.56c-.24.28-.48.79-.74.8-1.66.06-2,1.55-2.8,2.45-.37.4-.1,1.65-.41,1.77-.66.24-1.24.4-1.49,1.1-.5,1.37-1,2.74-1.46,4.06l-.44-.67c-1.06,1.9-2,3.8-3.15,5.52-1.08,1.57-1,3.78-3.11,5.09A9.45,9.45,0,0,1,94,197a11.54,11.54,0,0,0,.36-2.36,69.41,69.41,0,0,0-.88-8.54c-.51-2.56-.86-5.24-2.78-7.37a18.54,18.54,0,0,1-2.14-3.24c-.69-1.2-1.55-1.86-3-1.19l-.13-1.2-3.2.59ZM78.9,236.89l.74,1.16-2.82.35Zm.87-5c-.6-.69-1.71-1.14-.6-2.22C80.29,230.15,80.19,230.91,79.77,231.86Zm-3.57,9.78-.32-.55c.53-.22,1.06-.44,1.59-.64,0,0,.11.23.25.51Z"/><path class="cls-1" d="M54.74,168a4.22,4.22,0,0,0,5.59-2c1.34-2.26,3.22-4.23,3.76-6.95.14-.73,1.45-1,1.51-2.15a19.76,19.76,0,0,0-.07-2.77,34.62,34.62,0,0,1,.13-6.9,6.71,6.71,0,0,0,.07-1.62,14.3,14.3,0,0,1,.17-2.83,10,10,0,0,0,0-1.34c-.13-1.41-.38-2.81-.37-4.21,0-.6.52-1.19.86-1.89L65,134.21l1.09-.65c0-.21-.19-.43-.15-.61.76-3.82-1-7.41-1-11.15,0-1.18-1-2.24-.42-3.52.08-.19-.35-.63-.59-.92-.67-.84-1.5-1.39-.8-2.85.5-1.07-.71-2.2-1.86-2.8.89-2.25-.76-3.54-1.89-4.94-.6-.74-1.47-1.2-1.6-2.33a3.21,3.21,0,0,0-1-2,35.68,35.68,0,0,1-4.37-4.58c-.4-.46-1.2-.45-1.17-1.44,0-.37-1.24-.76-2.08-1.24V93.44l-.88,1.12c-.32-.27-.84-.54-.81-.74.26-1.95-1.53-2.73-2.57-3.55a12.44,12.44,0,0,0-4.45-2.7,10.91,10.91,0,0,1-3.59-1.75A5.14,5.14,0,0,0,34.33,85,17.88,17.88,0,0,1,29,83.68c-3.21-1.47-6.49-1-9.79-.89-1.4.06-2.79.09-4.18.2a5.82,5.82,0,0,0-1.34.48l0,.54c.67.25,1.32.56,2,.75a53.17,53.17,0,0,1,14.75,6.63A49.94,49.94,0,0,1,42,101.5a29.39,29.39,0,0,1,4.87,9.24,105.69,105.69,0,0,1,4.75,21,57.17,57.17,0,0,0,1.48,6.38c1.08,4.37,1.2,8.84,1.5,13.29.17,2.46.49,4.91.5,7.37,0,2.18-.37,4.36-.46,6.55a11.74,11.74,0,0,0,.42,2.52A.23.23,0,0,1,55,168c-.06,0-.15,0-.23,0Z"/><path class="cls-1" d="M121.94,3.39c-.56.15-1.12.35-1.69.45A40.87,40.87,0,0,0,107.58,8.1,43,43,0,0,0,97,15.89a28.56,28.56,0,0,0-5.17,7.77c-2.82,5.9-4.24,4.79-6,11.14a59.37,59.37,0,0,1-2.07,5.58,78.82,78.82,0,0,0-3.05,11.84c-.48,2.2-1.08,4.38-1.44,6.59-.31,2-.3,4-.54,6A12.44,12.44,0,0,1,78,67s0,.16,0,.18.12,0,.18,0h0c-2.08.53-3.46-.38-4.17-2.46s-2-4.19-2-6.71c0-.68-1-1.06-.9-2.12a19.08,19.08,0,0,1,.44-2.49,35.59,35.59,0,0,0,.86-6.26,7.63,7.63,0,0,1,.17-1.47,15.44,15.44,0,0,0,.26-2.57,12.26,12.26,0,0,1,.22-1.21c.3-1.26.7-2.5.89-3.76a5.24,5.24,0,0,0-.43-1.81l1.23-.86L74,34.76a1.77,1.77,0,0,0,.21-.53c-.07-3.54,1.8-6.58,2.37-9.95.18-1.07,1.13-1.91.83-3.13,0-.18.37-.53.6-.77.65-.67,1.39-1.07,1-2.48-.26-1,.86-1.9,1.87-2.31-.39-2.13.36,4.16,1.45,3C83,18,83.75,17.7,84,16.7a3.11,3.11,0,0,1,1.09-1.64,32.06,32.06,0,0,0,4.11-3.63c.39-.37,1-.27,1.14-1.17.05-.33,1.09-.54,1.83-.87l.25-1.62L93,8.89c.28-.21.74-.39.75-.58.06-1.79,1.59-2.29,2.54-2.9a10.07,10.07,0,0,1,3.92-1.93,8.34,8.34,0,0,0,3.1-1.16,3.91,3.91,0,0,1,2.08-.44,12.91,12.91,0,0,0,4.41-.58c2.76-1,5.31-.17,7.92.34,1.1.22,2.21.4,3.3.67a4,4,0,0,1,1,.59"/><path class="cls-1" d="M80.58,181.87c-.89.79-1.84,1.54-2.67,2.4-2.35,2.43-4.52,4.95-5.64,8.22a45.75,45.75,0,0,1-2.49,4.88,58,58,0,0,0-4.89,14.17,20.4,20.4,0,0,1-.79,2.38c-1.66-2.17-1.9-4.38-2.44-6.49a5.5,5.5,0,0,0-.63-1.59c-1.13-1.75-1.15-1.73-2.82-1.26-.77,1.07-1.39,1.87-1.94,2.71a14.5,14.5,0,0,0-1.4,2.44c-.95,2.29-1.82,4.62-2.7,6.93-.08.21,0,.5-.13.66-2.33,3-1,6.3-.77,9.49.15,2.06.51,4.1.73,6.15,0,.44.09,1.06-.16,1.32-1.14,1.15-.6,2.68-1.09,4-.31.81-.53,1.66-.87,2.48-.09.84,1.19,1.73-.13,2.57.59,1.88-.9,3.66-.2,5.62a4.45,4.45,0,0,1-.34,2.84c-.82,2.09-1.84,4.1-2.77,6.14-.63,1.38-1.23,2.77-1.92,4.33.52.09,1.25.31,1.3.21.86-1.76,3.27-2,4-4a2.51,2.51,0,0,0,3.21-1.32c.52-.89,1.94-1.26,1.54-2.78-.09-.34,1-1,1.56-1.45,1.18-.82,1.49-2.48,3.08-2.81-.45-1.67-.44-1.68,1.26-2.48a10.24,10.24,0,0,1,1.7-5.58c.56-.89.68-2,1.79-2.56-.64-1.83,1.24-3,1.33-4.62,0-.29.09-.71.29-.84,1.22-.75,1.23-2,1.59-3.17.57-1.87,1.33-3.69,1.88-5.57.71-2.45,1.27-5,2-7.4a13.11,13.11,0,0,1,1-2l-.81-1.14c0-.2,0-.32.09-.34,1.7-.82,1.53-2.42,1.76-3.88.31-2,.72-4,1-6,.09-.66.36-1.3-.45-2a1.49,1.49,0,0,1,.62-2.36,1.9,1.9,0,0,0,.78-1c1.41-4,2.7-8,4.21-11.93.64-1.67,1.71-3.17,1.78-5Z"/><path class="cls-1" d="M124.46,199.4c-2.83.45-3.72,2.81-5.65,4-1.76,1-7.4,10-9.14,12.12.07-1.57.11-2.66.18-3.74.27-3.92.57-7.84.82-11.76a2.28,2.28,0,0,0-.67-1.58c-.85,2-1.73,4-2.53,6-1.27,3.18-2.47,6.38-3.74,9.55-.28.7-.74,1.33-1.06,2a4.68,4.68,0,0,0-.67,1.9c.15,2.67-1,5.06-1.63,7.55-.07.27-.54.53-.49.71.6,2.38-.93,4.07-2,5.91-.62,1.1-1.23,2.2-1.91,3.43l1.21.92c-1.68.29-1.77,1.35-1,2.81l-1.26-.48c-1.69,1.73-2.23,4-3,6.1a7.23,7.23,0,0,1-.82,1.81c-.6.83-1.55,1.45-1.38,2.7,0,.16-.67.41-1.16.7a5.74,5.74,0,0,1-1.47,4.24c-1.36,1.57-2.43,3.37-3.72,5-.79,1-1.76,1.85-2.6,2.81-.22.24-.23.66-.43,1.33,4.6.21,9,0,13.22,0,.61-.68,1.16-1.22,1.62-1.82a18,18,0,0,0,2.08-3c.91-1.91,1.54-3.94,2.39-5.88,1.16-2.63,2.4-5.23,3.62-7.84,1-2.1,2-4.16,2.94-6.29.67-1.57,1.13-3.2,2.52-4.4a2.21,2.21,0,0,0,.76-1.61c-.19-1.27,1.58-1.49,1.32-2.94-.14-.8,1-1.82,1.54-2.73s1.3-2,1.83-3c.75-1.49,1.39-3,2.09-4.56a18.31,18.31,0,0,1,1.38-2.81c1.23-1.72,2.28-6.91,2.69-8.93.19-.91,3.36-4.88,3.64-5.72"/><path class="cls-1" d="M91.75,247.67l.29.24L91.1,249l-.32-.26Z"/><path class="cls-1" d="M95.29,240.63l.33.27-.52.63-.42-.38Z"/><path class="cls-1" d="M117.37,88.27c-2.19-.83-2.19-.83-4,1.13-2-.89-3.68-.36-5.09,1.47-.44.56-1.2.88-1.66,1.43-2.09,2.51-4,5.14-6.2,7.59a15.6,15.6,0,0,0-2.63,3.38c-1.55,3.16-3,6.38-4.75,9.44-.39.7.56,1.29-.32,1.86a6.65,6.65,0,0,0-1.42,1.88c-.42.61-.81,1.24-1.2,1.87-.12.2-.31.43-.28.61.38,2-1.34,3-2.11,4.46,0,.07-.13.12-.13.18,0,2.72-2.55,4.14-3.4,6.4a13.44,13.44,0,0,1-1.78,2.47A38.61,38.61,0,0,0,80,137.07c-1.61,3.43-3.17,6.89-4.8,10.31-.48,1-.67,1.85.76,2.6,3.53-2.11,7.12-4.3,10.79-6.39a2.87,2.87,0,0,0,1.35-1.69c.84-2.23,1.72-4.44,2.58-6.66a3.53,3.53,0,0,1,1.78-2,2.7,2.7,0,0,0,1.28-1.71,13.41,13.41,0,0,1,1.56-4c.94-1.85,2.45-3.62,2.07-6-.08-.45.6-1,.82-1.51,2-5,4-10.12,6.16-15.12,1.17-2.71,2.63-5.31,4-7.91a23.23,23.23,0,0,1,8-8.1C116.69,88.8,116.92,88.61,117.37,88.27Z"/><path class="cls-1" d="M125.3,44.69a4.57,4.57,0,0,0-4.11,1.75c-.29.38-.9.7-1.22,1.08-1.44,1.74-2.75,3.51-4.26,5.24a10.16,10.16,0,0,0-1.79,2.3c-.9,2-1.73,4-2.8,5.94-.25.45.63.59,0,1.06a4.15,4.15,0,0,0-1,1.27c-.28.41-.53.82-.78,1.23-.08.13-.21.29-.16.38.57,1-4.86,5.73-5.33,6.65,0,0-.09.09-.09.12.34,1.45-1.62,2.7-2,4.06-.2.64-.83,1.11-1.18,1.66a19.9,19.9,0,0,0-1.39,2.92c-.93,2.14-1.8,4.28-2.74,6.42-.28.63-.33,1.11,1,1.24,2.71-1.79,9.57-7.52,12.4-9.33a1.91,1.91,0,0,0,.92-1.16c.43-1.35.89-2.7,1.34-4a2.51,2.51,0,0,1,1.25-1.39,1.74,1.74,0,0,0,.86-1.16,6,6,0,0,1,.81-2.41c.56-1.17,1.61-2.4,1-3.59-.11-.23.39-.64.5-1,1.1-3.09,2.1-6.17,3.28-9.25a50.74,50.74,0,0,1,2.41-5"/><path class="cls-1" d="M34.79,203.35c.32.28-.14.73.19,1,.61-.52,2.08-3,2.72-3.43.23-.17-1.77-1.68-1.51-1.63a4.4,4.4,0,0,0,3.08-.84c.4-.21,3.19-6.61,3.6-6.81,2.16-1.06,1.06-4.28,1.89-6.61a26.81,26.81,0,0,0,1.32-5.67c.15-1.15,1-2.25.3-3.51-.05-.1.19-.54.33-.55.64-.05.37-.49.46-.83.17-.68-.52-1.24-.05-2,.35-.61-.07-1.65-.1-2.5a10.89,10.89,0,0,0,0-2.74c-.59-2.11-.05-4.33-.73-6.33-.87-2.51-.87-5.44-3.26-7.34-1.28-1-2.52-2.08-4.11-3.39.3,1.3.5,2.21.72,3.11A27.15,27.15,0,0,1,39.92,166c-1,4.22-2,8.43-3.1,12.61a12.9,12.9,0,0,1-1.4,2.74c-.74,1.34,0,13.69-.76,15a23.49,23.49,0,0,0-1.57,2.44,7.58,7.58,0,0,0-.29,2.11c0,.16-.08.31-.18.73l-.57-1c-.09,0-.25.06-.28.13-.63,1.59-.6,3.5-2.32,4.57-.31.19-.25.93-.4,1.58.42.05.92.26,1.1.1a39.91,39.91,0,0,0,3.9-3.45c.77-.43.62-1.52,1.19-1.94C34.73,202.1,33,202.83,34.79,203.35Z"/><path class="cls-1" d="M50.37,78l1-1.11c-.6-.73-1.24-1.45-1.79-2.22a1.39,1.39,0,0,1-.26-1c.31-1.37-.34-2.47-.94-3.6-.24-.46-.55-.9-.78-1.38a10.16,10.16,0,0,0-5.89-5.24A34.29,34.29,0,0,0,35,61.65c-1.35-.23-2.65-1.26-4.17-.52-.12.06-.64-.25-.64-.4-.05-.75-.58-.46-1-.57-.8-.23-1.49.53-2.45,0-.72-.44-2,0-3,0A14.55,14.55,0,0,0,20.48,60c-2.51.59-5.15-.15-7.54.55-3,.87-6.5.73-8.81,3.39C2.89,65.36,1.6,66.75,0,68.51c1.55-.28,2.64-.46,3.73-.68a33.35,33.35,0,0,1,15.2.29c5,1.33,10,2.72,15,4.2a15.61,15.61,0,0,1,3.23,1.75c1.58.92,3.16,1.84,4.71,2.81a29.5,29.5,0,0,0,2.87,1.94,9.7,9.7,0,0,0,2.51.44c.19,0,.37.1.87.24l-1.25.6c.05.12.06.3.15.34,1.88.81,4.16.87,5.39,2.91.22.36,1.11.33,1.88.54.06-.48.33-1,.15-1.27a51.13,51.13,0,0,0-4-4.68c-1.32.23-1.27-1.09-1.75-1.77Z"/><path class="cls-1" d="M100.62,263.21h7c1-.5-.7-2.07,1.11-2.48.58-.13-.2-1.92,1-2.44-.21-1.76,1.3-2.9,1.69-4.43a2.72,2.72,0,0,0-.11-1.11,18,18,0,0,0,1.22-2.31,3.59,3.59,0,0,1,1.76-2.51c.16-.07.42-.28.4-.38-.49-2.07,1-3.38,2-4.89.61-1,0-1.53-.85-2.24-1.28,1-2.62,1.93-3.91,3a23.93,23.93,0,0,0-4.59,5.08c-1.18,1.68-2.37,3.36-3.5,5.08a8.39,8.39,0,0,1-2.11,1.9c-1.1.81-.74,2.67-2.36,3.07-.14,1.26-.26,2.48.76,3.52A3.35,3.35,0,0,1,100.62,263.21Z"/><path class="cls-1" d="M35.76,49.83c-3.93.36-3-5.37-7.08-5-1.84-.94-1.44-3.72-4.63-4.33-1-.2-.29-3.78-2.52-4.72,0-3.95-3.07-5.41-4.09-8.75a8.31,8.31,0,0,1-.05-2.47,45.28,45.28,0,0,1-2.58-4.93c-.83-2.2-1.57-3.7-3.59-4.63-.3-.14-.79-.57-.77-.78.41-4.68-2.85-4.45-4.8-7.66C4.39,4.49.7,1.71,2,0,4.42,2,9.56,5.58,12,7.65a51.52,51.52,0,0,1,9,10.56c2.39,3.52,4.8,7.07,7.13,10.71a16.67,16.67,0,0,0,4,3.87c2.08,1.63,1.84,5.8,4.74,6.44.51,2.76,1,5.46-.58,7.92A8.82,8.82,0,0,0,35.76,49.83Z"/><path class="cls-1" d="M98,155.41c1.41,3.66.53,7.2.45,10.74,0,1.88.17,3.76.17,5.64,0,1.72-.18,3.44-.24,5.16,0,1.49.22,1.79,2,2.51,1,.4,1.38-.15,2.07-.75a4.8,4.8,0,0,0,1.89-4.51c0-.14-.12-.28-.13-.43,0-.86,1.6-1,.9-2.24a7.35,7.35,0,0,1-.61-2.67c-.13-.89-.1-1.81-.21-2.71-.2-1.72-.4-3.46-.7-5.17a9.29,9.29,0,0,0-2.53-4.78C100.15,155.26,100.11,155.23,98,155.41Z"/><path class="cls-1" d="M54.76,168l-.44,2.23c1.86-1,1.86-1,.43-2.22Z"/><path class="cls-1" d="M82.2,173.71l1.14-.8-2.18-1c.12,1.06.32,1.59,1.1,1.77Z"/><path class="cls-1" d="M46.62,195.46c1.28-.38,1.28-.38,1.53-1.67-.53.63-1,1.18-1.46,1.72Z"/><path class="cls-1" d="M78.9,236.89l-2.08,1.51,2.82-.35Z"/><path class="cls-1" d="M79.77,231.86c.42-1,.52-1.71-.6-2.22C78.06,230.72,79.17,231.17,79.77,231.86Z"/><path class="cls-1" d="M76.2,241.64l1.52-.68c-.14-.28-.24-.51-.25-.51-.53.2-1.06.42-1.59.64Z"/><path class="cls-1" d="M91.75,247.67l-1,1.1.32.26.94-1.12Z"/><path class="cls-1" d="M95.29,240.63l-.61.52.42.38.52-.63Z"/><path class="cls-1" d="M46.09,37c2.46.88,3.43,2.37,5.81,3.68,2.2,1.87,4.23,5.66,5.56,7.5,0,0,2.86,4.29,2.85,4.29.73,1.68,9.2,19.9,10.35,21.13a10.39,10.39,0,0,1,2.56,4.78,7.64,7.64,0,0,0,1.16,3.18,20.25,20.25,0,0,1,1.39,2.58c.84,1.5.54,3,.17,4.54.4.33.79.65,1.4,1.13.57-1.44,1.13-2.66,1.54-3.91.32-1,.46-2,.69-3s.18-2.62.9-3.19c1.16-.91.13-1.87.59-2.68a2.9,2.9,0,0,0,.25-.87c.47-2.33,1.39-4.54,1.86-6.88.22-1.1.65-2.22.9-3.36.11-.52.87-.93,1-1.44a24.24,24.24,0,0,1,3.58-8.89h0c.53-1.25,10.36-16.73,11.77-17.38.13-.06.35-.2.34-.24-.48-1.46.72-2.16,1.5-3a16.58,16.58,0,0,1,2.55-2.46c4.14-2.83,8.83-4.37,13.51-6,.26-.09.62.1.87.15-1.58,1.84-3.17,3.49-4.52,5.31a26,26,0,0,0-2,3.8c-1.55,3-12.72,20-14,23.07a148.78,148.78,0,0,0-5.16,14.11C89.92,82.71,88,92.78,84.47,102.4c0,3.29-2.06,6-2.85,9.1s-2.35,5.85-3.63,8.74a2.88,2.88,0,0,1-4.71.45,6.44,6.44,0,0,1-1.51-3.39c-.16-3.12-.75-6.22-1.18-9.33-.26-1.86-.48-3.73-.86-5.57-.6-2.88-1.42-5.72-2-8.61a41.51,41.51,0,0,0-2-6.62c-.7-1.93-1.68-3.69-2.51-5.54-.4-.89-.66-1.85-1.13-2.71-4.31-7.81-18.29-37.71-25.21-44A35.36,35.36,0,0,1,46.09,37Zm43.24,19.7c.07-.4.15-.81.24-1.27l-.93.19L89,56.73Z"/></g></g></svg>