<svg xmlns="http://www.w3.org/2000/svg" viewBox="0 0 277.51 57.67"><defs><style>.cls-1{fill:#edeb3f;}</style></defs><g id="圖層_2" data-name="圖層 2"><g id="草上黃"><path class="cls-1" d="M48.34,20.73a2.46,2.46,0,0,0,1.32,1.36.65.65,0,0,1,.37.38c.14.4.22.82.32,1.23h.91a16.09,16.09,0,0,0,.55,2.64c0,.13.41.21.67.33.22-.31.59-.58.51-.76-.46-1,.45-1.74.83-2.58,0,0-.06-.1-.09-.15l-.81.23c.14-.2.19-.28.25-.35a4.35,4.35,0,0,0,.82-.93,9.48,9.48,0,0,0,.26-1.49c.17-.78.38-1.56.59-2.34a5.24,5.24,0,0,1,.5-1.54c1.33-2,2.72-4,4.14-6a16.87,16.87,0,0,1,6.09-4.95c.55-.28,1.08-.57,1.85-1-1.49,0-2.68,0-3.86,0-2.21,0-3.57,1.11-5.22,1.81C57,7.15,56.3,8.21,55,8.85A7,7,0,0,0,53.7,9.92c-.41.33-1.13.6-1.21,1s-.76.47-1,.79c-.11.16-.47.25-.13.48.07,0,0,.31-.08.33-1,.27-1,1-1.46,1.49a12.83,12.83,0,0,0-1.9,2.68A3.2,3.2,0,0,0,48,20.08C48.14,20.29,48.22,20.52,48.34,20.73Z"/><path class="cls-1" d="M14.57,8.85A3.85,3.85,0,0,0,13,10.94c-.2.76-.32,1.52-.46,2.28-.06.4,0,.8-.13,1.19A2.61,2.61,0,0,1,12,15.59c-.44.54.58.61.54,1,0,.06-.06.12-.07.19-.15.81.25,1.43,1.15,2,.42.27.67.51,1.27.34,1.08-.31,1.25-.44,1.22-1.1S16,16.48,16,15.72s.14-1.65.12-2.48c-.05-1.56-.58-3.12.31-4.73C15.15,8.42,15.13,8.44,14.57,8.85Z"/><polygon class="cls-1" points="43.1 14.22 43.1 14.22 43.11 14.22 43.1 14.22"/><path class="cls-1" d="M43.37,15.2c-.1-.38-.19-.68-.27-1C42.22,14.76,42.23,14.76,43.37,15.2Z"/><path class="cls-1" d="M26.12,16.62Z"/><path class="cls-1" d="M26.8,15.84l-1.35.44.67.34C26.6,16.54,26.72,16.3,26.8,15.84Z"/><path class="cls-1" d="M87.25,17.62h0Z"/><path class="cls-1" d="M74.49,17.59c0,.06-.06.11-.07.17-.14.77.23,1.35,1.08,1.88.4.25.63.48,1.2.32,1-.29,1.18-.42,1.15-1s-.13-1.43-.12-2.15.13-1.56.11-2.34c0-1.47-.55-2.94.29-4.45-1.21-.09-1.24-.07-1.76.31a3.67,3.67,0,0,0-1.48,2c-.18.71-.3,1.43-.43,2.14-.06.38,0,.76-.12,1.13a2.55,2.55,0,0,1-.36,1.1C73.56,17.17,74.52,17.23,74.49,17.59Z"/><path class="cls-1" d="M245.44,11.94a18.66,18.66,0,0,1,4.34,3.71,8.84,8.84,0,0,1,1.61,3.23c.67,2.36,1.52,2.09,1.58,4.51a16.41,16.41,0,0,0,.33,2.18,20.51,20.51,0,0,1,0,4.5c0,.83,0,1.66-.12,2.48s-.35,1.46-.49,2.19a3.16,3.16,0,0,0,.07.86.08.08,0,0,1,0,.06s-.06,0-.09,0h0a2,2,0,0,0,2.41-.51,8,8,0,0,0,1.86-2.23c.09-.24.65-.28.72-.68a5.75,5.75,0,0,0,.1-.93A9.64,9.64,0,0,1,258.1,29a1.92,1.92,0,0,0,.11-.54,3.92,3.92,0,0,1,.19-.94,2.32,2.32,0,0,0,0-.46,11.23,11.23,0,0,1,0-1.42c0-.2.27-.38.44-.61l-.51-.41.48-.19c0-.07-.06-.15,0-.21.49-1.26-.07-2.51.07-3.77.05-.4-.32-.78,0-1.19.05-.06-.11-.22-.2-.33-.24-.29-.56-.5-.21-1s-.18-.75-.62-1c-.22.37-.86,1.29-1.13.94s-.56-.44-.57-.83a.94.94,0,0,0-.33-.68,11.92,11.92,0,0,1-1.61-1.65c-.14-.17-.47-.19-.42-.52,0-.12-.48-.29-.81-.47,0-.13,0-.31.08-.6l-.41.35c-.12-.1-.33-.21-.31-.27.2-.65-.5-1-.9-1.26a5,5,0,0,0-1.73-1,4.68,4.68,0,0,1-1.4-.68,2.43,2.43,0,0,0-1-.34,8.26,8.26,0,0,1-2.14-.6,10.25,10.25,0,0,0-4-.57c-.58,0-1.15,0-1.74,0a2.9,2.9,0,0,0-.57.12,1.16,1.16,0,0,1,0,.18c.27.1.52.22.8.31A23.09,23.09,0,0,1,245.44,11.94Z"/><path class="cls-1" d="M257.85,16.94l0,0C258,16.79,258,16.72,257.85,16.94Z"/><path class="cls-1" d="M272.62,27.66a26.7,26.7,0,0,0-3.38.81,22.81,22.81,0,0,0-3.74,2.2l-2,1.28c-.58.54-7.13,6.32-7.87,6.66a4.64,4.64,0,0,0-1.89,1.49,3.11,3.11,0,0,1-1,1,9.66,9.66,0,0,0-1,.8,1.77,1.77,0,0,0-.65,1.61l-.79.26,0-6.4H250a11.06,11.06,0,0,1,0-1.41c0-.41-.05-.85,0-1.28,0-.2-.33-.41-.3-.6a6.51,6.51,0,0,0-.67-3.49h0c-.11-.5-3.08-6.9-3.7-7.25-.06,0-.15-.1-.14-.12.42-.48-.09-.83-.38-1.19a6.08,6.08,0,0,0-1-1.1,28.09,28.09,0,0,0-6-3.32,1.74,1.74,0,0,0-.46,0c.57.8,1.15,1.53,1.6,2.3a7.12,7.12,0,0,1,.53,1.53c.41,1.2,3.85,8.27,4.1,9.48a39.08,39.08,0,0,1,.8,5.5c0,.31.06.62.09.93.2,1.81.24,3.62.31,5.44h0c-.49-3.43-.93-3.71-2.5-6.1l-3.14-4.06h0a4.57,4.57,0,0,0-.44-1.11,15.44,15.44,0,0,0-2.31-3.07c-.55-.57-.59-1.39-1.79-1.7-.1,0-.17-.32-.09-.37.42-.26,0-.36-.15-.55-.27-.37-1.06-.37-1.2-.92-.1-.4-1-.72-1.48-1.09A8.73,8.73,0,0,0,230,22.58c-1.61-.74-2.49-1.95-4.11-2.6-2-.82-3.69-2.15-6.42-2.14-1.46,0-2.92,0-4.77,0L217,19a20.44,20.44,0,0,1,7.46,5.68c1.73,2.28,3.41,4.57,5,6.88a5.38,5.38,0,0,1,.59,1.76c.25.88.5,1.76.7,2.65.11.44.12.9.23,1.34l-.48,3.21c.29.44-4.83-2.36-4.5-1.92-.33-.44-.61-.89-.9-1.33-.51-.78-1-1.56-1.49-2.35a7.57,7.57,0,0,0-1.53-1.42c-1.3-1.07-2.43-2.17-3.66-3.25-.27-.23-.79-.43-1-.67a4.71,4.71,0,0,0-3.53-1.1c-1.11-.87-1.11-.87-2.8-.86.3.17.44.26.61.34a14,14,0,0,1,4.9,3.63,29.1,29.1,0,0,1,2.06,3.09c.37.69.71,1.39,1.05,2.09.45,3.56-2.69,6-3.19,4.95l-5.78-4.54a.56.56,0,0,1-.22-.21c-.39-1.14-1.12-2.23-1-3.45,0-.28-.24-.58-.42-.87s-.5-.6-.67-.92c-.8-1.45-1.56-2.92-2.36-4.37-.51-.92-1.07-1.83-1.6-2.74-.32.26-.45.49-.43.72.14,1.79.32,3.57.49,5.36,0,.5.06,1,.1,1.71-1.11-1-4.69-5.08-5.81-5.56S197,25.2,195.18,25a7.17,7.17,0,0,0,.31,1.14c.18.38,2.19,2.21,2.31,2.62.26.93.92,3.3,1.69,4.09a7.67,7.67,0,0,1,.88,1.28c.44.7.84,1.41,1.32,2.09a10.14,10.14,0,0,0,.73.89l.46,5.19-7.13-5.18-.07,0a6.08,6.08,0,0,1-.53-.38,2.46,2.46,0,0,0-2.06-.69c-.64-.56-.64-.56-1.64-.54a4.09,4.09,0,0,0,.35.22,11.18,11.18,0,0,1,1.95,1.38,4.59,4.59,0,0,1,.86,1c-.21-.35,1.12,4.26-.31,3.66l-3.73-4.94a23.33,23.33,0,0,0-1.28,3.41c-.8,2.27-1.08,2-1.31,4.29a28.75,28.75,0,0,1,1.13-6.9c.06-.17.13-.35.2-.53a16,16,0,0,0,.9-2.77,42,42,0,0,1,3.52-10.87,14.56,14.56,0,0,1,3.57-4.78,35.77,35.77,0,0,1,8.43-5.2A47.43,47.43,0,0,1,216.47,10c.5-.1,1-.25,1.46-.38,0-.1,0-.19,0-.28a5.56,5.56,0,0,0-1-.26c-1-.06-2-.09-3-.12-2.4-.09-4.79-.33-7.12.42a17.31,17.31,0,0,1-3.86.66,4.76,4.76,0,0,0-1.8.41,9.52,9.52,0,0,1-2.62.89,10.34,10.34,0,0,0-3.24,1.39c-.77.42-2.07.82-1.88,1.83,0,.1-.36.24-.59.38l-.64-.58c0,.45,0,.73,0,.92-.61.25-1.52.45-1.51.64,0,.51-.57.51-.86.74a23,23,0,0,1-3.2,2.36,1.56,1.56,0,0,0-.74,1c-.1.58-.73.82-1.17,1.2-.83.72-2,1.39-1.4,2.56-.84.31-1.72.88-1.35,1.44.5.77-.11,1-.6,1.48-.17.15-.49.38-.43.47.43.67-.3,1.22-.32,1.83-.05,1.94-1.32,3.8-.78,5.78,0,.1-.07.21-.11.32l.79.34-1,.59c.23.33.54.61.6.89a.32.32,0,0,1,0,.09,16.28,16.28,0,0,1-.29,2.18c.1-.73-2.68-1.24-2.68-2,0,0-2.22-4.6-2.22-4.63l-9,8.71c-1.32,1.51-3.11-1-3.45.33.29-2.08,2.14-3.25,3.47-4.8a6.14,6.14,0,0,0,1-1.51,4.46,4.46,0,0,0,.06-1.94,33.56,33.56,0,0,0,2.87-3.85A6.23,6.23,0,0,1,173.85,26c.34-.11.88-.44.86-.6-.43-3.67,3.15-3.47,5.31-6,1.4-1.63,5.46-3.78,4-5.13-2.68,1.51-8.34,4.32-11,5.93a48.52,48.52,0,0,0-9.95,8.21c-2.64,2.75-5.3,5.52-7.88,8.36l-.06.05-13.68,8s0-8.08,0-8.06l0-.05c2.81-3.6,11.77-17.1,16.2-19.94a30.09,30.09,0,0,0-5.9.94c-1.57.39-2.19,1.07-3.72,1.65a21.78,21.78,0,0,0-3.57,3.4l-1.84,1.95c-.47.76-5.93,9-6.67,9.6a4.45,4.45,0,0,0-1.65,2.17c0,.06,0,.12-.06.19a2.84,2.84,0,0,1-.69,1.26,8.71,8.71,0,0,0-.9,1.17,2,2,0,0,0-.11,2.07l-.9.51c-.37-.66-.72-1.22-1-1.79a13.39,13.39,0,0,1-.43-1.36c-.16-.5-.11-1.2-.57-1.46a.59.59,0,0,1-.35-.43c0-.28.18-.55,0-.8a1.07,1.07,0,0,1-.15-.4c-.3-1.06-.88-2.07-1.17-3.14-.14-.5-.41-1-.57-1.54-.07-.23-.55-.42-.6-.66A9.62,9.62,0,0,0,124.61,26h0c-.33-.57-6.57-7.68-7.47-8-.08,0-.22-.09-.21-.11.3-.66-.46-1-1-1.36a9.82,9.82,0,0,0-1.62-1.13,42.92,42.92,0,0,0-8.61-2.78,1.76,1.76,0,0,0-.56.07c1,.84,2,1.61,2.87,2.44a11.11,11.11,0,0,1,1.28,1.74c1,1.36,8.07,9.18,8.87,10.58A59,59,0,0,1,121.49,34c.43.87.8,1.75,1.18,2.63l-.62,3.62c.15.23-4.39-3.19-4.25-3-.14-.23-.27-.46-.42-.7a5.1,5.1,0,0,0-.46-.64c-.22-.25-.63-.47-.75-.76-.28-.62-1.52-1.2-1.3-1.86,0,0-.05,0-.06-.05-.3-.43-3.75-2.61-3.39-3.06,0,0,0-.12-.1-.17s-.31-.38-.49-.57a2.13,2.13,0,0,0-.61-.58c-.42-.22.14-.28,0-.48-.68-.91-1.2-1.82-1.77-2.73a5.61,5.61,0,0,0-1.14-1.06c-1-.79-1.79-1.6-2.71-2.4-.2-.18-.59-.32-.77-.5a3.5,3.5,0,0,0-2.62-.81c-.83-.65-.83-.65-2.08-.64l.45.25a10.53,10.53,0,0,1,3.64,2.69,21.6,21.6,0,0,1,1.52,2.29c.75,1.41,1.38,2.82,2.07,4.23.07.15.39.34.32.44-.4.54.26,1.11.62,1.64a2.31,2.31,0,0,1,.51,1.11c0,.16.25.4.54.53a1.44,1.44,0,0,1,.8.64c.28.62.57,1.24.84,1.85a1,1,0,0,0,.59.54l.14.07L107.92,38c2.79-5.95-2.68.65-2.8,1.75.12-1.1.66-2.22.08-3.29a2.41,2.41,0,0,0-.5-.65c-.07-.07,0-.19-.07-.28-.51-1-1-1.93-1.55-2.88a6.36,6.36,0,0,0-.81-1c-.32-.35-.68-.69-1.12-1.13-1-.2-1-.21-1.64.51a1.89,1.89,0,0,0-.37.66,5.55,5.55,0,0,1-1.44,2.68,7.26,7.26,0,0,1-.46-1,19.66,19.66,0,0,0-2.8-5.9,16.65,16.65,0,0,1-1.43-2A10,10,0,0,0,89.75,22c-.48-.36-1-.68-1.55-1l-.25.12c0,.77.65,1.4,1,2.09.87,1.64,1.6,3.31,2.41,5a.91.91,0,0,0,.46.42c.67.25.69.76.35,1s-.32.56-.27.83c.16.84.39,1.67.57,2.5.13.61,0,1.28,1,1.62,0,0,0,.06,0,.14l-.47.48a4.16,4.16,0,0,1,.57.84c.06.13.1.27.15.41.33.89.62,1.78,1,2.67-.36-.89-2.41,3.59-2.74,2.71l-4.51-5.42a7.37,7.37,0,0,0-.91-2c0-.06-.08-1.17-.09-1.25s0-.22-.07-.23c-.68-.11-.4-.47-.45-.75-.13-.72.3-1.51-.68-2.06.6-.64.66-.7.22-1.23-.29-.35-.41-.7,0-.93a.59.59,0,0,0,.27-.89,3.74,3.74,0,0,1-.29-2.41,2.9,2.9,0,0,0-.14-1,4.23,4.23,0,0,1-.18-2.07c0-.29.29-.61-.33-.81-.13,0-.15-.48,0-.65a11.1,11.1,0,0,1,2.35-2.46l-1.82-.25c0,.16,0,.3-.08.5a1.44,1.44,0,0,0-1.76.48,7.89,7.89,0,0,1-1.25,1.34,5.09,5.09,0,0,0-1.64,3.05,21.16,21.16,0,0,0-.53,3.54,3.49,3.49,0,0,0,.2,1,2.12,2.12,0,0,1,0,.51c-1.21-.55-1.17-1.47-1.79-2.12a27,27,0,0,1-1.82-2.3l-.25.27-.84-1.69c-.15-.29-.48-.36-.87-.46-.18-.05,0-.57-.23-.74-.48-.37-.66-1-1.62-1-.15,0-.29-.22-.43-.34a16.85,16.85,0,0,0-1.84-1.49,14.42,14.42,0,0,0-4.66-2c.06.28,0,.48.16.62,1,1.24,2,2.45,3,3.7A31,31,0,0,1,71,23.14c.64,1.11,1.13,2.26,1.77,3.37.27.47.81.88.54,1.36.55.43,1.62.59,1,1.36,0,0,.14.18.22.28.26-.28.43-.1.57.07L76,30.75l-.48.52.55.23c0,.34-.1.74.13.91A3.91,3.91,0,0,1,77.22,34a.87.87,0,0,1,1.18.42c.38.65.8,1.28,1.21,1.91l.4,1.21c-.11.08,0,.2.1.3l1.3,3.89c.08.94-5.14-3.61-4.82-2.71a11.06,11.06,0,0,1-.9-2.71,1.59,1.59,0,0,1,0-.43c0-.26-.23-.54-.39-.79s-.45-.55-.61-.84c-.73-1.32-1.42-2.66-2.15-4-.46-.83-1-1.66-1.45-2.49-.29.24-.41.45-.4.65.14,1.63.3,3.26.45,4.88,0,.45.06.91.1,1.55-1-.89-4.27-4.61-5.29-5.06s-1.63-1.46-3.28-1.66a5.93,5.93,0,0,0,.29,1c.16.35,2,2,2.1,2.39.23.84.83,3,1.54,3.71a5.6,5.6,0,0,1,.67,1l-3.49,5.92c.12.15-7.35-5.67-7.23-5.51l-.35-.48c-1.27-1.77-2.56-3.54-3.84-5.32h0c-.35-.45-.39-1.09-1.38-1,0-.29.11-.55,0-.69s-.54-.07-.63-.08a3,3,0,0,0-.2-.91,4.53,4.53,0,0,0-.86-1,9.77,9.77,0,0,0-1.2-.83h0c0-.09.14-.18.11-.23a15.13,15.13,0,0,0-2.54-2.59l-.57.34h-.52c1.21-.67.38-1,0-1.45s-.74-.59-1.1-.89c-.09-.08-.24-.24-.19-.27.46-.44-.11-.81-.38-1a5.4,5.4,0,0,1-1.68-1.73s-.17,0-.26,0l-.12.32c-.8-.2-.23-.54-.21-.79l-1-.76c-1.33-1-2.65-2.1-4-3.12a6.23,6.23,0,0,0-1.23-.52c0-.08,0-.43-.13-.45-1.59-.33-.89-2.08-2.81-2.19a.51.51,0,0,1,0-.1c.14-.35-.24-.38-.57-.54-1.08-.53-2.08-1.13-3.11-1.71s-2.21-1.26-3.33-1.87C22.7,5.89,21,5,19.27,4.06a4.11,4.11,0,0,0-2-.67A3.12,3.12,0,0,1,16.12,3a8.33,8.33,0,0,0-1.25-.67C12.13,1.53,9.36.77,6.6,0a2,2,0,0,0-.41.08c.11.26.09.61.34.77a5.67,5.67,0,0,0,1.89.89A8.26,8.26,0,0,1,11.3,3c.93.59,1.9,1.14,2.8,1.74C17,6.7,19.94,8.65,22.81,10.62c1.33.92,2.52,1.94,3.83,2.87a31.81,31.81,0,0,0,3.17,2c1.16.65,1.38,1.79,2.69,2.34,0,0,0,.12,0,.17a6.08,6.08,0,0,0,.65,1.05c1.55,1.66,3.58,3.07,5,4.79.69.82,1.61,1.55,2.38,2.34.34.34.91.62.5,1.2-.23.32.22.73.76.79s.69.41.57.52c-.62.6.09,1,.4,1.4.73,1,2,1.88,2.2,3.08l-.73.14c.41.47.78.91,1.18,1.36l.44-.39a7.56,7.56,0,0,1,1.41,1.82l.45,4.14c1.21,1.29-2.55-1.48-2.7-.13.15-1.35.9-2.74-.31-4a1.92,1.92,0,0,0-.14-.15c-.07-.08,0-.21-.07-.3-.54-1-1.07-2.05-1.65-3.06a6.57,6.57,0,0,0-.86-1.08c-.33-.37-.71-.73-1.19-1.2-1-.22-1-.22-1.74.54a2,2,0,0,0-.39.7,5.9,5.9,0,0,1-1.53,2.85,6.85,6.85,0,0,1-.48-1.05,20.88,20.88,0,0,0-3-6.26A19.75,19.75,0,0,1,32.23,25a10.6,10.6,0,0,0-3.46-3.65c-.51-.38-1.09-.71-1.64-1.07l-.27.13c0,.82.69,1.48,1.08,2.22.93,1.74,1.71,3.52,2.57,5.27a.92.92,0,0,0,.48.45c.71.27.73.81.37,1s-.33.6-.28.89c.16.88.41,1.77.6,2.65.14.65,0,1.35,1.07,1.72,0,0,0,.06.06.15l-.5.5a7.18,7.18,0,0,1,.55.8.33.33,0,0,1,.06.1s-.07,4.76-.09,4.73L26.23,36a7.48,7.48,0,0,0-.78-1.58c0-.06-.09-1.23-.09-1.32s0-.24-.08-.24c-.72-.12-.42-.51-.47-.8-.15-.76.31-1.6-.72-2.18.62-.68.69-.75.23-1.31-.31-.38-.44-.74,0-1a.63.63,0,0,0,.29-.94,3.91,3.91,0,0,1-.31-2.57,3,3,0,0,0-.15-1.1,4.49,4.49,0,0,1-.2-2.2c.05-.3.31-.64-.35-.86-.13,0-.16-.51,0-.68a11.54,11.54,0,0,1,2.49-2.61l-1.93-.27c0,.17-.05.32-.08.53a1.53,1.53,0,0,0-1.88.51,8.44,8.44,0,0,1-1.33,1.42,5.42,5.42,0,0,0-1.73,3.24,22.77,22.77,0,0,0-.57,3.76,3.59,3.59,0,0,0,.22,1,3.16,3.16,0,0,1,0,.54c-1.28-.59-1.24-1.56-1.91-2.25A30.94,30.94,0,0,1,15,22.7l-.27.29-.9-1.79c-.15-.31-.51-.38-.91-.49-.2-.05,0-.6-.25-.78-.51-.4-.7-1.06-1.72-1.09-.16,0-.31-.23-.46-.36a16.8,16.8,0,0,0-2-1.58,15.17,15.17,0,0,0-4.95-2.12c.07.3.05.51.17.66,1,1.31,2.16,2.6,3.15,3.93a29.75,29.75,0,0,1,2,3.1c.68,1.18,1.2,2.4,1.88,3.58.29.5.86.93.57,1.45.59.46,1.72.62,1,1.43,0,.05.15.2.24.31.28-.3.45-.11.6.07.31.4.61.81.93,1.25l-.51.55.58.24c0,.36-.11.78.13,1A4.2,4.2,0,0,1,15.47,34a.92.92,0,0,1,1.25.45c.3.51.63,1,1,1.5l1.11,1.74c0-.05-.05,0-.06,0-.54,0-.33.3-.11.44l.12.09c.13,1.36.71,4.66.43,4.22l-5.37-6.52a2,2,0,0,0-.39-.76c-.19-.3-.47-.58-.64-.89-.78-1.41-1.51-2.82-2.29-4.22-.49-.89-1-1.77-1.54-2.65-.31.25-.44.47-.42.69.15,1.73.32,3.46.48,5.18,0,.48.06,1,.1,1.65C8,34,4.56,30,3.48,29.56S1.75,28,0,27.79a6.4,6.4,0,0,0,.3,1.1c.17.37,2.11,2.14,2.23,2.54.25.89.88,3.18,1.63,4A6.82,6.82,0,0,1,5,36.62c.43.67.81,1.35,1.28,2A17.15,17.15,0,0,0,7.41,40a7.13,7.13,0,0,0,.55.55l.39.71a.59.59,0,0,0,.31.57l5,9.28c1,.6-4-2.36-3.27-1.6a13.31,13.31,0,0,0-2.51-2,3.37,3.37,0,0,0-.31-.21c-.79-.46-1.61-.89-2.4-1.32-.52.31-.9.55-.53,1,.58.67,1.51,1.25,1.2,2.17,0,0,.14.13.24.16A1.73,1.73,0,0,1,7.2,50.33a6.6,6.6,0,0,0,.7,1v.22a.54.54,0,0,0,0,.33l0,0a1.68,1.68,0,0,0,.2.34l.82,1.44a.75.75,0,0,1,0,.15c.05,0,.08,0,.12.05l.35.61c0,.21,0,.39.16.41l.09,0,.39.69a.28.28,0,0,0,.19.38h0l.13.23,236.89,1.47,1.78-2.9a1.6,1.6,0,0,0,.54-.64c.19-.45.44-.89.68-1.34l1.09-1.89c.36-.64.71-1.29,1.14-1.92.66-1,1.43-1.92,2.07-2.91a16.37,16.37,0,0,1,1.86-2.19c.6-.63,1.31-1.17,2-1.76a12.46,12.46,0,0,1,.91-.87c3.15-2.42,13.95-11.89,18.22-13.54A25.89,25.89,0,0,0,272.62,27.66ZM221.82,40.8c0,.06.07.11,0,.15S221.85,40.88,221.82,40.8Z"/><path class="cls-1" d="M129.61,7.8h0C129.69,7.57,129.69,7.48,129.61,7.8Z"/><path class="cls-1" d="M104.53,2.28a34,34,0,0,1,8.08,2,28.93,28.93,0,0,1,6.76,3.6,13.63,13.63,0,0,1,3.28,3.57c1.79,2.7,2.7,2.2,3.78,5.1a23.8,23.8,0,0,0,1.31,2.56,28.17,28.17,0,0,1,1.92,5.41c.3,1,.68,2,.9,3s.18,1.82.33,2.73a4.27,4.27,0,0,0,.43,1s0,.07,0,.08-.08,0-.12,0h0a2.2,2.2,0,0,0,2.67-1.1c.49-1,1.27-1.91,1.31-3.06,0-.3.66-.47.58-1a5.89,5.89,0,0,0-.27-1.14,12.22,12.22,0,0,1-.53-2.86,2.29,2.29,0,0,0-.11-.67,5.69,5.69,0,0,1-.16-1.17,2.83,2.83,0,0,0-.13-.56,16.23,16.23,0,0,1-.56-1.71c0-.25.17-.52.28-.83l-.79-.4.5-.32c-.05-.08-.13-.16-.13-.24,0-1.62-1.14-3-1.49-4.55-.11-.49-.71-.88-.52-1.44,0-.08-.23-.24-.38-.35-.41-.31-.88-.49-.66-1.13.17-.46-.52-.86-1.15-1-.12.5-.5,1.72-1,1.36s-.86-.42-1-.88a1.47,1.47,0,0,0-.69-.75,20.49,20.49,0,0,1-2.62-1.67c-.25-.17-.65-.13-.73-.54,0-.15-.69-.25-1.16-.41,0-.15-.08-.37-.16-.74-.16.24-.23.35-.35.51-.18-.1-.47-.18-.47-.26,0-.82-1-1.06-1.62-1.34a7.68,7.68,0,0,0-2.5-.89,6.83,6.83,0,0,1-2-.55A3.41,3.41,0,0,0,114,1.44a11,11,0,0,1-2.81-.28,12.88,12.88,0,0,0-5.07.13c-.7.09-1.41.17-2.11.29a3.1,3.1,0,0,0-.63.26l0,.23C103.81,2.14,104.17,2.23,104.53,2.28Z"/></g></g></svg>