<svg xmlns="http://www.w3.org/2000/svg" viewBox="0 0 120.72 272.47"><defs><style>.cls-1{fill:#edeb3f;}</style></defs><g id="圖層_2" data-name="圖層 2"><g id="黑色"><path class="cls-1" d="M0,145c4.37,1.71,8.74,3.39,13.08,5.17a13.06,13.06,0,0,1,2,1.49,3.85,3.85,0,0,0,1.76.88A5.2,5.2,0,0,1,20,154c2.69,2.08,5.44,4.1,8.14,6.17,1.79,1.37,3.52,2.8,5.28,4.2s3.23,2.65,4.94,3.83c.51.35,1.11.41.9,1.22a.91.91,0,0,0,0,.22c3,.22,1.93,4.19,4.45,4.92.2.06.18.85.21,1a8.39,8.39,0,0,1,1.94,1.17c2.17,2.3,4.26,4.67,6.37,7,.5.56,1,1.12,1.53,1.73,0,.56-.92,1.34.35,1.78l.18-.73c.14,0,.36,0,.4.06.79,1.37,1.32,2.87,2.68,3.92.43.33,1.33,1.16.6,2.15-.06.09.16.45.31.63a25,25,0,0,1,1.74,2c.63.93,1.94,1.77,0,3.31l.83,0,.89-.78a30.74,30.74,0,0,1,4,5.85c.07.12-.13.38-.2.58l-1.42-1.73c.24,1.29.24,1.29,1.49,1.67a19.64,19.64,0,0,1,1.9,1.86A9.75,9.75,0,0,1,69,208.38a9.51,9.51,0,0,1,.34,2.06c.14,0,.79-.08,1,.18s.06.9.06,1.55c1.56-.22,1.63,1.24,2.18,2.25L71.19,214c.15,1.43.78.66,1.28.42,2.23,4.37,4.48,8.74,6.68,13.13.88,1.74,1.67,3.52,2.43,5.32.26.6,1.06,1.22.21,2a.35.35,0,0,0,0,.33c2.16,1.91,2,4.9,3.32,7.18.15.25.1.61.26.85,2,3.11,1.93,3.12,2.64,6.8.34,1.74,1.13,3.38,1.51,5.12.47,2.11.74,4.26,1.07,6.4.2,1.33,0,2.89.61,3.94a6.79,6.79,0,0,1,.78,3.15c.22,2-.49,2.94-2.38,3.39a20.9,20.9,0,0,1-10.45-.33A16.44,16.44,0,0,1,76,269.91a15.71,15.71,0,0,1,.82-3.22c.39-.76-.69-2.24,1.08-2.46H76.54c0-.91-.84-1.94,1-2.3-1.77-.23-1.66-1.73-2-2.74-.72-2-1.15-4.17-1.69-6.26-.32-1.24.08-2.68-1-3.69-.72-.67.91-1.34-.14-2.21-.65-.53-.71-1.78-1-2.7s-.62-1.65-1-2.68l1.18-.19c-.28-1-.37-2.51-.86-2.65-.91-.26-1.21-1.1-2-1.43s-1.1-1.75-1.67-2.75l1.36-.86c-.87-.55-2.43-.05-2.27-1.76l1.09-.41-1.55-.69.62-2c-2.22-1.71-2.34-4.6-4.07-6.55l-.69.91-1.87-3.07,1.16-.33c-.4-2.73-2.35-4.66-3.51-7-.49-1-1.62-1.79-.64-3.16.19-.26,0-1.05-.91-1.18s-1.57-1.06-1.21-1.79c.64-1.3-.25-1.93-.79-2.71-1.23-1.78-2.69-3.42-3.79-5.27-2.31-3.88-5.52-7.06-8-10.81a15.63,15.63,0,0,1-1-2.36c-.05-.12,0-.35-.07-.39-2.07-1.23-2.43-3.81-4.26-5.27a56,56,0,0,1-5-4.58c-2.08-2.1-4-4.4-6.07-6.46-4.55-4.45-9.18-8.82-13.81-13.19"/><path class="cls-1" d="M11.59,193c.49,1.37,1,2.75,1.43,4.06l.42-.66c1,1.89,1.92,3.8,3.07,5.51s1,3.78,3,5.09a12.3,12.3,0,0,0,0-1.23,12.27,12.27,0,0,1-.36-2.36,73.51,73.51,0,0,1,.86-8.54c.5-2.55.84-5.24,2.71-7.37a18.88,18.88,0,0,0,2.09-3.24c.67-1.2,1.51-1.86,2.95-1.19l.12-1.2,3.12.59-.05,0c-1.85,1.64-2.67,4-3.93,6-.24.39-.2,1.45,0,1.55,1,.48.64,1.27.56,1.94a14.21,14.21,0,0,0,.33,5,9.69,9.69,0,0,1,.24,2.49,12.58,12.58,0,0,0,.52,5.81,1.79,1.79,0,0,1-.45,2.15c-.71.57-.51,1.4,0,2.24.73,1.28.63,1.43-.35,3,1.63,1.3.92,3.22,1.15,4.94.09.67-.37,1.56.77,1.8.08,0,.11.36.12.56s.09,2.86.16,3a23.71,23.71,0,0,1,1.67,5.26,18.69,18.69,0,0,0,2.73,6.74,7.32,7.32,0,0,1,.73,2.43c.46,2,2.25,3.6,1.61,5.92-.06.2.71.63,1.26,1.1-.82,1.52,1.15,2.94.61,4.7.64.46,1.92.32,1.35,1.63,1.15,2.31,1.85,4.84,3.6,6.86a9.1,9.1,0,0,1,1,2c.37.76.48,1.54,1.54,2,.72.32.7,2.27,1.42,2.61,2.1,1,2.79,3.05,4.14,4.59a30.15,30.15,0,0,1,1.94,2.85,4.55,4.55,0,0,1-1.5.64c-3.1,0-6.2.08-9.29,0A3.7,3.7,0,0,1,39.24,269l-1.08.17a1.8,1.8,0,0,1-.35-.29c-1.23-1.89-2.49-3.75-3.65-5.68A43.86,43.86,0,0,1,32,259c-2.4-5.27-4.74-10.56-7.12-15.82-1.46-3.21-3.09-6.34-4.36-9.62a5,5,0,0,0-1.19-2.22c-.37-.32-.73-1,.25-1-1.09-2.43-2.24-4.85-3.27-7.32-.42-1-.94-1.48-2-1-.55-1.41-.77-2.77-1.8-3.85"/><path class="cls-1" d="M34.25,245.65l-.73,1.15,2.75.35Z"/><path class="cls-1" d="M33.4,240.61c.58-.69,1.66-1.14.58-2.22C32.89,238.9,33,239.66,33.4,240.61Z"/><path class="cls-1" d="M36.87,250.4l.31-.56c-.51-.22-1-.44-1.55-.64,0,0-.1.23-.23.51Z"/><path class="cls-1" d="M57.77,176.75a4.06,4.06,0,0,1-5.44-2c-1.3-2.26-3.13-4.23-3.66-6.95-.14-.73-1.41-1-1.47-2.15a19.58,19.58,0,0,1,.07-2.76,36.27,36.27,0,0,0-.13-6.91,6.71,6.71,0,0,1-.07-1.62,16,16,0,0,0-.16-2.83,8.58,8.58,0,0,1,0-1.34c.12-1.41.37-2.81.36-4.21,0-.59-.51-1.18-.84-1.89L47.78,143l-1.06-.65c.05-.21.19-.43.15-.61-.74-3.82.94-7.41,1-11.15,0-1.18,1-2.24.41-3.52-.08-.19.34-.63.57-.92.65-.84,1.46-1.38.79-2.85-.5-1.07.68-2.19,1.8-2.8-.86-2.25.75-3.54,1.85-4.93.58-.75,1.43-1.21,1.56-2.34a3.17,3.17,0,0,1,1-2,35.38,35.38,0,0,0,4.26-4.57c.39-.46,1.17-.46,1.14-1.45,0-.37,1.2-.76,2-1.24v-1.79l.86,1.13c.31-.28.82-.55.79-.75-.25-1.95,1.49-2.73,2.5-3.54a12.05,12.05,0,0,1,4.34-2.71,10.42,10.42,0,0,0,3.49-1.75,5,5,0,0,1,2.42-.81,16.79,16.79,0,0,0,5.15-1.33c3.13-1.47,6.33-1,9.54-.89,1.36.06,2.72.09,4.07.21a5,5,0,0,1,1.3.47l0,.54c-.64.25-1.28.56-2,.75a51.06,51.06,0,0,0-14.35,6.63A49.43,49.43,0,0,0,70.2,110.25a29.7,29.7,0,0,0-4.75,9.24,107.49,107.49,0,0,0-4.62,21,61.6,61.6,0,0,1-1.44,6.37c-1.06,4.37-1.17,8.84-1.47,13.29-.16,2.46-.48,4.91-.49,7.37,0,2.18.37,4.36.46,6.55a13.1,13.1,0,0,1-.41,2.52c0,.06,0,.18.06.19s.14,0,.22,0Z"/><path class="cls-1" d="M6.3,16.85a41.89,41.89,0,0,1,10.34,7.79,28.74,28.74,0,0,1,5,7.77c2.76,5.9,4.14,4.79,5.82,11.14a59,59,0,0,0,2,5.58,81.38,81.38,0,0,1,3,11.84c.47,2.2,1.05,4.38,1.4,6.59.3,2,.3,4,.53,6a12.12,12.12,0,0,0,.67,2.23s0,.16,0,.18-.12,0-.18,0h0c2,.53,3.37-.38,4.06-2.45s1.93-4.2,2-6.72c0-.68,1-1.06.87-2.12a17.52,17.52,0,0,0-.43-2.49,37.54,37.54,0,0,1-.84-6.26,6.89,6.89,0,0,0-.16-1.47,16.58,16.58,0,0,1-.26-2.57,9.87,9.87,0,0,0-.21-1.21c-.29-1.26-.68-2.49-.86-3.76a5.3,5.3,0,0,1,.41-1.8l-1.2-.87.76-.72a1.67,1.67,0,0,1-.21-.53C38.84,39.45,37,36.4,36.46,33c-.17-1.07-1.09-1.9-.81-3.13,0-.18-.35-.53-.58-.77-.63-.67-1.35-1.07-1-2.47.25-1-.84-1.91-1.82-2.32.38-2.13-.35,4.16-1.42,3-.57-.6-1.3-.92-1.56-1.92a3.1,3.1,0,0,0-1.05-1.64,31.31,31.31,0,0,1-4-3.63c-.37-.36-1-.27-1.11-1.17,0-.33-1.06-.54-1.77-.87l-.25-1.62-.53,1.12c-.28-.21-.72-.39-.73-.58-.06-1.79-1.55-2.29-2.47-2.9a9.84,9.84,0,0,0-3.83-1.93,8,8,0,0,1-3-1.16"/><path class="cls-1" d="M32.61,190.62c.87.79,1.79,1.54,2.6,2.4,2.28,2.43,4.4,4.95,5.49,8.22a45.15,45.15,0,0,0,2.42,4.88,59,59,0,0,1,4.77,14.17,19.22,19.22,0,0,0,.77,2.38c1.62-2.17,1.85-4.38,2.38-6.49a5.57,5.57,0,0,1,.61-1.59c1.1-1.75,1.12-1.73,2.75-1.26.75,1.07,1.36,1.87,1.89,2.71a15.42,15.42,0,0,1,1.36,2.44c.93,2.29,1.77,4.62,2.63,6.93.08.21,0,.5.12.66,2.28,3,1,6.3.76,9.49-.15,2.06-.5,4.1-.71,6.16-.05.43-.09,1.05.15,1.31,1.12,1.15.59,2.68,1.06,4,.3.82.52,1.66.86,2.48.08.84-1.17,1.73.12,2.57-.57,1.88.88,3.66.2,5.63a4.55,4.55,0,0,0,.32,2.83c.81,2.09,1.8,4.1,2.7,6.14.61,1.38,1.2,2.77,1.87,4.34-.51.08-1.21.3-1.26.2-.84-1.75-3.19-2-3.93-4a2.41,2.41,0,0,1-3.12-1.32c-.51-.89-1.89-1.26-1.51-2.78.09-.34-.93-1-1.51-1.45-1.15-.82-1.46-2.48-3-2.81.43-1.67.42-1.68-1.23-2.48a10.45,10.45,0,0,0-1.66-5.58c-.54-.89-.66-2-1.74-2.56.62-1.83-1.21-3-1.3-4.61,0-.3-.08-.72-.28-.84-1.19-.76-1.2-2-1.55-3.18-.56-1.87-1.3-3.69-1.83-5.57-.7-2.45-1.24-4.94-1.91-7.4a12.11,12.11,0,0,0-1-2l.79-1.14c-.05-.2,0-.31-.09-.34-1.65-.82-1.49-2.42-1.71-3.88-.3-2-.7-4-1-6-.09-.66-.35-1.3.43-2a1.5,1.5,0,0,0-.6-2.36,1.93,1.93,0,0,1-.76-1c-1.37-4-2.62-8-4.1-11.94-.62-1.67-1.67-3.17-1.73-5Z"/><path class="cls-1" d="M11.74,226.6c-.14,2.68,1,5.06,1.59,7.55.06.27.52.53.48.71-.59,2.39.9,4.07,1.92,5.91l1.86,3.43-1.19.92c1.64.29,1.73,1.36,1,2.81l1.22-.47c1.65,1.72,2.18,4,2.92,6.09a7.36,7.36,0,0,0,.79,1.81c.59.84,1.52,1.45,1.35,2.7,0,.16.66.41,1.14.7A5.78,5.78,0,0,0,26.27,263c1.33,1.57,2.38,3.37,3.63,5,.77,1,1.72,1.85,2.53,2.81.21.24.22.66.42,1.33-4.49.22-8.76,0-12.88,0-.59-.68-1.13-1.22-1.58-1.82a17.61,17.61,0,0,1-2-3c-.88-1.91-1.5-3.94-2.33-5.88-1.13-2.63-2.34-5.23-3.52-7.84"/><path class="cls-1" d="M21.73,256.42l-.29.24.92,1.13.31-.26Z"/><path class="cls-1" d="M18.28,249.38l-.33.27.51.63.41-.38Z"/><path class="cls-1" d="M7.26,101.05c2,2.52,3.94,5.14,6,7.59A15.6,15.6,0,0,1,15.86,112c1.51,3.16,2.94,6.38,4.63,9.44.38.7-.55,1.29.31,1.87a6.36,6.36,0,0,1,1.38,1.87c.41.61.79,1.24,1.17,1.88.12.19.31.42.27.6-.36,2,1.31,3,2.06,4.46,0,.07.13.12.13.19,0,2.71,2.48,4.13,3.31,6.39a12.8,12.8,0,0,0,1.73,2.47,39.83,39.83,0,0,1,2.29,4.63c1.57,3.43,3.08,6.89,4.67,10.31.47,1,.65,1.85-.74,2.6-3.44-2.1-6.94-4.3-10.51-6.38a2.9,2.9,0,0,1-1.32-1.7c-.82-2.23-1.67-4.44-2.51-6.66A3.49,3.49,0,0,0,21,142a2.71,2.71,0,0,1-1.24-1.71,13.88,13.88,0,0,0-1.52-4c-.92-1.85-2.39-3.62-2-6,.07-.44-.59-1-.8-1.5-2-5-3.91-10.13-6-15.13"/><path class="cls-1" d="M12,84.52c.2.64.81,1.11,1.15,1.66a20.18,20.18,0,0,1,1.36,2.92c.9,2.14,1.75,4.28,2.67,6.42.26.63.32,1.12-1,1.24C13.6,95,6.92,89.24,4.16,87.43"/><path class="cls-1" d="M70.77,198.15H69.29c-.16-.93-.29-1.86-.51-2.78a1.41,1.41,0,0,0-.59-.85c-1.23-.68-1.64-1.88-2.1-3.07-.19-.49-.33-1-.54-1.48a10,10,0,0,1-.14-7.77,32.8,32.8,0,0,1,3-6.13c.7-1.14.76-2.77,2.29-3.39a.81.81,0,0,0,.12-.74c-.53-.53,0-.72.2-1.1.34-.73,1.36-.73,1.54-1.82.13-.81,1.26-1.43,1.9-2.18a14.15,14.15,0,0,1,2-2.46c2.06-1.45,3.2-3.87,5.27-5.16C84.33,157.6,86.47,155,90,155c1.87,0,3.74,0,6.09,0-1.21.95-2,1.63-2.91,2.28a31.55,31.55,0,0,0-9.57,11.3c-2.22,4.54-4.39,9.11-6.47,13.72a15.12,15.12,0,0,0-.77,3.52c-.32,1.76-.65,3.53-.92,5.3a31.38,31.38,0,0,1-.39,3.39,9.06,9.06,0,0,1-1.29,2.12c-.09.16-.16.34-.38.79l1.26-.51c.06.11.18.24.16.33-.6,1.91-2,3.61-1.29,5.87.13.4-.46,1-.8,1.72-.4-.26-1-.45-1.05-.73a50.88,50.88,0,0,1-.92-6c1-.81,0-1.65-.2-2.45Z"/><path class="cls-1" d="M66.77,84.78l-1-1.1c.58-.74,1.2-1.45,1.74-2.22a1.43,1.43,0,0,0,.25-1c-.3-1.37.33-2.47.91-3.6.24-.47.54-.91.76-1.38a10,10,0,0,1,5.74-5.24,32.9,32.9,0,0,1,6.57-1.81c1.32-.23,2.58-1.26,4.06-.52.12.06.62-.25.63-.4,0-.75.56-.46,1-.58.77-.22,1.44.54,2.38,0,.69-.43,1.91,0,2.89,0a13.77,13.77,0,0,1,3.19-.1c2.45.59,5-.15,7.35.54,2.94.88,6.33.74,8.58,3.4,1.21,1.43,2.47,2.82,4,4.58-1.52-.28-2.58-.46-3.63-.68a31.68,31.68,0,0,0-14.81.28c-4.88,1.34-9.74,2.73-14.57,4.21a14.81,14.81,0,0,0-3.15,1.75c-1.54.92-3.08,1.84-4.59,2.81a30.45,30.45,0,0,1-2.8,1.94,9.17,9.17,0,0,1-2.45.44c-.18,0-.36.1-.84.24l1.22.6c0,.12-.07.3-.15.33-1.83.82-4,.88-5.25,2.92-.22.36-1.08.33-1.83.53-.06-.47-.32-1-.14-1.26a47.26,47.26,0,0,1,3.93-4.68c1.28.23,1.24-1.1,1.71-1.77Z"/><path class="cls-1" d="M12,264.19c1.08.81.72,2.67,2.3,3.08.14,1.25.26,2.47-.74,3.51a3.4,3.4,0,0,0-.47,1.18H6.25"/><path class="cls-1" d="M78.47,63.49c4.87.46,3.69-6.84,8.79-6.36C89.54,55.92,89,52.39,93,51.61c1.27-.25.35-4.81,3.12-6,0-5,3.81-6.9,5.08-11.15a10.51,10.51,0,0,0,.05-3.15A55.86,55.86,0,0,0,104.47,25c1-2.8,2-4.71,4.45-5.9.37-.18,1-.72,1-1-.51-6,3.54-5.66,6-9.75,1.57-2.66,6.14-6.2,4.54-8.38-3,2.48-9.39,7.11-12.42,9.75A65.18,65.18,0,0,0,96.78,23.19c-3,4.49-6,9-8.85,13.65a20.78,20.78,0,0,1-5,4.93C80.33,43.85,80.63,49.17,77,50c-.63,3.51-1.22,6.94.72,10.08C78.29,61,78.26,62.41,78.47,63.49Z"/><path class="cls-1" d="M12.67,165c.87-.94.91-1,2.94-.79-1.38,3.66-.52,7.2-.44,10.74.05,1.88-.17,3.76-.16,5.64,0,1.72.17,3.44.23,5.16,0,1.49-.22,1.79-1.92,2.51-1,.4-1.33-.15-2-.75"/><path class="cls-1" d="M57.76,176.74l.43,2.23c-1.82-1-1.82-1-.42-2.22Z"/><path class="cls-1" d="M31,182.46l-1.11-.8,2.12-1c-.12,1.05-.31,1.58-1.07,1.77Z"/><path class="cls-1" d="M65.69,204.21c-1.25-.38-1.25-.38-1.49-1.67l1.42,1.73Z"/><path class="cls-1" d="M34.25,245.65l2,1.5-2.75-.35Z"/><path class="cls-1" d="M33.4,240.61c-.42-1-.51-1.71.58-2.22C35.06,239.47,34,239.92,33.4,240.61Z"/><path class="cls-1" d="M36.87,250.4l-1.47-.69c.13-.28.22-.51.23-.51.52.2,1,.42,1.55.64Z"/><path class="cls-1" d="M21.73,256.42l.94,1.11-.31.26-.92-1.13Z"/><path class="cls-1" d="M18.28,249.38l.59.52-.41.38-.51-.63Z"/><path class="cls-1" d="M1.46,44.66c1.5,3,12.38,20,13.62,23.07,3.85,9.58,4.2,11.76,5,14.11,3.4,9.62,5.3,19.69,8.7,29.31.05,3.29,2,6,2.78,9.1s2.29,5.85,3.54,8.74a2.76,2.76,0,0,0,4.59.45,6.56,6.56,0,0,0,1.47-3.39c.16-3.12.73-6.22,1.15-9.33.25-1.86.46-3.73.84-5.57.58-2.88,1.38-5.71,1.9-8.6a43.3,43.3,0,0,1,2-6.63c.67-1.93,1.63-3.69,2.44-5.54.38-.89.64-1.85,1.1-2.71,4.2-7.8,17.82-37.71,24.56-44a33.35,33.35,0,0,0-9,2.12c-2.39.88-3.34,2.38-5.65,3.68-2.15,1.87-4.13,5.66-5.42,7.5,0,0-2.79,4.29-2.78,4.29-.71,1.68-9,19.9-10.08,21.13a10.35,10.35,0,0,0-2.49,4.78,7.87,7.87,0,0,1-1.14,3.19,20.51,20.51,0,0,0-1.35,2.58c-.81,1.49-.52,3-.16,4.53L35.77,98.6c-.57-1.45-1.1-2.66-1.51-3.92-.31-1-.44-2-.67-3s-.18-2.62-.88-3.19c-1.13-.91-.12-1.87-.57-2.68a2.9,2.9,0,0,1-.25-.87c-.45-2.33-1.35-4.53-1.81-6.88-.21-1.1-.63-2.21-.87-3.36-.11-.52-.86-.92-.93-1.44a24.46,24.46,0,0,0-3.48-8.88h0C24.31,63.16,14.74,47.68,13.37,47c-.13-.06-.34-.2-.33-.24.46-1.45-.71-2.16-1.47-3"/><path class="cls-1" d="M24.08,65.49c-.07-.41-.14-.81-.23-1.28l.91.19-.38,1.08Z"/></g></g></svg>