<svg xmlns="http://www.w3.org/2000/svg" viewBox="0 0 17.81 17.81"><defs><style>.cls-1{fill:#4c4948;}</style></defs><g id="圖層_2" data-name="圖層 2"><g id="黑色"><path class="cls-1" d="M17.76,5.24a6.41,6.41,0,0,0-.41-2.16,4.42,4.42,0,0,0-1-1.58,4.32,4.32,0,0,0-1.58-1A6.46,6.46,0,0,0,12.58.06C11.63,0,11.32,0,8.91,0S6.19,0,5.24.05A6.38,6.38,0,0,0,3.08.47a4.17,4.17,0,0,0-1.58,1,4.21,4.21,0,0,0-1,1.57A6.52,6.52,0,0,0,.06,5.23C0,6.19,0,6.49,0,8.91s0,2.72.05,3.67a6.49,6.49,0,0,0,.42,2.16,4.24,4.24,0,0,0,1,1.58,4.31,4.31,0,0,0,1.57,1,6.49,6.49,0,0,0,2.16.42c.95,0,1.26,0,3.67,0s2.72,0,3.67,0a6.38,6.38,0,0,0,2.16-.42,4.55,4.55,0,0,0,2.61-2.6,6.52,6.52,0,0,0,.41-2.16c.05-.95.06-1.26.06-3.67S17.8,6.19,17.76,5.24ZM8.9,14A5.1,5.1,0,1,1,14,8.9,5.09,5.09,0,0,1,8.9,14Zm5.56-9.4a1.25,1.25,0,1,1,1.25-1.25A1.25,1.25,0,0,1,14.46,4.6Z"/><circle class="cls-1" cx="8.9" cy="8.9" r="3.28"/></g></g></svg>