<svg xmlns="http://www.w3.org/2000/svg" viewBox="0 0 21.59 20.24"><defs><style>.cls-1{fill:#4c4948;}</style></defs><g id="圖層_2" data-name="圖層 2"><g id="黑色"><path class="cls-1" d="M21.44,2.94a.69.69,0,0,0-.52-.24H5.06L4.47.5A.68.68,0,0,0,3.82,0H.67A.67.67,0,0,0,0,.67a.67.67,0,0,0,.67.68H3.3l.58,2.17v0L6,11.62H6l.73,2.72a.68.68,0,0,0,.65.51h10.8a.68.68,0,0,0,.67-.68.67.67,0,0,0-.67-.67H7.94l-.38-1.42,12-.61a.67.67,0,0,0,.63-.55L21.58,3.5A.66.66,0,0,0,21.44,2.94Zm-12,5.83a.69.69,0,0,1-.68.68.68.68,0,0,1-.67-.68V6.07a.67.67,0,0,1,.67-.67.68.68,0,0,1,.68.67Zm4.05,0a.69.69,0,0,1-.68.68.68.68,0,0,1-.67-.68V6.07a.67.67,0,0,1,.67-.67.68.68,0,0,1,.68.67Zm4,0a.67.67,0,1,1-1.34,0V6.07a.67.67,0,0,1,1.34,0Z"/><circle class="cls-1" cx="8.77" cy="18.22" r="2.02"/><circle class="cls-1" cx="16.87" cy="18.22" r="2.02"/></g></g></svg>