<svg xmlns="http://www.w3.org/2000/svg" viewBox="0 0 57.43 57.43"><defs><style>.cls-1{fill:#4c4948;}</style></defs><g id="圖層_2" data-name="圖層 2"><g id="黑色"><path class="cls-1" d="M24.86,47.86a14.17,14.17,0,0,0-7-11.54L11.23,29a3.58,3.58,0,0,0-3.57-1.1V15.32a3.83,3.83,0,0,0-7.66,0V33.43a8.63,8.63,0,0,0,1.08,4.19L9.57,52.9v3.58a1,1,0,0,0,1,1h13.4a1,1,0,0,0,1-1V47.86ZM23,55.52H11.49V52.65a1.06,1.06,0,0,0-.12-.47L2.76,36.69a6.89,6.89,0,0,1-.85-3.26V15.32a1.92,1.92,0,1,1,3.83,0V29.05a3.64,3.64,0,0,0,.07,4.82l7.84,8.63,1.42-1.29L7.22,32.58a1.74,1.74,0,0,1,2.52-2.4.46.46,0,0,0,.07.07l6.71,7.46a1.3,1.3,0,0,0,.29.22A12.24,12.24,0,0,1,23,48.56Z"/><path class="cls-1" d="M53.6,11.49a3.82,3.82,0,0,0-3.82,3.83V27.87a3.8,3.8,0,0,0-1-.11A3.58,3.58,0,0,0,46.21,29l-6.62,7.34a14.2,14.2,0,0,0-7,11.55h0v8.62a1,1,0,0,0,1,1H46.9a1,1,0,0,0,1-1V52.89L56.24,37.7a8.59,8.59,0,0,0,1.19-4.37v-18a3.82,3.82,0,0,0-3.83-3.83Zm1.92,21.84a6.71,6.71,0,0,1-.94,3.42L46.06,52.18a1,1,0,0,0-.11.47v2.87H34.46v-7a12.26,12.26,0,0,1,6.22-10.65.74.74,0,0,0,.23-.2l6.72-7.46a1.74,1.74,0,1,1,2.58,2.33l-7.84,8.63,1.41,1.29,7.85-8.63a3.64,3.64,0,0,0,.06-4.82V15.32a1.92,1.92,0,1,1,3.83,0Z"/><path class="cls-1" d="M40.2,23.93H38.29a10.52,10.52,0,0,0-8.62,4.5V22h1A10.55,10.55,0,0,0,41.16,11.49a1,1,0,0,0-1-1H38.29A10.52,10.52,0,0,0,29.67,15V8.61h1A7.66,7.66,0,0,0,38.29,1a1,1,0,0,0-1-1H35.42a7.65,7.65,0,0,0-6.7,4A7.67,7.67,0,0,0,22,0H20.1a1,1,0,0,0-1,1A7.67,7.67,0,0,0,26.8,8.61h1V15a10.51,10.51,0,0,0-8.62-4.5H17.23a1,1,0,0,0-1,1A10.55,10.55,0,0,0,26.8,22h1v6.41a10.51,10.51,0,0,0-8.62-4.5H17.23a1,1,0,0,0-1,1A10.55,10.55,0,0,0,26.8,35.42h1v7.65h1.91V35.42h1A10.55,10.55,0,0,0,41.16,24.89a1,1,0,0,0-1-1ZM38.29,12.44h.9a8.62,8.62,0,0,1-8.56,7.66h-.9a8.62,8.62,0,0,1,8.56-7.66ZM35.42,1.91h.88A5.76,5.76,0,0,1,30.63,6.7h-.88a5.77,5.77,0,0,1,5.67-4.79ZM26.8,6.7a5.74,5.74,0,0,1-5.66-4.79H22A5.76,5.76,0,0,1,27.68,6.7Zm0,13.4a8.62,8.62,0,0,1-8.56-7.66h.9a8.64,8.64,0,0,1,8.57,7.66Zm0,13.4a8.62,8.62,0,0,1-8.56-7.66h.9a8.64,8.64,0,0,1,8.57,7.66Zm3.83,0h-.9a8.62,8.62,0,0,1,8.56-7.66h.9a8.62,8.62,0,0,1-8.56,7.66Z"/></g></g></svg>