<svg xmlns="http://www.w3.org/2000/svg" viewBox="0 0 21.47 19.63"><defs><style>.cls-1{fill:#4c4948;}</style></defs><g id="圖層_2" data-name="圖層 2"><g id="黑色"><path class="cls-1" d="M16.26,8.44a.72.72,0,0,0-.59-.31H5.79a.71.71,0,0,0-.58.31L1.59,17.23a2.16,2.16,0,0,0-.17.83v.85a.72.72,0,0,0,.72.72H19.33a.71.71,0,0,0,.71-.72v-.85a2.07,2.07,0,0,0-.16-.82Zm-5.48,9.67a4.28,4.28,0,1,1,4.28-4.28A4.28,4.28,0,0,1,10.78,18.11Z"/><path class="cls-1" d="M8.53,4.57A1.06,1.06,0,0,0,7.47,5.63V6.7H14V5.63a1.07,1.07,0,0,0-1.06-1.06Z"/><path class="cls-1" d="M10.73,11a2.85,2.85,0,1,0,2.85,2.85A2.86,2.86,0,0,0,10.73,11Zm0,4.28a1.43,1.43,0,1,1,1.43-1.43A1.43,1.43,0,0,1,10.73,15.26Z"/><path class="cls-1" d="M4.27,6.41V5.7H0v.71a.71.71,0,0,0,.71.71H3.56A.71.71,0,0,0,4.27,6.41Z"/><path class="cls-1" d="M17.19,5.7v.71a.71.71,0,0,0,.72.71h2.85a.71.71,0,0,0,.71-.71V5.7Z"/><path class="cls-1" d="M6.41,2.85h8.65a2.14,2.14,0,0,1,2,1.42h4.35A5,5,0,0,0,16.48,0H5A5,5,0,0,0,.05,4.27H4.4A2.14,2.14,0,0,1,6.41,2.85Z"/></g></g></svg>