<svg xmlns="http://www.w3.org/2000/svg" viewBox="0 0 65.79 65.79"><defs><style>.cls-1{fill:#4c4948;}</style></defs><g id="圖層_2" data-name="圖層 2"><g id="黑色"><path class="cls-1" d="M64.51,51.52A41,41,0,0,0,35.61,63.6a1.29,1.29,0,0,0,0,1.82,1.28,1.28,0,0,0,.91.37,1.25,1.25,0,0,0,.91-.38A38.5,38.5,0,0,1,64.51,54.09a1.29,1.29,0,0,0,0-2.57Z"/><path class="cls-1" d="M37.71,50.33A1.28,1.28,0,0,0,35.93,50a50.63,50.63,0,0,0-13.8,13.8,1.28,1.28,0,0,0,.35,1.78,1.27,1.27,0,0,0,.72.22,1.29,1.29,0,0,0,1.07-.57,48,48,0,0,1,13.1-13.1A1.3,1.3,0,0,0,37.71,50.33Z"/><path class="cls-1" d="M64.51,41.18a50.41,50.41,0,0,0-16.9,2.92A1.28,1.28,0,0,0,48,46.59a1.23,1.23,0,0,0,.42-.07,48,48,0,0,1,16.05-2.77,1.29,1.29,0,0,0,0-2.57Z"/><path class="cls-1" d="M52.61,35.43a56.9,56.9,0,0,1,11.9-1.25,1.29,1.29,0,0,0,0-2.57,60.7,60.7,0,0,0-10.87,1V29.82a19,19,0,0,0,7.19-14.57c0-5.67-2.73-11-7.67-15a1.31,1.31,0,0,0-1.61,0c-4.95,4-7.68,9.3-7.68,15,0,5.49,2.55,10.64,7.2,14.57v3.3a60.17,60.17,0,0,0-7.21,2.12V27.71a1.27,1.27,0,0,0-.37-.9h0l-7.2-7.24a1.3,1.3,0,0,0-.91-.38H20.69a1.3,1.3,0,0,0-.91.38l-7.2,7.24h0a1.27,1.27,0,0,0-.37.9v4.91c-.9-.16-1.8-.31-2.7-.43V27.61A14.67,14.67,0,0,0,15,16.45,14.79,14.79,0,0,0,9,4.89a1.28,1.28,0,0,0-1.61,0A14.79,14.79,0,0,0,1.5,16.45,14.67,14.67,0,0,0,6.94,27.61v4.28c-1.87-.17-3.76-.26-5.66-.26a1.29,1.29,0,0,0,0,2.57,58,58,0,0,1,29.19,7.87,61.62,61.62,0,0,0-6.07,4.72A51.09,51.09,0,0,0,1.28,41.2a1.29,1.29,0,0,0,0,2.57,48.48,48.48,0,0,1,21.1,4.88,61.35,61.35,0,0,0-5.46,6.05A40.36,40.36,0,0,0,1.28,51.54a1.29,1.29,0,0,0,0,2.57,37.64,37.64,0,0,1,14,2.72c-.89,1.23-1.74,2.5-2.53,3.8l-2,3.21a1.28,1.28,0,0,0,.43,1.76,1.26,1.26,0,0,0,.67.19,1.31,1.31,0,0,0,1.1-.61L15,62c1-1.67,2.13-3.28,3.3-4.83a1.09,1.09,0,0,0,.13-.17,58.56,58.56,0,0,1,34.2-21.54ZM8.22,14.13a1.28,1.28,0,0,0-1.28,1.29V24a11.59,11.59,0,0,1-2.87-7.52A12.06,12.06,0,0,1,8.22,7.58a12,12,0,0,1,4.16,8.87A11.65,11.65,0,0,1,9.51,24V15.42A1.29,1.29,0,0,0,8.22,14.13ZM20.69,22.3l4.11,4.13H16.58Zm1.54,13.06c-1-.37-2.05-.72-3.08-1v-1h3.08Zm4.37,1.81c-.6-.27-1.2-.54-1.8-.79V32.06a1.28,1.28,0,0,0-1.28-1.28H17.86a1.28,1.28,0,0,0-1.28,1.28v1.53c-.6-.16-1.2-.31-1.8-.44V29H26.6ZM23.78,21.76H34.85l4.64,4.67H28.42ZM41.29,36.23a62.67,62.67,0,0,0-6.44,3.13c-.66.37-1.32.76-2,1.16-1.22-.74-2.45-1.44-3.71-2.09V29H41.29Zm9.78-19.78v9.84a16,16,0,0,1-4.63-11A16.38,16.38,0,0,1,52.35,3a16.38,16.38,0,0,1,5.91,12.28,16,16,0,0,1-4.62,11V16.45a1.29,1.29,0,1,0-2.57,0Z"/><path class="cls-1" d="M53.26,10.66a1.28,1.28,0,0,0-1.82,0,1.29,1.29,0,0,0,0,1.81,1.28,1.28,0,1,0,1.82-1.81Z"/><path class="cls-1" d="M41.2,46.94a1.29,1.29,0,0,0,.91,2.19,1.27,1.27,0,0,0,.9-.38,1.27,1.27,0,0,0,0-1.81,1.27,1.27,0,0,0-.9-.38A1.3,1.3,0,0,0,41.2,46.94Z"/></g></g></svg>