<svg xmlns="http://www.w3.org/2000/svg" viewBox="0 0 54.33 54.33"><defs><style>.cls-1{fill:#4c4948;}</style></defs><g id="圖層_2" data-name="圖層 2"><g id="黑色"><path class="cls-1" d="M7.44,48.08h0a1.06,1.06,0,1,0-1.29,1.68h0a1,1,0,0,0,.64.22,1.06,1.06,0,0,0,.65-1.9Z"/><path class="cls-1" d="M7.44,39.38h0a1.06,1.06,0,1,0-1.29,1.68h0a1,1,0,0,0,.64.22,1.06,1.06,0,0,0,.65-1.9Z"/><path class="cls-1" d="M7.44,30.68h0a1.06,1.06,0,1,0-1.29,1.68h0a1,1,0,0,0,.64.22,1.06,1.06,0,0,0,.65-1.9Z"/><path class="cls-1" d="M48.18,48.07h0a1.06,1.06,0,0,0-1.49.2,1.07,1.07,0,0,0,.21,1.49h0a1.07,1.07,0,0,0,.64.21,1,1,0,0,0,.84-.42,1.07,1.07,0,0,0-.2-1.49Z"/><path class="cls-1" d="M48.18,39.37h0a1.06,1.06,0,0,0-1.49.2,1.07,1.07,0,0,0,.21,1.49h0a1,1,0,0,0,.64.22,1.06,1.06,0,0,0,.64-1.91Z"/><path class="cls-1" d="M48.18,30.67h0a1.06,1.06,0,1,0-1.28,1.7h0a1,1,0,0,0,.64.22,1.06,1.06,0,0,0,.64-1.91Z"/><path class="cls-1" d="M39.2,34.8h0a1.07,1.07,0,0,0,0,2.13h0a1.07,1.07,0,1,0,0-2.13Z"/><path class="cls-1" d="M15.14,43.5h0a1.07,1.07,0,0,0,0,2.13h0a1.07,1.07,0,0,0,0-2.13Z"/><path class="cls-1" d="M8.57,19.65a1,1,0,0,0-.75-.31,1.06,1.06,0,1,0,0,2.12,1,1,0,0,0,.75-.31,1.06,1.06,0,0,0,0-1.5Z"/><path class="cls-1" d="M53.27,26.1H48.86A6.31,6.31,0,0,0,48.56,15,6.32,6.32,0,0,0,39.7,6.89a7.33,7.33,0,0,0-4.23-1.34h-.31A8.2,8.2,0,0,0,20,4.66c-.26,0-.51,0-.77,0a8.2,8.2,0,0,0-7.56,5q-.35-.11-.69-.18a4.68,4.68,0,0,1,1.29-3.1,2.77,2.77,0,0,1,1.31-.74h0a1.06,1.06,0,0,0,.91-1,1.06,1.06,0,0,0-.31-.75,1.1,1.1,0,0,0-.75-.31l-.18,0h0A4.6,4.6,0,0,0,11,4.71V1.06A1.07,1.07,0,0,0,9.88,0H7.34A1.06,1.06,0,0,0,6.28,1.06V5A12.85,12.85,0,0,0,3.64,2.59,1.06,1.06,0,1,0,2.48,4.37S5.72,6.54,6.2,9.63A8.45,8.45,0,0,0,0,17.58,49.19,49.19,0,0,0,1.74,26.1H1.06A1.07,1.07,0,0,0,0,27.16V53.27a1.07,1.07,0,0,0,1.06,1.06H53.27a1.07,1.07,0,0,0,1.06-1.06V27.16a1.07,1.07,0,0,0-1.06-1.06Zm-34-19.35a6.23,6.23,0,0,1,1.22.12,1.07,1.07,0,0,0,1.21-.69A6.09,6.09,0,0,1,33.05,6a7.37,7.37,0,0,0-4.93,6.94,1.07,1.07,0,0,0,2.13,0A5.22,5.22,0,0,1,38.94,9a1.06,1.06,0,0,0,1.34,0,4.19,4.19,0,0,1,5.88,5.86,1.06,1.06,0,0,0-.15,1,1.08,1.08,0,0,0,.74.67,4.19,4.19,0,0,1-1,8.26,4.23,4.23,0,0,1-.79-.08,1,1,0,0,0-1.2.69,5.11,5.11,0,0,1-.31.67H42.08l4.34-6.23a1,1,0,0,0,.17-.8,1,1,0,0,0-.45-.69L43,16.33a1,1,0,0,0-.82-.16,1.08,1.08,0,0,0-.67.49L40,19.22l1.27-6.4a1.07,1.07,0,0,0-.83-1.25L37.74,11a1.05,1.05,0,0,0-.81.15,1.13,1.13,0,0,0-.45.69l-.34,1.86H33.66a1.07,1.07,0,0,0-1.06,1.06v6.11a7.85,7.85,0,0,0-12.43-4.77,8.07,8.07,0,0,0-2.55,3.31,11.48,11.48,0,0,0,.21-1.85,7.82,7.82,0,0,0-1.08-4,3.89,3.89,0,0,1,3.64-2.55,4,4,0,0,1,.78.08,1.06,1.06,0,0,0,1.21-.69,4,4,0,0,1,1.15-1.67,1.06,1.06,0,0,0-1.38-1.61A6,6,0,0,0,20.73,9h-.34a6,6,0,0,0-5.09,2.83,8.84,8.84,0,0,0-1.69-1.28,6.09,6.09,0,0,1,5.62-3.74ZM38.8,25.32l4-6.61,1.27.84L39.49,26.1h-.85Zm-1.33-4.23V18.15s0,0,0-.07l.89-4.77.61.13Zm-2.76,3.17a.49.49,0,0,0,0-.12v-8.3h.63V26.1H35c0-.06,0-.13,0-.2a4.47,4.47,0,0,0-.31-1.64Zm-14.55-5h-.09a5.73,5.73,0,0,1,10.46,2A4.44,4.44,0,0,0,27,23.23a7.85,7.85,0,0,0-6.79-3.92Zm5.63,6.79H14.53a5.73,5.73,0,0,1,11.26,0Zm4.77-2.63a2.38,2.38,0,0,1,2.33,2.43v.2H28.23c0-.06,0-.13,0-.2a2.39,2.39,0,0,1,2.34-2.43ZM8.4,2.12h.42V9.24H8.4ZM2.19,16.75l.2,0H7.64a1.07,1.07,0,0,0,0-2.13H2.93a6.91,6.91,0,0,1,6-3.28,6.53,6.53,0,0,1,6.79,6.22,10.41,10.41,0,0,1-.21,1.73H11.28a1.06,1.06,0,0,0,0,2.12H14.8a7.86,7.86,0,0,0-2.42,4.67H3.94a50.23,50.23,0,0,1-1.82-8.52,4.57,4.57,0,0,1,.07-.83Zm50,18H42.87a1.07,1.07,0,0,0,0,2.13H52.2V43.5H18.74a1.07,1.07,0,0,0,0,2.13H52.2V52.2H2.12V45.63h9.34a1.07,1.07,0,0,0,0-2.13H2.12V36.93H35.59a1.07,1.07,0,0,0,0-2.13H2.12V28.22H52.2Z"/><path class="cls-1" d="M26.05,5.73h0a1.06,1.06,0,1,0,0,2.12h0a1.06,1.06,0,0,0,0-2.12Z"/></g></g></svg>