<svg xmlns="http://www.w3.org/2000/svg" viewBox="0 0 61.26 61.26"><defs><style>.cls-1{fill:#4c4948;}</style></defs><g id="圖層_2" data-name="圖層 2"><g id="黑色"><path class="cls-1" d="M45.45,50.36a1.21,1.21,0,0,0-1.67-.31l0,0a1.2,1.2,0,0,0,.66,2.19,1.22,1.22,0,0,0,.66-.2l.05,0a1.21,1.21,0,0,0,.32-1.67Z"/><path class="cls-1" d="M17.83,9.53a1.19,1.19,0,0,0-1.66-.32l0,0a1.19,1.19,0,0,0,.67,2.18,1.21,1.21,0,0,0,.68-.21l0,0a1.19,1.19,0,0,0,.32-1.66Z"/><path class="cls-1" d="M61.26,30.63A30.63,30.63,0,0,0,12.67,5.82a1.2,1.2,0,0,0,1.4,1.94,28.24,28.24,0,0,1,37.36,42L49.73,48A25.85,25.85,0,0,0,19.21,7.44a1.2,1.2,0,0,0,1.06,2.15A23.45,23.45,0,0,1,48,46.34l-3.15-3.15a9.87,9.87,0,0,0-9.06-13.78l-.64,0H31.13L20.75,19.06a6.8,6.8,0,0,1,6.72-5h.4l.23,0h.16l.18,0,.17,0h.08a7.29,7.29,0,0,1,2.37.84l.06,0a6.29,6.29,0,0,1,3.23,5.4v1.28a1.2,1.2,0,0,0,2.39,0V20.44a8.9,8.9,0,0,0-7.09-8.53h0l-.5-.1-.14,0-.21,0-.26,0h-.18l-.33,0h-.54a9.32,9.32,0,0,0-8.61,5.5L6.18,4.49A1.2,1.2,0,0,0,4.49,6.18L8.14,9.84a30.63,30.63,0,0,0,40.45,45.6,1.19,1.19,0,1,0-1.4-1.93,28.24,28.24,0,0,1-37.35-42l1.69,1.69a25.85,25.85,0,0,0,30.52,40.6A1.2,1.2,0,1,0,41,51.67,23.45,23.45,0,0,1,13.23,14.92l5,5c0,.18,0,.36,0,.55v9H16.77a1.2,1.2,0,0,0,0,2.4h1.42v9a9,9,0,0,0,9.28,8.78,9.62,9.62,0,0,0,4.62-1.18,9.87,9.87,0,0,0,11.53-3.1l7,7h0l4.48,4.49a1.2,1.2,0,0,0,1.7-1.7l-3.66-3.65a30.65,30.65,0,0,0,8.14-20.8ZM20.58,22.28l7.16,7.15H20.58ZM27.47,47.2a6.66,6.66,0,0,1-6.89-6.38v-9h8.78a9.85,9.85,0,0,0,.19,15.07,7.27,7.27,0,0,1-2.08.3Zm8.35-.44a7.5,7.5,0,0,1-7.37-6.19l4.77,0h0a1.2,1.2,0,0,0,0-2.4l-4.82,0a7.46,7.46,0,0,1,3.08-5L41.92,43.61a7.5,7.5,0,0,1-6.1,3.15ZM43,41.32l-9.23-9.23a7.28,7.28,0,0,1,1.48-.26H36l.17,0a7.49,7.49,0,0,1,7.12,7.47,7.24,7.24,0,0,1-.29,2Z"/><path class="cls-1" d="M35.55,23.91a1.2,1.2,0,0,0-1.2,1.2v0a1.2,1.2,0,1,0,2.39,0v0a1.19,1.19,0,0,0-1.19-1.2Z"/></g></g></svg>