<svg xmlns="http://www.w3.org/2000/svg" viewBox="0 0 19.5 18.6"><defs><style>.cls-1{fill:#4c4948;}</style></defs><g id="圖層_2" data-name="圖層 2"><g id="黑色"><path class="cls-1" d="M9.76,0a10.83,10.83,0,0,1,6.51,2,7.41,7.41,0,0,1,3,4.32,6.4,6.4,0,0,1-1.12,5.4,13.92,13.92,0,0,1-2.44,2.53,34.31,34.31,0,0,1-4.64,3.31c-.49.29-1,.56-1.5.84l-.2.09a.45.45,0,0,1-.56-.05.47.47,0,0,1,0-.53,5,5,0,0,0,.36-1.67c0-.38-.15-.53-.53-.57A10.55,10.55,0,0,1,2.78,13.4,7.24,7.24,0,0,1,.22,9.51,6.45,6.45,0,0,1,1.42,3.8,9.63,9.63,0,0,1,7,.32,11.94,11.94,0,0,1,9.76,0ZM9.58,7.38a1.27,1.27,0,0,1,.14.16L11.52,10a.53.53,0,0,0,.59.24.52.52,0,0,0,.36-.54V5.93a.51.51,0,1,0-1,0V8.25l-.15-.18c-.58-.78-1.16-1.56-1.73-2.35-.21-.29-.43-.38-.67-.3s-.34.28-.34.63v1.6c0,.67,0,1.34,0,2a.54.54,0,0,0,.5.58c.32,0,.52-.2.52-.56C9.59,8.93,9.58,8.19,9.58,7.38Zm4.6-1h.5c.31,0,.62,0,.92,0a.49.49,0,0,0,.48-.49.47.47,0,0,0-.44-.51c-.69,0-1.38,0-2.07,0a.43.43,0,0,0-.41.46c0,1.29,0,2.58,0,3.88a.47.47,0,0,0,.49.48H15.6a.49.49,0,0,0,.48-.5.51.51,0,0,0-.56-.51H14.18v-.9c.45,0,.89,0,1.33,0A.77.77,0,0,0,16,8.09a.39.39,0,0,0,0-.5.46.46,0,0,0-.46-.28H14.18ZM4.44,9.22V8.9c0-1,0-2,0-2.95a.5.5,0,1,0-1,0c0,1.26,0,2.52,0,3.78a.5.5,0,0,0,.56.53H5.81a.64.64,0,0,0,.24,0,.51.51,0,0,0,.31-.55.54.54,0,0,0-.52-.42Zm3.4-1.4h0V6c0-.34-.19-.54-.48-.55A.49.49,0,0,0,6.84,6c0,1.23,0,2.46,0,3.7a.52.52,0,0,0,.51.58c.31,0,.49-.22.5-.59Z"/></g></g></svg>