<svg xmlns="http://www.w3.org/2000/svg" viewBox="0 0 292.34 75.23"><defs><style>.cls-1{fill:#231815;}</style></defs><g id="圖層_2" data-name="圖層 2"><g id="黑色"><path class="cls-1" d="M1.78,12.84H12.19V7.05S12,5,11.19,4.69a4.42,4.42,0,0,1,3.22.25,16.36,16.36,0,0,1,3.27,1.91,2.4,2.4,0,0,1,1,2.06V20.28s-.61,2.42-1.36,2.87a5.47,5.47,0,0,1-2.57,1,4.52,4.52,0,0,1-2.55-1.84l0-4.32s-.16-.41-1.78-.18c-2.25.31-5.48,1.26-6.94.75a2.63,2.63,0,0,1-1.76-1.51Z"/><path class="cls-1" d="M31.67,10.93s6.73-.48,7.63-.38a2,2,0,0,0,1.22-.38c.4-.61,1.15-1.19.85-1.74a3.94,3.94,0,0,1,3.48,2.19c.4.91,1.17,3.16.36,4.17s-1.55,1.79-4,1.33a11,11,0,0,0-3.08-.42l-6.5.26V23.1a2.23,2.23,0,0,1-1.61,1.41c-1.21.2-2.57-1.16-3.43-2.16a5,5,0,0,1-1.05-2.07V2.77S26,2.22,25,1.36c1-.6,3.58,0,4.58.56a7.21,7.21,0,0,1,2.52,1.71c.55.75-.35,2-.35,2Z"/><path class="cls-1" d="M44.94,52.31a36.94,36.94,0,0,0-2.64-2.6s-1.46,1-2.22,1.71a8.89,8.89,0,0,1-2.22,1.26l-11.13.37V46.21h4.39c.57,1.32,1.64,1.63,3.08,1.2s1.38-.88,2.32-3.27A9.69,9.69,0,0,0,37.28,40l.14-9.27a2.07,2.07,0,0,0,.17-1.28c-.13-.75-1-1.19-2.07-1.57s-2.25-.36-4.45,0a2.14,2.14,0,0,1,.18,1.55l-17.64.25a4.17,4.17,0,0,0-3.9-1.12,10,10,0,0,1,.36,2.63V43.83a1.65,1.65,0,0,0,1.31,1.57c.61.14,2.07,1.83,2.59,1.83s1-.89,1-.89h5.51v6.81H2.72A3.81,3.81,0,0,1,1.48,53,3.1,3.1,0,0,0,0,53.12,3,3,0,0,0,.52,54c.47.63.26,3.58,1.08,4.21s2.53.2,2.53.2h16.6l-.19,14.77c.31.88,3.7,2.32,4.58,2s1.53-2.5,1.53-2.5V58.48l15.81-.19s.95.17,2,.29,1.46-.6,2.24-2.17C47.53,54.66,45.79,53.4,44.94,52.31ZM14.68,43.65V32.21a1.6,1.6,0,0,0,0-.47H31.21a12.64,12.64,0,0,1-.05,2.36c-.21,1.62,0,9.55,0,9.55Z"/><path class="cls-1" d="M16.75,34.94H26a3,3,0,0,0,1.41-.33,1.1,1.1,0,0,1,1.56.33c.38.61.85,4.28.43,5A1.76,1.76,0,0,1,28,41a1.11,1.11,0,0,1-1.18-.66H16.75Z"/><path class="cls-1" d="M131.15,19.47h6.17c.85,0,1.39.53,3.86,1a3.51,3.51,0,0,0,4-1.6c.8-1-.5-3.51-.91-4.42A3.92,3.92,0,0,0,141,12c.3.55-.61,1.45-1,2.05l-.9-.05c-.11,0-.1-.11-7.92.5h-14.9a10.61,10.61,0,0,0-2.86,0c-.35.25,0,1.81,0,2.36a7.52,7.52,0,0,0,1.76,3.3c.45.16.9.63,1.4.52a5.09,5.09,0,0,0,1.4-.87Z"/><path class="cls-1" d="M168.35,28.41l10.49-.28a10.25,10.25,0,0,1,3.37.09A3.55,3.55,0,0,0,186,27c.75-.8-.22-2.09-.59-2.8a3.64,3.64,0,0,0-3.11-2c.28.43-.05,1.31-.42,1.79a6.09,6.09,0,0,0-1.37-.2c-.85,0-11.39.58-11.39.58s-1.72.42-1.72.74-1,3.05-.32,3.5S167.88,28.68,168.35,28.41Z"/><path class="cls-1" d="M235.09,42.1s6.12-.09,6.92-.05a5.19,5.19,0,0,0,1.48-.13c.35-.56.91-.76.64-1.28a2.93,2.93,0,0,1,2.79,1.88c.36.85,1.35,3.25.64,4.19s-.93,1.58-3.07,1.32a28.53,28.53,0,0,0-4-.23H235l-4.75.23a1.6,1.6,0,0,1-1.64.09c-1.06-.43-1.77-5.19-1.55-6.13s1.37,0,1.37,0a2.45,2.45,0,0,1,1.11.15A31.19,31.19,0,0,0,235.09,42.1Z"/><path class="cls-1" d="M133.1,55.21l14.81,0a20.57,20.57,0,0,1,2.55.06,2.41,2.41,0,0,0,2.83-1.66c.83-2.11-1.66-4.44-2.23-5.25a4,4,0,0,0-2.13-1.13,3.17,3.17,0,0,1-1.3,1.2,17.27,17.27,0,0,1-1.66.87l-12.78.44-6.22.09H109.18a4,4,0,0,1-1.24-.16,3.08,3.08,0,0,0-1.48.14,2.75,2.75,0,0,0,.51.87c.48.63.27,3.58,1.09,4.21s2.53.2,2.53.2h16.6Z"/><path class="cls-1" d="M272.73,29.57l13.71.05s.91.16,1.87.29,1.46-.63,2.07-2.26c.8-2.11-1.21-4.07-1.75-4.89a3.89,3.89,0,0,0-2.05-1.13s-.69.79-1.52,1.63a4.86,4.86,0,0,1-2.38.88h-9.87l-5.95.1H248.35a3.51,3.51,0,0,1-1.19-.17,2.86,2.86,0,0,0-1.42.14,3,3,0,0,0,.5.87c.45.64.26,3.59,1,4.22s2.42.2,2.42.2h17.37Z"/><path class="cls-1" d="M136.18,52.72V47.3s-.14-1.93-.94-2.21a4.17,4.17,0,0,1,3,.24,15.29,15.29,0,0,1,3.06,1.78,2.25,2.25,0,0,1,.95,1.94V59.69s0,14.61-.72,15a5.8,5.8,0,0,1-2.79.43c-.7-.05-2.77-.8-2.82-1.23l.32-16.38Z"/><path class="cls-1" d="M234.37,30.37l-.05-7.07s-.16-2.52-.91-2.89a4.14,4.14,0,0,1,3.38.29c.84.54,2,.16,3,1.26a3.54,3.54,0,0,1,.91,2.51l-.54,14.94s-.51,3-1.17,3.52-1.59,1.3-2.25,1.25A4.36,4.36,0,0,1,234.48,42V36.67Z"/><path class="cls-1" d="M77.44,34.53s6.43-.52,7.26-.47.47,0,.47,0c.37-.57,1.55-1.42,1.27-1.93a3.59,3.59,0,0,1,3,2.35c.37.85,1.56,3.2.83,4.14a3.15,3.15,0,0,1-3.67,1.51c-2.27-.44-2.76-.94-3.54-.94H77.44"/><path class="cls-1" d="M80.15,55.42l14,0s.93.17,1.91.29,1.12-1.25,1.75-2.88C98.6,50.77,96.54,48.8,96,48a3.86,3.86,0,0,0-2.08-1.13,2,2,0,0,1-.62,1.62,3.56,3.56,0,0,1-1.58.89H79.86l-6.06.09H56.44a3.52,3.52,0,0,1-1.21-.16,2.94,2.94,0,0,0-1.44.14,2.79,2.79,0,0,0,.5.87c.46.64.63,4.21,1.43,4.84s2.47.2,2.47.2H74.38Z"/><path class="cls-1" d="M71.51,32.09V24.62s-.14-1.93-.92-2.21a4,4,0,0,1,2.94.23c.87.43,2.39.46,3.45,1.31a2.29,2.29,0,0,1,.92,1.93l-.46,21.5s-.56,2.26-1.25,2.68a4.93,4.93,0,0,1-2.34.94,4.12,4.12,0,0,1-2.32-1.72l0-12.36Z"/><path class="cls-1" d="M271.26,19.36h4.2c.54,1.31,1.57,1.63,3,1.19s1.32-.88,2.22-3.27a10,10,0,0,0,.72-4.14l.13-10a2.15,2.15,0,0,0,.17-1.28c-.12-.75-1-1.19-2-1.57s-2.15-.35-4.25,0a2.19,2.19,0,0,1,.16,1.55l-16.87.25A3.88,3.88,0,0,0,255,1a10.16,10.16,0,0,1,.34,2.63V17a1.63,1.63,0,0,0,1.26,1.57c.59.14,2,1.84,2.48,1.84s1-.9,1-.9h5.27Zm4.28-2.56H259.73V4.6a1.6,1.6,0,0,0,0-.47h15.82a21.59,21.59,0,0,1-.06,3.11C275.3,8.86,275.54,16.8,275.54,16.8Z"/><path class="cls-1" d="M261.71,8.08h8.83a2.79,2.79,0,0,0,1.35-.32,1,1,0,0,1,1.49.32c.36.61.81,4.28.4,5a1.71,1.71,0,0,1-1.3,1,1.08,1.08,0,0,1-1.13-.66h-9.64Z"/><path class="cls-1" d="M124.58,1.6a9.24,9.24,0,0,0,1.19,1.27c.93.83.63,1.09.63,1.09S126,11.44,125,14.21s-1.53,6.23-5.13,11.12a111.19,111.19,0,0,1-10.37,11.85c1.86,3.22,11.7-5.62,15.15-10.64,2.13-3.09,6.19-9,7.2-16.54.36-2.64.92-2.9.92-2.9a1.63,1.63,0,0,0,1.13-1.5c.17-1.29-2.1-2.75-3.93-3.29S127.63,1,124.58,1.6Z"/><path class="cls-1" d="M203.7,28.56a9.26,9.26,0,0,0,1,1.4c.76.92.43,1.14.43,1.14s-1.79,6.65-3.13,9.16-2.38,5.75-6.55,9.89a109.18,109.18,0,0,1-11.37,10.28c1.3,3.36,12-3.65,16.08-8,2.49-2.65,7.25-7.7,9.33-14.78.72-2.48,1.31-2.65,1.31-2.65a1.56,1.56,0,0,0,1.29-1.27c.36-1.21-1.6-2.94-3.27-3.73S206.72,28.41,203.7,28.56Z"/><path class="cls-1" d="M276.07,49.1a14.1,14.1,0,0,0-1.33,2.71c-2.86,6.56-3.9,7.56-6.4,10.25-4.06,4.38-10.56,9-11.8,5.56,3.69-2.73,7.24-8.83,8.51-10.36a17.09,17.09,0,0,0,2.84-4.33,41.08,41.08,0,0,0,2.5-6.77,8.25,8.25,0,0,0,.64-2.28,3.76,3.76,0,0,0-.08-1.44c3-.11,2.41,1.13,4.14,2a12.87,12.87,0,0,1,1.84,2A10.3,10.3,0,0,1,276.07,49.1Z"/><path class="cls-1" d="M192.48,17.82c.58-2.87,1.28-5.19,1.28-5.19a1.78,1.78,0,0,0-.95-1.76c-1.55-.8-1.94-4.12-1.94-4.12,3-.8,4.75,0,6.72.48s4.3,2.9,4.2,4.2-1.68,2.33-1.68,2.33a28.06,28.06,0,0,1-2.59,5.71s-3.14,7.47-7.53,6.15C190.72,23.33,192.18,19.29,192.48,17.82Z"/><path class="cls-1" d="M129.71,24.07a1.51,1.51,0,0,1,1.79-.57,33.57,33.57,0,0,1,7.34,3.18c1.22,1,4.89,3.58,6.24,3.83a23.73,23.73,0,0,0,4.39.4c.45,1.55-1.75,2.29-2.65,3.43s-3.17,1.95-3.79,2.89-1.63-.29-2.28-1.14-3.18-3-4.48-5.59S132.07,27.57,129.71,24.07Z"/><path class="cls-1" d="M192.38,37.17a1.48,1.48,0,0,1,1.74-.56c1.26.32,7.31,7.21,8.5,8.15S223,60,224.29,60.19s3.25,2.29,4.91,2.29c.43,1.51-2.68.75-3.55,1.86s-7,.24-8.16.55C216.44,65.16,204.62,54,204,53.21s-4.52-6-6.89-9.13C195.41,41.87,194.67,40.56,192.38,37.17Z"/><path class="cls-1" d="M125.92,29.43s.54-.39,2,0,3.18.3,3.92,1.18,0,1.37,0,1.37v8.76a21.9,21.9,0,0,1-.65,3,10,10,0,0,1-1.31,2.75,1.91,1.91,0,0,1-2.54-1.21,31.09,31.09,0,0,1-.69-5.27V31.78S125.68,30.32,125.92,29.43Z"/><path class="cls-1" d="M123.48,35.26l9.72-.5s.43-.12.31-.72a2.07,2.07,0,0,1,2,1.22c.25.83.76,2.13.51,3s-1.52,1.12-1.52,1.12H124.16a2,2,0,0,1-1,0c-.39-.17-1.06-3.39-.61-4.19C122.77,34.71,123.48,35.26,123.48,35.26Z"/><path class="cls-1" d="M229.69,31.56,242.77,31s.57-.14.41-.87c1,0,2.35.47,2.68,1.48s1,2.57.68,3.58-2,1.34-2,1.34H230.61a2.9,2.9,0,0,1-1.35,0c-.53-.21-1.41-4.1-.82-5.06C228.74,30.89,229.69,31.56,229.69,31.56Z"/><path class="cls-1" d="M195.37,16.61l17-.79a6,6,0,0,0,1.39-2,5,5,0,0,1,3.37,2.83,5.45,5.45,0,0,1,.14,3.67c-.43,1.3-2.65,1.74-2.65,1.74h-18a3.84,3.84,0,0,1-1.75-.06c-.68-.27-1.84-5.28-1.07-6.51C194.15,14.88,195.37,16.61,195.37,16.61Z"/><path class="cls-1" d="M164.06,38.68l19.75-1.09s.42-.11.3-.71a2.06,2.06,0,0,1,2,1.22c.25.83,1.27,3.31,1,4.14s-1.52,1.12-1.52,1.12l-20.79,0a1.92,1.92,0,0,1-1,0c-.39-.17-1.11-4-.67-4.75C163.35,38.13,164.06,38.68,164.06,38.68Z"/><path class="cls-1" d="M119.73,44.66a21.66,21.66,0,0,1,4,3.22c1.08,1.29.86,2.94.42,3.24s-2.86,6.66-3.56,7.72-2.91,5.93-4.39,7.79-1.18,3.08-3.32,3.91a8.9,8.9,0,0,1-4.6-3.27c2.57-3.45,5.66-7.17,7.17-11s3.53-6.08,3.34-9.2S119.73,44.66,119.73,44.66Z"/><path class="cls-1" d="M262.77,42.44s3.87,2.6,4.33,3.32c.63,1-.9,3-1.45,4.1S259.15,60.25,255.39,61s-4.24-.34-4.24-.34a16.42,16.42,0,0,0,4-4c3-4,6.76-10.38,6.75-11.23C261.87,44.69,262.18,44.29,262.77,42.44Z"/><path class="cls-1" d="M162.29,18.75s5.79,2,6.67,2.29c1.22.38.15,2.05.28,3a19.36,19.36,0,0,1-3,9.26,5.2,5.2,0,0,1-3.67,2.46s.43-1.74.85-4.77c.54-4,.29-9.36-.23-9.92S162.83,20.25,162.29,18.75Z"/><path class="cls-1" d="M169.75,9.44s6-.5,7.74.5,2.15,1,2.4,2.26-1.71,4.62-1.71,4.62V66.38a2.75,2.75,0,0,1-.42,2.19c-.75,1.26-5.79,0-5.79,0V16.49s0-3.54-.62-4.29S169.79,10.82,169.75,9.44Z"/><path class="cls-1" d="M257.14,28.7s3.43.69,4,1.53,1.53,2.74.81,2.83-2.28,5.79-2.8,7.16c-.85,2.26-3.63,9.44-8,11.37-3.56,1.57-2.88,1.76-3.51.82s1-2.41,1.3-2.78,4.93-8.38,5.9-10.45,2.72-7.58,2.3-8.62S256.78,29.62,257.14,28.7Z"/><path class="cls-1" d="M261.79,36h20.48a2.58,2.58,0,0,0,.36-1.78c-.18-1,1.62-.32,1.62-.32s5.28,2.12,6.06,2.1a2.47,2.47,0,0,1,1.87,1.23c.36.57.12,3.14-.73,3.71s-3.84,13.49-6.36,17.66-6,14.48-8,15.35-3.32-1.31-3.92-1.94-2.72-6.11-4.12-6.4-1.1-.88-1.1-.88a27,27,0,0,0,3.06-.63c.48-.22,1-.32,2.52.06,2.88-1.76,6.55-10.68,7.87-15a33.69,33.69,0,0,0,1.3-9.41h-23.4s-.84-3.85.48-3.8S261.79,36,261.79,36Z"/></g></g></svg>