<svg xmlns="http://www.w3.org/2000/svg" viewBox="0 0 137.62 155.88"><defs><style>.cls-1{fill:#edeb3f;}</style></defs><g id="圖層_2" data-name="圖層 2"><g id="黑色"><path class="cls-1" d="M86.61,105.87h0Z"/><path class="cls-1" d="M137.59,91.49a21.78,21.78,0,0,0-2.11-7.56,1.67,1.67,0,0,1-.27-.88c.19-1.11.47-2.21.71-3.3a10.36,10.36,0,0,0-1.55-1.61c-1.16-.79-1.54-1.64-.84-3a1.77,1.77,0,0,0,0-1.58c-1.5-1.47-2.75-3.28-5-3.86a20.72,20.72,0,0,1-2.65-1.07l.85-2c-1.92-1.44-4.24-.8-6.22-1.57-.07-.55-.14-1.06-.21-1.59-6.85,1.67-8.39,3-11.36,8.25-.77,1.36-1.66,1.64-3.12,1a27.69,27.69,0,0,0-6-1.74c-.79-.15-1.21-.47-1.34-1.19-.45-2.45-2.4-3.22-4.41-3.59-1.4-.26-2.69-.86-4.11-1a1.87,1.87,0,0,1-1.24-1,14.7,14.7,0,0,1-.44-2.68l.37-.36c1.73,2.3,4.21,2.92,6.79,3.53a7.93,7.93,0,0,1,3.23-2.82,5.54,5.54,0,0,0,1.45,4.36c.88,1.11,1.35,1.37,2.38.44a17.72,17.72,0,0,0,1.36-1.42c.64-3.64-1.7-5.27-4.15-6.87.15.4.3.79.5,1.29l-2.18.51c.44-1.37-1.31-2.28-.3-3.62,2-.06,3.85.73,6,.45a11.53,11.53,0,0,0,.31-3.49c-.46-2.13-2.68-3.15-3.51-5-.7,0-1.26,0-1.81-.11-2.38-.37-3.32.23-3.87,2.64a29,29,0,0,0-.38,3,14.93,14.93,0,0,0-1.72-1.22,16.26,16.26,0,0,0-2.12-.8c1-2.14,1-2.12-.85-3.64-.24-.2-.29-.63-.52-1.17a13.65,13.65,0,0,1-3.17-.25c-2.14-.63-3.2,1-4.58,1.93-.53.37-.79,1.14-1.16,1.7.36.48.69.94,1.09,1.49l-1.69.74.24,1.6-1-1.15-.12,1.41a32.35,32.35,0,0,0,3.73.78,2.91,2.91,0,0,0,2.18-.51c1-1.13,2-1,3.37-.71-.15,1-.28,2-.41,2.94-1,0-1.71,0-2.44,0a8.81,8.81,0,0,0-3.91.95,2,2,0,0,0-.7.91c-.27.55-.47,1.14-.72,1.75-1.67-.22-3.22-.47-4.78-.61-1.29-.11-2.73-1-3.78.69-.13.2-.94,0-1.43,0a21.35,21.35,0,0,0-8.11.72c-.32.11-.75.83-.78.8-1.15-.86-2.08.16-3.06.39a22.63,22.63,0,0,0-3.49,1.15c-2,.82-3.13,3.13-5.56,3.25-.16,0-.29.32-.46.45a14.3,14.3,0,0,0-3.28,2.88c-.26.37-.81.52-1.23.78-.21.12-.49.2-.61.39a27.57,27.57,0,0,1-2.91,3.65,16.78,16.78,0,0,0-2.94,4.17A22.47,22.47,0,0,1,35,83.92a3.67,3.67,0,0,0-.77,2.16c0,1-.74,1.91-1.22,3-.55-1.09-1.25-1.8-.7-3,.22-.45-.5-1.28-.48-1.92s.85-1.32-.3-1.75c.92-1.56-.14-3.17.13-4.75,0-.14-.06-.32,0-.43a8.84,8.84,0,0,0,.51-3.64c.1-1.88.2-3.76.42-5.63.19-1.66.58-3.29.83-4.94.08-.55-.2-1.21,0-1.68a16.41,16.41,0,0,1,2-3.78c.71-.9-.55-.39-.25-1l1.21-.81c.44-.53-.74-1.42.41-1.83.2-.07.35-.49.38-.76a12.85,12.85,0,0,1,2.16-6c.93-1.47,2.24-2.57,3.18-4,1.47-2.16,3.77-3.24,5.62-4.87.73-.63,1.9-.76,3.15-1.22a19.23,19.23,0,0,0-.53,3.21,14.09,14.09,0,0,0,.59,2.78l2.33-1.6,2.48,2.59c1.85-.67,3.17-1.69,5-1a54.58,54.58,0,0,0,6.51,1.92,3.22,3.22,0,0,0,2.47-.29,15.08,15.08,0,0,0,4.1-4.76,7.12,7.12,0,0,0-.54-7.49c-.32-.39-.79-.71-1-1.15s.11-.76.17-1.09c-.56-.11-1.57-.17-1.59-.35-.15-1.22-1.22-1.08-1.92-1.47-1.32-.73-2.65-1.43-3.78-2-.63.18-1.14.52-1.49.39-1.43-.51-2.24.25-3,1.26a37,37,0,0,1-2.5,3.63c-1.44,1.62-1.35,3.3-.65,5.13.43,1.15.87,2.29,1.3,3.43-2,.53-1.41-1.62-2.43-2.06a.68.68,0,0,1-.25-.64c.7-1.18-.51-2-.53-3,0-.29-.31-.6-.29-.88.12-2,1.21-3.63,2.05-5.35a.9.9,0,0,1,.7-.38c1.52.08,1.74-1.12,2.35-2.06-2-.71-2-.68-3.59.06a2.53,2.53,0,0,1-1.17.07c-.56,0-1.12-.11-1.53-.15-.56,1.23-1,2.26-1.57,3.48l-2.9-2c-.21.17-.53.38-.51.44.74,1.92,1.52,3.82,2.32,5.81a9.38,9.38,0,0,0-2.86,1.07c-2.73,2.22-6.45,3.09-8.43,6.28-2.29,1-2.33,3.7-4,5.13-.16.14-.07.55-.16.81A5.51,5.51,0,0,1,36,48c-1,1.67-2.1,3.27-2.17,5.34a5.17,5.17,0,0,1-.56,2.26,16.63,16.63,0,0,0-1.15,3.26c-.54,1.73-.71,3.53-1.58,5.23s-1.92,3.79-1,6c.1.23-.05.56-.06.84,0,.59-.06,1.18-.09,1.91l-1.45.75c0-.84-.77-.7-.92-.93-1.15-1.76-2.18-3.61-3.2-5.46a1,1,0,0,1,0-.82c.78-1.52-.47-3.33.69-4.81.08-.1-.19-.49-.31-.73s-.43-.6-.39-.65c1.1-1.09-.31-2-.15-3.15,1.75.11.46-1.51.83-1.72,1.45-.81-.35-1.5.15-2.33l1.07-.33a22.66,22.66,0,0,0,.72-3.09c.21-2.29,2-3.75,2.78-5.79a66.42,66.42,0,0,1,3.61-7.08l1.88-.11a4.55,4.55,0,0,0,4.11-2.39c.54-1.15,1.5-2,1.61-3.55.13-1.76,1.14-3.43,1.59-5.18a9.26,9.26,0,0,0,.18-3c-.12-1.39-.94-2.66-.64-4.18.07-.38-.7-1-1.17-1.39a5.17,5.17,0,0,0-1.38-.6c1.36-.86.42-1.73.47-2.56.12-2.42.15-2.42-2-1.53-.46.2-.88.47-1.27.68-.3-.49-.64-1.08-1-1.65-.62-.94-1.31-1.84-1.9-2.8a31.81,31.81,0,0,0-1.81-3.05c-1-1.23-1.51-1.14-3.13-.12-.32.21-1,.34-1.19.17A4.86,4.86,0,0,0,23.8,3.83C22,1.83,19.44,2.08,17,1.68c.07.66.12,1.16.2,1.9-3.48-1.25-7-1.46-9.94-3.58-2,3.62-1.87,7.57-3.29,11.08-1.14-.18.15-2.45-1.74-2,0,3.32.11,6.65.1,10a9.45,9.45,0,0,0,1.4,5,4.46,4.46,0,0,1,.35,1.37l-4-1c.35,2.25,2.1,3.39,3.65,4.93-1.14,1.25-.28,2.16.73,3,1.38,1.13,2.79,2.22,4.36,3.46-.72.32-1.27.55-2.07.89,2,2.92,5.25,3.45,8,4.71.23.11.75-.37,1.14-.58.19.36.31,1,.59,1.06a18,18,0,0,0,4.43.92A34.76,34.76,0,0,0,26.07,42c-.72,2.14-1.37,4-2,5.82-.22.68-.19,1.45-.44,2.12-.49,1.29-.53,2.67-1,4a48.72,48.72,0,0,0-1.24,7,1.7,1.7,0,0,0,.05.44c.12,1,.32,2.1.36,3.16a13.84,13.84,0,0,0,2,7,3.12,3.12,0,0,1,.66,1.36c.05,1.89,1.49,2.54,2.78,3.33a17.6,17.6,0,0,0,1.84.87,9.47,9.47,0,0,1,0,2.38A15.26,15.26,0,0,0,29,83.71c0,2.11,1.43,4.2.14,6.37-.21.35.07,1,.14,1.5a23.14,23.14,0,0,1,.31,2.59c0,1.11-.18,2.22-1.38,2.74C24.46,95.79,23,95.65,20,96.22c-1.24.25-2.46.65-3.7.9-4.38.87-7.68,3.48-10.65,6.59a5.11,5.11,0,0,0-.67,1.6c1,.55,2.42.52,2.15,2.12s-.6,3.43-.74,5.15a10,10,0,0,0,.22,3.66c.19.65,1.19,1.05,1.73,1.49.23,1.6.43,3.11.68,4.62.32,1.94.65,3.89,1,5.82.19.92.56,1.65,1.79,1.38s1.73.39,2,1.52a12.87,12.87,0,0,0,.93,3.15c1.31,2.62,2.75,5.17,4.21,7.89a4.24,4.24,0,0,1,1.42-.05,2.13,2.13,0,0,1,1.26.94,36.54,36.54,0,0,0,4.93,8.29c1.15,1.59,2.47,3.05,3.73,4.59,1.6-.74,3-1.32,4.36-2a12.47,12.47,0,0,0,4.71-3.74,3.23,3.23,0,0,1,4.23-.9,2.49,2.49,0,0,0,3.33-.42,19.42,19.42,0,0,0,4.91-7.21,35.85,35.85,0,0,0,.91-3.64c1.8.26,3-.32,3.52-1.82,1.1-3.21,2.63-6.37,1.49-9.91.52-.38.91-.72,1.34-1,1.84-1.12,2.91-4.73,2.17-6.67-.3-.8-1-1.57-1-2.36a10.74,10.74,0,0,0-1.64-4.9,2.78,2.78,0,0,1,0-2.41c1-1.31.54-2.53.15-3.75-.6-1.86-1.41-3.63-3.55-4.11.1-.6.17-1,.24-1.45C54,99,52.75,98.11,51.13,98.24a1.8,1.8,0,0,1-1.21-.37c-1.79-1.51-3.92-1.26-6-1.31s-4,1.09-6,1c-.76,0-1.52,0-2.27,0,.22-1.3.28-2.4,1.55-2.76.09,0,.07-.3.16-.39,1-.93,1.77-2.11,3.24-2.44a11.45,11.45,0,0,0,3.55-1.06,5.49,5.49,0,0,1,3.19-1c.29,0,.79.13.83,0,.7-1.57,2-.37,3-.66A7.09,7.09,0,0,1,53,89.14c1.64,0,3.38-.41,4.89,0,2.3.64,4.74.94,6.81,2.35A10,10,0,0,1,69,97.7c.45,1.87.89,3.87,2.47,4.78a22.13,22.13,0,0,0-.08,3c.33,3.17.78,6.33,1.1,9.5a6.14,6.14,0,0,1-.44,1.87c-1.75-.45-3.11-1.92-4.92-.92-1.42,1.53,0,2.41,1.08,3.43a6.9,6.9,0,0,1-1.14.85c-1.06.49-2.18.86-3.22,1.37-1.89.93-1.91,2.32-.08,3.51,0,.72-.88,1.47-.05,2.19,1,.91,1,2,.76,3.22a5.71,5.71,0,0,0,1.14,4.89,55.65,55.65,0,0,0,3.86,4.13c1,1,2.57.66,3.75,1.39.28.18,1.14-.42,1.65-.79a3.73,3.73,0,0,1,1.88-.54c2.33-.33,3.45-2.1,4.31-4.14A30.58,30.58,0,0,1,83,132c-1.57-1,1.28-2.56-.2-3.75.41-1.06.83-2.11,1.3-3.3l-1.78-2.35a2.94,2.94,0,0,1,2.36-2.32c-1.11-.78-2-1.63-3.38-1.73-1.14-.08-1.45-.69-.69-1.49a5.13,5.13,0,0,0,1.31-3.4,1.82,1.82,0,0,0-2.16.18,12,12,0,0,1-2.5,1.33,5.88,5.88,0,0,1-1.8.14c-.07-1.25-.13-2.27-.2-3.28,0-.34,0-.89-.19-1-.73-.35-.65-.88-.42-1.43a4.14,4.14,0,0,0-.32-3.29c-.17-.43-.86-.79.09-1.14a1,1,0,0,0-.07-.76c-1-1.45-.56-3.33-1.52-4.83-.69-1.08-1-2.4-1.62-3.53a34.13,34.13,0,0,0-2.09-3c-.64.17-1.11-.29-1.71-1.11-.7-1-1.09-2.46-2.58-2.71-1.9-.33-3.83-.51-5.39-1.82a.43.43,0,0,0-.42.05c-1,.82-1.49-.38-2.17-.56a3.52,3.52,0,0,1-1.92.64,12.26,12.26,0,0,0-4.44,0c-2,.49-4.16.58-6.25.9-.39.06-.72.48-1.12.62-2,.68-4,1.37-6,1.94-.38.11-.92-.33-1.33-.49a16.19,16.19,0,0,0,1.13-2.36,11,11,0,0,1,1.64-3.25c.78-.75,1.45-2.08,2.29-2.18,1.45-.18,1.66-1.46,2.6-2a26.24,26.24,0,0,1,6.3-3c1.25-.36,2.74-.47,3.66-1.24a10.2,10.2,0,0,1,5.84-2.3c1.66-.15,3.3-.54,5,0a10.07,10.07,0,0,0,2.59.12,25.65,25.65,0,0,1,4.22.28,19.38,19.38,0,0,1,4.34,1.55c1,.5,2.3.58,3.13,1.19A35.57,35.57,0,0,1,85,83c2.54,3.09,3.77,7,4.94,11.23l-5.67-2.52c.7,2.17,3.23,3,2.9,5.26a41.19,41.19,0,0,0-4,1.92c-1.53.94-1.52,1.19-.94,3.18a2.29,2.29,0,0,1,2.24,2.37,5.72,5.72,0,0,0,.76,1.65l1.4-.2a.52.52,0,0,1-.19-.11.2.2,0,0,1,0-.17c.8-.46,1.63-.87,2.4-1.39s2.2-.71,2.26-2.31c0-.6,1-.82,1.66-.35a2.86,2.86,0,0,1,.85,1,3.77,3.77,0,0,0,2.7,2.26c1.47-1.32,1.48-1.44.58-3-.31-.54-.53-1.13-.79-1.7,1.79-.87,3.67,1,5.36-.78-.17-.66-.13-1.64-.6-2.18a36.34,36.34,0,0,0-3.56-3.2c1.31-1.28,1.09-2.72-.48-4.11-2.28-.37-3,2.32-5.11,2.9a4.82,4.82,0,0,0,.12-1.62c-.49-1.5-1.12-3-1.63-4.45s-2.41-1.83-2.66-3.46c-1.32-.51-1.07-2.54-2.67-2.78-.42-2.44-2.49-3.13-4.28-4.2-1-.6-2.22-1.21-2.24-2.73,4-.87,7.92-1.84,12.11-1.55s8.08.17,12.08,1.8a25.12,25.12,0,0,0-2.87,1.54c-2,1.46-4,3-4.64,5.58a10.75,10.75,0,0,1-.75,2.38c-.47,1-1.41,2.27.26,3.4,1.67-.83,3.35-.32,5.19.51.11,1,.21,2,.35,3.07s.27,2,.45,3,.66,1.6,1.78,1.47a3.69,3.69,0,0,1,.82,0c2.24,2.57,2.92,6,6,7.79a3.1,3.1,0,0,1,4,.44,9.52,9.52,0,0,0,6.15,2.13c.74,0,1.5-.33,2.23-.29a13.94,13.94,0,0,1,2.27.49c3.16.67,6.54-.86,9.54,1.17a6.37,6.37,0,0,0,.73-1.06A32,32,0,0,0,136.3,96c.06-1-.22-2.2,1.07-2.9C137.66,93,137.64,92,137.59,91.49ZM63.2,42.55c-.53,0-1-.3-1-.66s.43-.67,1-.67,1,.3,1,.67S63.72,42.55,63.2,42.55Zm8.33-5a.87.87,0,1,1-.86.87A.87.87,0,0,1,71.53,37.51Zm-1.65-7.85c.53.21.89.57.8.81s-.6.25-1.14,0-.9-.57-.81-.81S69.34,29.45,69.88,29.66Zm-.68,4c.53,0,1,.3,1,.67s-.43.66-1,.66-1-.3-1-.66S68.68,33.64,69.2,33.64Zm-.73,8.93c.81-.2,1.54,0,1.64.37s-.46.91-1.26,1.11-1.53,0-1.64-.37S67.67,42.77,68.47,42.57Zm-1.66-3.33a.61.61,0,0,1,.61.62.61.61,0,0,1-.61.61.61.61,0,0,1-.62-.61A.62.62,0,0,1,66.81,39.24Zm-2.12-9.16c.83,0,1.5.35,1.5.77s-.67.76-1.5.76-1.49-.34-1.49-.76S63.87,30.08,64.69,30.08Zm-2.54,5.4c.58,0,1.05.2,1.05.45s-.47.46-1.05.46-1-.2-1-.46S61.57,35.48,62.15,35.48ZM29.93,17.69q.21,3.47.17,7c0,.85-.66,1.22-1.51,1.05,0-2.92-.07-5.78-.1-8.62C29.29,16.6,29.89,16.87,29.93,17.69Zm-1.2,23.22L29.36,42l-.25.21a2,2,0,0,1-.48-.44,3.3,3.3,0,0,1-.18-.72Zm-16-18.75c2-.89,3.47,0,4.94.17s3-.57,4.59.89a5.16,5.16,0,0,1-1.57.37C18.19,23.26,15.52,23.73,12.74,22.16Zm3.4,7.33c1.22-.87,2.25.11,3.31.18s2.29.1,3.95.15A6,6,0,0,1,16.14,29.49Zm0-16.74c.86-.69,1.48-.6,2,.26,2.5,4,5,7.88,7.49,11.85a19.77,19.77,0,0,1,1.78,3.49c.36.94-.08,1.54-1.19,1.38C23.94,23.44,19.46,18.49,16.15,12.75ZM39.8,123.07A2.37,2.37,0,0,1,41,123a4.36,4.36,0,0,1,1.36.29c.78.77.6,1.75,1.43,2.46s1.64,1.18,2.46,1.76c-.05.21,3,3.46,3,3.67-.58-.07-4.47-3-4.87-3.29-1.55-1.19-3-2.51-4.46-3.83A1.14,1.14,0,0,1,39.8,123.07Zm-24-1.43a11.3,11.3,0,0,1,1.67-.76c2.13-.55,4.27-1.06,6.4-1.58,1.32-.32,1.79-2,2.69-3,.55-.63,1.79-.32,3,.16a7.53,7.53,0,0,1-4.3,3.62C22,121.31,17.47,122.19,15.76,121.64Zm2,11.79c.37-.66,3.12-1.6,3.27-1.68,2.14-1,5.49-3.72,7.65-4.72.13-.06,1.88.86,2.37,1C28.9,130.33,21,133,17.75,133.43Zm19-15.86a13.16,13.16,0,0,1-.14,7.56c-1.57,5.06-1.3,9.75-3.54,14.53-.72,1.54-.42,9.6-2,9.39.19-.4-.18-8.22,0-8.58.51-1,.94-2.82,1.34-3.84,1.59-4.09,1.19-7.77,2.69-11.9a10.72,10.72,0,0,0,0-6.72c-.91-3.24-2-6.45-2.95-9.67-.1-.34-.16-.7-.25-1.11.86-.55,1.36-.32,1.67.27s1.68,1.09,1.87,1.72C36.28,112,36,114.81,36.72,117.57ZM65.3,124.9c2.49-1.35,2.76-1.31,2.78.43Zm2.78,6.23c-.36,0-.61-.49-.57-1s.39-.93.75-.89.62.48.57,1S68.45,131.16,68.08,131.13Zm1.17,2.77a.6.6,0,0,1,.67-.55.61.61,0,1,1-.67.55Zm1.58,5.76a.87.87,0,0,1-.79-.94.88.88,0,0,1,.94-.78.87.87,0,0,1,.79.94A.88.88,0,0,1,70.83,139.66Zm3.27-8.94c-.25,0-.41-.51-.36-1.08s.3-1,.55-1,.41.51.36,1.08S74.35,130.74,74.1,130.72Zm1,7.08c-.36,0-.62-.48-.57-1s.38-.92.75-.89.62.49.57,1S75.45,137.84,75.08,137.8Zm4.36,0c-.26.52-.65.85-.88.73s-.2-.62.06-1.14.65-.84.88-.73S79.7,137.28,79.44,137.79Zm-.55-3.62c-.42,0-.7-.74-.62-1.56s.48-1.46.89-1.42.7.73.63,1.56S79.31,134.21,78.89,134.17Zm2.79-6.76c.42-.07.86.54,1,1.36s-.1,1.53-.52,1.6-.85-.54-1-1.36S81.27,127.48,81.68,127.41Zm-5.13-2.52,3.5-.69,1.08.8c0,.28,0,.46-.09.55A11.43,11.43,0,0,1,79.7,127a2.14,2.14,0,0,1-3.28-.29c-.49-.52-1-1.07-1.81-2a21.5,21.5,0,0,1-1.77,2.53,5.7,5.7,0,0,1-1.92,1.39c-1.78.72-2.57.14-2.88-2.18,1.58.69,2.41-.65,3.52-1.09.18-.07.28-.33.42-.5C74.06,122.46,74.3,122.45,76.55,124.89ZM88,70c-2.56.29-5.12.46-7.63.92a18.06,18.06,0,0,0-4.73,1.64c-1.33.67-2.58.22-3.83.14A11.94,11.94,0,0,1,69,71.72c-.21-.07-.46-.24-.63-.18-2.31.84-4.72-.53-7,.31-.07,0-.15.06-.21,0-3.7-1.42-6.34,1.32-9.35,2.46-1,.39-2,.83-3,1.2a21.64,21.64,0,0,0-4.69,2.71,9.74,9.74,0,0,1-1.76,1.11,13.37,13.37,0,0,1-2,1c-.26.06-.47.31-.7.47l-.39-.21c.41-1.29.82-2.58,1.27-4l1.8.47c2.52-4,6.41-6.28,10.09-8.92-.07-.4-.32-1.14-.18-1.23.85-.5,1.83-1.25,2.7-1.18A7.47,7.47,0,0,0,59.36,65a6.64,6.64,0,0,1,2.78-.4c2.36-.09,2.7-.24,3.83-1.85,2-.08,3.71-.14,5.46-.23.25,0,.51-.26.74-.22,1.79.33,3.58.65,5.35,1.07,1.08.25,2.11.66,3.1-1,.14,1.78,1.41,2.44,1.5,3.78,0,.36.66.72,1.07,1s1.61,0,1.22,1.19c.58,0,1.3.24,1.7,0s.7-1.06,1.08-1.69C89,67.28,88,68.69,88,70Zm22.83,18c1.08-2.22,2.11-4.36,3.18-6.48a1.66,1.66,0,0,1,2-1.11c-1,2.32-1.9,4.47-3,6.53C112.77,87.56,112.17,88.55,110.87,87.91ZM120.2,91a32,32,0,0,0-1.67,3,38.74,38.74,0,0,1-2.38,3.65c-.26.35-.92.4-1.4.58l-.24-.37c.22-.35.45-.69.66-1,.59-1,1.21-2,1.76-3,.66-1.22,1.27-2.48,1.89-3.72.3-.59.72-1,1.37-.58S120.66,90.42,120.2,91Zm6.41-4.4c-1.8-1.22-3.63-2.38-5.45-3.56q2.93,6.6,5.85,13.2a2,2,0,0,1,.26,1,5.14,5.14,0,0,1-.59,1.2c-.38-.25-1-.43-1.09-.78-1.11-2.77-2-5.62-3.21-8.35-1-2.21-2.21-4.28-3.34-6.4-.17-.32-.43-.59-.61-.91a26.68,26.68,0,0,0-2.08-3.61,23.9,23.9,0,0,0-3.11-2.73c.47-.66,1-.59,1.69-.33a8,8,0,0,1,3.93,4c.7,1.26,1.53,2.46,2.3,3.69a2.86,2.86,0,0,1,3.35.34c1.55,1.2,3.25,2.2,4.93,3.31C128.26,87.59,128,87.54,126.61,86.63Z"/><path class="cls-1" d="M100.63,101c-1.22.92-3.15-.61-3,0a16.09,16.09,0,0,0,.81,2.24s-.91,2.24-2.13,2.44S92,103.77,92,103.77a56.26,56.26,0,0,0-5.49,3.56c-1.12,1-3.26-1.73-3.26-1.73s1.12,1.53,2.24,6,8.7,5.32,9.06,5.39c2,.43,3.25.82,5.39-.74s3-7.6,3.46-9.33-1.53-6.81-1.53-6.81Zm-11.15,8.36c-.07.57-.34,1-.59,1s-.39-.53-.32-1.1.34-1,.59-1S89.56,108.8,89.48,109.38Zm1.53,6c-.41.1-.9-.47-1.1-1.27s0-1.54.38-1.64.9.47,1.1,1.27S91.42,115.3,91,115.41Zm2.81-4.22c-.35.08-.74-.26-.87-.77s.06-1,.41-1.09.75.26.87.77S94.18,111.1,93.82,111.19Zm2.64,5c-.25.06-.56-.34-.7-.9s-.06-1.07.19-1.13.56.35.7.91S96.7,116.14,96.46,116.2Zm.29-8a.86.86,0,1,1,.63-1A.85.85,0,0,1,96.75,108.25Zm1.42,3.3a.62.62,0,0,1-.3-1.2.62.62,0,1,1,.3,1.2Zm1.56,3.33c-.36.09-.75-.25-.88-.77s.06-1,.41-1.08.75.25.87.76S100.08,114.79,99.73,114.88Zm1.45-7.2c-.37.2-1-.23-1.38-1s-.41-1.48,0-1.68,1,.23,1.38,1S101.55,107.48,101.18,107.68Z"/></g></g></svg>