<svg xmlns="http://www.w3.org/2000/svg" viewBox="0 0 27.55 236.34"><defs><style>.cls-1{fill:#221714;}</style></defs><g id="圖層_2" data-name="圖層 2"><g id="黑色"><g id="Group_12" data-name="Group 12"><path id="Path_601" data-name="Path 601" class="cls-1" d="M11.72,20.15H7.89c-.06.24-.13.46-.19.7a13.23,13.23,0,0,1,3.51,2.08,1.51,1.51,0,0,1,.51,1.12,1.35,1.35,0,0,1-1.27,1.39A1.15,1.15,0,0,1,9.52,25a11.36,11.36,0,0,0-2.63-2.2,8.14,8.14,0,0,1-5.56,3.8A1.3,1.3,0,0,1,0,25.29v0a1,1,0,0,1,.75-1C3.84,23.33,5,22,5.35,20.15H1.78a1.15,1.15,0,0,1-.43-2.26,1.55,1.55,0,0,1,.43,0H5.59v-.64a1.29,1.29,0,0,1,.3-.81c-2,.27-3.93.45-4,.45A1.09,1.09,0,0,1,.75,15.83v-.07a1,1,0,0,1,1-1c.55,0,1.24-.09,2-.16l.18-.15c.27-.21.57-.45.84-.69A11.41,11.41,0,0,0,2,11.82a.79.79,0,0,1-.48-.73A1.31,1.31,0,0,1,2.67,9.85c.06,0,.24,0,1.06.45a7.71,7.71,0,0,0,1-1.75A.93.93,0,0,1,5.62,8H6a.9.9,0,0,1-.18-.45A7.92,7.92,0,0,0,5.2,6a1.25,1.25,0,0,1-.12-.54c0-.57.57-.85,1.14-.85a1.21,1.21,0,0,1,1,.37A4.07,4.07,0,0,1,8.1,7.16,1.27,1.27,0,0,1,6.81,8.43H6.62A1,1,0,0,1,6.89,9c0,.63-1.33,2.17-1.54,2.41.33.24.63.52.9.76A19,19,0,0,0,8.49,9.1a.87.87,0,0,1,.82-.46,1.32,1.32,0,0,1,1.32,1.18c0,.76-1.63,2.66-3.65,4.47,1-.09,1.9-.21,2.54-.27a2.32,2.32,0,0,1-.46-.88c0-.54.67-1,1.27-1,1.06,0,2.33,2.57,2.33,3.38a1.35,1.35,0,0,1-1.36,1.24c-.63,0-.79-.36-1-1-.54.12-1.51.24-2.66.43a1.28,1.28,0,0,1,.64,1.17v.09c0,.16-.06.31-.06.46h3.5a1.15,1.15,0,0,1,1.28,1,1.13,1.13,0,0,1-1,1.28.76.76,0,0,1-.3,0ZM4.53,4.29c-.33,0-.53.12-.53.47A12.81,12.81,0,0,1,2.42,8.67a1.32,1.32,0,0,1-1.09.58A1.24,1.24,0,0,1,.06,8.16a1.37,1.37,0,0,1,.24-.7A10.93,10.93,0,0,0,1.75,4,2.19,2.19,0,0,1,3.87,2.06,22.36,22.36,0,0,0,9.28.76,1.17,1.17,0,0,1,9.73.67,1.4,1.4,0,0,1,11.06,2c0,.45-.27.9-1,1.14A27.4,27.4,0,0,1,4.53,4.29ZM10.85,8A11.33,11.33,0,0,0,9.21,5.56a1,1,0,0,1-.3-.66,1.25,1.25,0,0,1,1.27-1.06c1.09,0,3,2.69,3,3.53a1.32,1.32,0,0,1-1.3,1.3A1.12,1.12,0,0,1,10.85,8Zm.93,16.71a1.34,1.34,0,0,1,.34-.85,6.57,6.57,0,0,0,1.11-3.38,1.05,1.05,0,0,1,2.1,0,.61.61,0,0,1,0,.14c0,1.63-.73,5.1-2.39,5.1A1.12,1.12,0,0,1,11.78,24.69Zm4.63-9.43v.5c0,.79.39.94,1.05.94h6.8c1.74.06,2.36,1.06,2.36,2.73,0,1.12-.46,7.73-5.35,7.73a9.38,9.38,0,0,1-3.38-.75,1.18,1.18,0,0,1-.67-1.18c0-.67.36-1.33,1-1.33a1.13,1.13,0,0,1,.51.12,5.2,5.2,0,0,0,2.18.61c2.75,0,3.14-4.36,3.14-4.72,0-.69-.33-1-.88-1h-1.6c-1.42,0-2.81,0-4.56.07h-.15c-1.48,0-2.78-.46-2.81-2.39v-11C14.11,3,16.13,3,17.43,3c.15-.66.3-1.51.36-2a1.08,1.08,0,0,1,1.15-1,1.36,1.36,0,0,1,1.45,1.27h0A8,8,0,0,1,20,3c2.39,0,4.2,0,4.44,2.18,0,.36.06,1.45.06,2.38,0,2.27-.06,4-2.5,4.11-1.18,0-2.12.06-3.12.06H16.41V13h9.87a1,1,0,0,1,1,1,.81.81,0,0,1,0,.16,1,1,0,0,1-.84,1.14h-.16ZM16.86,24a.75.75,0,0,1-.82-.67v-.27a4,4,0,0,0,0-.69,9.87,9.87,0,0,0-.18-1.87V20.3a.72.72,0,0,1,.69-.75h.1a1,1,0,0,1,1,.75A9.71,9.71,0,0,1,18,22.87,1.12,1.12,0,0,1,16.88,24ZM16.41,8.34v1.3h1.42c4.13,0,4.13,0,4.22-.94V8.34Zm5.67-1.93V6c-.09-.93-.21-.93-2.77-.93s-2.81,0-2.84,1v.27Zm-3,16.35a8,8,0,0,0-.78-2.26.64.64,0,0,1-.06-.31.76.76,0,0,1,.81-.66,1,1,0,0,1,.85.45,6.5,6.5,0,0,1,.94,2.39,1.1,1.1,0,0,1-1,1.12A.78.78,0,0,1,19.06,22.76ZM21.75,22a6.74,6.74,0,0,0-.9-1.67.54.54,0,0,1-.15-.39c0-.36.39-.6.81-.6.79,0,1.81,1.63,1.81,2.2a1,1,0,0,1-.9,1,.69.69,0,0,1-.67-.55Z"/><path id="Path_602" data-name="Path 602" class="cls-1" d="M1,57.41V52.12a2.58,2.58,0,0,1,2.43-2.74,1.4,1.4,0,0,1,.29,0H6.42A2.68,2.68,0,0,1,9.14,52c.06,1.67.09,3.48.09,5.29s0,3.66-.09,5.44C9.05,65.39,7,65.66,5,65.66a12.13,12.13,0,0,1-1.48-.06,2.78,2.78,0,0,1-2.47-2.9C1,61,1,59.19,1,57.41Zm5.46.67c0-1.88,0-3.75-.06-5.38,0-.89-.68-.89-1.36-.89s-1.39.09-1.39.94v9.46c0,.72.34.9,1.45.9.88,0,1.27-.21,1.3-1C6.47,60.81,6.47,59.47,6.47,58.08ZM7.53,70.71A1.29,1.29,0,0,1,8,69.8a6.62,6.62,0,0,0,1.67-3.45,1.06,1.06,0,0,1,1.17-.93c.64,0,1.3.36,1.3,1S11.37,71.81,9,71.81A1.3,1.3,0,0,1,7.53,70.71Zm5.86-9.4v.5c0,.79.46.94,1.18.94h8.7c1.88.06,2.6,1.06,2.6,2.78,0,1-.54,7.7-5.86,7.7a11.46,11.46,0,0,1-3.72-.75,1.35,1.35,0,0,1-.55-1.83,1.32,1.32,0,0,1,.91-.68,1.31,1.31,0,0,1,.58.12,6.54,6.54,0,0,0,2.39.61c3.08,0,3.44-4.54,3.44-4.78a.87.87,0,0,0-.79-1,.74.74,0,0,0-.21,0h-2c-1.93,0-4.11,0-6,.07h-.15c-1.64,0-3.06-.46-3.09-2.39s0-3.69,0-5.53V51.69c.06-2.57,2.06-2.63,3.87-2.63.16-.69.29-1.38.39-2.08a1.11,1.11,0,0,1,1.25-1h.05a1.37,1.37,0,0,1,1.5,1.26h0A7.27,7.27,0,0,1,17.44,49c1.15,0,2.3,0,3.23.06a2.35,2.35,0,0,1,2.57,2.12c0,.45.06,2,.06,3.05,0,1.42,0,3.35-2.69,3.44-1.3,0-2.69.06-4.11.06H13.39V59H25.45a1.07,1.07,0,0,1,1.08,1.07v.08a1.07,1.07,0,0,1-1,1.14h-.09Zm.67,8.94c-.55,0-1-.27-1-.84v-.15c0-.26,0-.51,0-.76a12,12,0,0,0-.18-1.9v-.22a.83.83,0,0,1,.9-.76h0a1.22,1.22,0,0,1,1.18.78,10.34,10.34,0,0,1,.43,2.66A1.29,1.29,0,0,1,14.06,70.25Zm6.67-17.73v-.43c-.06-.66-.24-.84-.78-.87-.7,0-1.75-.06-2.81-.06s-2.12,0-2.84.06-.82.27-.85,1v.33Zm-7.31,1.81v1.36h1.75c1.67,0,3.51,0,4.69-.06.63,0,.81-.33.87-.88v-.42Zm4.38,15.2a.84.84,0,0,1-.87-.72A7.79,7.79,0,0,0,16,66.52a.61.61,0,0,1-.09-.31c0-.39.45-.63,1-.63a1.3,1.3,0,0,1,1,.45A5.66,5.66,0,0,1,19,68.45,1.17,1.17,0,0,1,17.8,69.53ZM20.28,68a5.16,5.16,0,0,0-1.09-1.7.61.61,0,0,1-.18-.39c0-.36.48-.6,1-.6,1,0,2.08,1.63,2.08,2.2a1.07,1.07,0,0,1-1,1.06A.87.87,0,0,1,20.28,68Z"/><path id="Path_603" data-name="Path 603" class="cls-1" d="M15.57,114.52v3.66a1.49,1.49,0,0,1-2.94,0v-3.66H2.36a1.2,1.2,0,0,1-1.35-1,.76.76,0,0,1,0-.15A1.32,1.32,0,0,1,2.31,112H12.63v-1.93c-1.23,0-2.53,0-4-.06-2.27-.06-3.51-1.21-3.57-2.9,0-.94-.06-1.72-.06-2.48s0-1.51.06-2.3c.06-1.57,1.18-2.84,3.36-2.9,1.23,0,3-.06,4.92-.06,2.3,0,4.77,0,6.68.06a3,3,0,0,1,3.2,2.69c.06.73.09,1.48.09,2.27s0,1.81-.09,2.69C23.16,108.66,22,110,19.84,110c-1.58,0-3,.06-4.32.06V112H25.91a1.28,1.28,0,0,1,1.3,1.26v0a1.2,1.2,0,0,1-1.16,1.22H15.57ZM19.16,97v.77a1.28,1.28,0,0,1-1.31,1.25h-.11a1.24,1.24,0,0,1-1.38-1.1V97H11.67v.77a1.27,1.27,0,0,1-1.29,1.25h-.13A1.24,1.24,0,0,1,8.89,98V97H2.6a1.25,1.25,0,0,1-1.35-1.14V95.8a1.22,1.22,0,0,1,1.21-1.24.65.65,0,0,1,.14,0H8.89V93.19A1.28,1.28,0,0,1,10.24,92h.07a1.21,1.21,0,0,1,1.35,1,.57.57,0,0,1,0,.13v1.42h4.68V93.19A1.28,1.28,0,0,1,17.72,92h.05a1.24,1.24,0,0,1,1.38,1.06.49.49,0,0,1,0,.12v1.42h6.5A1.24,1.24,0,0,1,27,95.74v.06A1.24,1.24,0,0,1,25.73,97H19.16Zm1.39,5.8c0-.7-.42-1.09-1.3-1.12-1.09,0-2.78-.06-4.5-.06-2.12,0-4.35,0-5.74.06-1,0-1.24.54-1.27,1.15v.69H20.58Zm-12.84,2.9c0,1.69.18,2,1.33,2H19.28c1.21,0,1.3-.78,1.3-2Z"/><path id="Path_604" data-name="Path 604" class="cls-1" d="M2.34,163.71A1.34,1.34,0,0,1,1,162.37a.41.41,0,0,1,0-.11,1.25,1.25,0,0,1,1.17-1.35h9.47V140.46a1.59,1.59,0,0,1,3.17,0v7.73H23a1.33,1.33,0,0,1,1.33,1.31v.08A1.34,1.34,0,0,1,23.1,151H14.82v9.88H25.57a1.3,1.3,0,0,1,1.3,1.28v.11a1.33,1.33,0,0,1-1.24,1.42H2.34Z"/><path id="Path_605" data-name="Path 605" class="cls-1" d="M24.59,189.48l-6-.09a17.19,17.19,0,0,0,7.79,4.08,1.37,1.37,0,0,1,1.17,1.3,1.66,1.66,0,0,1-1.72,1.58c-1.51,0-7.43-2.78-10.66-7H12.48a17.2,17.2,0,0,1-3.78,3.93h3.57v-1.45a1.4,1.4,0,0,1,2.78,0v1.45h3.5a1.12,1.12,0,0,1,1.27,1,1.13,1.13,0,0,1-1,1.27h-3.8v2.72a1.39,1.39,0,0,1-2.78,0h0v-2.72H8.94a1.14,1.14,0,0,1-1.26-1,.37.37,0,0,1,0-.11,1,1,0,0,1,.09-.42c-1.51,1.06-5.19,3-6.16,3A1.52,1.52,0,0,1,0,195.56a1.3,1.3,0,0,1,1.06-1.21,18,18,0,0,0,8-4.95l-6.25.09h0a1.32,1.32,0,0,1-1.44-1.17.57.57,0,0,1,0-.13,1.34,1.34,0,0,1,1.34-1.34h.14l7.85.06a9.67,9.67,0,0,0,.82-2.78A1.36,1.36,0,0,1,13,183c.82,0,1.66.46,1.66,1.27a11.12,11.12,0,0,1-.81,2.63l10.75-.06a1.31,1.31,0,0,1,1.43,1.2,1.33,1.33,0,0,1-1.2,1.43Zm-5.28,13.71v5.68a1.39,1.39,0,0,1-2.78,0h0v-5.71h-6.2c-.81,3.39-2.84,6-7.4,7.19a1.65,1.65,0,0,1-.54.09A1.37,1.37,0,0,1,1,209.06V209a1.15,1.15,0,0,1,.87-1.22c3.36-.76,4.93-2.39,5.62-4.57H2.36a1.27,1.27,0,1,1-.22-2.53H8c0-.55.06-1.12.06-1.7v-1.33a1.26,1.26,0,0,1,1.24-1.27h.12a1.34,1.34,0,0,1,1.42,1.25v.08c0,1,0,2-.09,3h5.8v-3a1.39,1.39,0,0,1,2.78,0h0v3h6.1a1.27,1.27,0,0,1,.23,2.53h-.23Z"/><path id="Path_606" data-name="Path 606" class="cls-1" d="M12.37,235.55a.55.55,0,0,1,.24-.51,3.07,3.07,0,0,0,1.76-2.15c0-.12-.06-.18-.16-.18s-.3.09-.48.12h-.15A1.58,1.58,0,0,1,12,231.25a.66.66,0,0,1,0-.14A2.06,2.06,0,0,1,14,229h.18c1.46,0,2.3,1.18,2.3,2.72,0,2.9-2.2,4.62-3.38,4.62a.73.73,0,0,1-.77-.69A.38.38,0,0,1,12.37,235.55Z"/></g></g></g></svg>