<svg xmlns="http://www.w3.org/2000/svg" viewBox="0 0 28.1 234.9"><defs><style>.cls-1{fill:#221714;}</style></defs><g id="圖層_2" data-name="圖層 2"><g id="黑色"><g id="Group_11" data-name="Group 11"><path id="Path_607" data-name="Path 607" class="cls-1" d="M15.79,6.5V8.37a31.26,31.26,0,0,0,3.62.21c2.15,0,4.32-.18,6.13-.33h.16A1.26,1.26,0,0,1,27,9.46v.09a1.37,1.37,0,0,1-1.38,1.36h0c-1.71.16-3.44.24-5.16.24-6.22,0-9.09-1-11.84-3.23-1.46,2.29-3.9,4.23-5.26,4.23A1.36,1.36,0,0,1,2,10.82v0a1.15,1.15,0,0,1,.81-1.15A7.83,7.83,0,0,0,7.42,4.31,1.38,1.38,0,0,1,8.81,3.19a1.19,1.19,0,0,1,1.27,1.1V4.4a6.79,6.79,0,0,1-.4,1.45,10.7,10.7,0,0,0,3.2,1.82l.22.06V2.31c-2.9,0-5.86,0-8.28.06h0A1.18,1.18,0,0,1,3.53,1.31a.49.49,0,0,1,0-.12A1.22,1.22,0,0,1,4.78,0h.07C10.14,0,18.63,0,23.19.1a2.29,2.29,0,0,1,2.58,2,1.94,1.94,0,0,1,0,.24c0,.66-.58,3.2-2.27,3.2-.76,0-1.48-.42-1.48-1A1,1,0,0,1,22.19,4c.67-1.09.7-1.18.7-1.33s-.16-.33-.61-.33c-1.72,0-4-.06-6.46-.06v2h5.07a1.11,1.11,0,1,1,0,2.22h-.06ZM12.7,19.88c-7.49,0-8.06-.15-8.06-3.44s.66-3.3,8.06-3.3v-.69a1.35,1.35,0,0,1,1.37-1.34h.08a1.36,1.36,0,0,1,1.48,1.25v.77c1.88,0,3.72,0,5.26.07,2.63.09,3.11,1,3.11,3.23,0,2.63-.81,3-2.35,3.26.84.36,4.83,2.42,4.83,4.14a1.44,1.44,0,0,1-1.39,1.47,1.7,1.7,0,0,1-1.21-.66,8.21,8.21,0,0,0-1.36-1.34A135.57,135.57,0,0,1,3.64,25a1.38,1.38,0,0,1-1.5-1.25.45.45,0,0,1,0-.11A1.22,1.22,0,0,1,3.3,22.36h1c2.51,0,5.47-.12,8.4-.27Zm0-4.53c-1.42,0-2.81,0-4,.06-.91,0-1.09.21-1.09,1.09s.21,1.12,1.09,1.12h4Zm2.93,2.33c4.93,0,5.29,0,5.35-.7a2.17,2.17,0,0,0,0-.51A2,2,0,0,0,21,16c-.06-.6-.21-.63-5.35-.63Zm4,3.71a1,1,0,0,1-.63-.87,1.24,1.24,0,0,1,.27-.67H15.63v2c1.49-.12,2.91-.25,4.23-.4Z"/><path id="Path_608" data-name="Path 608" class="cls-1" d="M1,71.41a1.47,1.47,0,0,1,.82-1.21A5.42,5.42,0,0,0,4,67.66a1.25,1.25,0,0,1,1.3-1A1.36,1.36,0,0,1,6.71,67.9c0,1.72-2.45,4.77-4.14,4.77A1.45,1.45,0,0,1,1,71.41ZM2.69,50.17a1.15,1.15,0,0,1-1.25-1.05V49a1.21,1.21,0,0,1,1.15-1.27h9.52V46.57a1.57,1.57,0,0,1,3.14,0v1.15h9.4a1.15,1.15,0,0,1,1.18,1.12v.09a1.17,1.17,0,0,1-1.08,1.24H2.69ZM17.14,63.85c0,1.15-.79,3.42-5,3.42a17.88,17.88,0,0,1-3.5-.4,1.28,1.28,0,0,1-1.2-1.21,1.21,1.21,0,0,1,1.22-1.2H9a17.37,17.37,0,0,0,3.29.45c2.06,0,2.06-1.18,2.06-1.27,0-.63-.76-1.15-2.51-1.45-.58-.09-.85-.45-.85-.81a1.33,1.33,0,0,1,1.47-1.12A8.21,8.21,0,0,1,15,61c.12,0,3.29-1.06,3.29-1.48,0-.06-.09-.09-.3-.09-2.57,0-11.09,0-13.66.12H4.28a1.07,1.07,0,0,1-1.14-1v-.09a1,1,0,0,1,.94-1.06H9.45c3.87,0,8.58,0,10.67.09,1.9.06,2.65.69,2.65,1.39s-.21,1.69-6,3.62a2.7,2.7,0,0,1,.37,1.36Zm-3.3-7.4c-8.34,0-8.64,0-8.64-2.57,0-1.6,0-2.54,2.87-2.6,1.78,0,4.14-.06,6.44-.06,1.87,0,3.71,0,5.16.06,2.54.06,2.63,1.15,2.63,2.42C22.3,56.45,22,56.45,13.84,56.45Zm5.68-2.66c0-.42-.06-.69-1-.69C17,53.1,15.08,53,13.21,53,8,53,8,53,8,53.79s.39.73,1,.73h5.62c4.59,0,4.8,0,4.89-.43A1.59,1.59,0,0,0,19.52,53.79Zm-8.7,18.88a1.28,1.28,0,0,1-1.38-1.15v-.46a6.89,6.89,0,0,0-.39-2.2A1,1,0,0,1,9,68.44c0-.67.69-1,1.39-1,2,0,2,3.53,2,3.74a1.49,1.49,0,0,1-1.49,1.49Zm6.62-.18a1.29,1.29,0,0,1-1.33-1.11,6.75,6.75,0,0,0-1-2.51,1.28,1.28,0,0,1-.18-.61,1.41,1.41,0,0,1,1.51-1.2c1.51,0,2.66,3.12,2.66,3.93a1.58,1.58,0,0,1-1.66,1.5Zm7.34-.15a1.36,1.36,0,0,1-1.27-.81,9.32,9.32,0,0,0-2.51-3,1,1,0,0,1-.42-.76c0-.6.72-1.15,1.51-1.15,1.39,0,4.29,2.84,4.29,4.17A1.58,1.58,0,0,1,24.78,72.34Z"/><path id="Path_609" data-name="Path 609" class="cls-1" d="M25.33,112.24a1.11,1.11,0,0,1,1.06-1.15h.12a1.29,1.29,0,0,1,1.39,1.18v.18c0,3.44-1.21,4.86-4.92,4.86-3.39,0-4.23-1.06-4.23-3.29,0-8.55,0-10.46.06-11.73.06-1.81.3-2.68,3.17-2.68H24.1a1.12,1.12,0,0,1-.05-.31V97.92c0-.78-.49-1.17-1.52-1.2s-3.05-.07-4.74-.07c-4.32,0-4.44.1-4.44,1.27v.82h.24c.67,0,1.39.42,1.39,1.06V100l-.09.45,1.36-.06c1.21,0,2.12.51,2.12,2a3.08,3.08,0,0,1,0,.43c-1,9.67-6.77,14.89-8.4,14.89a1.34,1.34,0,0,1-1.33-1.3,1.44,1.44,0,0,1,.75-1.24A13.09,13.09,0,0,0,14.32,109c-.27-.12-.58-.24-.94-.36a1,1,0,0,1-.72-1A1.5,1.5,0,0,1,14,106.12a4.09,4.09,0,0,1,1.18.39,18.27,18.27,0,0,0,.55-3.44.52.52,0,0,0-.52-.51l-.81.06a21.68,21.68,0,0,1-2.69,5.92,1.39,1.39,0,0,1-1.15.66,1.28,1.28,0,0,1-.66-.18c0,3.72,0,4.78-3.57,4.78a11,11,0,0,1-1.15,0,2.22,2.22,0,0,1-2.11-2.31v0c0-.21,0-1.66.15-5.23-.79,1.45-1.3,1.94-1.93,1.94A1.3,1.3,0,0,1,0,106.87,1.62,1.62,0,0,1,.3,106,23.6,23.6,0,0,0,4.44,96H2.62a1.23,1.23,0,0,1-1.29-1.15v-.12a1.23,1.23,0,0,1,1.19-1.27.17.17,0,0,1,.1,0H9.45a1.27,1.27,0,1,1,0,2.54H7a43.55,43.55,0,0,1-1.16,4.35H7.69a2.15,2.15,0,0,1,2.11,2.06c0,1.26.07,2.74.07,4.23a22.07,22.07,0,0,0,2.44-6.08H12c-1.3,0-1.33-1-1.33-2.32V96.93c0-1.51,1-2.6,3-2.63h3.54v-2a1.43,1.43,0,0,1,2.86,0v2h3.77a2.9,2.9,0,0,1,2.93,2.84v1.06c0,1.33-.12,1.87-.9,2.14.24.39.42.64.42,2.81,0,5.05-.72,7.19-3.11,7.19-1.27,0-1.75-.39-1.75-1.33,0-.66.36-1.3,1.05-1.3a.66.66,0,0,1,.28,0,1,1,0,0,0,.24,0c.63,0,.94-.75.94-4.74v-.69c0-.64-.22-.7-1.27-.7-.7,0-1.48,0-1.48.91,0,2.26-.06,6.67-.06,9.24v1.85c0,.54.24,1.11,1.75,1.11,2.08,0,2.38-.63,2.38-2.35v-.25ZM7.48,107.17c0-1.36,0-2.78-.06-3.9,0-.72-.7-.72-1.12-.72-1,0-1,.18-1,5.4,0,3.3,0,3.3,1,3.3s1-.24,1.06-.85C7.45,109.43,7.48,108.31,7.48,107.17Z"/><path id="Path_610" data-name="Path 610" class="cls-1" d="M7.61,162.5a1.29,1.29,0,0,1-1.33,1.24H6.19a1.33,1.33,0,0,1-1.49-1.13s0-.08,0-.11h0l.12-9.75c-.45.42-2.45,2.11-3.35,2.11a1.38,1.38,0,0,1-.67-2.63,17.6,17.6,0,0,0,7-8c0-.31-.39-.34-.57-.34H6.69c-1.6,0-2.75.12-4.47.15h0a1.26,1.26,0,0,1-1.3-1.22v-.07a1.22,1.22,0,0,1,1.14-1.3h.13l2.5-.06v-3a1.46,1.46,0,0,1,2.92,0v3h.81c1.63,0,2.45.9,2.45,2.11s-1.6,4.11-3.38,6.41v.06h.15a2.08,2.08,0,0,1,1,.3l.54-1a1,1,0,0,1,.91-.54,1.26,1.26,0,0,1,1.3,1.15,4.38,4.38,0,0,1-.91,1.63,2.16,2.16,0,0,1,1,1.6,1.49,1.49,0,0,1-1.32,1.45,1.07,1.07,0,0,1-.91-.55,7,7,0,0,0-1.76-1.62c0,4.59.12,10.18.12,10.18Zm3.08-.06a1.2,1.2,0,0,1-1.31-1.1A1.19,1.19,0,0,1,10.47,160h6.9v-3H13.08a1.2,1.2,0,0,1-.22-2.39h4.51V152c-.76,0-1.48,0-2.24-.06a2.89,2.89,0,0,1-3.1-2.67,2.35,2.35,0,0,1,0-.26c0-1.24-.06-2.6-.06-4s0-2.72.06-3.93a3,3,0,0,1,3.1-2.85h0c1.21-.06,2.39-.06,3.6-.06s2.44,0,3.74.06a3,3,0,0,1,3.19,2.8v.05c.06,1.36.09,2.78.09,4.2,0,1.21,0,2.48-.09,3.69a3.18,3.18,0,0,1-3.18,3c-.84,0-1.63.06-2.41.06v2.69h4.56A1.18,1.18,0,0,1,26,155.8a1.21,1.21,0,0,1-1.08,1.31H20.1v3h6.19a1.2,1.2,0,0,1,1.1,1.31,1.23,1.23,0,0,1-1.1,1.1Zm6.68-22c-2.84,0-2.84,0-2.84,3.44h2.84Zm0,5.65H14.53c0,.78,0,1.6.06,2.39.06,1.2,1.05,1.2,2.78,1.2Zm5.74-2.21v-2.23c0-1.15-.61-1.24-3-1.24v3.48Zm-3,2.21v3.59c2.26,0,3,0,3-1.23v-2.36Z"/><path id="Path_611" data-name="Path 611" class="cls-1" d="M25.78,191.12l-8.5-.1a33,33,0,0,0,9.82,4.82,1.23,1.23,0,0,1,1,1.18,1.75,1.75,0,0,1-1.75,1.63c-.91,0-6.35-2.51-10.46-5.92l.07,3h0a1.45,1.45,0,0,1-2.84,0h0l.06-2.93C9.46,196.09,3.6,199,2.54,199A1.45,1.45,0,0,1,1,197.66a1.36,1.36,0,0,1,1-1.24A31.29,31.29,0,0,0,11.54,191l-8.21.1h0A1.2,1.2,0,0,1,2,190v-.15a1.22,1.22,0,0,1,1.2-1.24h9.92v-2.18c-2,.12-4,.15-5.65.15H6.17a1.33,1.33,0,0,1-1.42-1.23v0a1.18,1.18,0,0,1,1.17-1.19H8.43A73.74,73.74,0,0,0,21.27,183h.37A1.34,1.34,0,0,1,23,184.29v.05a1.1,1.1,0,0,1-.87,1.12c-1.63.3-3.87.57-6.19.75l-.07,2.39h9.92a1.18,1.18,0,0,1,1.2,1.16v.08a1.16,1.16,0,0,1-1,1.28ZM19.61,208.4c-1.48,0-3.08.06-4.68.06-1.81,0-3.63,0-5.26-.09-2.11-.09-3.23-1.18-3.32-2.69-.06-.7-.09-1.48-.09-2.33,0-1.06.06-2.17.12-3.17.06-1.21.94-2.51,3.26-2.57H14c1.91,0,3.9,0,5.74.06A3,3,0,0,1,22.87,200c.07.9.1,1.9.1,2.9a23.41,23.41,0,0,1-.1,2.78,3.12,3.12,0,0,1-3.26,2.69ZM9,203.93v1c.09,1.21.48,1.21,6.19,1.21,1.18,0,2.39,0,3.5-.06,1.46-.06,1.46-.78,1.46-2.2Zm11.18-2c0-1.33,0-2-1.49-2s-3.41-.06-5.16-.06h-3c-1.48.06-1.48.93-1.48,2Z"/><path id="Path_612" data-name="Path 612" class="cls-1" d="M15.46,234.9a3.45,3.45,0,1,1,3.44-3.46v0A3.45,3.45,0,0,1,15.46,234.9Zm0-5.71a2.27,2.27,0,0,0-2.3,2.24v0a2.3,2.3,0,0,0,4.6,0,2.27,2.27,0,0,0-2.27-2.27Z"/></g></g></g></svg>