<svg xmlns="http://www.w3.org/2000/svg" viewBox="0 0 200.52 254.33"><defs><style>.cls-1{fill:#8f9a69;}</style></defs><g id="圖層_2" data-name="圖層 2"><g id="黑色"><path class="cls-1" d="M160.28,129.09c1.84-1.46,2.95-3.62,5-4.87,1.62-1,3.43-1.66,5.06-2.58s3.18-.66,4.73-1.08a5.93,5.93,0,0,1,3.31.14c1.5.5,3.17-.28,4.55.76.11.08.36,0,.54-.06,1.88-.43,2-.39,3,1.13.27.39.5.8.79,1.26a16.8,16.8,0,0,1-4,5.28c-3.35,2.84-7.33,3.48-11.42,4a8.57,8.57,0,0,1-4.49-.29c-.49-.2-1.16.14-1.75.11-.92-.05-2,.11-2.25-1.24C161.4,132.47,161,132.13,160.28,129.09Z"/><path class="cls-1" d="M131.54,49.3a27.56,27.56,0,0,0,.67-4.68c.06-.59.74-1.23,1.28-1.65,2.89-2.2,6-4,9.74-4.2a10,10,0,0,0,4.17-.68,3.87,3.87,0,0,1,3.38.42c1.33,1,3.4,1.11,4,3.13a4.28,4.28,0,0,0,1.3,1.69c1.67,1.5,1.25,3.63,1.39,5.43.15,2-1.05,3.59-3,4.7a17.47,17.47,0,0,0-3.71,3.44c-1.06,1.15-2,2.17-3.86,1.75a6.86,6.86,0,0,0-2.64.35c-1.44.27-2.61-.28-4-.76-2.07-.72-3.61-2.26-5.76-2.85-1.73-.47-2.3-2.53-2.88-4.2A9.21,9.21,0,0,1,131.54,49.3Z"/><path class="cls-1" d="M0,91.35c5.37-2.24,11-4.44,16.66-2.1a12.88,12.88,0,0,1,7,6.13,10.36,10.36,0,0,1,.39,7.44c-.84,3-1.41,6.16-3.84,8.42-2.83,2.63-5.9,4.81-10.13,3.81"/><path class="cls-1" d="M159.59,21.91A51.27,51.27,0,0,1,150.71,30a19.81,19.81,0,0,1-6.16,3.42c-1.17.33-2.06,1.76-3.64,1.53a16.85,16.85,0,0,0-1.74,0c-.16,0-.41-.27-.47-.22-1.91,1.56-3.49-.66-5.37-.37l.33-1.69a3.65,3.65,0,0,0-1-.38c-.93-.06-2.2-.24-2.08-1.17s-.51-2.31.77-3.4c1.62-1.38,2.66-3.42,4.25-4.86A11.51,11.51,0,0,1,139.49,21c1.09-.39,2.41-.28,3.37-.83,1.71-1,3.39-.74,5.17-.55a26.05,26.05,0,0,0,4.05.05C154.64,19.51,157.71,18.67,159.59,21.91Z"/><path class="cls-1" d="M169.17,144.49a2.28,2.28,0,0,0-.92-2.44c-2-1.59-.91-4.36,1.59-4.9a17,17,0,0,1,11.78,2.1c.72.42,1.69-.05,2.39,1a11.09,11.09,0,0,1,1.64,2.54,4.41,4.41,0,0,0,2.28,2.68c1.13.31,1.26.94,1.58,1.68a3.94,3.94,0,0,0,.54,1.13c.53.56,1.33.93,1.7,1.57s.16,1.46.42,2.13c.63,1.63.2,2.65-1.58,2.76a7.85,7.85,0,0,1-3.81-.51c-2.65-1.3-5.54-1.24-8.31-1.87-.31-.07-.8,0-.92-.2-1.56-2.49-5-3.07-6.17-6C171.09,145.5,170,145.12,169.17,144.49Z"/><path class="cls-1" d="M13.24,55.53c1.13.31,1.26.94,1.59,1.68a3.68,3.68,0,0,0,.53,1.13c.53.56,1.33.93,1.7,1.56s.16,1.47.42,2.14c.63,1.63.2,2.65-1.58,2.76a7.81,7.81,0,0,1-3.8-.51"/><path class="cls-1" d="M141.74,163.12c-.25-1.49-1.1-3.41-.75-5.08a41.65,41.65,0,0,1,3-8.07c.41-.94,1.4-1.62,2-2.51,2.49-3.7,8.79-4.28,12.35-2.94a21.82,21.82,0,0,1,9.23,6.92c2.52,3.09,2.17,8.74-.4,11.92a16,16,0,0,1-19.73,4.53c-.9-.42-1.49-1.47-2.29-2.14C144.2,164.94,143.18,164.22,141.74,163.12Z"/><path class="cls-1" d="M29,125c-.18-1.08-.79-2.46-.54-3.67a30.13,30.13,0,0,1,2.18-5.82c.3-.68,1-1.17,1.44-1.81,1.79-2.67,6.34-3.08,8.91-2.12a15.64,15.64,0,0,1,6.65,5c1.82,2.23,1.57,6.31-.28,8.6a11.53,11.53,0,0,1-14.24,3.27c-.65-.3-1.08-1.06-1.65-1.55S30,125.81,29,125Z"/><path class="cls-1" d="M90.18,46.89c.23-2,.43-4.47.83-6.92s2.45-4,4.14-5.52c3-2.69,8.16-2.92,11.64-.78a12.49,12.49,0,0,1,4.87,6,.94.94,0,0,1,.08.63c-1.36,3-.84,6.78-3.52,9.15A14.38,14.38,0,0,1,99.43,53a3.65,3.65,0,0,1-2.06-.47C94.9,51,92,50,90.18,46.89Z"/><path class="cls-1" d="M19.45,83.58c.19-1.66.36-3.71.69-5.74s2-3.33,3.43-4.58a8.5,8.5,0,0,1,9.64-.64,10.26,10.26,0,0,1,4,5,.75.75,0,0,1,.07.52c-1.12,2.48-.69,5.62-2.91,7.59a12,12,0,0,1-7.29,3,3,3,0,0,1-1.7-.39C23.36,87,21,86.17,19.45,83.58Z"/><path class="cls-1" d="M179.4,109.22c3.56-2.29,7.44-1.9,11.44-1a18.56,18.56,0,0,1,6.84,3.37c.9.64,1.89,1.14,2.84,1.69a5.35,5.35,0,0,1-4.18,3,9,9,0,0,1-4.15.35c-1.31-.31-2.78.12-4.17.1a30.22,30.22,0,0,1-3.3-.33c-.2,0-.52-.12-.54-.24-.33-1.63-1.84-1.63-3-2.2a1.91,1.91,0,0,1-.85-.81C179.85,112,178.61,111,179.4,109.22Z"/><path class="cls-1" d="M140.74,139.9a27.72,27.72,0,0,0-2.35,2.94c-.93,1.61-1.71,3.32-2.56,5a10.82,10.82,0,0,1-8.19,6,14.16,14.16,0,0,0-4.16,1.55A6.26,6.26,0,0,1,121,156c-.78.05-1.87-1.51-1.69-2.36s.54-1.91.82-2.87a19.72,19.72,0,0,1,1-3.53A38,38,0,0,1,124,143c1.84-2.69,5.09-2.7,7.71-3.83a11.26,11.26,0,0,1,7-.89C139.78,138.53,140.6,138.94,140.74,139.9Z"/><path class="cls-1" d="M12.27,34.73a39.12,39.12,0,0,1,5,.8c3.2.61,4.52,3.58,6.6,5.53a11.16,11.16,0,0,1,3.6,6c.22,1.18.18,2.09-.65,2.61a28.26,28.26,0,0,0-3.63-1c-1.86-.21-3.73-.23-5.6-.34a10.83,10.83,0,0,1-8.8-5.1"/><path class="cls-1" d="M40.37,133.54a17.2,17.2,0,0,0-1.47,1.6c-.6.9-1.11,1.85-1.67,2.78a6.25,6.25,0,0,1-4.95,3.15,8.15,8.15,0,0,0-2.46.73,3.67,3.67,0,0,1-1.43.27c-.45,0-1-.95-.89-1.43s.39-1.08.59-1.62a11.1,11.1,0,0,1,.74-2,23.21,23.21,0,0,1,1.75-2.36c1.16-1.47,3-1.35,4.59-1.9a6.36,6.36,0,0,1,4-.24C39.87,132.72,40.32,133,40.37,133.54Z"/><path class="cls-1" d="M57.66,27.26c1.11-.53,2.06-1,3-1.42a10,10,0,0,1,10,1.43,4.09,4.09,0,0,1,1.13,2.06c1.21,4.38-.25,9.9-6.49,11.19-.52.1-1.05.19-1.58.24-2.48.25-4.58-.08-6.23-2.42C55,34.85,54.78,32.71,57,29A8.82,8.82,0,0,0,57.66,27.26Z"/><path class="cls-1" d="M113.36,179.67c-2-2-3.5-4.15-5.54-5.54s-1.6-3.5-2.39-5.23a9.66,9.66,0,0,0-1.12-2.59c-.92-1-.65-1.92-.39-2.94.22-.86.53-1.69.69-2.55.29-1.56.81-3.13,2.43-3.54a5.17,5.17,0,0,1,4.76,1.16c3.16,2.94,5.33,6.43,5.3,10.94a45.18,45.18,0,0,1-.06,6.05C116.58,178.74,116.44,178.72,113.36,179.67Z"/><path class="cls-1" d="M110.51,25l1.63-.2c-2.81-3.52-2.16-3.37-1.22-7.78,3.82,1.48,8,2.12,10.68,5.71.54.72,1.73,1,2.11,1.8,1.38,2.77,3.53,5.1,4.35,8.21.48,1.8.73,3.27-1.16,4.65h-3.27c-.38-.41-.81-1.33-1.37-1.42-2-.32-3.51-1.67-5.17-2.62a9.67,9.67,0,0,1-2.27-2.44,9.92,9.92,0,0,1-2.11-2.75A7.1,7.1,0,0,0,110.51,25Z"/><path class="cls-1" d="M146.74,171.86c-1.68,2.67-4.36,3.1-6.93,3.58-1.83.34-3.79.81-5.5-.57-.05-.05-.17,0-.26,0-3.25.16-5.63-2-8.3-3.26a3.87,3.87,0,0,1-1.34-5.72,3.08,3.08,0,0,1,1.74-1.12,29.8,29.8,0,0,1,10.36-.35,1.79,1.79,0,0,1,.78.18,44.21,44.21,0,0,0,7.22,3.92C144.65,169.93,146,170.58,146.74,171.86Z"/><path class="cls-1" d="M97.46,0c2,.12,4,0,5.32,2.15,1,1.66,2.38,3.05,2.6,5.16a12.79,12.79,0,0,0,1.14,4,4.08,4.08,0,0,1-.15,3.36,19.5,19.5,0,0,1-3.65,6.52c-2.36-.93-4.46-1.78-5.26-4.35-.18-.58-.89-1-1.34-1.47l.51-2.68-1.41.11C95.24,8.41,94.39,3.87,97.46,0Z"/><path class="cls-1" d="M135.62,78.82c-.33.52-.6,1.39-1,1.45-.92.14-1.18.7-1.73,1.3a8.81,8.81,0,0,1-5.58,3.26,8,8,0,0,0-3,1c-1.28.73-2.4.29-3.56-.13-.47-.17-.86-.59-1.34-.73a2.92,2.92,0,0,1-2-2.91,3.23,3.23,0,0,1,2.05-2.92,58.28,58.28,0,0,1,6.48-2.34,22.38,22.38,0,0,1,4.55-.64c1.42-.1,2.77.07,3.56,1.6C134.24,78.18,134.93,78.37,135.62,78.82Z"/><path class="cls-1" d="M172.1,19.84,173.82,22a21.34,21.34,0,0,1-5.35,11.52c-.73.83-.67,2.2-2.24,2.5-.93.17-1.06,2.1-2.61,1.64-.27,1.59-1.41,1.24-2.54,1.3-2.74.15-4.24-1.65-3.41-4.24.56-1.74,1-3.53,1.49-5.28.44-1.46.76-3,2.79-3.18.38,0,.75-.43,1.12-.66,1.19-.73,2.41-1.42,3.56-2.2s1.92-1.52,2.93-2.2C170.32,20.72,171.18,20.34,172.1,19.84Z"/><path class="cls-1" d="M133.85,16c.13.55.52,1.21.36,1.69a18.66,18.66,0,0,1-1.75,3.86c-.23.37-1.14.39-1.74.42-.79,0-5-3.21-5.25-4-.5-1.87-.93-3.76-1.46-5.62a9.16,9.16,0,0,0-.79-1.6l3.28-8.42c2.64-.16,4.55.61,5.82,2.78s3.14,4.1,3.22,6.81a10.77,10.77,0,0,1-.43,3.14C135,15.4,134.38,15.6,133.85,16Z"/><path class="cls-1" d="M50.53,140.67c1.15.13,2.32.17,3.44.4,2.92.61,4.09,3,2.57,5.67A13.46,13.46,0,0,1,49,152.69c-1.46-.93-3.41,1.15-4.7-.77-1.7.82-2.81-.5-4-1.22-2.24-1.38-2.35-3.79-.26-5.45A19.85,19.85,0,0,1,50.53,140.67Z"/><path class="cls-1" d="M140.06,93.46l-.84.93c-1.33.88-2.74,1.67-4,2.66-1.66,1.33-2,1.35-3.45-.37-.13-.16-.33-.27-.25-.21a19.23,19.23,0,0,1-.19-3.6,6.58,6.58,0,0,1,1.09-3.3c1.43-1.7,2.26-4.08,4.75-4.71,1.3-1.72,3-1,4.74-.88a9.79,9.79,0,0,1-.53,6.44C141,91.45,140.5,92.45,140.06,93.46Z"/><path class="cls-1" d="M155.75,88.45c1-1.94,1.8-3.66,2.76-5.29.2-.36.49-1.71,1.45-.53a.38.38,0,0,0,.35,0c1.28-2,3.47-2.37,5.5-3a11.26,11.26,0,0,1,5.73-.41c1.22.28,2.41.68,4,1.13-.21.61-.4,1.75-.65,1.77-1.28.09-1.62,1.06-2.13,1.86-2.8,4.42-7.1,6.39-12,7.28A12.69,12.69,0,0,1,157.8,91C156.07,90.92,156.56,89.06,155.75,88.45Z"/><path class="cls-1" d="M12.43,126.56c1.28-2,3.47-2.38,5.5-3a11.26,11.26,0,0,1,5.73-.41c1.22.28,2.41.68,4,1.13-.22.61-.4,1.75-.66,1.77-1.28.08-1.62,1.06-2.12,1.86-2.81,4.42-7.11,6.38-12,7.28"/><path class="cls-1" d="M13.1,68.49a11.16,11.16,0,0,1,5.73-.42c1.22.29,2.41.69,4,1.14-.21.61-.39,1.75-.65,1.77-1.28.08-1.62,1-2.13,1.85-2.8,4.43-7.1,6.39-12,7.29"/><path class="cls-1" d="M77.93,3.57a4.41,4.41,0,0,1,3.55.59,40.83,40.83,0,0,0,6.12,3.7c1.31.57,1.42,1.75,2.21,2.53a24.53,24.53,0,0,1,2.6,3.16,3.26,3.26,0,0,1,.22,1.56c.07,1,.1,2,.14,2.86a4.06,4.06,0,0,1-5.13.85,10.46,10.46,0,0,0-2.43-.46,3.16,3.16,0,0,1-1.2-.44c-.83-.62-1.6-1.31-2.68-2.19l.82-.41c-.09-.17-.12-.37-.23-.45-.68-.5-1.37-1-2.06-1.46,1-1.27-1.34-.8-1-1.9A10.27,10.27,0,0,0,79,9c0-.17.17-.34.14-.49C78.73,6.92,78.35,5.32,77.93,3.57Z"/><path class="cls-1" d="M27.64,29.55a4.31,4.31,0,0,1,3.54.59,40.93,40.93,0,0,0,6.13,3.7c1.31.57,1.42,1.74,2.2,2.53a23.31,23.31,0,0,1,2.61,3.16,3.48,3.48,0,0,1,.22,1.55c.06,1,.09,2,.14,2.87a4.06,4.06,0,0,1-5.13.84,10.46,10.46,0,0,0-2.43-.45,3.21,3.21,0,0,1-1.2-.45c-.83-.61-1.61-1.3-2.68-2.19l.81-.41c-.08-.17-.11-.36-.23-.45-.67-.5-1.37-1-2.06-1.45,1-1.28-1.33-.81-1-1.9a10.32,10.32,0,0,0,.11-2.5c0-.16.17-.34.14-.48C28.44,32.9,28.05,31.29,27.64,29.55Z"/><path class="cls-1" d="M87.66,64.94l-1-2.6c4.92-2.12,10.08-3.66,15.76-3.46A14.35,14.35,0,0,1,107,60c1.54.62,1.68,1.73.33,2.6a30.1,30.1,0,0,1-4.79,2.48,16.57,16.57,0,0,1-3.56.89c-1,.18-2,.74-3,0a1,1,0,0,0-.77-.07C92.25,67,90,65.27,87.66,64.94Z"/><path class="cls-1" d="M154.05,107.08c6.31-3.73,12.43-3.24,18.54.52a10,10,0,0,1-4.32,4.31,13.15,13.15,0,0,1-8.33,2,25.61,25.61,0,0,1-5.36-1.26c-1.16-.37-1.66-2.07-1.24-3.45C153.59,108.39,153.88,107.58,154.05,107.08Z"/><path class="cls-1" d="M38.27,92.29c1.26,7.22-1.36,12.77-7,17.16a10.14,10.14,0,0,1-2.5-5.56,13.18,13.18,0,0,1,1.05-8.51,26.75,26.75,0,0,1,3.07-4.58c.76-.94,2.52-.81,3.67.07C37.2,91.39,37.86,92,38.27,92.29Z"/><path class="cls-1" d="M65.11,21.35c-8,1.09-14.26-2.87-15-9.46,1.78-1.78,4.13-1.23,6.23-1.14a21,21,0,0,1,5.06,1.32,2,2,0,0,1,1,.83c1.24,1.88,2.44,3.79,3.67,5.72Z"/><path class="cls-1" d="M113.39,101.77c.29.43.52,1.15.88,1.22,2.23.46,4.29,1.09,5.11,3.82-.88,1.42-1.13,3.6-2.71,5.38-1.83,2-3.72,2.28-6.13,2.07-1.9-.16-3.58-.76-3.72-2.68-.11-1.48-1-2.15-1.65-3.14.12-2.2,2.11-3.13,3.26-4.61.37-.49,1.41-.46,2.15-.65,1.06-.27,2.41.07,2.89-1.4Z"/><path class="cls-1" d="M95.94,81.79a4.84,4.84,0,0,1-.62,1.93,70.29,70.29,0,0,1-5.1,6.18C89,91.19,88.43,91,87.6,89.42a16.07,16.07,0,0,1-1.82-5.24c-.21-1.44-.9-2.82-.08-4.16a17.81,17.81,0,0,1,5.48-6.13c.73-.46,1.44-.46,1.89.23C94.47,76.3,95.94,78.46,95.94,81.79Z"/><path class="cls-1" d="M156.79,80.8a5.2,5.2,0,0,1-6.89-.4c-2.63-2.46-3.4-5.76-4.38-9-.62-2.06-.63-2.06.46-4.11,1.19.07,2.64-.22,3.7.29a12.91,12.91,0,0,1,6.1,5.81c.75,1.5,1.49,2.91.82,4.73C156.32,78.91,156.71,79.92,156.79,80.8Z"/><path class="cls-1" d="M38.59,62.45a5.2,5.2,0,0,1-6.31,2.8c-3.46-1-5.66-3.57-8-6-1.49-1.54-1.5-1.53-1.47-3.85C23.9,54.92,25.06,54,26.23,54a12.84,12.84,0,0,1,8.09,2.37c1.34,1,2.66,1.91,2.89,3.84C37.3,61,38.11,61.7,38.59,62.45Z"/><path class="cls-1" d="M115.07,96.49h.06c-1.84.58-2.8-1-4-1.83s-1.14-1.91-.72-3.59c.36,0,.9,0,1.15-.2a4.1,4.1,0,0,1,4.79-.66,11.75,11.75,0,0,0,2.07.47,9.21,9.21,0,0,1,5.23,3.56c-.27.79-.68,2.15-1.78,2s-2.18.4-3.26.45A28.72,28.72,0,0,1,115.07,96.49Z"/><path class="cls-1" d="M62,77c.14,3.07.35,5.92.35,8.77a3.19,3.19,0,0,1-1,2.33c-2,1.36-4.09,2.48-6.22,3.73C53.33,89,53.25,86,53.41,83.1c.11-2,4-5.86,6-6.23A13,13,0,0,1,62,77Z"/><path class="cls-1" d="M11.64,157.5c-1.46-7.19,6.84-13.49,11.89-13.37-.49,8.1-4.18,13.41-11.89,13.37"/><path class="cls-1" d="M46.19,34.27A27.22,27.22,0,0,1,45,30.8a8,8,0,0,1,.1-2.53c.4-3.31,2.75-5.1,5.4-6.45,1-.49,2.33-.17,3.45-.22C56.09,29.16,52.3,34.49,46.19,34.27Z"/><path class="cls-1" d="M47.88,50.29a7,7,0,0,1,3.62-5.73,19.39,19.39,0,0,1,2.65-1.86,7.9,7.9,0,0,1,5.38-.05c.42.11,1,1,.95,1.3-.74,2.31-.78,5.17-3.61,6.15C53.47,51.28,50.63,52.59,47.88,50.29Z"/><path class="cls-1" d="M82.79,22.66c-2,2.47-4.57,3.14-7.33,3.22-.65,0-1.53.2-1.5-1,0-.12-.39-.39-.52-.35-1,.37-1.78-.2-2.69-.6C68.67,23,68.48,23,69,20.91a1.33,1.33,0,0,1,.52-.85c2-1,4-2.31,6.36-2A8.61,8.61,0,0,1,82.79,22.66Z"/><path class="cls-1" d="M49.74,63.07a31.78,31.78,0,0,1,3.56-1A4.33,4.33,0,0,1,57,63.64a10.69,10.69,0,0,1,3.71,7.42C55.69,70.57,51.41,69.12,49.74,63.07Z"/><path class="cls-1" d="M159,117.08l-1.82,2.17c-2.44-.93-5.09-.63-7.68-.24a147.49,147.49,0,0,1-16.78,1.26,14.77,14.77,0,0,1-2.18-.4c1.12-2.41,3.21-3.71,4.26-6,1.62-3.47,9.8-7,11.76-10.32a36.62,36.62,0,0,0,4.88-12.5c.34-2.08,1.26-3.91,1.61-5.94,0-.2.26-.38.64-.91l-2,.63c-.11.79-.22,1.54-.32,2.25l-2.83.45c-.15.67-.1,1.45-.46,1.83-2,2.1-4.1,4.12-6.17,6.16-.33.38-.67.75-1,1.12-5.52,6.46-12.37,11.5-18.51,17.29-5.71,5.38-16.55,14.07-23.64,17.16-1.08.48-2.42.37-3.57.73-1.58.51-1.94.4-2.09-1.14a11.89,11.89,0,0,1,0-2.15c.89-9,7.51-22.92,11.42-31a8.92,8.92,0,0,0,1.11-5.48c1.85-.25,2.43-1.61,2.94-3.07s1.06-3,1.66-4.53a39.57,39.57,0,0,0,1.64-3.65c1.47-4.94,1.54-5.47,6.32-5.68,3.41-.15,5.6-1.69,7.79-3.81.71-.69,1.52-1.27,2.24-1.95a24.62,24.62,0,0,0,6.79-9.74c-1.61.43-2.91.47-3.82,1.08a27,27,0,0,0-4.75,4A7.65,7.65,0,0,1,120.44,67c-2,0-2.83-1.15-2-3,1.37-3,2.85-5.82,3.45-9.12.53-3,1.64-5.86,2.46-8.79a10,10,0,0,0,0-2,34.08,34.08,0,0,0-3.2,2.49c-2.81,2.88-5.65,5.71-7.4,9.47s-3.69,7.39-5.73,11c-2.26,4-4.53,8-7.14,11.73C97.86,83.23,92.21,97,90.28,102c-.8,2.07-1.73,4.1-2.6,6.14-.12.28-.38.58-.35.84a5.42,5.42,0,0,1-1.79,4.7,4.76,4.76,0,0,0-1.46,3.05A19,19,0,0,1,83,120.12c-1.53-1.36-1.49-10.41-1.72-11.87a69.41,69.41,0,0,1-.87-8.27c-.26-5.56-.32-10.65-.27-16.21.07-6.64.45-13.28.75-19.92.14-2.86,2.36-7.7,2.93-10.49A72,72,0,0,1,87.66,40c.87-2.08.79-4.41,1.55-6.56a40.42,40.42,0,0,0,1.21-5.14c.15-.68.24-1.38.36-2.06-2.13.9-4.28,1.11-5.63,2.9-1.19,1.58-2.57,3-3.82,4.55-4.85,5.93-5.83,22-7.11,29.62-.23,1.41-.55,2.81-.86,4.34-1-.78-1.88.19-3-.68a4.62,4.62,0,0,1-1.59-2.76c-1-2.77-3.29-12.35-6-14.84-1.85,4.63-2.19,7-1.47,12.32.14,1-.67,1.94.16,3.07s.87,2.52,1.39,3.75a31.2,31.2,0,0,0,2.51,5.32c1,1.55.78,3.88,3,4.61-.18.75,1.93,3.17,2.08,3.68.77,2.68-1,5.13-.57,7.75-1.51,3,.23,14.46-1.29,17.46,0,.05,0,.19.08.25,1.11,1.2.54,2.47.16,3.74a5.89,5.89,0,0,0-.4,1.76c0,2.45.18,4.9.29,7.6a9.47,9.47,0,0,1-2.13-1.3c-2.9-3.3-6-6.48-7.64-10.68-1.27-3.26-4.79-16.32-5.84-19.64a135.52,135.52,0,0,1-3.89-14.37c-.76-3.84-.75-7.83-1.11-11.75-.19-2.13-.4-4.25-.67-6.36,0-.39-.42-.75-.7-1.2a22.9,22.9,0,0,0-1,2.17,40.76,40.76,0,0,0-2,6.25c-1,5.31-1.63,10.67-2.43,16-.93,6.29.19,12.33,2.18,18.27.89,2.68,2.09,5.3,2.56,8a14.65,14.65,0,0,0,1.36,5c1.42,2.55,2.56,5.25,3.9,7.85,3.81,7.37,7.59,14.76,11.55,22,1.06,1.94,1.46,4.1,2.6,6.05.77,1.3.08,3.47,0,5.24-.11,2.12-.3,4.22-.41,6.34-.09,1.59.24,3.3-.25,4.76a10.85,10.85,0,0,0,.25,7.12,5.26,5.26,0,0,1,.25,1.8c-.13,2.75-.3,5.5-.49,8.25-.3,4.36.8,8.71-.13,13.13a13.68,13.68,0,0,0-.14,4.14,12.3,12.3,0,0,1-.16,4.29,3.62,3.62,0,0,0,.08.8,20.66,20.66,0,0,1,0,4.84,41.69,41.69,0,0,0-.87,9.11A2.33,2.33,0,0,0,65,219.17c1,.53-1.12,6.44-.32,7.21,2.65,2.56.67,13.33,0,16.94-1.88,10.65,1.2,7.08,3.39,10.48,1.3,2,10.3-2.5,11.1-.23,1.12,3.17,1.16-10,2.14-6.57.66,0-1.15-3-.27-3.07,2.3-.2-.28-2.65,2-2.74a5.26,5.26,0,0,0,3.21-1.83c.11-.11.28-2.47.61-2.37l5-4c-.08-.2,2.75-2.92,2.82-3.13,1.23-3.67-2.85,3.45,1-1.75.23-4.2.67-5.44-.38-12.29-.65-4.24-1.66-8.46-1.89-12.73-.4-7.43-.31-14.9-.49-22.34,0-1.23-.71-2.48-.61-3.68a32.58,32.58,0,0,0,.13-5c-.24-3.78,0-7.58-.86-11.34-.26-1.13,5.51-9.31,6.5-10.31a33.17,33.17,0,0,1,5.83-4.6c2.08-1.32,3.9-3.17,6.13-4.07,2.43-1,3.71-3.61,6.41-4,2.18-2.92,3.75-6.67,6.41-8.73,3.34,1.38,3.67,1.39,7.41.61a9.81,9.81,0,0,1,1.88-.17c4.09-.09,8.29.22,12-1.57,4.17-2,9.46-3.16,13-6A4.89,4.89,0,0,0,159,117.08Z"/></g></g></svg>