<svg xmlns="http://www.w3.org/2000/svg" viewBox="0 0 205.28 281.16"><defs><style>.cls-1{fill:#edeb3f;}</style></defs><g id="圖層_2" data-name="圖層 2"><g id="黑色"><path class="cls-1" d="M35.38,144.08c-2-1.59-3.24-3.94-5.46-5.31-1.78-1.1-3.77-1.81-5.56-2.81s-3.49-.72-5.2-1.19a6.64,6.64,0,0,0-3.64.17c-1.65.54-3.49-.31-5,.82-.12.09-.4,0-.6-.06-2.07-.47-2.19-.43-3.35,1.23-.3.42-.55.87-.87,1.37a18.26,18.26,0,0,0,4.45,5.77c3.68,3.09,8.06,3.78,12.56,4.37a9.64,9.64,0,0,0,4.94-.32c.54-.21,1.28.15,1.92.11,1,0,2.22.13,2.48-1.35C34.16,147.77,34.64,147.4,35.38,144.08Z"/><path class="cls-1" d="M62.76,55.31a29.51,29.51,0,0,1-.74-5.1c-.07-.64-.81-1.34-1.41-1.8C57.43,46,54.06,44,49.9,43.83a11,11,0,0,1-4.59-.75,4.35,4.35,0,0,0-3.72.46c-1.46,1.11-3.74,1.22-4.4,3.42a4.66,4.66,0,0,1-1.43,1.84c-1.84,1.64-1.38,4-1.53,5.92-.17,2.16,1.15,3.92,3.28,5.13a19.31,19.31,0,0,1,4.08,3.76c1.17,1.24,2.23,2.36,4.24,1.9a7.67,7.67,0,0,1,2.91.38c1.59.29,2.87-.3,4.36-.82,2.27-.79,4-2.47,6.34-3.11,1.9-.52,2.53-2.76,3.17-4.58A10.74,10.74,0,0,0,62.76,55.31Z"/><path class="cls-1" d="M161.07,22.54c.81-2.09,1.49-4.22,2.44-6.22,2.37-5-.09-8.89-2.7-12.79a1.89,1.89,0,0,0-.8-.63c-5.07-2.1-10.34-4.15-15.72-2a12.16,12.16,0,0,0-6.56,5.73,9.62,9.62,0,0,0-.36,7c.79,2.84,1.33,5.77,3.62,7.88,2.67,2.46,5.57,4.5,9.55,3.56C154,24.24,157.52,23.39,161.07,22.54Z"/><path class="cls-1" d="M36.15,27.19A56,56,0,0,0,45.91,36a22,22,0,0,0,6.78,3.73c1.29.36,2.27,1.92,4,1.67a17.4,17.4,0,0,1,1.91,0c.18,0,.45-.29.51-.24,2.11,1.7,3.85-.71,5.92-.4l-.36-1.85a4.09,4.09,0,0,1,1.07-.42c1-.06,2.42-.25,2.29-1.27-.15-1.18.56-2.51-.85-3.7-1.78-1.51-2.93-3.74-4.67-5.31a12.9,12.9,0,0,0-4.27-2c-1.19-.43-2.64-.3-3.7-.9-1.88-1.07-3.73-.81-5.69-.6a28.83,28.83,0,0,1-4.46.05C41.59,24.57,38.21,23.65,36.15,27.19Z"/><path class="cls-1" d="M25.61,160.88a2.48,2.48,0,0,1,1-2.67c2.16-1.73,1-4.74-1.75-5.34a18.87,18.87,0,0,0-12.95,2.29c-.8.46-1.86,0-2.63,1.12a12.12,12.12,0,0,0-1.81,2.78C7.06,160.23,6,161.69,5,162c-1.24.34-1.38,1-1.74,1.84a4.24,4.24,0,0,1-.59,1.23c-.58.61-1.46,1-1.87,1.7s-.17,1.6-.46,2.33c-.7,1.78-.22,2.89,1.74,3a8.66,8.66,0,0,0,4.19-.56c2.92-1.41,6.1-1.35,9.14-2,.34-.08.88,0,1-.22,1.72-2.72,5.45-3.36,6.79-6.54C23.49,162,24.67,161.56,25.61,160.88Z"/><path class="cls-1" d="M205.28,111.09a18.81,18.81,0,0,0-12.95,2.29c-.8.46-1.86,0-2.63,1.12a11.7,11.7,0,0,0-1.81,2.78c-.41,1.16-1.45,2.63-2.51,2.91-1.24.34-1.39,1-1.74,1.84a4,4,0,0,1-.59,1.23c-.58.62-1.46,1-1.87,1.71s-.17,1.6-.46,2.33c-.7,1.78-.22,2.88,1.74,3a8.74,8.74,0,0,0,4.18-.56c2.92-1.42,6.1-1.35,9.14-2,.35-.08.89,0,1-.22,1.72-2.72,5.45-3.35,6.79-6.53"/><path class="cls-1" d="M85,170.66c.18-1,.77-2.36.52-3.51a29.42,29.42,0,0,0-2.1-5.58c-.29-.65-1-1.12-1.39-1.73-1.74-2.56-6.13-3-8.62-2a15.13,15.13,0,0,0-6.43,4.79c-1.76,2.13-1.51,6,.28,8.24A11.2,11.2,0,0,0,81,174c.62-.28,1-1,1.6-1.47S84,171.42,85,170.66Z"/><path class="cls-1" d="M179.87,139.64c.2-1.17.87-2.68.59-4a32.7,32.7,0,0,0-2.39-6.34c-.33-.75-1.11-1.28-1.59-2-2-2.91-7-3.36-9.8-2.31a17.13,17.13,0,0,0-7.32,5.45c-2,2.43-1.72,6.87.31,9.37a12.76,12.76,0,0,0,15.67,3.56c.71-.33,1.18-1.15,1.82-1.68S178.72,140.51,179.87,139.64Z"/><path class="cls-1" d="M112.5,54.44c-.25-2.17-.47-4.88-.91-7.55s-2.7-4.38-4.55-6c-3.32-2.93-9-3.19-12.81-.85a13.58,13.58,0,0,0-5.35,6.55,1,1,0,0,0-.09.69c1.49,3.26.92,7.4,3.87,10a16,16,0,0,0,9.68,3.9,4,4,0,0,0,2.26-.51C107.31,58.92,110.52,57.85,112.5,54.44Z"/><path class="cls-1" d="M190.32,94.44c-.21-1.8-.39-4-.76-6.25s-2.23-3.63-3.77-5a9.41,9.41,0,0,0-10.61-.7,11.15,11.15,0,0,0-4.43,5.42.79.79,0,0,0-.08.57c1.24,2.71.76,6.14,3.2,8.28a13.25,13.25,0,0,0,8,3.23,3.29,3.29,0,0,0,1.87-.43C186,98.16,188.68,97.27,190.32,94.44Z"/><path class="cls-1" d="M38.52,97.07C34.61,94.57,30.34,95,25.94,96a20.71,20.71,0,0,0-7.52,3.68c-1,.7-2.09,1.24-3.12,1.85.89,2.08,2.69,2.85,4.59,3.27a9.91,9.91,0,0,0,4.56.39c1.45-.33,3.06.13,4.6.11a34.31,34.31,0,0,0,3.63-.36c.21,0,.56-.14.59-.26.36-1.79,2-1.78,3.24-2.4a2.13,2.13,0,0,0,.94-.89C38,100.05,39.39,99,38.52,97.07Z"/><path class="cls-1" d="M39.71,165.66a29.45,29.45,0,0,1,4-.78c2-.1,4.09,0,6.13.05a11.89,11.89,0,0,0,10-4.9,15.5,15.5,0,0,1,3.63-3.25,7.22,7.22,0,0,0,1.87-2.06c.44-.74-.5-2.6-1.41-2.86s-2.12-.44-3.19-.66a21.8,21.8,0,0,0-3.94-.78,41.29,41.29,0,0,0-5.54.48c-3.54.42-5.23,3.57-7.66,5.55a12.33,12.33,0,0,0-4.43,6.3C38.88,164,38.85,165,39.71,165.66Z"/><path class="cls-1" d="M198.22,41.17a45.24,45.24,0,0,0-5.52.87c-3.53.67-5,3.91-7.26,6a12.22,12.22,0,0,0-4,6.56c-.25,1.29-.2,2.28.71,2.84a32,32,0,0,1,4-1.06c2-.23,4.1-.26,6.16-.38A11.93,11.93,0,0,0,202,50.47"/><path class="cls-1" d="M167.31,148.94a15.68,15.68,0,0,1,1.61,1.75c.67,1,1.23,2,1.84,3a6.88,6.88,0,0,0,5.45,3.44,9,9,0,0,1,2.7.79,3.86,3.86,0,0,0,1.58.29c.5,0,1.12-1,1-1.55s-.42-1.18-.64-1.77a12,12,0,0,0-.82-2.17,24,24,0,0,0-1.92-2.58c-1.28-1.61-3.34-1.48-5.05-2.08a7.21,7.21,0,0,0-4.44-.26C167.86,148,167.36,148.33,167.31,148.94Z"/><path class="cls-1" d="M148.29,33c-1.23-.57-2.27-1.08-3.34-1.54A11,11,0,0,0,134,33a4.46,4.46,0,0,0-1.24,2.24c-1.34,4.79.28,10.8,7.14,12.2a14.47,14.47,0,0,0,1.73.27c2.73.27,5-.09,6.86-2.64,2.7-3.8,3-6.14.52-10.18A8.92,8.92,0,0,1,148.29,33Z"/><path class="cls-1" d="M87.35,192.8c2.16-2.2,3.84-4.53,6.09-6.05s1.76-3.81,2.63-5.7c.43-.94.57-2.11,1.24-2.82,1-1.08.71-2.1.42-3.21-.24-.93-.58-1.84-.75-2.78-.32-1.71-.89-3.41-2.68-3.86a5.72,5.72,0,0,0-5.24,1.27c-3.47,3.2-5.86,7-5.83,11.93a48.25,48.25,0,0,0,.07,6.59C83.81,191.78,84,191.76,87.35,192.8Z"/><path class="cls-1" d="M90.13,30.55l-1.78-.21c3.09-3.85,2.38-3.68,1.34-8.49-4.21,1.61-8.78,2.3-11.75,6.22-.6.79-1.9,1.14-2.32,2-1.52,3-3.89,5.56-4.79,9-.53,2-.8,3.57,1.28,5.08H75.7c.42-.46.89-1.46,1.51-1.56,2.24-.35,3.86-1.82,5.69-2.85A10.8,10.8,0,0,0,85.4,37a11.22,11.22,0,0,0,2.32-3A7.81,7.81,0,0,1,90.13,30.55Z"/><path class="cls-1" d="M154.94,181c1.05-1.52.65-3.08.31-4.59-.25-1.07-.45-2.24-1.6-2.85,0,0-.05-.08-.07-.13-.68-1.8-2.38-2.6-3.7-3.75a2.25,2.25,0,0,0-3.39.6,1.82,1.82,0,0,0-.19,1.2,17.65,17.65,0,0,0,2.23,5.71,1.07,1.07,0,0,0,.28.37,26.39,26.39,0,0,1,3.8,3C153.42,180.32,154.09,180.92,154.94,181Z"/><path class="cls-1" d="M104.5,3.3c-2.2.13-4.38,0-5.85,2.34C97.52,7.46,96,9,95.78,11.27a13.68,13.68,0,0,1-1.25,4.37,4.43,4.43,0,0,0,.17,3.66,21.17,21.17,0,0,0,4,7.12c2.6-1,4.91-1.94,5.78-4.75.2-.63,1-1.09,1.48-1.6l-.56-2.92,1.55.12C106.94,12.47,107.87,7.52,104.5,3.3Z"/><path class="cls-1" d="M62.51,89.26c.37.56.67,1.51,1.1,1.58,1,.15,1.31.77,1.91,1.42a9.75,9.75,0,0,0,6.13,3.55A9.1,9.1,0,0,1,75,96.88c1.41.8,2.64.32,3.91-.14.52-.19,1-.65,1.48-.8a3.19,3.19,0,0,0,2.21-3.17,3.52,3.52,0,0,0-2.26-3.19A64.18,64.18,0,0,0,73.2,87a24.68,24.68,0,0,0-5-.69c-1.56-.11-3,.07-3.91,1.74C64,88.56,63.28,88.77,62.51,89.26Z"/><path class="cls-1" d="M15.88,26.42,14,28.81a23.2,23.2,0,0,0,5.89,12.56c.81.91.73,2.4,2.47,2.72,1,.19,1.16,2.29,2.86,1.8.3,1.73,1.55,1.34,2.8,1.41,3,.17,4.66-1.8,3.75-4.62-.62-1.9-1.05-3.85-1.64-5.76-.48-1.59-.83-3.32-3.07-3.46-.42,0-.82-.48-1.23-.73-1.31-.79-2.65-1.54-3.92-2.39-1.11-.75-2.11-1.66-3.22-2.4A30.13,30.13,0,0,0,15.88,26.42Z"/><path class="cls-1" d="M64.46,20.71c-.14.59-.57,1.31-.39,1.84A19.76,19.76,0,0,0,66,26.76c.25.4,1.25.42,1.92.46.87,0,5.55-3.5,5.77-4.33.55-2,1-4.1,1.61-6.14A9.75,9.75,0,0,1,76.16,15L72.55,5.83c-2.91-.18-5,.66-6.41,3s-3.45,4.47-3.54,7.42a11.74,11.74,0,0,0,.47,3.43C63.18,20.09,63.88,20.31,64.46,20.71Z"/><path class="cls-1" d="M160.36,155.21c-1.26.13-2.54.18-3.78.43-3.21.66-4.5,3.31-2.82,6.19a14.8,14.8,0,0,0,8.3,6.49c1.61-1,3.75,1.25,5.18-.85,1.86.9,3.08-.54,4.37-1.33,2.47-1.5,2.59-4.13.29-5.94A21.86,21.86,0,0,0,160.36,155.21Z"/><path class="cls-1" d="M57.63,105.23l.92,1c1.47,1,3,1.82,4.39,2.91,1.83,1.44,2.23,1.47,3.8-.41.15-.18.36-.3.28-.23a21.16,21.16,0,0,0,.21-3.93A7.18,7.18,0,0,0,66,101c-1.58-1.85-2.49-4.45-5.23-5.14-1.43-1.87-3.3-1.14-5.22-1a10.62,10.62,0,0,0,.59,7C56.63,103,57.14,104.12,57.63,105.23Z"/><path class="cls-1" d="M167.75,36c1.85-1.5,3.51-2.75,5-4.14.33-.31,1.72-.91.24-1.69a.42.42,0,0,1,0-.38c1.86-1.83,1.76-4.27,1.92-6.58a12.58,12.58,0,0,0-.84-6.27c-.58-1.25-1.27-2.44-2.11-4-.6.37-1.77.82-1.73,1.1.19,1.4-.77,2-1.51,2.7-4.1,4-5.23,9.08-5.09,14.57a14.59,14.59,0,0,0,.9,3.09C165.05,36.17,166.93,35.23,167.75,36Z"/><path class="cls-1" d="M198.43,141.38a.43.43,0,0,1-.38,0c-1.41-2.2-3.82-2.6-6.05-3.23a12.63,12.63,0,0,0-6.31-.45c-1.34.32-2.65.75-4.37,1.24.23.67.44,1.91.72,1.93,1.4.09,1.78,1.16,2.34,2,3.08,4.82,7.82,7,13.22,7.94a13.62,13.62,0,0,0,3.21-.25"/><path class="cls-1" d="M203.36,81.21C202,79,199.54,78.62,197.31,78a12.51,12.51,0,0,0-6.31-.45c-1.34.31-2.64.74-4.37,1.24.24.66.44,1.91.72,1.92,1.41.09,1.78,1.16,2.34,2,3.08,4.83,7.82,7,13.22,7.94"/><path class="cls-1" d="M126,7.19a4.87,4.87,0,0,0-3.9.64,44.54,44.54,0,0,1-6.74,4c-1.44.62-1.56,1.9-2.42,2.76a26.26,26.26,0,0,0-2.87,3.45,3.68,3.68,0,0,0-.24,1.7c-.07,1.06-.11,2.13-.15,3.11a4.47,4.47,0,0,0,5.64.93,11.38,11.38,0,0,1,2.67-.5,3.43,3.43,0,0,0,1.32-.48c.92-.67,1.77-1.43,2.95-2.39l-.89-.45c.09-.18.12-.4.25-.49.74-.54,1.51-1.06,2.26-1.59-1-1.39,1.47-.87,1.1-2.07a11.65,11.65,0,0,1-.11-2.72c0-.18-.19-.37-.15-.53C125.1,10.85,125.53,9.09,126,7.19Z"/><path class="cls-1" d="M181.32,35.52a4.89,4.89,0,0,0-3.91.64,44,44,0,0,1-6.74,4c-1.44.62-1.56,1.9-2.42,2.76a25.63,25.63,0,0,0-2.87,3.45,3.66,3.66,0,0,0-.24,1.69c-.07,1.07-.1,2.14-.15,3.12a4.5,4.5,0,0,0,5.64.93,11.46,11.46,0,0,1,2.68-.5,3.3,3.3,0,0,0,1.31-.49c.92-.66,1.77-1.42,2.95-2.39l-.89-.44c.09-.19.12-.4.25-.49.74-.55,1.51-1.06,2.27-1.59-1-1.39,1.46-.88,1.1-2.07a11.13,11.13,0,0,1-.12-2.72c0-.18-.19-.37-.15-.53C180.43,39.17,180.86,37.42,181.32,35.52Z"/><path class="cls-1" d="M115.28,74.12l1.11-2.84c-5.41-2.31-11.09-4-17.34-3.76a15.48,15.48,0,0,0-5,1.23c-1.7.67-1.85,1.88-.37,2.83A34,34,0,0,0,99,74.29a19.06,19.06,0,0,0,3.92,1c1.08.19,2.22.8,3.33,0a1.18,1.18,0,0,1,.85-.08C110.23,76.37,112.72,74.48,115.28,74.12Z"/><path class="cls-1" d="M48,119c-6.94-4.07-13.67-3.53-20.4.57a11.11,11.11,0,0,0,4.75,4.7,14.61,14.61,0,0,0,9.17,2.2,28.71,28.71,0,0,0,5.9-1.37c1.27-.41,1.82-2.26,1.37-3.76C48.51,120.4,48.19,119.52,48,119Z"/><path class="cls-1" d="M169.62,104c-1.39,7.88,1.49,13.93,7.74,18.72a11.06,11.06,0,0,0,2.76-6.07,14.32,14.32,0,0,0-1.16-9.28,28.26,28.26,0,0,0-3.38-5c-.83-1-2.77-.89-4,.07C170.79,103,170.07,103.59,169.62,104Z"/><path class="cls-1" d="M6.14,124c8.77,1.19,15.69-3.13,16.51-10.31-2-1.94-4.54-1.35-6.86-1.25a23.81,23.81,0,0,0-5.57,1.44,2.3,2.3,0,0,0-1.1.91c-1.37,2-2.68,4.14-4,6.24Z"/><path class="cls-1" d="M87,114.29c-.32.46-.57,1.25-1,1.33-2.45.5-4.72,1.18-5.62,4.16,1,1.55,1.24,3.93,3,5.87,2,2.23,4.09,2.49,6.74,2.26,2.1-.18,3.94-.83,4.1-2.93.12-1.61,1.11-2.34,1.82-3.42-.14-2.4-2.33-3.41-3.59-5-.4-.53-1.55-.5-2.37-.7-1.16-.3-2.65.07-3.18-1.53Z"/><path class="cls-1" d="M106.17,92.5a5.27,5.27,0,0,0,.68,2.1,78.71,78.71,0,0,0,5.61,6.75c1.33,1.4,2,1.2,2.88-.53a17.47,17.47,0,0,0,2-5.72c.22-1.56,1-3.07.09-4.53a19.34,19.34,0,0,0-6-6.68c-.8-.51-1.58-.51-2.07.25C107.78,86.5,106.17,88.87,106.17,92.5Z"/><path class="cls-1" d="M39.61,85.09a5.76,5.76,0,0,0,7.59-.44c2.89-2.68,3.74-6.28,4.81-9.8.68-2.24.69-2.23-.5-4.47-1.31.07-2.91-.25-4.07.32A14.08,14.08,0,0,0,40.72,77c-.82,1.63-1.64,3.18-.9,5.16C40.13,83,39.7,84.12,39.61,85.09Z"/><path class="cls-1" d="M169.26,71.41a5.74,5.74,0,0,0,7,3c3.81-1.07,6.22-3.88,8.8-6.53,1.64-1.68,1.65-1.67,1.61-4.21-1.19-.52-2.47-1.53-3.76-1.56a14.25,14.25,0,0,0-8.9,2.59c-1.48,1.08-2.92,2.08-3.17,4.19C170.68,69.8,169.79,70.59,169.26,71.41Z"/><path class="cls-1" d="M85.13,108.53h-.08c2,.63,3.09-1.13,4.36-2s1.25-2.08.8-3.91c-.41-.06-1,0-1.27-.22a4.56,4.56,0,0,0-5.27-.72,13,13,0,0,1-2.28.52,10.06,10.06,0,0,0-5.75,3.87c.29.87.74,2.35,2,2.23s2.4.44,3.59.49A35.09,35.09,0,0,0,85.13,108.53Z"/><path class="cls-1" d="M143.47,87.3c-.16,3.36-.39,6.46-.39,9.57a3.45,3.45,0,0,0,1.08,2.54c2.15,1.49,4.5,2.7,6.85,4.07,2-3.12,2.13-6.36,2-9.55-.12-2.18-4.38-6.4-6.59-6.8A15,15,0,0,0,143.47,87.3Z"/><path class="cls-1" d="M198.91,175.06c1.61-7.83-7.52-14.7-13.08-14.57.55,8.83,4.6,14.62,13.08,14.57"/><path class="cls-1" d="M160.9,40.67a29.57,29.57,0,0,0,1.29-3.78,8.57,8.57,0,0,0-.11-2.76c-.43-3.61-3-5.56-5.94-7-1.06-.54-2.57-.19-3.8-.25C150,35.1,154.18,40.91,160.9,40.67Z"/><path class="cls-1" d="M159,58.14a7.59,7.59,0,0,0-4-6.25,21.62,21.62,0,0,0-2.91-2,8.73,8.73,0,0,0-5.92-.06c-.47.12-1.16,1.07-1,1.42.81,2.52.85,5.64,4,6.71C152.89,59.22,156,60.65,159,58.14Z"/><path class="cls-1" d="M120.64,28c2.24,2.69,5,3.42,8.06,3.51.72,0,1.68.22,1.65-1.05,0-.14.43-.43.57-.38,1.15.39,2-.22,3-.66,2.29-1,2.5-1.09,2-3.33a1.44,1.44,0,0,0-.57-.93c-2.23-1.05-4.41-2.52-7-2.18A9.5,9.5,0,0,0,120.64,28Z"/><path class="cls-1" d="M157,72.08a35.85,35.85,0,0,0-3.91-1c-1.63-.25-2.88.56-4.07,1.67a11.73,11.73,0,0,0-4.09,8.1C150.45,80.26,155.16,78.67,157,72.08Z"/><path class="cls-1" d="M62.77,167a38.27,38.27,0,0,0-3.91-1c-1.63-.25-2.89.56-4.07,1.67a11.65,11.65,0,0,0-4.09,8.1C56.23,175.13,60.94,173.55,62.77,167Z"/><path class="cls-1" d="M36.78,131c.9,1.06,1.39,1.63,2,2.36,2.69-1,5.6-.68,8.45-.26a163.23,163.23,0,0,0,18.47,1.37,16.69,16.69,0,0,0,2.39-.43c-1.23-2.63-3.53-4.05-4.68-6.5-1.78-3.79-10.78-7.63-12.94-11.26a39.44,39.44,0,0,1-5.37-13.63c-.38-2.27-1.39-4.27-1.77-6.47,0-.23-.29-.42-.71-1l2.18.69c.12.86.24,1.68.35,2.45l3.12.49c.17.74.11,1.58.5,2,2.2,2.3,4.51,4.5,6.79,6.73l1.11,1.22c6.07,7,13.61,12.54,20.37,18.85,6.28,5.87,18.2,15.34,26,18.72,1.2.52,2.66.4,3.93.8,1.74.54,2.14.43,2.3-1.25a12.31,12.31,0,0,0,0-2.35c-1-9.84-8.26-25-12.57-33.83a9.64,9.64,0,0,1-1.22-6c-2-.28-2.67-1.76-3.23-3.35S91,97,90.37,95.41c-.55-1.35-1.39-2.6-1.81-4-1.61-5.39-1.68-6-7-6.2-3.74-.16-6.16-1.84-8.56-4.15-.78-.75-1.67-1.39-2.47-2.12a27,27,0,0,1-7.47-10.63c1.77.47,3.2.52,4.2,1.18a29,29,0,0,1,5.22,4.33,8.45,8.45,0,0,0,6.68,2.57c2.25,0,3.12-1.25,2.18-3.24-1.51-3.22-3.13-6.35-3.79-9.94C77,60,75.79,56.84,74.89,53.64a11,11,0,0,1,0-2.18,35.13,35.13,0,0,1,3.52,2.72c3.1,3.13,6.21,6.22,8.14,10.32s4.06,8.07,6.3,12c2.49,4.35,5,8.71,7.87,12.8,3.36,4.79,9.57,19.79,11.69,25.2.89,2.26,1.91,4.47,2.87,6.7.13.31.42.64.38.92a5.91,5.91,0,0,0,2,5.12,5.22,5.22,0,0,1,1.61,3.33,19.93,19.93,0,0,0,1.17,3.75c1.67-1.49,1.63-11.35,1.89-12.94a78.16,78.16,0,0,0,1-9c.27-6.06.35-11.62.29-17.69-.08-7.24-.49-14.48-.83-21.72-.15-3.12-2.6-8.4-3.22-11.44a77.78,77.78,0,0,0-4.2-14.58c-1-2.27-.87-4.81-1.71-7.16a43.47,43.47,0,0,1-1.33-5.6c-.16-.74-.26-1.5-.39-2.25,2.34,1,4.71,1.22,6.19,3.17,1.31,1.72,2.83,3.28,4.2,5,5.34,6.47,6.41,24,7.82,32.31.26,1.53.62,3,1,4.73,1.08-.86,2.06.2,3.33-.75s1.37-1.95,1.74-3c1.07-3,3.62-13.46,6.64-16.18,2,5,2.41,7.65,1.61,13.43-.15,1.11.74,2.12-.16,3.36s-1,2.74-1.54,4.08a35.17,35.17,0,0,1-2.76,5.81c-1.12,1.69-.86,4.23-3.34,5,.19.82-2.13,3.46-2.29,4-.85,2.91,1.12,5.59.62,8.45,1.67,3.26-.25,15.76,1.42,19a.33.33,0,0,1-.08.27c-1.22,1.32-.6,2.7-.18,4.08a6.67,6.67,0,0,1,.44,1.92c-.05,2.68-.2,5.35-.32,8.29a9.87,9.87,0,0,0,2.34-1.42c3.19-3.6,6.6-7.06,8.41-11.65,1.4-3.55,5.27-17.79,6.42-21.41a147.77,147.77,0,0,0,4.28-15.68c.84-4.19.83-8.54,1.22-12.82.22-2.31.44-4.63.74-6.93.05-.43.47-.81.77-1.3a26.08,26.08,0,0,1,1.13,2.36,44.86,44.86,0,0,1,2.25,6.81c1,5.79,1.8,11.64,2.67,17.46,1,6.86-.21,13.45-2.39,19.93-1,2.91-2.31,5.77-2.82,8.76a16.1,16.1,0,0,1-1.5,5.43c-1.56,2.79-2.81,5.73-4.29,8.56-4.19,8-8.35,16.1-12.71,24.05-1.16,2.12-1.6,4.48-2.86,6.6-.84,1.42-.08,3.78,0,5.72.12,2.3.32,4.6.45,6.9.09,1.74-.26,3.61.27,5.19a11.75,11.75,0,0,1-.28,7.77,5.49,5.49,0,0,0-.27,2q.23,4.5.54,9c.33,4.75-.88,9.5.14,14.31a14.29,14.29,0,0,1,.15,4.52,13.79,13.79,0,0,0,.18,4.68,3.71,3.71,0,0,1-.08.87c-.05,1.77-.42,3.61-.05,5.28a44.89,44.89,0,0,1,1,9.93,2.56,2.56,0,0,1-1.6,2.54c-1.14.57,1.23,7,.35,7.86-2.91,2.79-.74,14.54,0,18.48,2.07,11.61,1.55,7,1.55,11.68a68.72,68.72,0,0,1-8.94.81c-2.81-2.5-5.54-8.87-8.25-8.79-.72,0-1.39-2.95-2.35-3-2.54-.22.3-2.89-2.24-3a5.77,5.77,0,0,1-3.53-2c-.12-.12-.31-2.69-.67-2.58l-5.47-4.34c.09-.22-3-3.19-3.11-3.41-1.34-4,3.15,3.76-1.06-1.91-.25-4.58-.73-5.93.42-13.4.71-4.63,1.82-9.24,2.07-13.89.45-8.11.34-16.24.55-24.37,0-1.34.77-2.7.66-4a37.46,37.46,0,0,1-.14-5.41c.27-4.12,0-8.26,1-12.36.29-1.24-6.06-10.15-7.15-11.25a36.64,36.64,0,0,0-6.42-5C95.15,161,93.14,159,90.69,158c-2.68-1.07-4.08-3.93-7-4.36-2.4-3.2-4.13-7.28-7.06-9.53-3.67,1.51-4,1.52-8.15.67a10.89,10.89,0,0,0-2.06-.19c-4.5-.1-9.13.24-13.21-1.71-4.59-2.19-10.4-3.44-14.33-6.58A5.31,5.31,0,0,1,36.78,131Z"/></g></g></svg>